<svg preserveAspectRatio="none" width="100%" height="100%" overflow="visible" style="display: block;" viewBox="0 0 197 62" fill="none" xmlns="http://www.w3.org/2000/svg">
<g id="Group">
<path id="Vector" d="M56.5238 19.7048C54.8948 10.9345 42.5065 5.88487 28.6787 8.20086L28.0346 0L23.8294 9.3019C20.9881 10.1372 18.3362 11.2382 15.9873 12.5671C15.0781 10.9345 13.3354 9.83344 11.3654 9.83344C8.44827 9.83344 6.06154 12.2254 6.06154 15.1488C6.06154 16.8194 6.81923 18.338 8.03154 19.2872C5.68269 22.4005 4.62192 25.8555 5.26596 29.2345C5.87212 32.4997 7.99365 35.2713 11.1381 37.3215L0 62H11.1002L19.5863 40.6626C20.3062 40.8145 21.026 40.9284 21.7458 41.0423L14.3962 62H19.7L24.0567 41.2321C24.5113 41.2701 24.966 41.2701 25.4206 41.308L35.119 62H49.25L34.2098 40.5487C48.1892 37.853 58.1529 28.5511 56.5238 19.7048ZM8.52404 26.7287C8.10731 24.5646 8.75135 22.4005 10.191 20.3882C10.5698 20.4642 10.9487 20.5021 11.3654 20.5021C14.2825 20.5021 16.6692 18.1102 16.6692 15.1868V15.0729C18.3362 14.2376 20.1546 13.5162 22.1625 13.0227L13.2975 32.6136C10.7213 31.2088 8.97865 29.1966 8.52404 26.7287ZM29.6258 34.0184L27.7694 31.3987L27.0117 34.5119C26.4813 34.5879 25.9131 34.6638 25.3827 34.7018L27.5042 24.5646L23.9052 34.8157C23.2233 34.8536 22.5413 34.8536 21.8973 34.8157L29.2848 16.2119L28.9817 12.1115C36.6344 11.9976 42.8475 15.1868 43.7567 20.1984C44.8175 25.8555 38.5665 31.8543 29.6258 34.0184ZM76.7542 39.5236L78.9515 44.2694L74.1402 44.2315L72.246 40.131H67.5483L66.2223 44.2315L61.3352 44.2694L65.7677 30.4874H76.0344C77.5119 30.4874 78.8379 30.7152 80.0123 31.1708C81.5656 31.7783 82.3612 32.7275 82.3612 33.9804C82.3612 34.3601 82.2854 34.7018 82.1717 35.1194C81.4519 37.1317 79.6713 38.6124 76.7542 39.5236ZM76.7542 34.7397C76.7542 34.1323 76.4512 33.6767 75.8829 33.335C75.4283 33.0312 74.86 32.9173 74.1402 32.9173H69.8214L68.2302 37.8151H72.7385C73.2688 37.8151 73.8371 37.7012 74.4812 37.4734C75.6177 37.0557 76.3375 36.4103 76.6406 35.4611C76.7163 35.1953 76.7542 34.9675 76.7542 34.7397ZM101.758 30.5254L100.963 32.9173H93.1583C92.0596 32.9173 91.0746 33.2211 90.1275 33.8285C89.1804 34.436 88.4985 35.2333 88.006 36.1825H99.9396L99.1441 38.6124H87.2483C87.2104 39.6754 87.5135 40.5107 88.1196 41.0802C88.6879 41.6118 89.4456 41.9155 90.3927 41.9155H98.0833L97.2877 44.2694H88.9531C87.0967 44.2694 85.5435 43.8898 84.2933 43.1684C82.7779 42.2952 82.0581 41.0802 82.0581 39.4476C82.0581 38.8402 82.1717 38.2327 82.399 37.5493C83.3083 34.6258 85.4298 32.5756 88.7637 31.3987C90.4685 30.7912 92.0596 30.4495 93.5371 30.4495L101.758 30.5254ZM120.89 30.5254L120.094 32.9173H111.267C110.661 32.9173 110.093 32.9933 109.524 33.1451C108.464 33.4109 107.858 33.8665 107.63 34.474C107.554 34.5879 107.554 34.7397 107.554 34.8536C107.554 35.3472 107.933 35.7269 108.653 35.9547C109.146 36.1065 109.714 36.1825 110.358 36.1825H112.707C114.033 36.1825 115.207 36.3723 116.23 36.752C117.708 37.2835 118.427 38.0808 118.427 39.1439C118.427 39.4097 118.389 39.7134 118.314 40.0171C117.783 41.6497 116.23 42.8647 113.692 43.586C112.366 43.9657 111.153 44.1935 109.979 44.2315L99.5608 44.2694L100.318 41.8775H109.183C109.79 41.8775 110.396 41.8016 110.964 41.6497C111.987 41.384 112.631 40.9284 112.858 40.3209C112.896 40.207 112.896 40.0551 112.896 39.9412C112.896 39.4476 112.517 39.068 111.798 38.8402C111.305 38.6883 110.737 38.6124 110.093 38.6124H107.63C106.342 38.6124 105.168 38.4225 104.107 38.0429C102.629 37.5113 101.91 36.714 101.91 35.613C101.91 35.3472 101.948 35.0435 102.023 34.7397C102.554 33.0692 104.069 31.8922 106.607 31.1329C107.933 30.7532 109.146 30.5254 110.32 30.4874H120.89V30.5254ZM123.618 44.2694L118.73 44.3074L123.125 30.5254H133.392C134.869 30.5254 136.195 30.7532 137.37 31.2088C138.923 31.8163 139.718 32.7655 139.718 34.0184C139.718 34.398 139.643 34.7397 139.529 35.1574C138.885 37.1696 137.142 38.6124 134.301 39.4856C132.786 39.9412 131.422 40.169 130.172 40.169H124.943L123.618 44.2694ZM125.701 37.8151H130.172C130.702 37.8151 131.27 37.7012 131.914 37.4734C133.051 37.0557 133.771 36.4103 134.074 35.4611C134.149 35.1953 134.187 34.9675 134.187 34.7397C134.187 34.1323 133.884 33.6767 133.316 33.335C132.861 33.0312 132.293 32.9173 131.573 32.9173H127.292L125.701 37.8151ZM159.191 30.5254L158.396 32.9173H150.591C149.493 32.9173 148.508 33.2211 147.561 33.8285C146.613 34.436 145.932 35.2333 145.439 36.1825H157.373L156.577 38.6124H144.681C144.643 39.6754 144.947 40.5107 145.553 41.0802C146.121 41.6118 146.879 41.9155 147.826 41.9155H155.516L154.721 44.2694H146.386C144.53 44.2694 142.977 43.8898 141.726 43.1684C140.211 42.2952 139.491 41.0802 139.491 39.4476C139.491 38.8402 139.605 38.2327 139.832 37.5493C140.741 34.6258 142.863 32.5756 146.197 31.3987C147.902 30.7912 149.493 30.4495 150.97 30.4495L159.191 30.5254ZM177.3 30.5254L176.504 32.9173H168.7C168.018 32.9173 167.261 33.1072 166.389 33.4868C164.76 34.2082 163.662 35.4991 163.093 37.3215C162.904 37.891 162.828 38.4225 162.828 38.9161C162.828 39.8273 163.093 40.5107 163.624 41.0802C164.154 41.6118 164.95 41.8775 165.935 41.9155H173.625L172.83 44.3074H164.495C162.639 44.3074 161.085 43.9277 159.835 43.2064C158.32 42.3331 157.6 41.1182 157.6 39.4856C157.6 38.8781 157.714 38.2707 157.941 37.5873C158.85 34.6638 160.972 32.6136 164.306 31.4366C166.01 30.8291 167.602 30.4874 169.079 30.4874L177.3 30.5254ZM197 30.5254L196.242 32.9173H189.802L186.165 44.2694L181.24 44.3074L184.915 32.9173H178.474L179.232 30.5254H197Z" fill="var(--fill-0, #004098)"/>
<g id="Group_2">
<path id="Vector_2" d="M82.7779 48.218L81.9823 50.6099H74.1781C72.0944 50.6099 70.3517 51.711 69.0258 53.8751H80.9594L80.1638 56.267H68.0408L66.2223 61.962L61.2973 62L63.4188 55.3178C64.3281 52.3944 66.4496 50.3441 69.7835 49.1292C71.4883 48.5217 73.0794 48.218 74.5569 48.218H82.7779ZM100.697 49.319C102.213 50.1543 102.933 51.4072 102.933 53.0018C102.933 53.6093 102.819 54.2168 102.592 54.9002C101.644 57.8236 99.5229 59.8739 96.189 61.0508C94.4842 61.6583 92.8931 61.962 91.4156 61.962H88.8015C86.9452 61.962 85.3919 61.5824 84.1417 60.823C82.7021 59.9498 81.9444 58.6969 81.9444 57.0643C81.9444 56.4189 82.0581 55.7355 82.2854 55.0141C83.1946 52.2045 85.2783 50.2302 88.5742 49.0533C90.279 48.4458 91.8702 48.1421 93.3477 48.1421H95.9996C97.856 48.218 99.4092 48.5597 100.697 49.319ZM97.7423 53.6093C97.7423 52.6981 97.4771 51.9767 96.9088 51.4452C96.3785 50.9137 95.5829 50.6479 94.5979 50.6479H93.0067C92.3248 50.6479 91.5292 50.8377 90.6958 51.2174C89.0667 51.9767 87.9681 53.2676 87.3998 55.0521C87.2104 55.6216 87.1346 56.1531 87.1346 56.6467C87.1346 57.5579 87.3998 58.2413 87.9681 58.8108C88.4985 59.3423 89.294 59.6081 90.279 59.6081H91.8702C92.59 59.6081 93.3477 59.4182 94.1812 59.0386C95.8102 58.3172 96.9088 57.0263 97.4771 55.2039C97.6286 54.6344 97.7423 54.1029 97.7423 53.6093ZM117.215 57.2541L119.412 62L114.601 61.962L112.707 57.8616H108.009L106.683 61.962L101.796 62L106.228 48.218H116.495C117.973 48.218 119.299 48.4458 120.473 48.9014C122.026 49.5089 122.822 50.4581 122.822 51.711C122.822 52.0906 122.746 52.4323 122.633 52.85C121.951 54.8622 120.17 56.305 117.215 57.2541ZM117.253 52.4703C117.253 51.8628 116.95 51.4072 116.382 51.0655C115.927 50.7618 115.359 50.6479 114.639 50.6479H110.32L108.729 55.5456H113.199C113.73 55.5456 114.298 55.4317 114.942 55.2039C116.078 54.7863 116.798 54.1408 117.101 53.1917C117.215 52.9259 117.253 52.6601 117.253 52.4703ZM142.598 48.218L141.802 50.6099H133.998C133.316 50.6099 132.558 50.7998 131.687 51.1794C130.058 51.9008 128.959 53.1917 128.391 55.0141C128.202 55.5836 128.126 56.1151 128.126 56.6087C128.126 57.5199 128.391 58.2033 128.921 58.7728C129.452 59.3043 130.247 59.5701 131.232 59.6081H138.923L138.127 62H129.793C127.936 62 126.383 61.6203 125.133 60.899C123.617 60.0257 122.898 58.8108 122.898 57.1782C122.898 56.5707 123.011 55.9633 123.239 55.2799C124.148 52.3564 126.269 50.3062 129.603 49.1292C131.308 48.5217 132.899 48.18 134.377 48.18L142.598 48.218ZM161.123 48.218L160.328 50.6099H152.523C151.425 50.6099 150.44 50.9137 149.493 51.5211C148.546 52.1286 147.864 52.9259 147.371 53.8751H159.305L158.509 56.305H146.613C146.576 57.368 146.879 58.2033 147.485 58.7728C148.053 59.3043 148.811 59.6081 149.758 59.6081H157.448L156.653 61.962H148.318C146.462 61.962 144.909 61.5824 143.658 60.861C142.143 59.9878 141.423 58.7728 141.423 57.1402C141.423 56.5328 141.537 55.9253 141.764 55.2419C142.673 52.3184 144.795 50.2682 148.129 49.0912C149.834 48.4838 151.425 48.1421 152.902 48.1421L161.123 48.218Z" fill="var(--fill-0, #004098)"/>
</g>
</g>
</svg>
