<svg width="37" height="60" viewBox="0 0 37 60" fill="none" xmlns="http://www.w3.org/2000/svg">
<path d="M20.957 2.49902C20.957 1.11831 19.8377 -0.000976624 18.457 -0.000976563C17.0763 -0.000976501 15.957 1.11831 15.957 2.49902L20.957 2.49902ZM16.6893 58.7678C17.6656 59.7441 19.2485 59.7441 20.2248 58.7678L36.1347 42.8579C37.111 41.8816 37.111 40.2986 36.1347 39.3223C35.1584 38.346 33.5755 38.346 32.5992 39.3223L18.457 53.4645L4.31489 39.3223C3.33858 38.346 1.75567 38.346 0.779359 39.3223C-0.196952 40.2986 -0.196952 41.8816 0.779359 42.8579L16.6893 58.7678ZM15.957 2.49902L15.957 57L20.957 57L20.957 2.49902L15.957 2.49902Z" fill="#439FDB"/>
</svg>
