<svg width="16" height="16" viewBox="0 0 16 16" fill="none" xmlns="http://www.w3.org/2000/svg">
<circle cx="7.7229" cy="7.7229" r="7.2229" stroke="#E7C54A"/>
<path d="M7.10792 9.38667C7.0686 9.11145 7.08265 8.86713 7.15005 8.6537C7.22306 8.44026 7.32416 8.2493 7.45335 8.0808C7.58253 7.90668 7.71452 7.7438 7.84932 7.59215C7.98412 7.4405 8.09926 7.29166 8.19474 7.14562C8.29023 6.99959 8.33797 6.84513 8.33797 6.68225C8.33797 6.54183 8.30708 6.42108 8.24529 6.31998C8.18913 6.21326 8.10769 6.13182 8.00097 6.07565C7.89987 6.01949 7.77349 5.9914 7.62184 5.9914C7.4365 5.9914 7.268 6.03634 7.11635 6.1262C6.9647 6.21045 6.82147 6.32559 6.68667 6.47163L5.99582 5.83975C6.21487 5.587 6.47324 5.38199 6.77092 5.22473C7.07422 5.06746 7.40841 4.98883 7.77349 4.98883C8.11049 4.98883 8.41099 5.0478 8.67497 5.16575C8.94457 5.2837 9.15519 5.46344 9.30684 5.70495C9.45849 5.94085 9.53432 6.23854 9.53432 6.598C9.53432 6.83952 9.48377 7.05295 9.38267 7.2383C9.28718 7.42365 9.16643 7.59777 9.02039 7.76065C8.87998 7.91791 8.73956 8.07518 8.59914 8.23245C8.46434 8.38971 8.35482 8.56102 8.27057 8.74637C8.18632 8.93172 8.15824 9.14515 8.18632 9.38667H7.10792ZM7.65554 11.6277C7.43088 11.6277 7.24553 11.5491 7.0995 11.3918C6.95346 11.2345 6.88045 11.0436 6.88045 10.8189C6.88045 10.583 6.95346 10.3892 7.0995 10.2376C7.24553 10.0859 7.43088 10.0101 7.65554 10.0101C7.87459 10.0101 8.05714 10.0859 8.20317 10.2376C8.3492 10.3892 8.42222 10.583 8.42222 10.8189C8.42222 11.0436 8.3492 11.2345 8.20317 11.3918C8.05714 11.5491 7.87459 11.6277 7.65554 11.6277Z" fill="#E7C54A"/>
</svg>
