<svg width="36" height="36" viewBox="0 0 36 36" fill="none" xmlns="http://www.w3.org/2000/svg">
<g clip-path="url(#clip0_174_836)">
<path d="M34.9363 29.8012L28.9346 23.7994C28.6 24.3143 28.2385 24.8104 27.8524 25.286L25.6387 23.0722C25.7341 22.9477 25.8285 22.8222 25.9209 22.6946C25.9831 22.6084 26.0444 22.5223 26.1034 22.4352C26.1138 22.4217 26.1231 22.4072 26.1326 22.3937C26.1927 22.3055 26.2529 22.2163 26.311 22.1271C26.4376 21.9341 26.5589 21.7391 26.6752 21.5399C27.9191 19.4183 28.6338 16.9491 28.6338 14.317C28.6338 11.685 27.9191 9.21586 26.6752 7.09425C25.4312 4.97468 23.6592 3.20273 21.5397 1.95877C19.4181 0.714797 16.949 0 14.3169 0C11.6849 0 9.21572 0.714797 7.09411 1.95877C7.00699 2.0096 6.92086 2.06149 6.83473 2.11542C6.72476 2.18285 6.61479 2.25239 6.50686 2.32291C6.31498 2.44842 6.12513 2.57815 5.93944 2.71301C5.87714 2.75759 5.81597 2.80329 5.75473 2.84892C5.69046 2.89772 5.62612 2.94645 5.56179 2.99524C5.50266 3.04193 5.44247 3.08862 5.38334 3.13629C5.26711 3.22966 5.15201 3.32409 5.03887 3.42162C4.45795 3.91641 3.91641 4.45795 3.42155 5.03895C3.32402 5.15201 3.22959 5.2662 3.13622 5.38341C3.08855 5.44254 3.04179 5.50273 2.99517 5.56186C2.94637 5.62619 2.89765 5.69053 2.84892 5.7548C2.80329 5.81597 2.75766 5.87721 2.71301 5.93944C2.57815 6.12513 2.44849 6.31498 2.32291 6.50693C2.25232 6.61486 2.18285 6.72483 2.11542 6.8348C2.06149 6.92086 2.0096 7.00699 1.95877 7.09418C0.714797 9.21579 0 11.685 0 14.317C0 16.9491 0.714797 19.4182 1.9587 21.5399C3.20266 23.6594 4.97461 25.4314 7.09411 26.6753C9.21572 27.9193 11.6849 28.6341 14.3169 28.6341C16.949 28.6341 19.4181 27.9193 21.5397 26.6753C21.6724 26.5975 21.8032 26.5176 21.9329 26.4357C21.9982 26.3952 22.0625 26.3537 22.1268 26.3112C22.2161 26.2531 22.3053 26.193 22.3935 26.1328C22.407 26.1234 22.4215 26.1141 22.435 26.1037C22.5221 26.0446 22.6082 25.9834 22.6943 25.9211C22.822 25.8288 22.9475 25.7344 23.072 25.639L25.2856 27.8526C24.81 28.2386 24.3139 28.6002 23.7992 28.9349L29.801 34.9367C30.5095 35.6452 31.4391 36 32.3686 36C33.2982 36 34.2278 35.6452 34.9363 34.9366C36.3545 33.5184 36.3545 31.2194 34.9363 29.8012ZM20.0167 22.7308C19.9877 22.7516 19.9586 22.7713 19.9285 22.79C19.8953 22.8139 19.8611 22.8356 19.8269 22.8574C19.7958 22.8781 19.7646 22.8978 19.7335 22.9176C19.693 22.9435 19.6526 22.9684 19.6121 22.9923C19.5737 23.0162 19.5364 23.0389 19.498 23.0618C19.416 23.1106 19.334 23.1572 19.2511 23.2039C19.2448 23.208 19.2386 23.2112 19.2314 23.2153C19.1639 23.2526 19.0955 23.289 19.027 23.3242C19 23.3398 18.973 23.3543 18.945 23.3678C18.8911 23.3958 18.8361 23.4228 18.7812 23.4498C18.6763 23.5017 18.5705 23.5515 18.4636 23.5991C17.1969 24.1677 15.7932 24.4841 14.317 24.4841C12.8407 24.4841 11.437 24.1677 10.1703 23.5991C7.89194 22.5783 6.05573 20.742 5.03487 18.4637C4.46625 17.197 4.14984 15.7933 4.14984 14.317C4.14984 12.8407 4.46625 11.437 5.0348 10.1703C5.19455 9.81443 5.37398 9.46898 5.57219 9.13591C5.59505 9.09752 5.61783 9.06019 5.64166 9.0218C5.706 8.91492 5.77343 8.8091 5.84402 8.70539C5.88241 8.64626 5.92179 8.58818 5.96327 8.53003C6.01207 8.4574 6.06284 8.38582 6.11585 8.3153C6.19566 8.20638 6.27764 8.09845 6.36166 7.99263C6.84204 7.38991 7.38977 6.84211 7.99256 6.36173C8.09838 6.27771 8.20631 6.19573 8.31523 6.11585C8.38582 6.06291 8.4574 6.01207 8.52996 5.96334C8.58811 5.92186 8.64619 5.88241 8.70532 5.84402C8.8091 5.7735 8.91492 5.70607 9.02173 5.64173C9.06012 5.61783 9.09745 5.59505 9.13584 5.5722C9.46884 5.37405 9.81436 5.19455 10.1702 5.0348C11.437 4.46625 12.8406 4.14984 14.3169 4.14984C15.7932 4.14984 17.1969 4.46625 18.4636 5.0348C20.7418 6.05566 22.5781 7.89195 23.599 10.1702C24.1675 11.437 24.4839 12.8407 24.4839 14.317C24.4839 15.7932 24.1675 17.197 23.599 18.4637C23.5512 18.5706 23.5015 18.6764 23.4496 18.7812C23.4226 18.8362 23.3956 18.8911 23.3677 18.9451C23.3542 18.9731 23.3396 19.0001 23.3241 19.0271C23.2888 19.0956 23.2525 19.1641 23.2151 19.2315C23.211 19.2388 23.2079 19.245 23.2038 19.2512C23.1581 19.3342 23.1104 19.4162 23.0616 19.4981C23.0387 19.5365 23.0159 19.5739 22.9921 19.6123C22.9683 19.6528 22.9433 19.6932 22.9174 19.7336C22.8977 19.7648 22.878 19.7959 22.8572 19.827C22.8354 19.8612 22.8136 19.8955 22.7898 19.9287C22.7711 19.9588 22.7514 19.9878 22.7306 20.0168C22.7109 20.0459 22.6912 20.0749 22.6704 20.104C22.66 20.1216 22.6476 20.1393 22.6342 20.1559C22.6114 20.1901 22.5864 20.2254 22.5615 20.2596C22.3727 20.5221 22.1714 20.7743 21.9577 21.0159C21.9194 21.0606 21.88 21.1041 21.8405 21.1477C21.7897 21.2037 21.7389 21.2598 21.687 21.3137C21.6268 21.377 21.5646 21.4403 21.5023 21.5025C21.4401 21.5648 21.3768 21.627 21.3135 21.6872C21.2595 21.7391 21.2035 21.7898 21.1475 21.8407C21.1039 21.8802 21.0604 21.9196 21.0157 21.958C20.774 22.1717 20.5219 22.3729 20.2594 22.5618C20.2252 22.5867 20.1899 22.6116 20.1556 22.6344C20.139 22.6479 20.1214 22.6604 20.1037 22.6707C20.0748 22.6914 20.0457 22.7111 20.0167 22.7308Z" fill="#1C59F0"/>
</g>
<defs>
<clipPath id="clip0_174_836">
<rect width="36" height="36" fill="white"/>
</clipPath>
</defs>
</svg>
