<svg width="92" height="92" viewBox="0 0 92 92" fill="none" xmlns="http://www.w3.org/2000/svg">
<path d="M17.3679 26.6531L13.4263 25.1678C9.82406 23.8111 5.80337 25.6324 4.44655 29.2334C3.08991 32.8357 4.91122 36.8548 8.5136 38.2115L17.3679 41.5475V26.6531Z" fill="#439FDB"/>
<path d="M69.9791 29.5245C69.9388 29.6672 69.9 29.8003 69.8614 29.9396V78.2825C69.8614 79.6207 69.3115 80.8519 68.4334 81.7268C67.5569 82.6065 66.3271 83.1547 64.9875 83.1547H29.2854C29.459 82.8714 29.6168 82.574 29.7393 82.2502C29.9716 81.6292 30.0814 80.9989 30.0814 80.3793C30.0814 79.3107 29.7531 78.2669 29.1598 77.3918C28.5651 76.5167 27.7117 75.8168 26.6447 75.4142L21.1499 73.3449H21.1483C20.5303 73.1126 19.9014 73.0011 19.2804 73.0011C18.2102 73.0011 17.1664 73.3294 16.2929 73.9242C15.4179 74.519 14.7162 75.3723 14.3135 76.4395C14.0828 77.0558 13.9712 77.6861 13.9712 78.3071C13.9712 79.3788 14.3011 80.4228 14.8942 81.2962C15.489 82.1695 16.3423 82.8728 17.4095 83.2739L22.9044 85.343C23.5239 85.5769 24.1543 85.6869 24.7738 85.6869C25.844 85.6869 26.8878 85.357 27.7613 84.7655C27.9131 84.6632 28.051 84.5423 28.1918 84.423C32.5856 88.1138 39.4669 91.744 49.6994 91.9885C71.0784 92.4951 76.7637 76.656 79.8536 59.2899C79.8536 59.2899 87.2301 26.0242 87.7306 24.2679C90.2336 15.4772 74.7338 12.8258 69.9791 29.5245Z" fill="#439FDB"/>
<path d="M25.6923 44.6085V7.91254H61.5368V66.6132H30.828C30.7583 67.2358 30.6158 67.8584 30.3851 68.4701C29.8043 70.0174 28.7711 71.2765 27.4982 72.1408C27.1636 72.367 26.8136 72.5666 26.4512 72.7371L27.5029 73.1335C29.05 73.7143 30.3107 74.7471 31.175 76.0204C31.8783 77.0532 32.3196 78.2474 32.4621 79.4988H64.9875C65.3298 79.4988 65.6223 79.3658 65.8485 79.1426C66.0715 78.9166 66.2047 78.6223 66.2047 78.2816V1.21882C66.2047 0.874898 66.0715 0.583805 65.8485 0.357758C65.6225 0.133148 65.3298 0.00161719 64.9875 0H22.2416C21.8993 0.00161719 21.6066 0.133148 21.3806 0.357758C21.1574 0.583805 21.0259 0.875078 21.0244 1.21882V42.6573L24.2148 43.856C24.743 44.0572 25.2354 44.3111 25.6923 44.6085ZM43.6145 75.6023C42.4358 75.6023 41.482 74.6451 41.482 73.4681C41.482 72.291 42.436 71.337 43.6145 71.337C44.7915 71.337 45.7471 72.291 45.7471 73.4681C45.7471 74.6451 44.7915 75.6023 43.6145 75.6023Z" fill="#439FDB"/>
<path d="M21.2708 70.7049C21.8902 70.9373 22.5207 71.0472 23.1401 71.0472C24.2103 71.0472 25.2541 70.7206 26.1276 70.1258C27.0027 69.531 27.7027 68.6761 28.1054 67.6105C28.3377 66.991 28.4477 66.3608 28.4477 65.7412C28.4477 64.671 28.1194 63.6272 27.5263 62.7538C26.9315 61.8803 26.0782 61.1772 25.0126 60.7761L19.5162 58.7054C18.898 58.4731 18.2679 58.3633 17.6469 58.3633C16.5767 58.3633 15.5328 58.6916 14.6594 59.2847C13.7857 59.8795 13.0842 60.7344 12.6816 61.803C12.4476 62.4195 12.3393 63.0483 12.3376 63.6711C12.3376 64.7413 12.6676 65.7851 13.2607 66.6586C13.8555 67.5335 14.7088 68.2335 15.7776 68.6362L21.2708 70.7049Z" fill="#439FDB"/>
<path d="M19.6153 56.0671C20.2349 56.3025 20.8652 56.4107 21.4846 56.4107C22.5548 56.4107 23.6003 56.084 24.4737 55.4893C25.347 54.8945 26.0487 54.0412 26.4497 52.9756C26.6837 52.3532 26.7922 51.7243 26.7922 51.1033C26.7937 50.0345 26.4654 48.9907 25.8722 48.1158C25.2775 47.2421 24.4225 46.5423 23.3555 46.1396L17.8605 44.0705C17.2411 43.8351 16.6122 43.7266 15.9912 43.7266C14.921 43.7266 13.8772 44.0534 13.0037 44.6496C12.1304 45.2429 11.4288 46.0977 11.0245 47.1649C10.7937 47.7828 10.6836 48.4132 10.6836 49.0342C10.6836 50.1044 11.0121 51.1466 11.6052 52.0218C12.2 52.8953 13.0549 53.5968 14.1219 54.0011L19.6153 56.0671Z" fill="#439FDB"/>
</svg>
