<svg width="34" height="34" viewBox="0 0 34 34" fill="none" xmlns="http://www.w3.org/2000/svg">
<path d="M25.8731 5.85371L22.2428 11.0382C22.6797 11.3457 23.087 11.684 23.4624 12.0606C25.1253 13.7245 26.1413 15.992 26.1435 18.5272C26.1413 21.0624 25.1253 23.3256 23.4624 24.9917C21.8006 26.6504 19.5331 27.6686 17.0016 27.6686C15.6133 27.6686 14.3077 27.3589 13.1369 26.8148C12.892 26.7014 12.6576 26.5778 12.4306 26.4426C12.1973 26.31 11.9746 26.1647 11.7603 26.0141C11.3223 25.7086 10.9151 25.3661 10.5354 24.9917C8.87671 23.3257 7.85857 21.0625 7.85857 18.5272C7.85857 15.992 8.87671 13.7245 10.5354 12.0606C11.6437 10.9544 13.0213 10.1357 14.5697 9.71092V12.4381L20.7145 6.22007L14.5697 0V3.24421C7.17884 4.41296 1.53039 10.807 1.52933 18.5272C1.53039 23.7684 4.1383 28.4008 8.12911 31.1986C8.49501 31.4547 8.8726 31.696 9.26493 31.9251C9.65413 32.1462 10.0518 32.3578 10.4623 32.5492C12.4476 33.4756 14.6621 33.9963 17.0017 34C25.5485 33.9947 32.4697 27.0736 32.4707 18.5272C32.4707 13.2823 29.8628 8.65406 25.8731 5.85371Z" fill="white"/>
</svg>
