<?xml version="1.0" encoding="UTF-8"?>
<svg xmlns="http://www.w3.org/2000/svg" version="1.1" viewBox="0 0 100 100">
  <defs>
    <style>
      .cls-1 {
        fill: #439fdb;
      }
    </style>
  </defs>
  <!-- Generator: Adobe Illustrator 28.7.1, SVG Export Plug-In . SVG Version: 1.2.0 Build 142)  -->
  <g>
    <g id="_レイヤー_1" data-name="レイヤー_1">
      <path class="cls-1" d="M96.8,60.3c-.1-.8-.3-1.6-.5-2.3h.1s-7.8-20.6-9.4-27.9c-1.4-5.5-5.3-9.8-10.3-11.8-.1-.5-.2-.9-.3-1.2-1.1-4.5-5.4-7.4-10.1-6.8-4.6.7-8,4.7-7.8,9.3,0,.6,0,1.4.1,2.2-3.5,3.3-5.5,8-5.3,13,0,.1,0,.3,0,.4h-7c0-.1,0-.3,0-.4.2-5-1.8-9.7-5.3-13,0-.9.1-1.6.1-2.2.2-4.6-3.1-8.7-7.8-9.3-4.6-.7-9,2.3-10.1,6.8,0,.4-.2.8-.3,1.2-5,2-9,6.3-10.3,11.8-1.6,7.3-9.4,27.8-9.4,27.8h.1c-.2.8-.4,1.5-.5,2.3-1.6,11.4,6.3,21.9,17.7,23.5,11.4,1.6,21.9-6.3,23.5-17.7.1-.8.2-1.6.2-2.3h.1s0-.5,0-1.5h10.5c0,1,0,1.5,0,1.5h.1c0,.8,0,1.5.2,2.3,1.6,11.4,12.1,19.3,23.5,17.7,11.4-1.6,19.3-12.1,17.7-23.5ZM37.5,65.2c-1.1,7.6-8.1,12.8-15.7,11.8-7.6-1.1-12.8-8.1-11.8-15.7,1.1-7.6,8.1-12.8,15.7-11.8,7.6,1.1,12.8,8.1,11.8,15.7ZM78.2,77c-7.6,1.1-14.6-4.2-15.7-11.8-1.1-7.6,4.2-14.6,11.8-15.7,7.6-1.1,14.6,4.2,15.7,11.8,1.1,7.6-4.2,14.6-11.8,15.7Z"/>
    </g>
  </g>
</svg>