<svg width="53" height="53" viewBox="0 0 53 53" fill="none" xmlns="http://www.w3.org/2000/svg">
<path d="M48.5601 13.9135C46.108 13.9135 44.1202 15.9013 44.1202 18.3534C44.1202 19.5212 44.5812 20.5741 45.3172 21.3666L37.3594 29.2306L27.6483 14.2451C29.5407 13.7356 30.9398 12.0259 30.9398 9.97339C30.9398 7.52297 28.952 5.53516 26.4999 5.53516C24.0478 5.53516 22.06 7.52297 22.06 9.97339C22.06 12.0259 23.4591 13.7356 25.3515 14.2451L15.6404 29.2306L7.68262 21.3666C8.41851 20.5741 8.87957 19.5212 8.87957 18.3534C8.87957 15.9013 6.89176 13.9135 4.43968 13.9135C1.9876 13.9135 0 15.9013 0 18.3534C0 20.8055 1.98781 22.7933 4.43989 22.7933V47.4656H26.5H48.5601V22.7933C51.0122 22.7933 53 20.8055 53 18.3534C53 15.9013 51.0122 13.9135 48.5601 13.9135Z" fill="#3E3E3E"/>
<path d="M20.2476 39.5309V37.3512L25.7128 28.7411H27.592V31.7582H26.4798L23.0345 37.2106V37.3129H30.8008V39.5309H20.2476ZM26.531 41.832V38.8661L26.5821 37.9009V28.7411H29.1773V41.832H26.531Z" fill="white"/>
</svg>
