<svg width="110" height="110" viewBox="0 0 110 110" fill="none" xmlns="http://www.w3.org/2000/svg">
<g clip-path="url(#clip0_367_1822)">
<path d="M100.307 31.5977C94.3334 25.6162 86.0312 21.9026 76.9068 21.9043H65.1278L67.5355 16.1809C67.7822 15.5957 67.6341 14.9213 67.1671 14.4935C66.7 14.066 66.0157 13.977 65.4535 14.2731L45.3823 24.8842C44.8888 25.1425 44.5831 25.6538 44.5831 26.2081C44.5831 26.7641 44.8891 27.2754 45.3823 27.5322L65.4535 38.1448C66.0125 38.4409 66.6966 38.3521 67.1671 37.9261C67.6341 37.4986 67.7824 36.8227 67.5355 36.2387L65.1246 30.5086H76.9066C83.6825 30.5121 89.7775 33.2438 94.2215 37.6827C98.6619 42.1265 101.392 48.2231 101.395 54.9991C101.392 61.7753 98.6619 67.8702 94.2215 72.3157C89.7777 76.7544 83.6825 79.4863 76.9066 79.4895V88.0943C86.031 88.096 94.3332 84.3824 100.307 78.4007C106.29 72.4259 110.003 64.1254 110 54.9993C110.003 45.8732 106.29 37.5727 100.307 31.5977Z" fill="#439FDB"/>
<path d="M64.6179 82.4664L44.5468 71.8535C43.9878 71.5577 43.3035 71.6464 42.833 72.0722C42.3659 72.4998 42.2179 73.1759 42.4647 73.7596L44.8757 79.4895H33.0935C26.3177 79.4863 20.2226 76.7545 15.7788 72.3157C11.3382 67.8701 8.60815 61.7752 8.60492 54.9993C8.60836 48.2235 11.3384 42.1267 15.7788 37.6828C20.2226 33.244 26.3177 30.5122 33.0935 30.5088V21.9043C23.969 21.9026 15.6671 25.6162 9.69354 31.5976C3.71035 37.5726 -0.00322056 45.8731 2.09578e-06 54.9993C-0.00322056 64.1254 3.71035 72.4259 9.69354 78.4009C15.6668 84.3826 23.969 88.0961 33.0935 88.0944H44.8725L42.4647 93.8177C42.2181 94.4033 42.3661 95.0775 42.833 95.5052C43.3 95.9328 43.9843 96.0215 44.5468 95.7255L64.6179 85.1143C65.1112 84.8559 65.4171 84.3445 65.4171 83.7902C65.4173 83.2344 65.1112 82.7229 64.6179 82.4664Z" fill="#439FDB"/>
</g>
<defs>
<clipPath id="clip0_367_1822">
<rect width="110" height="110" fill="white"/>
</clipPath>
</defs>
</svg>
