<svg width="84" height="84" viewBox="0 0 84 84" fill="none" xmlns="http://www.w3.org/2000/svg">
<g clip-path="url(#clip0_367_1818)">
<path d="M83.4391 15.2722C83.484 13.5815 82.3868 12.1058 81.3396 10.7539C81.1945 12.4513 79.7042 15.2564 78.9946 16.7058L52.2411 71.4091C50.1652 75.6505 47.5737 80.8705 41.8791 80.2624C41.6615 80.2491 3.81396 76.2742 3.81396 76.2742C4.88743 77.9651 6.09033 80.141 8.211 80.3679L39.3853 83.6531C42.9962 84.0408 46.4253 84.5473 49.6747 82.4069C53.2763 80.0395 55.1426 75.7376 56.9415 72.0621L82.3023 18.6698C82.8352 17.5791 83.389 16.5159 83.4391 15.2737C83.4443 15.1549 83.4391 15.255 83.4391 15.2722Z" fill="#439FDB"/>
<path d="M39.2137 76.2867C42.3644 76.6243 46.1719 74.3944 47.6648 71.3399L56.3584 53.5701L77.6759 9.97771C79.1741 6.91548 77.8183 4.13659 74.6689 3.7978L39.6332 0.0338768C36.476 -0.303764 32.6778 1.92109 31.1809 4.98331L1.16845 66.3455C-0.32567 69.3998 1.01948 72.1838 4.17801 72.5228L39.2137 76.2867ZM26.2867 67.4414C25.6088 68.8236 23.8918 69.8246 22.47 69.673C21.0456 69.5199 20.4443 68.2711 21.1207 66.8849C21.7972 65.5055 23.5038 64.5044 24.9229 64.6561C26.3447 64.8077 26.962 66.0607 26.2867 67.4414ZM36.0408 7.94415L70.5674 11.6526L46.5332 60.7787L12.0064 57.0702L36.0408 7.94415Z" fill="#439FDB"/>
</g>
<defs>
<clipPath id="clip0_367_1818">
<rect width="84" height="84" fill="white"/>
</clipPath>
</defs>
</svg>
