<svg width="98" height="98" viewBox="0 0 98 98" fill="none" xmlns="http://www.w3.org/2000/svg">
<g clip-path="url(#clip0_367_1826)">
<path d="M27.2108 38.3711C24.202 38.3711 21.7599 40.8087 21.7599 43.8187C21.7599 46.8288 24.202 49.268 27.2108 49.268C30.2193 49.268 32.6553 46.8288 32.6553 43.8187C32.6553 40.8087 30.2195 38.3711 27.2108 38.3711Z" fill="#439FDB"/>
<path d="M48.9985 38.3711C45.9899 38.3711 43.5507 40.8087 43.5507 43.8187C43.5507 46.8288 45.9898 49.268 48.9985 49.268C52.007 49.268 54.4463 46.8288 54.4463 43.8187C54.4463 40.8087 52.007 38.3711 48.9985 38.3711Z" fill="#439FDB"/>
<path d="M70.7862 38.3711C67.7777 38.3711 65.3384 40.8087 65.3384 43.8187C65.3384 46.8288 67.7775 49.268 70.7862 49.268C73.7978 49.268 76.2338 46.8288 76.2338 43.8187C76.2338 40.8087 73.7978 38.3711 70.7862 38.3711Z" fill="#439FDB"/>
<path d="M97.9939 43.2566C97.9072 34.8158 94.6014 26.8979 88.6864 20.9614C82.7526 14.9966 74.8471 11.7109 66.4157 11.7109H31.5782C14.1671 11.7142 0.0030625 25.8781 0 43.2845C0.0030625 60.6926 14.1671 74.8595 31.5782 74.8641H60.2685C60.7234 74.8641 60.965 75.0576 61.0888 75.2201C61.3828 75.6131 61.2529 76.1641 61.2064 76.3203C61.0238 76.9688 60.5625 77.8711 59.6617 79.3351C58.9654 80.4834 58.3245 81.4508 58.1854 81.6567C57.2134 83.1145 56.8792 84.3496 57.2414 85.1357C57.5168 85.7285 58.1978 86.0937 59.2718 86.2206C59.6309 86.2623 60.1324 86.2903 60.612 86.2903C60.8597 86.2903 61.1043 86.2824 61.3147 86.2656C63.5371 86.0753 66.5397 85.7224 70.0497 84.6685C75.1662 83.1302 82.502 79.8692 88.3924 73.0658C94.6944 65.8088 98.0157 55.7447 98.0002 43.9592L97.9939 43.2566ZM88.222 62.9982C85.0927 69.2291 80.1866 73.9804 73.6401 77.1236C71.4269 78.1806 69.0529 79.0241 66.5891 79.6309L65.9515 79.7871L66.3663 78.8863C66.5179 78.5613 66.6697 78.238 66.7872 77.899C67.0161 77.2025 67.2422 76.438 67.2546 75.4444C67.2546 74.6179 67.072 73.7821 66.7223 73.0285C66.1684 71.8121 65.1005 70.7412 63.7942 70.0912C62.4601 69.4228 60.8879 69.0976 58.9905 69.0976H31.5782C24.6912 69.0976 18.2098 66.4123 13.3284 61.5374C8.45327 56.6591 5.7665 50.1761 5.7665 43.2845C5.7665 36.3976 8.45327 29.916 13.3284 25.0347C18.2096 20.1611 24.6912 17.4759 31.5782 17.4759H66.4157C73.2841 17.4774 79.7441 20.1611 84.6037 25.0315C89.4478 29.9005 92.1562 36.3941 92.2304 43.3138L92.2335 43.9592C92.2304 51.2874 90.8808 57.693 88.222 62.9982Z" fill="#439FDB"/>
</g>
<defs>
<clipPath id="clip0_367_1826">
<rect width="98" height="98" fill="white"/>
</clipPath>
</defs>
</svg>
