<svg width="53" height="53" viewBox="0 0 53 53" fill="none" xmlns="http://www.w3.org/2000/svg">
<path d="M48.5601 13.9135C46.108 13.9135 44.1202 15.9013 44.1202 18.3534C44.1202 19.5212 44.5812 20.5741 45.3172 21.3666L37.3594 29.2306L27.6483 14.2451C29.5407 13.7356 30.9398 12.0259 30.9398 9.97339C30.9398 7.52297 28.952 5.53516 26.4999 5.53516C24.0478 5.53516 22.06 7.52297 22.06 9.97339C22.06 12.0259 23.4591 13.7356 25.3515 14.2451L15.6404 29.2306L7.68262 21.3666C8.41851 20.5741 8.87957 19.5212 8.87957 18.3534C8.87957 15.9013 6.89176 13.9135 4.43968 13.9135C1.9876 13.9135 0 15.9013 0 18.3534C0 20.8055 1.98781 22.7933 4.43989 22.7933V47.4656H26.5H48.5601V22.7933C51.0122 22.7933 53 20.8055 53 18.3534C53 15.9013 51.0122 13.9135 48.5601 13.9135Z" fill="#A65F1D"/>
<path d="M27.2845 42.011C26.33 42.011 25.4798 41.8469 24.7341 41.5188C23.9926 41.1864 23.4067 40.7305 22.9763 40.1509C22.5501 39.5671 22.3307 38.8938 22.3179 38.131H25.1048C25.1219 38.4506 25.2263 38.7319 25.418 38.9748C25.614 39.2134 25.874 39.3988 26.1979 39.5309C26.5217 39.663 26.8861 39.729 27.2909 39.729C27.7128 39.729 28.0856 39.6545 28.4095 39.5053C28.7334 39.3562 28.9869 39.1495 29.1702 38.8853C29.3534 38.6211 29.445 38.3164 29.445 37.9712C29.445 37.6218 29.347 37.3129 29.151 37.0444C28.9592 36.7717 28.6822 36.5586 28.32 36.4052C27.9621 36.2518 27.5359 36.1751 27.0416 36.1751H25.8207V34.1424H27.0416C27.4592 34.1424 27.8278 34.07 28.1474 33.9251C28.4713 33.7802 28.7227 33.5799 28.9017 33.3242C29.0807 33.0643 29.1702 32.7617 29.1702 32.4165C29.1702 32.0884 29.0913 31.8008 28.9336 31.5536C28.7802 31.3022 28.5629 31.1062 28.2817 30.9656C28.0047 30.8249 27.6808 30.7546 27.3101 30.7546C26.9351 30.7546 26.592 30.8228 26.281 30.9592C25.9699 31.0913 25.7206 31.2809 25.5331 31.5281C25.3456 31.7752 25.2454 32.065 25.2327 32.3974H22.58C22.5927 31.6431 22.8079 30.9783 23.2256 30.4031C23.6432 29.8278 24.2057 29.3782 24.9131 29.0543C25.6247 28.7262 26.428 28.5621 27.3229 28.5621C28.2263 28.5621 29.0167 28.7262 29.6943 29.0543C30.3719 29.3825 30.8981 29.8256 31.2731 30.3839C31.6524 30.9379 31.8399 31.56 31.8356 32.2504C31.8399 32.9833 31.6119 33.5948 31.1517 34.0849C30.6957 34.5749 30.1013 34.886 29.3683 35.0181V35.1204C30.3314 35.244 31.0643 35.5785 31.5672 36.1239C32.0743 36.6651 32.3257 37.3427 32.3214 38.1566C32.3257 38.9023 32.1105 39.565 31.6758 40.1445C31.2454 40.7241 30.651 41.18 29.8925 41.5124C29.1339 41.8448 28.2646 42.011 27.2845 42.011Z" fill="white"/>
</svg>
