<svg width="100" height="100" viewBox="0 0 100 100" fill="none" xmlns="http://www.w3.org/2000/svg">
<path d="M83.2213 0C81.3963 0 79.8029 1.23398 79.3467 3.00059L75.3863 18.3471H5.62009C4.36345 18.3471 3.17946 18.9379 2.42419 19.942C1.66892 20.9467 1.42888 22.2477 1.77653 23.4564L13.266 63.3242C13.7593 65.0373 15.3279 66.2176 17.1101 66.2176H63.0332L61.3031 72.9215H17.4601V79.9787H63.6699C65.4945 79.9787 67.0879 78.7436 67.5441 76.9762L85.5877 7.05664H98.3799V0H83.2213ZM68.3447 45.6352L64.8543 59.1606H56.0392V45.6352H68.3447ZM73.565 25.4039L70.1654 38.5783H56.0392V25.4039H73.565ZM48.9824 45.6352V59.1606H33.9269V45.6352H48.9824ZM48.9824 25.4039V38.5783H33.9269V25.4039H48.9824ZM28.0002 25.4039V38.5783H13.4783L9.6822 25.4039H28.0002ZM28.0002 45.6352V59.1606H19.409L15.5115 45.6352H28.0002Z" fill="#439FDB"/>
<path d="M24.1998 85.291C20.2486 85.291 17.0449 88.4945 17.0449 92.4473C17.0449 96.3992 20.2484 99.6025 24.1998 99.6025C28.1529 99.6025 31.3547 96.3994 31.3547 92.4473C31.3547 88.4945 28.1531 85.291 24.1998 85.291Z" fill="#439FDB"/>
<path d="M58.5315 85.6895C54.5783 85.6895 51.3766 88.8941 51.3766 92.8443C51.3766 96.7975 54.5781 100 58.5315 100C62.4826 100 65.6864 96.7977 65.6864 92.8443C65.6864 88.8943 62.4826 85.6895 58.5315 85.6895Z" fill="#439FDB"/>
</svg>
