<svg width="1238" height="708" viewBox="0 0 1238 708" fill="none" xmlns="http://www.w3.org/2000/svg">
<g filter="url(#filter0_d_255_2542)">
<rect x="20" y="10" width="457" height="280" rx="10" fill="white"/>
<rect x="22.5" y="12.5" width="452" height="275" rx="7.5" stroke="#1C59F0" stroke-width="5"/>
</g>
<path d="M219.682 214.763C219.661 224.187 217.368 229.92 208.201 233.927L204.144 230.08C211.483 227.551 214.721 224.29 214.741 214.942L214.745 213.498L205.739 213.478L205.727 218.646C205.723 220.318 205.834 221.876 205.87 222.636L200.55 222.624C200.666 221.865 200.783 220.345 200.787 218.635L200.799 213.467L197.569 213.46C195.669 213.455 194.3 213.528 193.464 213.603L193.476 208.435C194.122 208.55 195.679 208.781 197.579 208.786L200.809 208.793L200.817 205.031C200.82 203.929 200.708 202.751 200.597 201.61L205.993 201.622C205.877 202.344 205.761 203.56 205.757 205.042L205.749 208.804L214.755 208.824L214.764 204.834C214.767 203.314 214.656 202.06 214.544 201.299L219.978 201.311C219.862 202.071 219.707 203.325 219.704 204.845L219.695 208.835L222.507 208.841C224.521 208.846 225.661 208.772 226.688 208.584L226.676 213.638C225.84 213.561 224.511 213.52 222.497 213.515L219.685 213.509L219.682 214.763ZM234.068 204.649C235.626 204.69 237.07 204.732 238.096 204.734L258.996 204.78C259.946 204.782 261.39 204.786 262.758 204.713C262.68 205.853 262.677 207.259 262.674 208.398L262.633 227.018C262.629 228.5 262.697 232.149 262.697 232.301L257.453 232.289C257.453 232.213 257.493 231.339 257.495 230.237L239.18 230.196C239.215 231.26 239.213 232.134 239.213 232.248L233.969 232.237C233.969 232.047 234.091 228.741 234.095 226.917L234.136 208.335C234.139 207.271 234.142 205.713 234.068 204.649ZM239.225 209.562L239.19 225.332L257.544 225.373L257.579 209.603L239.225 209.562ZM276.443 202.805C279.099 204.597 284.03 208.56 286.229 210.883L282.344 214.826C280.373 212.694 275.632 208.541 272.862 206.597L276.443 202.805ZM271.636 228.102C277.566 227.28 282.51 225.353 286.201 223.157C292.708 219.333 297.661 213.53 300.066 208.406L303.018 213.77C300.119 218.894 295.053 224.127 288.927 227.799C285.084 230.108 280.177 232.225 274.817 233.126L271.636 228.102Z" fill="#1C59F0"/>
<g clip-path="url(#clip0_255_2542)">
<path d="M300.733 108.46L273.636 81.3625L249 56.7266L224.364 81.3625L197.258 108.473L178 127.727L189.089 138.816L208.343 119.562L235.453 92.4518L249 78.9055L262.547 92.4518L289.639 119.549L308.911 138.816L320 127.727L300.733 108.46Z" fill="#1C59F0"/>
<path d="M201.773 139.626L201.773 181.27L254.2 181.27L254.2 148.271L273.289 148.271L273.289 181.27L296.226 181.27L296.226 139.613L249.004 92.3906L201.773 139.626Z" fill="#1C59F0"/>
</g>
<g filter="url(#filter1_d_255_2542)">
<rect x="20" y="397.998" width="457" height="280" rx="10" fill="white"/>
<rect x="22.5" y="400.498" width="452" height="275" rx="7.5" stroke="#1C59F0" stroke-width="5"/>
</g>
<g filter="url(#filter2_d_255_2542)">
<rect x="761" y="10" width="457" height="280" rx="10" fill="white"/>
<rect x="763.5" y="12.5" width="452" height="275" rx="7.5" stroke="#1C59F0" stroke-width="5"/>
</g>
<path d="M865.424 152.564L865.424 117.655L879.196 117.655C881.833 117.655 884.083 118.127 885.946 119.07C887.821 120.002 889.248 121.326 890.225 123.042C891.214 124.746 891.708 126.752 891.708 129.059C891.708 131.377 891.208 133.371 890.208 135.042C889.208 136.701 887.759 137.974 885.861 138.86C883.975 139.746 881.691 140.189 879.009 140.189L869.787 140.189L869.787 134.258L877.816 134.258C879.225 134.258 880.395 134.064 881.327 133.678C882.259 133.292 882.952 132.712 883.407 131.939C883.873 131.167 884.106 130.206 884.106 129.059C884.106 127.9 883.873 126.922 883.407 126.127C882.952 125.331 882.253 124.729 881.31 124.32C880.378 123.9 879.202 123.689 877.782 123.689L872.804 123.689L872.804 152.564L865.424 152.564ZM884.276 136.678L892.952 152.564L884.804 152.564L876.316 136.678L884.276 136.678ZM908.297 153.076C905.604 153.076 903.286 152.53 901.343 151.439C899.411 150.337 897.922 148.78 896.877 146.769C895.831 144.746 895.309 142.354 895.309 139.593C895.309 136.9 895.831 134.536 896.877 132.502C897.922 130.468 899.394 128.883 901.292 127.746C903.201 126.61 905.439 126.042 908.008 126.042C909.735 126.042 911.343 126.32 912.831 126.877C914.331 127.422 915.638 128.246 916.752 129.349C917.877 130.451 918.752 131.837 919.377 133.508C920.002 135.167 920.314 137.11 920.314 139.337L920.314 141.331L898.206 141.331L898.206 136.831L913.479 136.831C913.479 135.786 913.252 134.86 912.797 134.053C912.343 133.246 911.712 132.616 910.905 132.161C910.11 131.695 909.184 131.462 908.127 131.462C907.025 131.462 906.047 131.718 905.195 132.229C904.354 132.729 903.695 133.405 903.218 134.258C902.741 135.099 902.496 136.036 902.485 137.07L902.485 141.349C902.485 142.644 902.723 143.763 903.201 144.706C903.689 145.65 904.377 146.377 905.263 146.888C906.15 147.4 907.201 147.655 908.417 147.655C909.223 147.655 909.962 147.542 910.633 147.314C911.303 147.087 911.877 146.746 912.354 146.292C912.831 145.837 913.195 145.28 913.445 144.621L920.161 145.064C919.82 146.678 919.121 148.087 918.064 149.292C917.019 150.485 915.667 151.417 914.008 152.087C912.36 152.746 910.456 153.076 908.297 153.076ZM946.155 128.18C949.515 128.18 952.299 130.964 952.299 134.324C952.299 137.684 949.515 140.468 946.155 140.468C942.795 140.468 940.011 137.684 940.011 134.324C940.011 130.964 942.795 128.18 946.155 128.18ZM1003.99 129.877L996.525 129.877C996.388 128.911 996.11 128.053 995.689 127.303C995.269 126.542 994.729 125.894 994.07 125.36C993.411 124.826 992.65 124.417 991.786 124.133C990.934 123.849 990.008 123.706 989.008 123.706C987.201 123.706 985.627 124.155 984.286 125.053C982.945 125.939 981.905 127.235 981.167 128.939C980.428 130.633 980.059 132.689 980.059 135.11C980.059 137.599 980.428 139.689 981.167 141.383C981.917 143.076 982.962 144.354 984.303 145.218C985.644 146.081 987.195 146.513 988.956 146.513C989.945 146.513 990.86 146.383 991.701 146.121C992.553 145.86 993.309 145.479 993.968 144.979C994.627 144.468 995.172 143.849 995.604 143.121C996.047 142.394 996.354 141.564 996.525 140.633L1003.99 140.667C1003.8 142.269 1003.31 143.814 1002.54 145.303C1001.78 146.78 1000.75 148.104 999.456 149.275C998.172 150.434 996.638 151.354 994.854 152.036C993.081 152.706 991.076 153.042 988.837 153.042C985.723 153.042 982.939 152.337 980.485 150.928C978.042 149.519 976.11 147.479 974.689 144.809C973.28 142.138 972.576 138.905 972.576 135.11C972.576 131.303 973.292 128.064 974.723 125.394C976.155 122.724 978.098 120.689 980.553 119.292C983.008 117.883 985.769 117.178 988.837 117.178C990.86 117.178 992.735 117.462 994.462 118.03C996.201 118.599 997.741 119.428 999.081 120.519C1000.42 121.599 1001.51 122.922 1002.35 124.491C1003.21 126.059 1003.75 127.854 1003.99 129.877ZM1009.15 152.564L1009.15 126.383L1016.19 126.383L1016.19 130.951L1016.46 130.951C1016.94 129.326 1017.74 128.099 1018.86 127.269C1019.99 126.428 1021.28 126.008 1022.75 126.008C1023.11 126.008 1023.5 126.03 1023.93 126.076C1024.35 126.121 1024.71 126.184 1025.03 126.263L1025.03 132.706C1024.69 132.604 1024.22 132.513 1023.62 132.434C1023.02 132.354 1022.46 132.314 1021.96 132.314C1020.9 132.314 1019.94 132.547 1019.1 133.013C1018.27 133.468 1017.61 134.104 1017.12 134.922C1016.65 135.741 1016.41 136.684 1016.41 137.752L1016.41 152.564L1009.15 152.564ZM1039.5 153.076C1036.81 153.076 1034.49 152.53 1032.55 151.439C1030.61 150.337 1029.13 148.78 1028.08 146.769C1027.03 144.746 1026.51 142.354 1026.51 139.593C1026.51 136.9 1027.03 134.536 1028.08 132.502C1029.13 130.468 1030.6 128.883 1032.49 127.746C1034.4 126.61 1036.64 126.042 1039.21 126.042C1040.94 126.042 1042.55 126.32 1044.03 126.877C1045.53 127.422 1046.84 128.246 1047.95 129.349C1049.08 130.451 1049.95 131.837 1050.58 133.508C1051.2 135.167 1051.52 137.11 1051.52 139.337L1051.52 141.331L1029.41 141.331L1029.41 136.831L1044.68 136.831C1044.68 135.786 1044.45 134.86 1044 134.053C1043.55 133.246 1042.92 132.616 1042.11 132.161C1041.31 131.695 1040.39 131.462 1039.33 131.462C1038.23 131.462 1037.25 131.718 1036.4 132.229C1035.56 132.729 1034.9 133.405 1034.42 134.258C1033.94 135.099 1033.7 136.036 1033.69 137.07L1033.69 141.349C1033.69 142.644 1033.93 143.763 1034.4 144.706C1034.89 145.65 1035.58 146.377 1036.47 146.888C1037.35 147.4 1038.4 147.655 1039.62 147.655C1040.43 147.655 1041.17 147.542 1041.84 147.314C1042.51 147.087 1043.08 146.746 1043.56 146.292C1044.03 145.837 1044.4 145.28 1044.65 144.621L1051.36 145.064C1051.02 146.678 1050.32 148.087 1049.27 149.292C1048.22 150.485 1046.87 151.417 1045.21 152.087C1043.56 152.746 1041.66 153.076 1039.5 153.076ZM1065.9 152.991C1063.92 152.991 1062.11 152.479 1060.5 151.456C1058.9 150.422 1057.63 148.905 1056.68 146.905C1055.75 144.894 1055.28 142.428 1055.28 139.508C1055.28 136.508 1055.77 134.013 1056.73 132.025C1057.7 130.025 1058.98 128.53 1060.59 127.542C1062.2 126.542 1063.97 126.042 1065.89 126.042C1067.35 126.042 1068.57 126.292 1069.55 126.792C1070.54 127.28 1071.34 127.894 1071.94 128.633C1072.55 129.36 1073.02 130.076 1073.34 130.78L1073.56 130.78L1073.56 117.655L1080.8 117.655L1080.8 152.564L1073.64 152.564L1073.64 148.371L1073.34 148.371C1072.99 149.099 1072.51 149.82 1071.89 150.536C1071.27 151.241 1070.47 151.826 1069.48 152.292C1068.51 152.758 1067.31 152.991 1065.9 152.991ZM1068.2 147.212C1069.38 147.212 1070.36 146.894 1071.17 146.258C1071.99 145.61 1072.61 144.706 1073.05 143.547C1073.49 142.388 1073.71 141.03 1073.71 139.474C1073.71 137.917 1073.49 136.564 1073.06 135.417C1072.63 134.269 1072.01 133.383 1071.19 132.758C1070.37 132.133 1069.38 131.82 1068.2 131.82C1067.01 131.82 1066.01 132.144 1065.19 132.792C1064.37 133.439 1063.75 134.337 1063.33 135.485C1062.91 136.633 1062.7 137.962 1062.7 139.474C1062.7 140.996 1062.91 142.343 1063.33 143.513C1063.76 144.672 1064.38 145.581 1065.19 146.241C1066.01 146.888 1067.01 147.212 1068.2 147.212ZM1086.77 152.564L1086.77 126.383L1094.03 126.383L1094.03 152.564L1086.77 152.564ZM1090.42 123.008C1089.34 123.008 1088.41 122.65 1087.64 121.934C1086.88 121.206 1086.5 120.337 1086.5 119.326C1086.5 118.326 1086.88 117.468 1087.64 116.752C1088.41 116.025 1089.34 115.661 1090.42 115.661C1091.5 115.661 1092.42 116.025 1093.18 116.752C1093.95 117.468 1094.34 118.326 1094.34 119.326C1094.34 120.337 1093.95 121.206 1093.18 121.934C1092.42 122.65 1091.5 123.008 1090.42 123.008ZM1113.78 126.383L1113.78 131.837L1098.01 131.837L1098.01 126.383L1113.78 126.383ZM1101.59 120.11L1108.85 120.11L1108.85 144.519C1108.85 145.189 1108.95 145.712 1109.16 146.087C1109.36 146.451 1109.65 146.706 1110.01 146.854C1110.38 147.002 1110.82 147.076 1111.3 147.076C1111.65 147.076 1111.99 147.047 1112.33 146.991C1112.67 146.922 1112.93 146.871 1113.11 146.837L1114.25 152.241C1113.89 152.354 1113.38 152.485 1112.72 152.633C1112.06 152.792 1111.26 152.888 1110.32 152.922C1108.57 152.991 1107.03 152.758 1105.71 152.224C1104.41 151.689 1103.39 150.86 1102.66 149.735C1101.94 148.61 1101.58 147.189 1101.59 145.474L1101.59 120.11Z" fill="#1C59F0"/>
<path d="M945.359 171.844C945.319 172.444 945.279 173.124 945.279 174.004L945.279 178.364C945.279 182.384 944.339 184.384 942.819 185.984C941.479 187.384 939.379 188.404 937.919 188.864L935.379 186.184C937.459 185.724 939.019 184.984 940.219 183.744C941.559 182.324 941.839 180.904 941.839 178.144L941.839 174.004C941.839 173.124 941.779 172.444 941.699 171.844L945.359 171.844ZM936.099 172.024C936.059 172.524 936.019 172.884 936.019 173.604L936.019 180.404C936.019 180.904 936.059 181.744 936.099 182.264L932.579 182.264C932.599 181.864 932.679 181.004 932.679 180.384L932.679 173.604C932.679 173.224 932.659 172.524 932.599 172.024L936.099 172.024ZM960.879 171.924C960.419 172.564 959.939 173.384 959.639 173.904L962.859 173.904C963.519 173.904 964.319 173.804 964.839 173.644L967.299 175.164C967.039 175.604 966.719 176.204 966.519 176.804C965.979 178.464 964.899 181.104 963.059 183.364C961.119 185.744 958.699 187.584 954.939 189.124L952.059 186.564C956.379 185.244 958.459 183.544 960.159 181.644C961.419 180.244 962.539 177.944 962.799 176.644L957.819 176.644C956.399 178.424 954.619 180.144 952.779 181.424L950.059 179.404C953.599 177.224 955.219 174.824 956.279 173.144C956.639 172.584 957.119 171.544 957.339 170.764L960.879 171.924ZM972.599 186.684C972.879 186.084 972.899 185.704 972.899 185.204L972.899 174.684C972.899 173.804 972.779 172.824 972.639 172.164L976.439 172.164C976.299 173.084 976.219 173.804 976.219 174.684L976.219 184.544C979.159 183.644 983.519 181.124 986.119 178.044L987.839 180.804C985.019 184.104 980.839 186.444 976.279 188.044C975.979 188.144 975.459 188.304 974.899 188.684L972.599 186.684ZM1003.74 171.964C1004.34 172.864 1005.1 174.144 1005.54 175.044L1003.48 175.924C1002.84 174.544 1002.52 173.884 1001.74 172.784L1003.74 171.964ZM1006.58 170.984C1007.24 171.844 1007.96 173.084 1008.44 173.944L1006.4 174.844C1005.7 173.464 1005.32 172.884 1004.54 171.824L1006.58 170.984ZM994.979 171.524C996.379 172.284 998.519 173.624 999.659 174.404L997.859 177.084C996.659 176.284 994.619 174.984 993.219 174.204L994.979 171.524ZM990.879 185.664C993.139 185.284 995.479 184.684 997.739 183.464C1001.18 181.564 1004.06 178.744 1005.64 175.864L1007.5 179.184C1005.58 182.004 1002.72 184.504 999.399 186.404C997.359 187.544 994.419 188.584 992.699 188.864L990.879 185.664ZM991.859 176.124C993.299 176.884 995.419 178.224 996.539 179.004L994.759 181.724C993.539 180.884 991.519 179.564 990.099 178.804L991.859 176.124ZM1019.34 175.484C1019.74 176.364 1020.72 178.964 1021.02 179.904L1018.12 180.904C1017.84 179.904 1017 177.544 1016.46 176.424L1019.34 175.484ZM1026.8 177.124C1026.52 177.904 1026.38 178.384 1026.24 178.864C1025.72 180.784 1024.88 182.824 1023.56 184.544C1021.7 186.984 1019.18 188.724 1016.78 189.644L1014.24 187.044C1016.36 186.504 1019.28 184.984 1020.94 182.884C1022.26 181.224 1023.2 178.504 1023.38 176.024L1026.8 177.124ZM1014.7 176.564C1015.26 177.684 1016.18 180.004 1016.58 181.164L1013.62 182.264C1013.28 181.184 1012.32 178.564 1011.78 177.604L1014.7 176.564ZM1035.02 185.564L1035.02 174.144C1035.02 173.344 1034.94 172.304 1034.78 171.544L1038.56 171.544C1038.48 172.304 1038.36 173.184 1038.36 174.144L1038.36 176.884C1041.06 177.664 1044.94 179.084 1046.62 179.904L1045.24 183.284C1043.22 182.244 1040.48 181.184 1038.36 180.424L1038.36 185.564C1038.36 186.104 1038.48 187.684 1038.58 188.584L1034.78 188.584C1034.92 187.724 1035.02 186.384 1035.02 185.564Z" fill="#1C59F0"/>
<g filter="url(#filter3_d_255_2542)">
<rect x="761" y="397.67" width="457" height="280" rx="10" fill="white"/>
<rect x="763.5" y="400.17" width="452" height="275" rx="7.5" stroke="#1C59F0" stroke-width="5"/>
</g>
<path d="M919.247 585.159C920.652 585.314 922.628 585.394 923.92 585.397L943.072 585.44C944.174 585.442 945.77 585.408 946.416 585.371C946.376 586.245 946.297 587.765 946.294 588.867L946.251 608.551C946.248 609.881 946.319 611.895 946.393 613.035L940.883 613.023C940.922 612.415 940.923 611.769 940.925 611.047L923.597 611.008C922.115 611.005 919.949 611.114 918.695 611.225L918.707 605.791C920.036 605.908 921.746 606.026 923.456 606.03L940.974 606.069L941.009 590.337L923.947 590.299C922.351 590.295 920.299 590.367 919.235 590.441L919.247 585.159ZM960.443 583.35C963.099 585.142 968.03 589.105 970.229 591.428L966.344 595.371C964.373 593.239 959.632 589.086 956.862 587.142L960.443 583.35ZM955.636 608.648C961.566 607.825 966.511 605.898 970.201 603.702C976.708 599.878 981.661 594.075 984.066 588.951L987.018 594.315C984.119 599.439 979.053 604.672 972.927 608.344C969.084 610.653 964.177 612.771 958.817 613.671L955.636 608.648ZM1017.33 581.577C1018.28 582.985 1019.64 585.382 1020.36 586.789L1017.28 588.075C1016.52 586.515 1015.35 584.27 1014.33 582.786L1017.33 581.577ZM1021.82 579.877C1022.84 581.285 1024.24 583.72 1024.89 585.052L1021.88 586.337C1021.09 584.739 1019.88 582.532 1018.82 581.086L1021.82 579.877ZM1000.95 583.174C1000.76 584.314 1000.64 586.062 1000.64 587.126L1000.62 594.308C1005.11 593.216 1010.39 591.555 1013.78 590.119C1015.15 589.59 1016.44 588.985 1017.93 588.076L1019.97 592.907C1018.48 593.511 1016.77 594.23 1015.52 594.683C1011.68 596.194 1005.55 598.081 1000.61 599.286L1000.6 606.316C1000.59 607.95 1001.35 608.369 1003.06 608.715C1004.2 608.87 1005.76 608.949 1007.47 608.953C1011.42 608.962 1017.58 608.481 1020.69 607.652L1020.68 613.2C1017.11 613.724 1011.33 613.977 1007.15 613.968C1004.68 613.963 1002.4 613.806 1000.77 613.536C997.465 612.921 995.569 611.092 995.576 607.824L995.622 587.114C995.624 586.278 995.515 584.302 995.327 583.162L1000.95 583.174ZM1033.74 586.591C1035.11 586.746 1036.89 586.826 1038.18 586.829L1053.92 586.864C1055.44 586.868 1057.07 586.757 1058.13 586.646L1058.12 592.156C1057.02 592.115 1055.23 591.997 1053.9 591.994L1038.21 591.959C1036.77 591.956 1035.02 592.028 1033.73 592.101L1033.74 586.591ZM1030.5 605.166C1031.99 605.283 1033.77 605.401 1035.25 605.405L1057.07 605.453C1058.36 605.456 1059.95 605.384 1061.25 605.235L1061.23 611.048C1059.9 610.894 1058.19 610.814 1057.05 610.811L1035.24 610.763C1033.76 610.759 1031.9 610.869 1030.49 610.98L1030.5 605.166Z" fill="#1C59F0"/>
<g clip-path="url(#clip1_255_2542)">
<path d="M236.966 570.911C236.059 566.594 235.085 562.562 234.346 557.22C233.842 553.458 231.793 551.458 227.61 549.14L200.891 534.967L200.92 534.945L200.951 534.929L200.111 527.84C200.111 527.84 200.128 527.823 200.161 527.79L200.159 527.79C200.444 527.527 202.894 525.254 204.776 522.738C207.299 519.374 208.009 512.178 208.009 512.178C208.009 512.178 209.916 510.813 210.888 509.729C212.271 508.234 213.467 505.093 213.355 501.486C213.262 498.682 210.776 497.093 209.86 497.504C217.355 485.055 207.411 469.672 207.411 469.672C209.337 468.289 208.383 463.41 208.383 463.41C208.383 463.41 203.094 466.663 197.336 465.728C191.579 464.812 180.794 466.195 180.794 466.195C180.794 466.195 173.693 467.191 168.996 471.457C163.274 476.654 162.539 480.643 163.765 488.495C164.313 492.001 165.784 497.448 165.803 497.617C165.093 496.869 162.233 498.495 162.139 501.486C162.027 505.093 163.224 508.234 164.607 509.729C165.579 510.813 167.111 512.178 167.111 512.178C167.111 512.178 168.196 519.374 170.719 522.738C172.601 525.254 175.05 527.527 175.336 527.79L175.333 527.79C175.367 527.823 175.384 527.84 175.384 527.84L174.544 534.929L174.595 534.97L147.879 549.14C143.694 551.459 141.657 553.453 141.143 557.214C140.507 561.866 139.688 565.524 138.888 569.25C138.768 569.793 138.647 570.342 138.528 570.911L138.535 570.911C138.535 570.914 138.534 570.916 138.534 570.919L236.961 570.919C236.96 570.916 236.96 570.914 236.959 570.911L236.966 570.911Z" fill="#1C59F0"/>
</g>
<g clip-path="url(#clip2_255_2542)">
<path d="M317.426 534.025C317.277 532.588 317.288 531.148 317.387 529.774C321.694 532.444 326.269 531.67 326.269 531.67C326.269 531.67 323.964 526.795 324.516 520.25C325.614 518.112 326.596 515.723 327.484 513.137C329.575 511.766 331.474 509.316 332.485 504.842C332.879 503.096 332.57 501.438 331.815 499.993C340.277 472.538 322.574 461.002 311.901 461.002C309.879 461.002 307.766 461.194 305.688 461.56C303.608 461.194 301.495 461.002 299.474 461.002C288.8 461.002 271.097 472.539 279.559 499.995C278.805 501.439 278.497 503.096 278.891 504.842C280.143 510.387 282.761 512.82 285.419 513.946C289.001 523.404 285.105 531.67 285.105 531.67C285.105 531.67 289.681 532.444 293.989 529.773C294.088 531.147 294.099 532.588 293.949 534.026C292.52 547.788 261.979 546.589 261.979 564.704C261.979 568.43 274.467 574.93 305.688 574.93C336.909 574.93 349.397 568.43 349.397 564.704C349.397 546.589 318.856 547.788 317.426 534.025Z" fill="#1C59F0"/>
</g>
<path d="M763.577 79.7912C764.749 78.6197 764.749 76.7202 763.577 75.5486L744.486 56.4567C743.314 55.2851 741.414 55.2851 740.243 56.4567C739.071 57.6283 739.071 59.5278 740.243 60.6994L757.213 77.6699L740.243 94.6405C739.071 95.8121 739.071 97.7116 740.243 98.8831C741.414 100.055 743.314 100.055 744.486 98.8831L763.577 79.7912ZM483.456 80.6699L761.456 80.6699L761.456 74.6699L483.456 74.6699L483.456 80.6699Z" fill="#1C59F0"/>
<path d="M763.577 556.791C764.749 555.62 764.749 553.72 763.577 552.549L744.486 533.457C743.314 532.285 741.414 532.285 740.243 533.457C739.071 534.628 739.071 536.528 740.243 537.699L757.213 554.67L740.243 571.64C739.071 572.812 739.071 574.712 740.243 575.883C741.414 577.055 743.314 577.055 744.486 575.883L763.577 556.791ZM483.456 557.67L761.456 557.67L761.456 551.67L483.456 551.67L483.456 557.67Z" fill="#1C59F0"/>
<path d="M481.336 154.549C480.164 155.72 480.164 157.62 481.336 158.791L500.428 177.883C501.599 179.055 503.499 179.055 504.67 177.883C505.842 176.712 505.842 174.812 504.67 173.64L487.7 156.67L504.67 139.699C505.842 138.528 505.842 136.628 504.67 135.457C503.499 134.285 501.599 134.285 500.428 135.457L481.336 154.549ZM757.457 153.67L483.457 153.67L483.457 159.67L757.457 159.67L757.457 153.67Z" fill="#1C59F0"/>
<path d="M481.335 228.549C480.163 229.72 480.163 231.62 481.335 232.791L500.427 251.883C501.598 253.055 503.498 253.055 504.669 251.883C505.841 250.712 505.841 248.812 504.669 247.64L487.699 230.67L504.669 213.699C505.841 212.528 505.841 210.628 504.669 209.457C503.498 208.285 501.598 208.285 500.427 209.457L481.335 228.549ZM757.456 227.67L483.456 227.67L483.456 233.67L757.456 233.67L757.456 227.67Z" fill="#1C59F0"/>
<path d="M529.449 49.579L529.449 62.6699L526.681 62.6699L526.681 52.2061L526.605 52.2061L523.607 54.0854L523.607 51.6309L526.848 49.579L529.449 49.579ZM535.838 62.8361C535.416 62.8361 535.054 62.687 534.751 62.3887C534.453 62.0861 534.304 61.7239 534.304 61.302C534.304 60.8844 534.453 60.5265 534.751 60.2282C535.054 59.9299 535.416 59.7807 535.838 59.7807C536.247 59.7807 536.605 59.9299 536.912 60.2282C537.219 60.5265 537.372 60.8844 537.372 61.302C537.372 61.5833 537.3 61.8411 537.155 62.0755C537.014 62.3056 536.829 62.4909 536.599 62.6316C536.368 62.7679 536.115 62.8361 535.838 62.8361ZM551.243 47.9819L551.243 49.6019L545.951 49.6019L545.951 47.9819L551.243 47.9819ZM551.891 50.3939L551.891 52.0859L545.051 52.0859L545.051 50.3939L551.891 50.3939ZM551.297 52.8959L551.297 54.5339L545.897 54.5339L545.897 52.8959L551.297 52.8959ZM545.897 56.9639L545.897 55.3619L551.297 55.3619L551.297 56.9639L545.897 56.9639ZM549.497 59.5379L547.643 59.5379L547.643 61.6079L549.497 61.6079L549.497 59.5379ZM551.315 57.8459L551.315 63.2819L547.643 63.2819L547.643 63.9839L545.843 63.9839L545.843 57.8459L551.315 57.8459ZM555.077 59.5019L558.803 59.5019L558.803 58.6559L555.077 58.6559L555.077 59.5019ZM558.803 56.4599L555.077 56.4599L555.077 57.2699L558.803 57.2699L558.803 56.4599ZM560.801 54.9479L560.801 62.2379C560.801 63.1379 560.639 63.6059 560.027 63.8759C559.433 64.1639 558.587 64.1819 557.435 64.1819C557.363 63.6599 557.111 62.9399 556.877 62.4719C557.543 62.4899 558.281 62.4899 558.515 62.4719C558.749 62.4719 558.803 62.3999 558.803 62.2019L558.803 60.9059L555.077 60.9059L555.077 64.1999L553.115 64.1999L553.115 54.9479L560.801 54.9479ZM557.831 52.7339L561.773 52.7339L561.773 54.2819L551.891 54.2819L551.891 52.7339L555.797 52.7339L555.797 52.0139L552.773 52.0139L552.773 50.5739L555.797 50.5739L555.797 49.9259L552.323 49.9259L552.323 48.3959L555.797 48.3959L555.797 47.4239L557.831 47.4239L557.831 48.3959L561.449 48.3959L561.449 49.9259L557.831 49.9259L557.831 50.5739L561.179 50.5739L561.179 52.0139L557.831 52.0139L557.831 52.7339ZM568.937 57.3059L569.657 59.2679C567.875 60.4199 565.877 61.6619 564.311 62.5619L562.979 60.5819C564.473 59.8439 566.795 58.5479 568.937 57.3059ZM568.685 55.9379L566.939 57.1979C566.435 56.2979 565.229 54.8939 564.239 53.9399L565.877 52.7879C566.885 53.7059 568.127 55.0019 568.685 55.9379ZM577.001 52.5539L578.891 53.8679C577.811 55.1099 576.443 56.4599 575.345 57.4319C576.623 58.9979 578.189 60.2759 580.007 61.1039C579.485 61.5359 578.783 62.3999 578.423 63.0119C575.903 61.6619 573.959 59.4659 572.501 56.7839L572.501 61.6079C572.501 62.8679 572.267 63.4619 571.511 63.8039C570.755 64.1819 569.603 64.2539 568.001 64.2359C567.911 63.6239 567.587 62.6339 567.263 61.9859C568.361 62.0399 569.495 62.0219 569.855 62.0219C570.197 62.0219 570.323 61.9139 570.323 61.5899L570.323 52.2119L563.537 52.2119L563.537 50.1419L570.323 50.1419L570.323 47.4419L572.501 47.4419L572.501 50.1419L576.173 50.1419C575.435 49.6379 574.463 49.0799 573.689 48.6839L574.931 47.3339C576.011 47.8379 577.523 48.6299 578.279 49.2059L577.451 50.1419L579.449 50.1419L579.449 52.2119L572.501 52.2119L572.501 52.3919C572.933 53.5979 573.509 54.7499 574.175 55.8299C575.183 54.8579 576.299 53.5979 577.001 52.5539ZM582.365 56.1899L580.817 55.6679C581.195 54.4439 581.465 52.4279 581.555 50.9699L583.067 51.1679C583.031 52.6619 582.743 54.8039 582.365 56.1899ZM589.205 60.0779L594.587 60.0779L594.587 59.2499L589.205 59.2499L589.205 60.0779ZM594.587 56.8919L589.205 56.8919L589.205 57.7379L594.587 57.7379L594.587 56.8919ZM596.603 55.3259L596.603 62.1839C596.603 63.1199 596.423 63.6239 595.775 63.9119C595.145 64.2179 594.245 64.2179 593.003 64.2179C592.931 63.6959 592.679 62.9219 592.427 62.3999C593.165 62.4539 594.011 62.4359 594.245 62.4359C594.497 62.4359 594.587 62.3639 594.587 62.1479L594.587 61.5539L589.205 61.5539L589.205 64.2539L587.225 64.2539L587.225 55.3259L596.603 55.3259ZM592.913 53.1119L597.809 53.1119L597.809 54.6419L586.019 54.6419L586.019 53.1119L590.789 53.1119L590.789 52.3379L587.063 52.3379L587.099 52.4279L585.695 53.1119C585.569 52.5899 585.317 51.8339 585.029 51.1319L585.029 64.2179L583.103 64.2179L583.103 47.4239L585.029 47.4239L585.029 50.3039L586.055 49.8719C586.433 50.6459 586.847 51.6539 587.063 52.3199L587.063 50.8979L590.789 50.8979L590.789 50.1779L586.577 50.1779L586.577 48.6479L590.789 48.6479L590.789 47.4239L592.913 47.4239L592.913 48.6479L597.269 48.6479L597.269 50.1779L592.913 50.1779L592.913 50.8979L596.783 50.8979L596.783 52.3379L592.913 52.3379L592.913 53.1119ZM604.541 55.9199L603.965 55.7579C604.181 55.2179 604.451 54.4439 604.613 53.8319L601.877 53.8319C602.183 54.4799 602.435 55.2539 602.507 55.7579L601.931 55.9199L604.541 55.9199ZM604.235 50.7899L604.235 52.0319L607.241 52.0319L607.241 53.8319L605.747 53.8319L606.449 54.0119C606.143 54.6779 605.873 55.3799 605.621 55.9199L606.971 55.9199L606.971 57.7199L604.235 57.7199L604.235 59.1059L606.773 59.1059L606.773 60.9059L604.235 60.9059L604.235 64.1819L602.255 64.1819L602.255 60.9059L599.573 60.9059L599.573 59.1059L602.255 59.1059L602.255 57.7199L599.429 57.7199L599.429 55.9199L600.779 55.9199C600.671 55.3439 600.437 54.5879 600.185 53.9939L600.833 53.8319L599.051 53.8319L599.051 52.0319L602.255 52.0319L602.255 50.7899L599.681 50.7899L599.681 49.0259L602.255 49.0259L602.255 47.4599L604.235 47.4599L604.235 49.0259L606.575 49.0259L606.575 50.7899L604.235 50.7899ZM609.509 56.7839L609.509 62.5079C610.157 61.9859 610.733 61.3739 611.237 60.6719C610.535 59.5199 609.959 58.2059 609.509 56.7839ZM613.253 56.0459L611.021 56.0459C611.345 57.0359 611.777 57.9719 612.299 58.8359C612.713 57.9719 613.037 57.0179 613.253 56.0459ZM614.207 54.2639L615.485 54.7139C615.143 56.8919 614.513 58.9079 613.595 60.5999C614.333 61.4099 615.161 62.0939 616.097 62.5619C615.629 62.9579 615.017 63.7139 614.711 64.2539C613.865 63.7499 613.127 63.1019 612.461 62.3459C611.885 63.0839 611.237 63.7319 610.499 64.2719C610.265 63.9119 609.887 63.4979 609.509 63.1559L609.509 64.2179L607.565 64.2179L607.565 48.1799L615.071 48.1799L615.071 51.5639C615.071 52.4819 614.873 53.0039 614.171 53.2919C613.487 53.5799 612.515 53.5979 611.201 53.5979C611.111 53.0219 610.841 52.2839 610.589 51.7619C611.471 51.7979 612.461 51.7979 612.731 51.7979C613.001 51.7799 613.091 51.7259 613.091 51.5279L613.091 50.0519L609.509 50.0519L609.509 54.3539L613.847 54.3539L614.207 54.2639Z" fill="black"/>
<path d="M498.724 537.373L498.724 535.193L504.19 526.583L506.069 526.583L506.069 529.6L504.957 529.6L501.511 535.052L501.511 535.155L509.278 535.155L509.278 537.373L498.724 537.373ZM505.008 539.674L505.008 536.708L505.059 535.743L505.059 526.583L507.654 526.583L507.654 539.674L505.008 539.674ZM512.838 539.84C512.416 539.84 512.054 539.691 511.751 539.393C511.453 539.09 511.304 538.728 511.304 538.306C511.304 537.888 511.453 537.53 511.751 537.232C512.054 536.934 512.416 536.785 512.838 536.785C513.247 536.785 513.605 536.934 513.912 537.232C514.219 537.53 514.372 537.888 514.372 538.306C514.372 538.587 514.3 538.845 514.155 539.079C514.014 539.309 513.829 539.495 513.599 539.635C513.368 539.772 513.115 539.84 512.838 539.84ZM535.497 525.31C535.947 525.976 536.577 527.11 536.919 527.776L535.479 528.406C535.101 527.668 534.561 526.588 534.075 525.904L535.497 525.31ZM537.621 524.5C538.089 525.184 538.755 526.318 539.079 526.948L537.639 527.56C537.279 526.822 536.685 525.76 536.199 525.094L537.621 524.5ZM524.913 534.076C525.723 532.06 526.407 529.522 526.623 527.236L529.251 527.776C529.089 528.298 528.891 529.18 528.819 529.576C528.567 530.836 527.919 533.32 527.289 534.994C526.641 536.74 525.579 538.792 524.625 540.142L522.105 539.08C523.239 537.604 524.301 535.66 524.913 534.076ZM533.805 533.698C533.121 531.808 531.951 529.144 531.195 527.776L533.589 527.002C534.327 528.388 535.569 531.16 536.253 532.906C536.883 534.526 537.837 537.406 538.341 539.188L535.677 540.052C535.173 537.91 534.525 535.642 533.805 533.698ZM541.113 531.34C541.761 531.394 543.075 531.448 544.011 531.448L553.677 531.448C554.523 531.448 555.315 531.376 555.783 531.34L555.783 534.166C555.351 534.148 554.433 534.076 553.677 534.076L544.011 534.076C542.985 534.076 541.779 534.112 541.113 534.166L541.113 531.34ZM560.283 526.894C560.949 526.966 561.885 527.002 562.497 527.002L571.569 527.002C572.091 527.002 572.847 526.984 573.153 526.966C573.135 527.38 573.099 528.1 573.099 528.622L573.099 537.946C573.099 538.576 573.135 539.53 573.171 540.07L570.561 540.07C570.579 539.782 570.579 539.476 570.579 539.134L562.371 539.134C561.669 539.134 560.643 539.188 560.049 539.242L560.049 536.668C560.679 536.722 561.489 536.776 562.299 536.776L570.597 536.776L570.597 529.324L562.515 529.324C561.759 529.324 560.787 529.36 560.283 529.396L560.283 526.894ZM577.113 531.34C577.761 531.394 579.075 531.448 580.011 531.448L589.677 531.448C590.523 531.448 591.315 531.376 591.783 531.34L591.783 534.166C591.351 534.148 590.433 534.076 589.677 534.076L580.011 534.076C578.985 534.076 577.779 534.112 577.113 534.166L577.113 531.34ZM605.733 526.282C606.237 527.038 606.957 528.19 607.371 529L605.805 529.702C605.283 528.568 604.887 527.848 604.221 526.912L605.733 526.282ZM608.091 525.292C608.613 526.012 609.369 527.146 609.783 527.956L608.271 528.694C607.695 527.56 607.263 526.894 606.597 525.994L608.091 525.292ZM598.551 538.216L598.551 527.866C598.551 527.218 598.497 526.336 598.371 525.688L601.179 525.688C601.107 526.318 601.017 527.11 601.017 527.866L601.017 530.494C603.411 531.214 606.885 532.492 608.541 533.302L607.533 535.804C605.661 534.814 602.961 533.77 601.017 533.122L601.017 538.216C601.017 538.72 601.107 539.98 601.197 540.718L598.371 540.718C598.479 540.016 598.551 538.918 598.551 538.216ZM625.623 527.398L625.623 526.498L620.763 526.498L620.763 527.398L625.623 527.398ZM625.623 529.684L625.623 528.766L620.763 528.766L620.763 529.684L625.623 529.684ZM627.675 524.986L627.675 531.196L618.801 531.196L618.801 524.986L627.675 524.986ZM617.901 533.968L615.993 534.544L615.993 538.738C615.993 539.728 615.831 540.25 615.291 540.574C614.751 540.934 613.959 541.006 612.807 540.988C612.753 540.466 612.519 539.584 612.249 539.026C612.915 539.044 613.527 539.044 613.743 539.026C613.959 539.026 614.049 538.954 614.049 538.72L614.049 535.12C613.455 535.282 612.915 535.444 612.393 535.588L611.907 533.518C612.519 533.392 613.239 533.194 614.049 532.996L614.049 529.81L612.105 529.81L612.105 527.83L614.049 527.83L614.049 524.428L615.993 524.428L615.993 527.83L617.793 527.83L617.793 529.81L615.993 529.81L615.993 532.474L617.613 532.042L617.901 533.968ZM624.183 537.01L624.183 539.08C624.597 539.116 624.993 539.134 625.443 539.134C626.055 539.134 628.287 539.134 629.061 539.116C628.809 539.548 628.557 540.448 628.485 540.988L625.353 540.988C622.995 540.988 621.177 540.556 619.953 538.378C619.503 539.512 618.855 540.466 618.081 541.204C617.739 540.862 616.929 540.196 616.497 539.926C617.991 538.738 618.729 536.74 618.999 534.292L620.943 534.526C620.853 535.174 620.745 535.786 620.601 536.344C620.997 537.388 621.519 538.036 622.167 538.45L622.167 533.752L617.937 533.752L617.937 532.024L628.575 532.024L628.575 533.752L624.183 533.752L624.183 535.336L627.621 535.336L627.621 537.01L624.183 537.01ZM644.793 525.58L644.793 527.704L632.103 527.704L632.103 525.58L644.793 525.58ZM633.021 533.356L635.289 533.95C634.497 536.056 633.147 538.234 631.869 539.584C631.419 539.206 630.447 538.576 629.889 538.306C631.185 537.118 632.391 535.21 633.021 533.356ZM646.467 532.042L639.681 532.042L639.681 538.72C639.681 539.926 639.429 540.52 638.583 540.862C637.755 541.204 636.567 541.24 635.001 541.24C634.893 540.574 634.569 539.602 634.245 538.954C635.271 539.008 636.531 539.026 636.873 539.008C637.215 539.008 637.341 538.918 637.341 538.666L637.341 532.042L630.465 532.042L630.465 529.9L646.467 529.9L646.467 532.042ZM641.517 534.13L643.533 533.284C644.721 534.94 646.017 537.118 646.521 538.648L644.289 539.638C643.893 538.162 642.669 535.84 641.517 534.13ZM652.047 540.916C650.949 539.566 649.419 538.018 648.177 536.938L650.049 535.318C651.327 536.362 653.073 538.144 653.973 539.26L652.047 540.916ZM677.661 533.104L671.469 533.104C672.189 534.418 673.197 535.516 674.493 536.416C675.807 535.552 676.887 534.472 677.661 533.104ZM679.245 530.926L680.739 531.772C679.839 534.238 678.363 536.128 676.509 537.568C678.291 538.378 680.415 538.918 682.899 539.188C682.449 539.692 681.837 540.646 681.531 541.276C678.669 540.862 676.293 540.106 674.367 538.954C672.261 540.07 669.813 540.79 667.185 541.24C666.987 540.664 666.429 539.656 666.015 539.17C668.373 538.864 670.551 538.342 672.405 537.532C671.199 536.47 670.209 535.174 669.381 533.644L670.965 533.104L667.635 533.104L667.635 530.998L673.287 530.998L673.287 528.91L666.735 528.91L666.735 526.786L673.287 526.786L673.287 524.446L675.501 524.446L675.501 526.786L682.089 526.786L682.089 528.91L675.501 528.91L675.501 530.998L678.867 530.998L679.245 530.926ZM691.377 534.004L688.857 534.58L688.857 538.882C688.857 539.98 688.641 540.502 688.011 540.844C687.381 541.168 686.427 541.24 685.059 541.24C684.987 540.682 684.717 539.8 684.447 539.224C685.257 539.26 686.139 539.26 686.391 539.26C686.661 539.242 686.769 539.152 686.769 538.864L686.769 535.048C685.923 535.228 685.131 535.408 684.411 535.552L683.961 533.446C684.753 533.338 685.707 533.158 686.769 532.978L686.769 529.828L684.231 529.828L684.231 527.848L686.769 527.848L686.769 524.428L688.857 524.428L688.857 527.848L691.161 527.848L691.161 529.828L688.857 529.828L688.857 532.582C689.649 532.42 690.441 532.276 691.233 532.114L691.377 534.004ZM701.061 540.43L698.937 541.222C698.847 540.754 698.703 540.214 698.541 539.638C695.427 540.106 692.169 540.52 689.793 540.862L689.325 538.63C689.883 538.576 690.513 538.522 691.215 538.45C692.277 534.706 693.375 529.252 693.861 524.896L696.201 525.274C695.535 529.594 694.473 534.562 693.429 538.198C694.851 538.054 696.363 537.874 697.875 537.694C697.299 536.164 696.579 534.562 695.877 533.176L697.767 532.51C699.135 535.03 700.557 538.288 701.061 540.43ZM706.137 526.804C706.011 527.452 705.921 528.496 705.921 529C705.903 530.17 705.921 531.52 706.029 532.816C706.281 535.408 706.821 537.19 707.955 537.19C708.801 537.19 709.521 535.084 709.863 533.644L711.663 535.84C710.475 538.972 709.341 540.07 707.901 540.07C705.921 540.07 704.211 538.288 703.707 533.464C703.527 531.808 703.509 529.702 703.509 528.604C703.509 528.1 703.473 527.326 703.365 526.768L706.137 526.804ZM715.137 527.218C716.847 529.288 718.215 533.788 718.413 536.542L716.055 537.46C715.767 534.562 714.813 530.188 712.851 527.956L715.137 527.218Z" fill="black"/>
<path d="M282.48 339.849C281.525 339.849 280.675 339.685 279.93 339.357C279.188 339.024 278.602 338.568 278.172 337.989C277.746 337.405 277.526 336.732 277.513 335.969L280.3 335.969C280.317 336.289 280.422 336.57 280.614 336.813C280.81 337.051 281.069 337.237 281.393 337.369C281.717 337.501 282.082 337.567 282.486 337.567C282.908 337.567 283.281 337.492 283.605 337.343C283.929 337.194 284.182 336.987 284.366 336.723C284.549 336.459 284.641 336.154 284.641 335.809C284.641 335.46 284.542 335.151 284.346 334.882C284.155 334.61 283.878 334.396 283.516 334.243C283.158 334.09 282.731 334.013 282.237 334.013L281.016 334.013L281.016 331.98L282.237 331.98C282.655 331.98 283.023 331.908 283.343 331.763C283.667 331.618 283.918 331.418 284.097 331.162C284.276 330.902 284.366 330.6 284.366 330.254C284.366 329.926 284.287 329.639 284.129 329.392C283.976 329.14 283.758 328.944 283.477 328.803C283.2 328.663 282.876 328.593 282.506 328.593C282.131 328.593 281.788 328.661 281.476 328.797C281.165 328.929 280.916 329.119 280.729 329.366C280.541 329.613 280.441 329.903 280.428 330.235L277.775 330.235C277.788 329.481 278.003 328.816 278.421 328.241C278.839 327.666 279.401 327.216 280.109 326.892C280.82 326.564 281.623 326.4 282.518 326.4C283.422 326.4 284.212 326.564 284.89 326.892C285.567 327.22 286.094 327.664 286.469 328.222C286.848 328.776 287.035 329.398 287.031 330.088C287.035 330.821 286.807 331.433 286.347 331.923C285.891 332.413 285.297 332.724 284.564 332.856L284.564 332.958C285.527 333.082 286.26 333.416 286.763 333.962C287.27 334.503 287.521 335.181 287.517 335.994C287.521 336.74 287.306 337.403 286.871 337.982C286.441 338.562 285.846 339.018 285.088 339.35C284.329 339.683 283.46 339.849 282.48 339.849ZM291.381 339.836C290.959 339.836 290.597 339.687 290.294 339.389C289.996 339.086 289.847 338.724 289.847 338.302C289.847 337.884 289.996 337.526 290.294 337.228C290.597 336.93 290.959 336.781 291.381 336.781C291.79 336.781 292.148 336.93 292.455 337.228C292.762 337.526 292.915 337.884 292.915 338.302C292.915 338.583 292.843 338.841 292.698 339.075C292.557 339.306 292.372 339.491 292.142 339.632C291.911 339.768 291.658 339.836 291.381 339.836ZM306.786 324.982L306.786 326.602L301.494 326.602L301.494 324.982L306.786 324.982ZM307.434 327.394L307.434 329.086L300.594 329.086L300.594 327.394L307.434 327.394ZM306.84 329.896L306.84 331.534L301.44 331.534L301.44 329.896L306.84 329.896ZM301.44 333.964L301.44 332.362L306.84 332.362L306.84 333.964L301.44 333.964ZM305.04 336.538L303.186 336.538L303.186 338.608L305.04 338.608L305.04 336.538ZM306.858 334.846L306.858 340.282L303.186 340.282L303.186 340.984L301.386 340.984L301.386 334.846L306.858 334.846ZM310.62 336.502L314.346 336.502L314.346 335.656L310.62 335.656L310.62 336.502ZM314.346 333.46L310.62 333.46L310.62 334.27L314.346 334.27L314.346 333.46ZM316.344 331.948L316.344 339.238C316.344 340.138 316.182 340.606 315.57 340.876C314.976 341.164 314.13 341.182 312.978 341.182C312.906 340.66 312.654 339.94 312.42 339.472C313.086 339.49 313.824 339.49 314.058 339.472C314.292 339.472 314.346 339.4 314.346 339.202L314.346 337.906L310.62 337.906L310.62 341.2L308.658 341.2L308.658 331.948L316.344 331.948ZM313.374 329.734L317.316 329.734L317.316 331.282L307.434 331.282L307.434 329.734L311.34 329.734L311.34 329.014L308.316 329.014L308.316 327.574L311.34 327.574L311.34 326.926L307.866 326.926L307.866 325.396L311.34 325.396L311.34 324.424L313.374 324.424L313.374 325.396L316.992 325.396L316.992 326.926L313.374 326.926L313.374 327.574L316.722 327.574L316.722 329.014L313.374 329.014L313.374 329.734ZM324.48 334.306L325.2 336.268C323.418 337.42 321.42 338.662 319.854 339.562L318.522 337.582C320.016 336.844 322.338 335.548 324.48 334.306ZM324.228 332.938L322.482 334.198C321.978 333.298 320.772 331.894 319.782 330.94L321.42 329.788C322.428 330.706 323.67 332.002 324.228 332.938ZM332.544 329.554L334.434 330.868C333.354 332.11 331.986 333.46 330.888 334.432C332.166 335.998 333.732 337.276 335.55 338.104C335.028 338.536 334.326 339.4 333.966 340.012C331.446 338.662 329.502 336.466 328.044 333.784L328.044 338.608C328.044 339.868 327.81 340.462 327.054 340.804C326.298 341.182 325.146 341.254 323.544 341.236C323.454 340.624 323.13 339.634 322.806 338.986C323.904 339.04 325.038 339.022 325.398 339.022C325.74 339.022 325.866 338.914 325.866 338.59L325.866 329.212L319.08 329.212L319.08 327.142L325.866 327.142L325.866 324.442L328.044 324.442L328.044 327.142L331.716 327.142C330.978 326.638 330.006 326.08 329.232 325.684L330.474 324.334C331.554 324.838 333.066 325.63 333.822 326.206L332.994 327.142L334.992 327.142L334.992 329.212L328.044 329.212L328.044 329.392C328.476 330.598 329.052 331.75 329.718 332.83C330.726 331.858 331.842 330.598 332.544 329.554ZM337.908 333.19L336.36 332.668C336.738 331.444 337.008 329.428 337.098 327.97L338.61 328.168C338.574 329.662 338.286 331.804 337.908 333.19ZM344.748 337.078L350.13 337.078L350.13 336.25L344.748 336.25L344.748 337.078ZM350.13 333.892L344.748 333.892L344.748 334.738L350.13 334.738L350.13 333.892ZM352.146 332.326L352.146 339.184C352.146 340.12 351.966 340.624 351.318 340.912C350.688 341.218 349.788 341.218 348.546 341.218C348.474 340.696 348.222 339.922 347.97 339.4C348.708 339.454 349.554 339.436 349.788 339.436C350.04 339.436 350.13 339.364 350.13 339.148L350.13 338.554L344.748 338.554L344.748 341.254L342.768 341.254L342.768 332.326L352.146 332.326ZM348.456 330.112L353.352 330.112L353.352 331.642L341.562 331.642L341.562 330.112L346.332 330.112L346.332 329.338L342.606 329.338L342.642 329.428L341.238 330.112C341.112 329.59 340.86 328.834 340.572 328.132L340.572 341.218L338.646 341.218L338.646 324.424L340.572 324.424L340.572 327.304L341.598 326.872C341.976 327.646 342.39 328.654 342.606 329.32L342.606 327.898L346.332 327.898L346.332 327.178L342.12 327.178L342.12 325.648L346.332 325.648L346.332 324.424L348.456 324.424L348.456 325.648L352.812 325.648L352.812 327.178L348.456 327.178L348.456 327.898L352.326 327.898L352.326 329.338L348.456 329.338L348.456 330.112ZM360.084 332.92L359.508 332.758C359.724 332.218 359.994 331.444 360.156 330.832L357.42 330.832C357.726 331.48 357.978 332.254 358.05 332.758L357.474 332.92L360.084 332.92ZM359.778 327.79L359.778 329.032L362.784 329.032L362.784 330.832L361.29 330.832L361.992 331.012C361.686 331.678 361.416 332.38 361.164 332.92L362.514 332.92L362.514 334.72L359.778 334.72L359.778 336.106L362.316 336.106L362.316 337.906L359.778 337.906L359.778 341.182L357.798 341.182L357.798 337.906L355.116 337.906L355.116 336.106L357.798 336.106L357.798 334.72L354.972 334.72L354.972 332.92L356.322 332.92C356.214 332.344 355.98 331.588 355.728 330.994L356.376 330.832L354.594 330.832L354.594 329.032L357.798 329.032L357.798 327.79L355.224 327.79L355.224 326.026L357.798 326.026L357.798 324.46L359.778 324.46L359.778 326.026L362.118 326.026L362.118 327.79L359.778 327.79ZM365.052 333.784L365.052 339.508C365.7 338.986 366.276 338.374 366.78 337.672C366.078 336.52 365.502 335.206 365.052 333.784ZM368.796 333.046L366.564 333.046C366.888 334.036 367.32 334.972 367.842 335.836C368.256 334.972 368.58 334.018 368.796 333.046ZM369.75 331.264L371.028 331.714C370.686 333.892 370.056 335.908 369.138 337.6C369.876 338.41 370.704 339.094 371.64 339.562C371.172 339.958 370.56 340.714 370.254 341.254C369.408 340.75 368.67 340.102 368.004 339.346C367.428 340.084 366.78 340.732 366.042 341.272C365.808 340.912 365.43 340.498 365.052 340.156L365.052 341.218L363.108 341.218L363.108 325.18L370.614 325.18L370.614 328.564C370.614 329.482 370.416 330.004 369.714 330.292C369.03 330.58 368.058 330.598 366.744 330.598C366.654 330.022 366.384 329.284 366.132 328.762C367.014 328.798 368.004 328.798 368.274 328.798C368.544 328.78 368.634 328.726 368.634 328.528L368.634 327.052L365.052 327.052L365.052 331.354L369.39 331.354L369.75 331.264ZM301.688 356.422C301.688 354.837 301.898 353.377 302.32 352.044C302.746 350.71 303.396 349.474 304.27 348.336L306.871 348.336C306.539 348.758 306.23 349.274 305.945 349.883C305.659 350.488 305.41 351.153 305.197 351.877C304.984 352.602 304.817 353.352 304.698 354.127C304.579 354.899 304.519 355.664 304.519 356.422C304.519 357.432 304.621 358.453 304.826 359.484C305.035 360.511 305.316 361.465 305.67 362.347C306.028 363.23 306.428 363.952 306.871 364.514L304.27 364.514C303.396 363.377 302.746 362.141 302.32 360.807C301.898 359.473 301.688 358.012 301.688 356.422ZM321.405 347.306C321.855 347.972 322.485 349.106 322.827 349.772L321.387 350.402C321.009 349.664 320.469 348.584 319.983 347.9L321.405 347.306ZM323.529 346.496C323.997 347.18 324.663 348.314 324.987 348.944L323.547 349.556C323.187 348.818 322.593 347.756 322.107 347.09L323.529 346.496ZM310.821 356.072C311.631 354.056 312.315 351.518 312.531 349.232L315.159 349.772C314.997 350.294 314.799 351.176 314.727 351.572C314.475 352.832 313.827 355.316 313.197 356.99C312.549 358.736 311.487 360.788 310.533 362.138L308.013 361.076C309.147 359.6 310.209 357.656 310.821 356.072ZM319.713 355.694C319.029 353.804 317.859 351.14 317.103 349.772L319.497 348.998C320.235 350.384 321.477 353.156 322.161 354.902C322.791 356.522 323.745 359.402 324.249 361.184L321.585 362.048C321.081 359.906 320.433 357.638 319.713 355.694ZM327.021 353.336C327.669 353.39 328.983 353.444 329.919 353.444L339.585 353.444C340.431 353.444 341.223 353.372 341.691 353.336L341.691 356.162C341.259 356.144 340.341 356.072 339.585 356.072L329.919 356.072C328.893 356.072 327.687 356.108 327.021 356.162L327.021 353.336ZM346.191 348.89C346.857 348.962 347.793 348.998 348.405 348.998L357.477 348.998C357.999 348.998 358.755 348.98 359.061 348.962C359.043 349.376 359.007 350.096 359.007 350.618L359.007 359.942C359.007 360.572 359.043 361.526 359.079 362.066L356.469 362.066C356.487 361.778 356.487 361.472 356.487 361.13L348.279 361.13C347.577 361.13 346.551 361.184 345.957 361.238L345.957 358.664C346.587 358.718 347.397 358.772 348.207 358.772L356.505 358.772L356.505 351.32L348.423 351.32C347.667 351.32 346.695 351.356 346.191 351.392L346.191 348.89ZM363.021 353.336C363.669 353.39 364.983 353.444 365.919 353.444L375.585 353.444C376.431 353.444 377.223 353.372 377.691 353.336L377.691 356.162C377.259 356.144 376.341 356.072 375.585 356.072L365.919 356.072C364.893 356.072 363.687 356.108 363.021 356.162L363.021 353.336ZM391.641 348.278C392.145 349.034 392.865 350.186 393.279 350.996L391.713 351.698C391.191 350.564 390.795 349.844 390.129 348.908L391.641 348.278ZM393.999 347.288C394.521 348.008 395.277 349.142 395.691 349.952L394.179 350.69C393.603 349.556 393.171 348.89 392.505 347.99L393.999 347.288ZM384.459 360.212L384.459 349.862C384.459 349.214 384.405 348.332 384.279 347.684L387.087 347.684C387.015 348.314 386.925 349.106 386.925 349.862L386.925 352.49C389.319 353.21 392.793 354.488 394.449 355.298L393.441 357.8C391.569 356.81 388.869 355.766 386.925 355.118L386.925 360.212C386.925 360.716 387.015 361.976 387.105 362.714L384.279 362.714C384.387 362.012 384.459 360.914 384.459 360.212ZM412.485 355.136L414.267 356.468C413.133 357.278 411.801 358.106 410.685 358.7C411.747 359.888 413.151 360.77 414.933 361.274C414.465 361.724 413.853 362.588 413.547 363.182C409.749 361.886 407.769 359.15 406.581 355.154C405.897 355.802 405.087 356.414 404.223 356.972L404.223 360.32C405.501 360.05 406.851 359.762 408.147 359.474L408.345 361.418C405.519 362.084 402.495 362.714 400.263 363.2L399.633 361.22C400.335 361.094 401.181 360.932 402.081 360.752L402.081 358.178C401.091 358.664 400.083 359.06 399.093 359.366C398.787 358.88 398.175 358.07 397.725 357.638C399.867 357.08 402.171 356.054 403.863 354.884L398.391 354.884L398.391 353.066L405.249 353.066L405.249 352.058L399.903 352.058L399.903 350.348L405.249 350.348L405.249 349.43L399.057 349.43L399.057 347.612L405.249 347.612L405.249 346.424L407.391 346.424L407.391 347.612L413.727 347.612L413.727 349.43L407.391 349.43L407.391 350.348L413.025 350.348L413.025 352.058L407.391 352.058L407.391 353.066L414.303 353.066L414.303 354.884L408.579 354.884C408.867 355.766 409.209 356.558 409.659 357.296C410.667 356.63 411.747 355.82 412.485 355.136ZM430.701 347.576L430.701 349.7L418.011 349.7L418.011 347.576L430.701 347.576ZM418.929 355.352L421.197 355.946C420.405 358.052 419.055 360.23 417.777 361.58C417.327 361.202 416.355 360.572 415.797 360.302C417.093 359.114 418.299 357.206 418.929 355.352ZM432.375 354.038L425.589 354.038L425.589 360.716C425.589 361.922 425.337 362.516 424.491 362.858C423.663 363.2 422.475 363.236 420.909 363.236C420.801 362.57 420.477 361.598 420.153 360.95C421.179 361.004 422.439 361.022 422.781 361.004C423.123 361.004 423.249 360.914 423.249 360.662L423.249 354.038L416.373 354.038L416.373 351.896L432.375 351.896L432.375 354.038ZM427.425 356.126L429.441 355.28C430.629 356.936 431.925 359.114 432.429 360.644L430.197 361.634C429.801 360.158 428.577 357.836 427.425 356.126ZM443.625 355.964L447.423 355.964L447.423 353.75L443.625 353.75L443.625 355.964ZM438.027 355.964L441.465 355.964L441.465 353.75L438.081 353.75L438.081 354.074C438.081 354.65 438.063 355.298 438.027 355.964ZM441.465 349.664L438.081 349.664L438.081 351.752L441.465 351.752L441.465 349.664ZM447.423 351.752L447.423 349.664L443.625 349.664L443.625 351.752L447.423 351.752ZM449.547 347.63L449.547 360.698C449.547 361.85 449.295 362.426 448.575 362.75C447.837 363.11 446.739 363.146 445.119 363.128C445.047 362.552 444.705 361.634 444.435 361.076C445.443 361.13 446.631 361.112 446.955 361.112C447.297 361.112 447.423 361.004 447.423 360.68L447.423 357.98L443.625 357.98L443.625 363.002L441.465 363.002L441.465 357.98L437.793 357.98C437.469 359.942 436.821 361.922 435.525 363.326C435.183 362.93 434.319 362.192 433.833 361.94C435.795 359.78 435.957 356.576 435.957 354.056L435.957 347.63L449.547 347.63ZM460.589 348.579L463.357 348.579L463.357 357.08C463.357 358.035 463.129 358.87 462.673 359.586C462.221 360.302 461.588 360.86 460.774 361.261C459.96 361.657 459.012 361.855 457.93 361.855C456.843 361.855 455.893 361.657 455.079 361.261C454.265 360.86 453.632 360.302 453.181 359.586C452.729 358.87 452.503 358.035 452.503 357.08L452.503 348.579L455.271 348.579L455.271 356.844C455.271 357.343 455.379 357.786 455.597 358.173C455.818 358.561 456.129 358.866 456.53 359.088C456.931 359.309 457.397 359.42 457.93 359.42C458.467 359.42 458.933 359.309 459.33 359.088C459.73 358.866 460.039 358.561 460.257 358.173C460.478 357.786 460.589 357.343 460.589 356.844L460.589 348.579ZM465.634 361.67L465.634 348.579L470.799 348.579C471.787 348.579 472.631 348.756 473.33 349.11C474.033 349.459 474.568 349.955 474.934 350.599C475.305 351.238 475.49 351.99 475.49 352.855C475.49 353.725 475.303 354.472 474.928 355.099C474.553 355.721 474.01 356.198 473.298 356.531C472.591 356.863 471.734 357.029 470.728 357.029L467.27 357.029L467.27 354.805L470.281 354.805C470.809 354.805 471.248 354.732 471.598 354.588C471.947 354.443 472.207 354.225 472.377 353.936C472.552 353.646 472.64 353.286 472.64 352.855C472.64 352.421 472.552 352.054 472.377 351.756C472.207 351.458 471.945 351.232 471.591 351.078C471.242 350.921 470.801 350.842 470.268 350.842L468.402 350.842L468.402 361.67L465.634 361.67ZM472.703 355.713L475.957 361.67L472.902 361.67L469.718 355.713L472.703 355.713ZM477.446 361.67L477.446 348.579L480.214 348.579L480.214 359.388L485.826 359.388L485.826 361.67L477.446 361.67ZM492.198 355.124C492.198 356.714 491.985 358.176 491.558 359.509C491.137 360.843 490.489 362.079 489.615 363.217L487.014 363.217C487.346 362.795 487.655 362.279 487.941 361.67C488.226 361.061 488.475 360.396 488.688 359.676C488.901 358.951 489.068 358.201 489.187 357.426C489.306 356.65 489.366 355.883 489.366 355.124C489.366 354.115 489.262 353.096 489.053 352.069C488.848 351.038 488.567 350.083 488.209 349.205C487.855 348.323 487.457 347.601 487.014 347.039L489.615 347.039C490.489 348.176 491.137 349.412 491.558 350.746C491.985 352.08 492.198 353.539 492.198 355.124Z" fill="black"/>
<path d="M934.955 353.849C934.052 353.849 933.246 353.683 932.539 353.35C931.836 353.018 931.278 352.56 930.864 351.976C930.451 351.392 930.236 350.723 930.219 349.969L932.903 349.969C932.933 350.476 933.146 350.887 933.543 351.203C933.939 351.518 934.41 351.676 934.955 351.676C935.39 351.676 935.773 351.58 936.106 351.388C936.442 351.192 936.705 350.921 936.892 350.576C937.084 350.227 937.18 349.826 937.18 349.374C937.18 348.914 937.082 348.509 936.886 348.16C936.694 347.811 936.428 347.538 936.087 347.342C935.746 347.146 935.356 347.046 934.917 347.041C934.533 347.041 934.16 347.12 933.798 347.278C933.44 347.436 933.161 347.651 932.961 347.923L930.5 347.482L931.12 340.579L939.123 340.579L939.123 342.842L933.402 342.842L933.063 346.121L933.14 346.121C933.37 345.797 933.717 345.529 934.182 345.316C934.646 345.102 935.166 344.996 935.741 344.996C936.53 344.996 937.233 345.181 937.851 345.552C938.469 345.923 938.957 346.432 939.315 347.08C939.673 347.723 939.849 348.465 939.845 349.304C939.849 350.186 939.645 350.97 939.232 351.656C938.822 352.338 938.249 352.875 937.512 353.267C936.779 353.655 935.927 353.849 934.955 353.849ZM943.837 353.836C943.415 353.836 943.053 353.687 942.75 353.389C942.452 353.086 942.303 352.724 942.303 352.302C942.303 351.884 942.452 351.526 942.75 351.228C943.053 350.93 943.415 350.781 943.837 350.781C944.246 350.781 944.604 350.93 944.911 351.228C945.218 351.526 945.371 351.884 945.371 352.302C945.371 352.583 945.299 352.841 945.154 353.075C945.013 353.306 944.828 353.491 944.598 353.632C944.368 353.768 944.114 353.836 943.837 353.836ZM964.66 347.1L958.468 347.1C959.188 348.414 960.196 349.512 961.492 350.412C962.806 349.548 963.886 348.468 964.66 347.1ZM966.244 344.922L967.738 345.768C966.838 348.234 965.362 350.124 963.508 351.564C965.29 352.374 967.414 352.914 969.898 353.184C969.448 353.688 968.836 354.642 968.53 355.272C965.668 354.858 963.292 354.102 961.366 352.95C959.26 354.066 956.812 354.786 954.184 355.236C953.986 354.66 953.428 353.652 953.014 353.166C955.372 352.86 957.55 352.338 959.404 351.528C958.198 350.466 957.208 349.17 956.38 347.64L957.964 347.1L954.634 347.1L954.634 344.994L960.286 344.994L960.286 342.906L953.734 342.906L953.734 340.782L960.286 340.782L960.286 338.442L962.5 338.442L962.5 340.782L969.088 340.782L969.088 342.906L962.5 342.906L962.5 344.994L965.866 344.994L966.244 344.922ZM978.376 348L975.856 348.576L975.856 352.878C975.856 353.976 975.64 354.498 975.01 354.84C974.38 355.164 973.426 355.236 972.058 355.236C971.986 354.678 971.716 353.796 971.446 353.22C972.256 353.256 973.138 353.256 973.39 353.256C973.66 353.238 973.768 353.148 973.768 352.86L973.768 349.044C972.922 349.224 972.13 349.404 971.41 349.548L970.96 347.442C971.752 347.334 972.706 347.154 973.768 346.974L973.768 343.824L971.23 343.824L971.23 341.844L973.768 341.844L973.768 338.424L975.856 338.424L975.856 341.844L978.16 341.844L978.16 343.824L975.856 343.824L975.856 346.578C976.648 346.416 977.44 346.272 978.232 346.11L978.376 348ZM988.06 354.426L985.936 355.218C985.846 354.75 985.702 354.21 985.54 353.634C982.426 354.102 979.168 354.516 976.792 354.858L976.324 352.626C976.882 352.572 977.512 352.518 978.214 352.446C979.276 348.702 980.374 343.248 980.86 338.892L983.2 339.27C982.534 343.59 981.472 348.558 980.428 352.194C981.85 352.05 983.362 351.87 984.874 351.69C984.298 350.16 983.578 348.558 982.876 347.172L984.766 346.506C986.134 349.026 987.556 352.284 988.06 354.426ZM993.136 340.8C993.01 341.448 992.92 342.492 992.92 342.996C992.902 344.166 992.92 345.516 993.028 346.812C993.28 349.404 993.82 351.186 994.954 351.186C995.8 351.186 996.52 349.08 996.862 347.64L998.662 349.836C997.474 352.968 996.34 354.066 994.9 354.066C992.92 354.066 991.21 352.284 990.706 347.46C990.526 345.804 990.508 343.698 990.508 342.6C990.508 342.096 990.472 341.322 990.364 340.764L993.136 340.8ZM1002.14 341.214C1003.85 343.284 1005.21 347.784 1005.41 350.538L1003.05 351.456C1002.77 348.558 1001.81 344.184 999.85 341.952L1002.14 341.214ZM1010.74 347.91L1012.36 349.242C1011.46 351.15 1010.4 353.22 1009.39 354.984L1007.52 353.652C1008.42 352.284 1009.71 350.016 1010.74 347.91ZM1011.48 345.066L1010.25 346.848C1009.57 346.236 1008.15 345.444 1007.01 344.958L1008.15 343.356C1009.26 343.752 1010.76 344.454 1011.48 345.066ZM1020.17 346.632L1022.04 346.632C1020.57 346.308 1019.16 345.912 1017.89 345.3C1016.77 345.822 1015.55 346.236 1014.25 346.578L1015.76 346.578L1015.76 347.37L1020.17 347.37L1020.17 346.632ZM1015.65 350.394L1020.17 350.394L1020.17 349.152L1015.76 349.152C1015.74 349.53 1015.73 349.962 1015.65 350.394ZM1019.56 341.898L1016.19 341.898C1016.77 342.42 1017.36 342.852 1017.99 343.194C1018.61 342.816 1019.13 342.384 1019.56 341.898ZM1023.65 341.898L1021.97 341.898C1021.43 342.726 1020.75 343.428 1019.96 344.04C1021.23 344.436 1022.6 344.688 1024.08 344.886C1023.61 345.372 1023.12 346.146 1022.93 346.812L1022.28 346.686L1022.28 355.2L1020.17 355.2L1020.17 352.158L1015.29 352.158C1014.92 353.346 1014.29 354.516 1013.17 355.416C1012.79 355.092 1011.98 354.516 1011.46 354.282C1013.48 352.698 1013.71 350.196 1013.71 348.666L1013.71 346.704C1013.35 346.794 1012.97 346.884 1012.59 346.956C1012.41 346.47 1011.91 345.57 1011.59 345.156C1013.15 344.94 1014.66 344.616 1015.98 344.148C1015.17 343.536 1014.41 342.816 1013.73 341.898L1012.32 341.898L1012.32 340.476L1011.23 342.042C1010.58 341.412 1009.17 340.584 1008.04 340.098L1009.21 338.514C1010.24 338.91 1011.57 339.594 1012.32 340.17L1012.32 340.044L1016.84 340.044L1016.84 338.442L1019.06 338.442L1019.06 340.044L1023.65 340.044L1023.65 341.898ZM1028.31 340.044C1028.79 340.098 1029.41 340.134 1029.8 340.134C1030.83 340.134 1032.74 340.044 1033.58 339.972C1034.03 339.954 1034.5 339.846 1034.81 339.72L1036.25 340.836C1035.99 341.106 1035.78 341.34 1035.63 341.592C1035.17 342.366 1034.48 343.932 1033.83 345.462C1035.24 345.678 1036.57 346.11 1037.74 346.614C1037.76 346.398 1037.78 346.2 1037.79 346.002C1037.85 345.3 1037.85 344.58 1037.79 344.04L1040.15 344.31C1040.08 345.516 1039.99 346.632 1039.81 347.64C1040.57 348.072 1041.21 348.486 1041.74 348.846L1040.69 351.348C1040.22 350.916 1039.7 350.502 1039.14 350.088C1038.35 352.122 1036.98 353.706 1034.57 354.966L1032.66 353.4C1035.38 352.23 1036.64 350.52 1037.24 348.882C1035.96 348.18 1034.52 347.64 1032.97 347.424C1032.32 348.954 1031.57 350.754 1030.94 351.744C1030.22 352.824 1029.35 353.328 1028.13 353.328C1026.54 353.328 1025.36 352.23 1025.36 350.412C1025.36 347.622 1027.89 345.498 1031.51 345.336C1032.02 344.148 1032.54 342.924 1032.95 342.078C1032.23 342.114 1030.68 342.168 1029.86 342.222C1029.5 342.24 1028.87 342.294 1028.4 342.366L1028.31 340.044ZM1027.46 350.07C1027.46 350.664 1027.8 350.97 1028.22 350.97C1028.58 350.97 1028.83 350.79 1029.15 350.34C1029.62 349.674 1030.11 348.54 1030.61 347.406C1028.6 347.712 1027.46 348.936 1027.46 350.07ZM1044.36 347.19L1042.82 346.668C1043.19 345.444 1043.46 343.428 1043.55 341.97L1045.07 342.168C1045.03 343.662 1044.74 345.804 1044.36 347.19ZM1051.2 351.078L1056.59 351.078L1056.59 350.25L1051.2 350.25L1051.2 351.078ZM1056.59 347.892L1051.2 347.892L1051.2 348.738L1056.59 348.738L1056.59 347.892ZM1058.6 346.326L1058.6 353.184C1058.6 354.12 1058.42 354.624 1057.77 354.912C1057.14 355.218 1056.24 355.218 1055 355.218C1054.93 354.696 1054.68 353.922 1054.43 353.4C1055.16 353.454 1056.01 353.436 1056.24 353.436C1056.5 353.436 1056.59 353.364 1056.59 353.148L1056.59 352.554L1051.2 352.554L1051.2 355.254L1049.22 355.254L1049.22 346.326L1058.6 346.326ZM1054.91 344.112L1059.81 344.112L1059.81 345.642L1048.02 345.642L1048.02 344.112L1052.79 344.112L1052.79 343.338L1049.06 343.338L1049.1 343.428L1047.69 344.112C1047.57 343.59 1047.32 342.834 1047.03 342.132L1047.03 355.218L1045.1 355.218L1045.1 338.424L1047.03 338.424L1047.03 341.304L1048.05 340.872C1048.43 341.646 1048.85 342.654 1049.06 343.32L1049.06 341.898L1052.79 341.898L1052.79 341.178L1048.58 341.178L1048.58 339.648L1052.79 339.648L1052.79 338.424L1054.91 338.424L1054.91 339.648L1059.27 339.648L1059.27 341.178L1054.91 341.178L1054.91 341.898L1058.78 341.898L1058.78 343.338L1054.91 343.338L1054.91 344.112ZM1066.54 346.92L1065.96 346.758C1066.18 346.218 1066.45 345.444 1066.61 344.832L1063.88 344.832C1064.18 345.48 1064.43 346.254 1064.51 346.758L1063.93 346.92L1066.54 346.92ZM1066.23 341.79L1066.23 343.032L1069.24 343.032L1069.24 344.832L1067.75 344.832L1068.45 345.012C1068.14 345.678 1067.87 346.38 1067.62 346.92L1068.97 346.92L1068.97 348.72L1066.23 348.72L1066.23 350.106L1068.77 350.106L1068.77 351.906L1066.23 351.906L1066.23 355.182L1064.25 355.182L1064.25 351.906L1061.57 351.906L1061.57 350.106L1064.25 350.106L1064.25 348.72L1061.43 348.72L1061.43 346.92L1062.78 346.92C1062.67 346.344 1062.44 345.588 1062.18 344.994L1062.83 344.832L1061.05 344.832L1061.05 343.032L1064.25 343.032L1064.25 341.79L1061.68 341.79L1061.68 340.026L1064.25 340.026L1064.25 338.46L1066.23 338.46L1066.23 340.026L1068.57 340.026L1068.57 341.79L1066.23 341.79ZM1071.51 347.784L1071.51 353.508C1072.16 352.986 1072.73 352.374 1073.24 351.672C1072.53 350.52 1071.96 349.206 1071.51 347.784ZM1075.25 347.046L1073.02 347.046C1073.34 348.036 1073.78 348.972 1074.3 349.836C1074.71 348.972 1075.04 348.018 1075.25 347.046ZM1076.21 345.264L1077.48 345.714C1077.14 347.892 1076.51 349.908 1075.59 351.6C1076.33 352.41 1077.16 353.094 1078.1 353.562C1077.63 353.958 1077.02 354.714 1076.71 355.254C1075.86 354.75 1075.13 354.102 1074.46 353.346C1073.88 354.084 1073.24 354.732 1072.5 355.272C1072.26 354.912 1071.89 354.498 1071.51 354.156L1071.51 355.218L1069.56 355.218L1069.56 339.18L1077.07 339.18L1077.07 342.564C1077.07 343.482 1076.87 344.004 1076.17 344.292C1075.49 344.58 1074.51 344.598 1073.2 344.598C1073.11 344.022 1072.84 343.284 1072.59 342.762C1073.47 342.798 1074.46 342.798 1074.73 342.798C1075 342.78 1075.09 342.726 1075.09 342.528L1075.09 341.052L1071.51 341.052L1071.51 345.354L1075.85 345.354L1076.21 345.264Z" fill="black"/>
<path d="M522.775 143.67L522.775 141.676L527.435 137.361C527.831 136.977 528.163 136.632 528.432 136.325C528.705 136.019 528.911 135.718 529.052 135.424C529.192 135.126 529.263 134.804 529.263 134.459C529.263 134.075 529.175 133.745 529.001 133.468C528.826 133.187 528.587 132.972 528.285 132.823C527.982 132.669 527.639 132.593 527.256 132.593C526.855 132.593 526.506 132.673 526.207 132.835C525.909 132.997 525.679 133.23 525.517 133.532C525.355 133.835 525.274 134.195 525.274 134.612L522.647 134.612C522.647 133.756 522.841 133.012 523.229 132.382C523.616 131.751 524.16 131.263 524.859 130.918C525.557 130.573 526.363 130.4 527.275 130.4C528.212 130.4 529.028 130.566 529.723 130.899C530.422 131.227 530.965 131.683 531.353 132.267C531.741 132.85 531.935 133.519 531.935 134.274C531.935 134.768 531.837 135.256 531.641 135.737C531.449 136.219 531.106 136.754 530.611 137.342C530.117 137.926 529.42 138.627 528.521 139.445L526.61 141.318L526.61 141.407L532.107 141.407L532.107 143.67L522.775 143.67ZM536.259 143.836C535.837 143.836 535.475 143.687 535.172 143.389C534.874 143.086 534.725 142.724 534.725 142.302C534.725 141.884 534.874 141.526 535.172 141.228C535.475 140.93 535.837 140.781 536.259 140.781C536.668 140.781 537.026 140.93 537.333 141.228C537.64 141.526 537.793 141.884 537.793 142.302C537.793 142.583 537.72 142.841 537.576 143.075C537.435 143.306 537.25 143.491 537.02 143.632C536.789 143.768 536.536 143.836 536.259 143.836ZM558.918 129.306C559.368 129.972 559.998 131.106 560.34 131.772L558.9 132.402C558.522 131.664 557.982 130.584 557.496 129.9L558.918 129.306ZM561.042 128.496C561.51 129.18 562.176 130.314 562.5 130.944L561.06 131.556C560.7 130.818 560.106 129.756 559.62 129.09L561.042 128.496ZM548.334 138.072C549.144 136.056 549.828 133.518 550.044 131.232L552.672 131.772C552.51 132.294 552.312 133.176 552.24 133.572C551.988 134.832 551.34 137.316 550.71 138.99C550.062 140.736 549 142.788 548.046 144.138L545.526 143.076C546.66 141.6 547.722 139.656 548.334 138.072ZM557.226 137.694C556.542 135.804 555.372 133.14 554.616 131.772L557.01 130.998C557.748 132.384 558.99 135.156 559.674 136.902C560.304 138.522 561.258 141.402 561.762 143.184L559.098 144.048C558.594 141.906 557.946 139.638 557.226 137.694ZM564.534 135.336C565.182 135.39 566.496 135.444 567.432 135.444L577.098 135.444C577.944 135.444 578.736 135.372 579.204 135.336L579.204 138.162C578.772 138.144 577.854 138.072 577.098 138.072L567.432 138.072C566.406 138.072 565.2 138.108 564.534 138.162L564.534 135.336ZM583.704 130.89C584.37 130.962 585.306 130.998 585.918 130.998L594.99 130.998C595.512 130.998 596.268 130.98 596.574 130.962C596.556 131.376 596.52 132.096 596.52 132.618L596.52 141.942C596.52 142.572 596.556 143.526 596.592 144.066L593.982 144.066C594 143.778 594 143.472 594 143.13L585.792 143.13C585.09 143.13 584.064 143.184 583.47 143.238L583.47 140.664C584.1 140.718 584.91 140.772 585.72 140.772L594.018 140.772L594.018 133.32L585.936 133.32C585.18 133.32 584.208 133.356 583.704 133.392L583.704 130.89ZM600.534 135.336C601.182 135.39 602.496 135.444 603.432 135.444L613.098 135.444C613.944 135.444 614.736 135.372 615.204 135.336L615.204 138.162C614.772 138.144 613.854 138.072 613.098 138.072L603.432 138.072C602.406 138.072 601.2 138.108 600.534 138.162L600.534 135.336ZM629.154 130.278C629.658 131.034 630.378 132.186 630.792 132.996L629.226 133.698C628.704 132.564 628.308 131.844 627.642 130.908L629.154 130.278ZM631.512 129.288C632.034 130.008 632.79 131.142 633.204 131.952L631.692 132.69C631.116 131.556 630.684 130.89 630.018 129.99L631.512 129.288ZM621.972 142.212L621.972 131.862C621.972 131.214 621.918 130.332 621.792 129.684L624.6 129.684C624.528 130.314 624.438 131.106 624.438 131.862L624.438 134.49C626.832 135.21 630.306 136.488 631.962 137.298L630.954 139.8C629.082 138.81 626.382 137.766 624.438 137.118L624.438 142.212C624.438 142.716 624.528 143.976 624.618 144.714L621.792 144.714C621.9 144.012 621.972 142.914 621.972 142.212ZM649.998 137.136L651.78 138.468C650.646 139.278 649.314 140.106 648.198 140.7C649.26 141.888 650.664 142.77 652.446 143.274C651.978 143.724 651.366 144.588 651.06 145.182C647.262 143.886 645.282 141.15 644.094 137.154C643.41 137.802 642.6 138.414 641.736 138.972L641.736 142.32C643.014 142.05 644.364 141.762 645.66 141.474L645.858 143.418C643.032 144.084 640.008 144.714 637.776 145.2L637.146 143.22C637.848 143.094 638.694 142.932 639.594 142.752L639.594 140.178C638.604 140.664 637.596 141.06 636.606 141.366C636.3 140.88 635.688 140.07 635.238 139.638C637.38 139.08 639.684 138.054 641.376 136.884L635.904 136.884L635.904 135.066L642.762 135.066L642.762 134.058L637.416 134.058L637.416 132.348L642.762 132.348L642.762 131.43L636.57 131.43L636.57 129.612L642.762 129.612L642.762 128.424L644.904 128.424L644.904 129.612L651.24 129.612L651.24 131.43L644.904 131.43L644.904 132.348L650.538 132.348L650.538 134.058L644.904 134.058L644.904 135.066L651.816 135.066L651.816 136.884L646.092 136.884C646.38 137.766 646.722 138.558 647.172 139.296C648.18 138.63 649.26 137.82 649.998 137.136ZM668.214 129.576L668.214 131.7L655.524 131.7L655.524 129.576L668.214 129.576ZM656.442 137.352L658.71 137.946C657.918 140.052 656.568 142.23 655.29 143.58C654.84 143.202 653.868 142.572 653.31 142.302C654.606 141.114 655.812 139.206 656.442 137.352ZM669.888 136.038L663.102 136.038L663.102 142.716C663.102 143.922 662.85 144.516 662.004 144.858C661.176 145.2 659.988 145.236 658.422 145.236C658.314 144.57 657.99 143.598 657.666 142.95C658.692 143.004 659.952 143.022 660.294 143.004C660.636 143.004 660.762 142.914 660.762 142.662L660.762 136.038L653.886 136.038L653.886 133.896L669.888 133.896L669.888 136.038ZM664.938 138.126L666.954 137.28C668.142 138.936 669.438 141.114 669.942 142.644L667.71 143.634C667.314 142.158 666.09 139.836 664.938 138.126ZM681.138 137.964L684.936 137.964L684.936 135.75L681.138 135.75L681.138 137.964ZM675.54 137.964L678.978 137.964L678.978 135.75L675.594 135.75L675.594 136.074C675.594 136.65 675.576 137.298 675.54 137.964ZM678.978 131.664L675.594 131.664L675.594 133.752L678.978 133.752L678.978 131.664ZM684.936 133.752L684.936 131.664L681.138 131.664L681.138 133.752L684.936 133.752ZM687.06 129.63L687.06 142.698C687.06 143.85 686.808 144.426 686.088 144.75C685.35 145.11 684.252 145.146 682.632 145.128C682.56 144.552 682.218 143.634 681.948 143.076C682.956 143.13 684.144 143.112 684.468 143.112C684.81 143.112 684.936 143.004 684.936 142.68L684.936 139.98L681.138 139.98L681.138 145.002L678.978 145.002L678.978 139.98L675.306 139.98C674.982 141.942 674.334 143.922 673.038 145.326C672.696 144.93 671.832 144.192 671.346 143.94C673.308 141.78 673.47 138.576 673.47 136.056L673.47 129.63L687.06 129.63ZM698.102 130.579L700.869 130.579L700.869 139.08C700.869 140.035 700.641 140.87 700.185 141.586C699.734 142.302 699.101 142.86 698.287 143.261C697.473 143.657 696.525 143.855 695.443 143.855C694.356 143.855 693.406 143.657 692.592 143.261C691.778 142.86 691.145 142.302 690.693 141.586C690.242 140.87 690.016 140.035 690.016 139.08L690.016 130.579L692.783 130.579L692.783 138.844C692.783 139.343 692.892 139.786 693.109 140.173C693.331 140.561 693.642 140.866 694.043 141.088C694.443 141.309 694.91 141.42 695.443 141.42C695.979 141.42 696.446 141.309 696.842 141.088C697.243 140.866 697.552 140.561 697.769 140.173C697.991 139.786 698.102 139.343 698.102 138.844L698.102 130.579ZM703.147 143.67L703.147 130.579L708.311 130.579C709.3 130.579 710.144 130.756 710.843 131.11C711.546 131.459 712.081 131.955 712.447 132.599C712.818 133.238 713.003 133.99 713.003 134.855C713.003 135.725 712.816 136.472 712.441 137.099C712.066 137.721 711.522 138.198 710.811 138.531C710.103 138.863 709.247 139.029 708.241 139.029L704.783 139.029L704.783 136.805L707.794 136.805C708.322 136.805 708.761 136.732 709.11 136.588C709.46 136.443 709.72 136.225 709.89 135.936C710.065 135.646 710.152 135.286 710.152 134.855C710.152 134.421 710.065 134.054 709.89 133.756C709.72 133.458 709.458 133.232 709.104 133.078C708.755 132.921 708.313 132.842 707.781 132.842L705.914 132.842L705.914 143.67L703.147 143.67ZM710.216 137.713L713.47 143.67L710.414 143.67L707.231 137.713L710.216 137.713ZM714.959 143.67L714.959 130.579L717.727 130.579L717.727 141.388L723.339 141.388L723.339 143.67L714.959 143.67Z" fill="black"/>
<path d="M527.116 212.849C526.443 212.845 525.793 212.732 525.166 212.51C524.544 212.289 523.986 211.928 523.492 211.43C522.997 210.931 522.605 210.271 522.316 209.448C522.03 208.626 521.887 207.616 521.887 206.419C521.892 205.319 522.017 204.337 522.264 203.472C522.516 202.602 522.874 201.865 523.338 201.26C523.807 200.655 524.367 200.195 525.019 199.879C525.671 199.56 526.402 199.4 527.212 199.4C528.085 199.4 528.857 199.57 529.526 199.911C530.195 200.248 530.732 200.706 531.137 201.286C531.546 201.865 531.793 202.515 531.878 203.235L529.149 203.235C529.042 202.779 528.818 202.421 528.478 202.161C528.137 201.901 527.715 201.771 527.212 201.771C526.36 201.771 525.712 202.142 525.269 202.884C524.83 203.625 524.606 204.633 524.598 205.907L524.687 205.907C524.883 205.519 525.147 205.189 525.48 204.916C525.816 204.639 526.198 204.428 526.624 204.284C527.054 204.134 527.508 204.06 527.985 204.06C528.761 204.06 529.451 204.243 530.056 204.61C530.661 204.972 531.139 205.47 531.488 206.105C531.838 206.74 532.012 207.467 532.012 208.285C532.012 209.171 531.806 209.96 531.392 210.65C530.983 211.34 530.41 211.882 529.673 212.274C528.94 212.661 528.088 212.853 527.116 212.849ZM527.103 210.676C527.529 210.676 527.911 210.573 528.247 210.369C528.584 210.164 528.848 209.887 529.04 209.538C529.232 209.188 529.328 208.796 529.328 208.362C529.328 207.927 529.232 207.537 529.04 207.192C528.853 206.847 528.593 206.572 528.26 206.367C527.928 206.163 527.549 206.061 527.122 206.061C526.803 206.061 526.507 206.12 526.234 206.24C525.965 206.359 525.729 206.525 525.524 206.738C525.324 206.951 525.166 207.198 525.051 207.48C524.936 207.757 524.879 208.053 524.879 208.368C524.879 208.79 524.975 209.176 525.166 209.525C525.362 209.874 525.627 210.154 525.959 210.362C526.296 210.571 526.677 210.676 527.103 210.676ZM535.838 212.836C535.416 212.836 535.054 212.687 534.751 212.389C534.453 212.086 534.304 211.724 534.304 211.302C534.304 210.884 534.453 210.526 534.751 210.228C535.054 209.93 535.416 209.781 535.838 209.781C536.247 209.781 536.605 209.93 536.912 210.228C537.219 210.526 537.372 210.884 537.372 211.302C537.372 211.583 537.3 211.841 537.155 212.075C537.014 212.306 536.829 212.491 536.599 212.632C536.368 212.768 536.115 212.836 535.838 212.836ZM556.661 206.1L550.469 206.1C551.189 207.414 552.197 208.512 553.493 209.412C554.807 208.548 555.887 207.468 556.661 206.1ZM558.245 203.922L559.739 204.768C558.839 207.234 557.363 209.124 555.509 210.564C557.291 211.374 559.415 211.914 561.899 212.184C561.449 212.688 560.837 213.642 560.531 214.272C557.669 213.858 555.293 213.102 553.367 211.95C551.261 213.066 548.813 213.786 546.185 214.236C545.987 213.66 545.429 212.652 545.015 212.166C547.373 211.86 549.551 211.338 551.405 210.528C550.199 209.466 549.209 208.17 548.381 206.64L549.965 206.1L546.635 206.1L546.635 203.994L552.287 203.994L552.287 201.906L545.735 201.906L545.735 199.782L552.287 199.782L552.287 197.442L554.501 197.442L554.501 199.782L561.089 199.782L561.089 201.906L554.501 201.906L554.501 203.994L557.867 203.994L558.245 203.922ZM570.377 207L567.857 207.576L567.857 211.878C567.857 212.976 567.641 213.498 567.011 213.84C566.381 214.164 565.427 214.236 564.059 214.236C563.987 213.678 563.717 212.796 563.447 212.22C564.257 212.256 565.139 212.256 565.391 212.256C565.661 212.238 565.769 212.148 565.769 211.86L565.769 208.044C564.923 208.224 564.131 208.404 563.411 208.548L562.961 206.442C563.753 206.334 564.707 206.154 565.769 205.974L565.769 202.824L563.231 202.824L563.231 200.844L565.769 200.844L565.769 197.424L567.857 197.424L567.857 200.844L570.161 200.844L570.161 202.824L567.857 202.824L567.857 205.578C568.649 205.416 569.441 205.272 570.233 205.11L570.377 207ZM580.061 213.426L577.937 214.218C577.847 213.75 577.703 213.21 577.541 212.634C574.427 213.102 571.169 213.516 568.793 213.858L568.325 211.626C568.883 211.572 569.513 211.518 570.215 211.446C571.277 207.702 572.375 202.248 572.861 197.892L575.201 198.27C574.535 202.59 573.473 207.558 572.429 211.194C573.851 211.05 575.363 210.87 576.875 210.69C576.299 209.16 575.579 207.558 574.877 206.172L576.767 205.506C578.135 208.026 579.557 211.284 580.061 213.426ZM585.137 199.8C585.011 200.448 584.921 201.492 584.921 201.996C584.903 203.166 584.921 204.516 585.029 205.812C585.281 208.404 585.821 210.186 586.955 210.186C587.801 210.186 588.521 208.08 588.863 206.64L590.663 208.836C589.475 211.968 588.341 213.066 586.901 213.066C584.921 213.066 583.211 211.284 582.707 206.46C582.527 204.804 582.509 202.698 582.509 201.6C582.509 201.096 582.473 200.322 582.365 199.764L585.137 199.8ZM594.137 200.214C595.847 202.284 597.215 206.784 597.413 209.538L595.055 210.456C594.767 207.558 593.813 203.184 591.851 200.952L594.137 200.214ZM602.741 206.91L604.361 208.242C603.461 210.15 602.399 212.22 601.391 213.984L599.519 212.652C600.419 211.284 601.715 209.016 602.741 206.91ZM603.479 204.066L602.255 205.848C601.571 205.236 600.149 204.444 599.015 203.958L600.149 202.356C601.265 202.752 602.759 203.454 603.479 204.066ZM612.173 205.632L614.045 205.632C612.569 205.308 611.165 204.912 609.887 204.3C608.771 204.822 607.547 205.236 606.251 205.578L607.763 205.578L607.763 206.37L612.173 206.37L612.173 205.632ZM607.655 209.394L612.173 209.394L612.173 208.152L607.763 208.152C607.745 208.53 607.727 208.962 607.655 209.394ZM611.561 200.898L608.195 200.898C608.771 201.42 609.365 201.852 609.995 202.194C610.607 201.816 611.129 201.384 611.561 200.898ZM615.647 200.898L613.973 200.898C613.433 201.726 612.749 202.428 611.957 203.04C613.235 203.436 614.603 203.688 616.079 203.886C615.611 204.372 615.125 205.146 614.927 205.812L614.279 205.686L614.279 214.2L612.173 214.2L612.173 211.158L607.295 211.158C606.917 212.346 606.287 213.516 605.171 214.416C604.793 214.092 603.983 213.516 603.461 213.282C605.477 211.698 605.711 209.196 605.711 207.666L605.711 205.704C605.351 205.794 604.973 205.884 604.595 205.956C604.415 205.47 603.911 204.57 603.587 204.156C605.153 203.94 606.665 203.616 607.979 203.148C607.169 202.536 606.413 201.816 605.729 200.898L604.325 200.898L604.325 199.476L603.227 201.042C602.579 200.412 601.175 199.584 600.041 199.098L601.211 197.514C602.237 197.91 603.569 198.594 604.325 199.17L604.325 199.044L608.843 199.044L608.843 197.442L611.057 197.442L611.057 199.044L615.647 199.044L615.647 200.898ZM620.309 199.044C620.795 199.098 621.407 199.134 621.803 199.134C622.829 199.134 624.737 199.044 625.583 198.972C626.033 198.954 626.501 198.846 626.807 198.72L628.247 199.836C627.995 200.106 627.779 200.34 627.635 200.592C627.167 201.366 626.483 202.932 625.835 204.462C627.239 204.678 628.571 205.11 629.741 205.614C629.759 205.398 629.777 205.2 629.795 205.002C629.849 204.3 629.849 203.58 629.795 203.04L632.153 203.31C632.081 204.516 631.991 205.632 631.811 206.64C632.567 207.072 633.215 207.486 633.737 207.846L632.693 210.348C632.225 209.916 631.703 209.502 631.145 209.088C630.353 211.122 628.985 212.706 626.573 213.966L624.665 212.4C627.383 211.23 628.643 209.52 629.237 207.882C627.959 207.18 626.519 206.64 624.971 206.424C624.323 207.954 623.567 209.754 622.937 210.744C622.217 211.824 621.353 212.328 620.129 212.328C618.545 212.328 617.357 211.23 617.357 209.412C617.357 206.622 619.895 204.498 623.513 204.336C624.017 203.148 624.539 201.924 624.953 201.078C624.233 201.114 622.685 201.168 621.857 201.222C621.497 201.24 620.867 201.294 620.399 201.366L620.309 199.044ZM619.463 209.07C619.463 209.664 619.805 209.97 620.219 209.97C620.579 209.97 620.831 209.79 621.155 209.34C621.623 208.674 622.109 207.54 622.613 206.406C620.597 206.712 619.463 207.936 619.463 209.07ZM636.365 206.19L634.817 205.668C635.195 204.444 635.465 202.428 635.555 200.97L637.067 201.168C637.031 202.662 636.743 204.804 636.365 206.19ZM643.205 210.078L648.587 210.078L648.587 209.25L643.205 209.25L643.205 210.078ZM648.587 206.892L643.205 206.892L643.205 207.738L648.587 207.738L648.587 206.892ZM650.603 205.326L650.603 212.184C650.603 213.12 650.423 213.624 649.775 213.912C649.145 214.218 648.245 214.218 647.003 214.218C646.931 213.696 646.679 212.922 646.427 212.4C647.165 212.454 648.011 212.436 648.245 212.436C648.497 212.436 648.587 212.364 648.587 212.148L648.587 211.554L643.205 211.554L643.205 214.254L641.225 214.254L641.225 205.326L650.603 205.326ZM646.913 203.112L651.809 203.112L651.809 204.642L640.019 204.642L640.019 203.112L644.789 203.112L644.789 202.338L641.063 202.338L641.099 202.428L639.695 203.112C639.569 202.59 639.317 201.834 639.029 201.132L639.029 214.218L637.103 214.218L637.103 197.424L639.029 197.424L639.029 200.304L640.055 199.872C640.433 200.646 640.847 201.654 641.063 202.32L641.063 200.898L644.789 200.898L644.789 200.178L640.577 200.178L640.577 198.648L644.789 198.648L644.789 197.424L646.913 197.424L646.913 198.648L651.269 198.648L651.269 200.178L646.913 200.178L646.913 200.898L650.783 200.898L650.783 202.338L646.913 202.338L646.913 203.112ZM658.541 205.92L657.965 205.758C658.181 205.218 658.451 204.444 658.613 203.832L655.877 203.832C656.183 204.48 656.435 205.254 656.507 205.758L655.931 205.92L658.541 205.92ZM658.235 200.79L658.235 202.032L661.241 202.032L661.241 203.832L659.747 203.832L660.449 204.012C660.143 204.678 659.873 205.38 659.621 205.92L660.971 205.92L660.971 207.72L658.235 207.72L658.235 209.106L660.773 209.106L660.773 210.906L658.235 210.906L658.235 214.182L656.255 214.182L656.255 210.906L653.573 210.906L653.573 209.106L656.255 209.106L656.255 207.72L653.429 207.72L653.429 205.92L654.779 205.92C654.671 205.344 654.437 204.588 654.185 203.994L654.833 203.832L653.051 203.832L653.051 202.032L656.255 202.032L656.255 200.79L653.681 200.79L653.681 199.026L656.255 199.026L656.255 197.46L658.235 197.46L658.235 199.026L660.575 199.026L660.575 200.79L658.235 200.79ZM663.509 206.784L663.509 212.508C664.157 211.986 664.733 211.374 665.237 210.672C664.535 209.52 663.959 208.206 663.509 206.784ZM667.253 206.046L665.021 206.046C665.345 207.036 665.777 207.972 666.299 208.836C666.713 207.972 667.037 207.018 667.253 206.046ZM668.207 204.264L669.485 204.714C669.143 206.892 668.513 208.908 667.595 210.6C668.333 211.41 669.161 212.094 670.097 212.562C669.629 212.958 669.017 213.714 668.711 214.254C667.865 213.75 667.127 213.102 666.461 212.346C665.885 213.084 665.237 213.732 664.499 214.272C664.265 213.912 663.887 213.498 663.509 213.156L663.509 214.218L661.565 214.218L661.565 198.18L669.071 198.18L669.071 201.564C669.071 202.482 668.873 203.004 668.171 203.292C667.487 203.58 666.515 203.598 665.201 203.598C665.111 203.022 664.841 202.284 664.589 201.762C665.471 201.798 666.461 201.798 666.731 201.798C667.001 201.78 667.091 201.726 667.091 201.528L667.091 200.052L663.509 200.052L663.509 204.354L667.847 204.354L668.207 204.264Z" fill="black"/>
<path d="M245.879 399.791C247.05 400.963 248.95 400.963 250.121 399.791L269.213 380.699C270.385 379.528 270.385 377.628 269.213 376.457C268.042 375.285 266.142 375.285 264.971 376.457L248 393.427L231.029 376.457C229.858 375.285 227.958 375.285 226.787 376.457C225.615 377.628 225.615 379.528 226.787 380.699L245.879 399.791ZM245 292.67L245 397.67L251 397.67L251 292.67L245 292.67Z" fill="#1C59F0"/>
<path d="M904.578 290.549C903.407 289.377 901.507 289.377 900.336 290.549L881.244 309.64C880.072 310.812 880.072 312.712 881.244 313.883C882.415 315.055 884.315 315.055 885.486 313.883L902.457 296.913L919.428 313.883C920.599 315.055 922.499 315.055 923.67 313.883C924.842 312.712 924.842 310.812 923.67 309.64L904.578 290.549ZM905.457 397.67L905.457 292.67L899.457 292.67L899.457 397.67L905.457 397.67Z" fill="#1C59F0"/>
<g clip-path="url(#clip3_255_2542)">
<path d="M1049 465.146L931 465.146L931 489.441L1049 489.441L1049 465.146Z" fill="#1C59F0"/>
<path d="M931 558.851L998.676 558.851L998.676 521.832L1026.04 521.832L1026.04 558.851L1049 558.851L1049 496.381L931 496.381L931 558.851ZM951.824 520.677L970.333 520.677L970.333 539.186L951.824 539.186L951.824 520.677Z" fill="#1C59F0"/>
</g>
<defs>
<filter id="filter0_d_255_2542" x="0" y="0" width="497" height="320" filterUnits="userSpaceOnUse" color-interpolation-filters="sRGB">
<feFlood flood-opacity="0" result="BackgroundImageFix"/>
<feColorMatrix in="SourceAlpha" type="matrix" values="0 0 0 0 0 0 0 0 0 0 0 0 0 0 0 0 0 0 127 0" result="hardAlpha"/>
<feOffset dy="10"/>
<feGaussianBlur stdDeviation="10"/>
<feComposite in2="hardAlpha" operator="out"/>
<feColorMatrix type="matrix" values="0 0 0 0 0 0 0 0 0 0 0 0 0 0 0 0 0 0 0.05 0"/>
<feBlend mode="normal" in2="BackgroundImageFix" result="effect1_dropShadow_255_2542"/>
<feBlend mode="normal" in="SourceGraphic" in2="effect1_dropShadow_255_2542" result="shape"/>
</filter>
<filter id="filter1_d_255_2542" x="0" y="387.998" width="497" height="320" filterUnits="userSpaceOnUse" color-interpolation-filters="sRGB">
<feFlood flood-opacity="0" result="BackgroundImageFix"/>
<feColorMatrix in="SourceAlpha" type="matrix" values="0 0 0 0 0 0 0 0 0 0 0 0 0 0 0 0 0 0 127 0" result="hardAlpha"/>
<feOffset dy="10"/>
<feGaussianBlur stdDeviation="10"/>
<feComposite in2="hardAlpha" operator="out"/>
<feColorMatrix type="matrix" values="0 0 0 0 0 0 0 0 0 0 0 0 0 0 0 0 0 0 0.05 0"/>
<feBlend mode="normal" in2="BackgroundImageFix" result="effect1_dropShadow_255_2542"/>
<feBlend mode="normal" in="SourceGraphic" in2="effect1_dropShadow_255_2542" result="shape"/>
</filter>
<filter id="filter2_d_255_2542" x="741" y="0" width="497" height="320" filterUnits="userSpaceOnUse" color-interpolation-filters="sRGB">
<feFlood flood-opacity="0" result="BackgroundImageFix"/>
<feColorMatrix in="SourceAlpha" type="matrix" values="0 0 0 0 0 0 0 0 0 0 0 0 0 0 0 0 0 0 127 0" result="hardAlpha"/>
<feOffset dy="10"/>
<feGaussianBlur stdDeviation="10"/>
<feComposite in2="hardAlpha" operator="out"/>
<feColorMatrix type="matrix" values="0 0 0 0 0 0 0 0 0 0 0 0 0 0 0 0 0 0 0.05 0"/>
<feBlend mode="normal" in2="BackgroundImageFix" result="effect1_dropShadow_255_2542"/>
<feBlend mode="normal" in="SourceGraphic" in2="effect1_dropShadow_255_2542" result="shape"/>
</filter>
<filter id="filter3_d_255_2542" x="741" y="387.67" width="497" height="320" filterUnits="userSpaceOnUse" color-interpolation-filters="sRGB">
<feFlood flood-opacity="0" result="BackgroundImageFix"/>
<feColorMatrix in="SourceAlpha" type="matrix" values="0 0 0 0 0 0 0 0 0 0 0 0 0 0 0 0 0 0 127 0" result="hardAlpha"/>
<feOffset dy="10"/>
<feGaussianBlur stdDeviation="10"/>
<feComposite in2="hardAlpha" operator="out"/>
<feColorMatrix type="matrix" values="0 0 0 0 0 0 0 0 0 0 0 0 0 0 0 0 0 0 0.05 0"/>
<feBlend mode="normal" in2="BackgroundImageFix" result="effect1_dropShadow_255_2542"/>
<feBlend mode="normal" in="SourceGraphic" in2="effect1_dropShadow_255_2542" result="shape"/>
</filter>
<clipPath id="clip0_255_2542">
<rect width="142" height="142" fill="white" transform="translate(178 47.998)"/>
</clipPath>
<clipPath id="clip1_255_2542">
<rect width="107.509" height="107.509" fill="white" transform="translate(133.993 463.41)"/>
</clipPath>
<clipPath id="clip2_255_2542">
<rect width="113.928" height="113.928" fill="white" transform="translate(248.724 461.002)"/>
</clipPath>
<clipPath id="clip3_255_2542">
<rect width="118" height="118" fill="white" transform="translate(931 453)"/>
</clipPath>
</defs>
</svg>
