<svg width="1210" height="270" viewBox="0 0 1210 270" fill="none" xmlns="http://www.w3.org/2000/svg">
<path d="M9.23864 200.748C8.00758 200.748 6.90578 200.517 5.93324 200.055C4.9607 199.588 4.18821 198.947 3.61577 198.135C3.04948 197.322 2.74787 196.393 2.71094 195.347L6.0348 195.347C6.09635 196.122 6.43182 196.756 7.04119 197.248C7.65057 197.735 8.38305 197.978 9.23864 197.978C9.90956 197.978 10.5066 197.824 11.0298 197.516C11.553 197.208 11.9654 196.781 12.267 196.233C12.5687 195.685 12.7164 195.06 12.7102 194.359C12.7164 193.645 12.5656 193.011 12.2578 192.457C11.95 191.903 11.5284 191.469 10.9929 191.155C10.4574 190.835 9.84186 190.675 9.14631 190.675C8.58002 190.668 8.02296 190.773 7.47514 190.989C6.92732 191.204 6.49337 191.487 6.1733 191.838L3.08026 191.33L4.06818 181.58L15.0369 181.58L15.0369 184.442L6.9027 184.442L6.35795 189.456L6.46875 189.456C6.8196 189.043 7.3151 188.702 7.95526 188.431C8.59541 188.154 9.29711 188.016 10.0604 188.016C11.2053 188.016 12.227 188.286 13.1257 188.828C14.0244 189.364 14.7322 190.102 15.2493 191.044C15.7663 191.986 16.0249 193.063 16.0249 194.275C16.0249 195.525 15.7356 196.639 15.157 197.618C14.5845 198.59 13.7874 199.357 12.7656 199.917C11.75 200.471 10.5743 200.748 9.23864 200.748ZM26.8736 180.694L20.7798 203.333L17.853 203.333L23.9467 180.694L26.8736 180.694ZM35.7557 200.748C34.4261 200.748 33.2443 200.52 32.2102 200.065C31.1823 199.609 30.3698 198.975 29.7727 198.163C29.1757 197.35 28.8587 196.411 28.8217 195.347L32.2933 195.347C32.3241 195.857 32.4934 196.304 32.8011 196.685C33.1089 197.061 33.5182 197.353 34.0291 197.562C34.54 197.772 35.1125 197.876 35.7464 197.876C36.4235 197.876 37.0237 197.759 37.5469 197.525C38.0701 197.285 38.4794 196.953 38.7749 196.528C39.0703 196.104 39.215 195.614 39.2088 195.06C39.215 194.488 39.0672 193.983 38.7656 193.546C38.464 193.109 38.027 192.767 37.4545 192.521C36.8883 192.275 36.205 192.152 35.4048 192.152L33.7337 192.152L33.7337 189.511L35.4048 189.511C36.0634 189.511 36.639 189.397 37.1314 189.17C37.63 188.942 38.0208 188.622 38.304 188.209C38.5871 187.791 38.7256 187.308 38.7195 186.76C38.7256 186.224 38.6056 185.76 38.3594 185.366C38.1193 184.966 37.7777 184.655 37.3345 184.433C36.8975 184.212 36.3835 184.101 35.7926 184.101C35.214 184.101 34.6785 184.205 34.1861 184.415C33.6937 184.624 33.2966 184.922 32.995 185.31C32.6934 185.692 32.5334 186.147 32.5149 186.677L29.2188 186.677C29.2434 185.618 29.5481 184.689 30.1328 183.888C30.7237 183.082 31.5116 182.454 32.4964 182.005C33.4813 181.549 34.5862 181.322 35.8111 181.322C37.0729 181.322 38.1686 181.559 39.098 182.033C40.0336 182.5 40.7569 183.131 41.2678 183.925C41.7786 184.719 42.0341 185.597 42.0341 186.557C42.0402 187.622 41.7263 188.514 41.0923 189.234C40.4645 189.954 39.6397 190.425 38.6179 190.647L38.6179 190.795C39.9474 190.979 40.9661 191.472 41.674 192.272C42.388 193.066 42.742 194.054 42.7358 195.236C42.7358 196.294 42.4342 197.242 41.831 198.079C41.2339 198.91 40.4091 199.563 39.3565 200.037C38.3101 200.511 37.1098 200.748 35.7557 200.748ZM4.96238 212.821C6.93838 212.873 10.9684 212.821 13.8284 212.405C16.4284 212.041 19.0804 211.443 20.3804 210.845L22.5124 213.705C21.6284 213.913 20.9524 214.095 20.5104 214.199C19.2364 214.537 17.7024 214.823 16.1424 215.057L16.1424 219.191L22.6944 219.191C23.2664 219.191 24.4884 219.087 25.0604 219.035L25.0604 222.389C24.3584 222.337 23.4744 222.285 22.7724 222.285L16.0384 222.285C15.6484 226.653 13.7764 230.345 9.38238 232.997L6.08038 230.735C10.0324 228.915 12.1124 226.133 12.6064 222.285L5.45638 222.285C4.65038 222.285 3.68838 222.337 3.01238 222.389L3.01238 219.035C3.71438 219.113 4.59838 219.191 5.40438 219.191L12.7364 219.191L12.7364 215.499C10.2404 215.707 7.51038 215.785 5.76838 215.837L4.96238 212.821ZM38.6584 211.131C38.3464 211.781 38.0084 212.691 37.8004 213.237C37.5924 213.783 37.3584 214.459 37.0724 215.135L48.2784 215.135C48.9544 215.135 50.1244 215.109 50.9824 214.953L50.9824 218.515C50.0204 218.411 48.8764 218.411 48.2784 218.411L44.6384 218.411C44.1704 225.301 41.4664 229.955 36.7604 232.919L33.2504 230.553C34.1864 230.189 35.0964 229.643 35.7204 229.123C38.4504 227.043 40.6084 223.845 41.0244 218.411L35.5384 218.411C34.4984 220.309 32.8864 222.519 31.3264 223.871L28.0764 221.895C29.9224 220.517 31.5864 218.177 32.5744 216.539C33.3024 215.343 33.7704 213.991 34.0824 213.003C34.3944 212.145 34.5764 211.131 34.6284 210.325L38.6584 211.131ZM66.1144 216.045C66.6084 217.163 67.8824 220.543 68.2464 221.739L65.1264 222.831C64.8144 221.557 63.6704 218.411 63.0204 217.059L66.1144 216.045ZM75.7084 217.943C75.3964 218.775 75.2404 219.321 75.0844 219.841C74.4084 222.467 73.3164 225.171 71.5484 227.459C69.1304 230.579 65.8804 232.763 62.8384 233.907L60.1084 231.125C62.9684 230.371 66.5824 228.395 68.7404 225.691C70.5084 223.481 71.7564 220.023 72.0684 216.773L75.7084 217.943ZM60.0824 217.423C60.7324 218.749 61.9804 221.895 62.5004 223.351L59.3284 224.547C58.8864 223.143 57.5864 219.685 56.9624 218.541L60.0824 217.423ZM87.1484 228.993L87.1484 214.043C87.1484 213.133 87.0704 211.833 86.8884 210.923L90.9444 210.923C90.8404 211.833 90.7104 212.977 90.7104 214.043L90.7104 217.891C94.1944 218.905 99.1864 220.751 101.578 221.921L100.096 225.509C97.4184 224.105 93.5184 222.597 90.7104 221.635L90.7104 228.993C90.7104 229.747 90.8404 231.567 90.9444 232.633L86.8884 232.633C87.0444 231.593 87.1484 230.033 87.1484 228.993ZM114.42 211.694L108.327 234.333L105.4 234.333L111.494 211.694L114.42 211.694ZM129.942 223.767L129.942 219.269L125.366 219.269L125.366 223.767L129.942 223.767ZM122.454 216.565L133.062 216.565L133.062 226.445L122.454 226.445L122.454 216.565ZM119.958 229.461L135.584 229.461L135.584 213.497L119.958 213.497L119.958 229.461ZM116.734 210.325L138.964 210.325L138.964 233.725L135.584 233.725L135.584 232.347L119.958 232.347L119.958 233.725L116.734 233.725L116.734 210.325ZM154.772 225.457L152.744 225.457C152.458 226.913 152.016 228.135 151.366 229.149C152.172 229.617 152.926 230.085 153.524 230.527C155.448 229.513 156.956 228.213 158.1 226.601C157.372 225.067 156.8 223.351 156.332 221.479C155.968 222.155 155.552 222.779 155.136 223.351C155.032 223.247 154.928 223.117 154.772 222.961L154.772 225.457ZM147.31 225.457L146.556 226.835C147.336 227.147 148.09 227.459 148.844 227.823C149.26 227.173 149.598 226.393 149.832 225.457L147.31 225.457ZM161.298 217.007L158.308 217.007C158.672 219.191 159.192 221.245 159.894 223.117C160.544 221.349 161.012 219.295 161.298 217.007ZM165.952 217.007L164.496 217.007C163.95 220.855 163.066 224.079 161.662 226.705C162.858 228.551 164.366 230.033 166.264 231.021C165.562 231.645 164.6 232.841 164.132 233.699C162.364 232.633 160.934 231.255 159.764 229.565C158.334 231.281 156.54 232.685 154.278 233.829C154.096 233.387 153.706 232.685 153.29 232.061L152.12 233.257C151.418 232.659 150.482 231.983 149.416 231.307C147.882 232.451 145.802 233.205 143.02 233.777C142.838 232.893 142.292 231.853 141.798 231.229C143.904 230.943 145.516 230.527 146.738 229.825C146.27 229.565 145.776 229.331 145.282 229.123L144.996 229.617L142.292 228.785C142.864 227.875 143.514 226.705 144.164 225.457L141.694 225.457L141.694 222.961L145.464 222.961C145.776 222.311 146.088 221.687 146.348 221.115L146.92 221.245L146.92 218.749C145.724 219.945 144.32 221.037 143.02 221.765C142.682 221.089 142.032 220.075 141.46 219.529C143.046 218.879 144.788 217.631 146.036 216.279L141.98 216.279L141.98 213.835L143.956 213.835C143.722 212.951 143.15 211.755 142.604 210.819L144.84 209.883C145.516 210.871 146.192 212.197 146.4 213.107L144.736 213.835L146.92 213.835L146.92 209.467L149.754 209.467L149.754 213.835L151.808 213.835L150.092 213.081C150.69 212.145 151.418 210.767 151.834 209.779L154.434 210.819C153.628 211.937 152.822 213.029 152.198 213.835L154.668 213.835L154.668 216.279L150.404 216.279C151.652 216.981 153.498 218.073 154.07 218.463L152.432 220.595C151.86 220.049 150.768 219.139 149.754 218.333L149.754 221.479L148.09 221.479L149.208 221.713L148.584 222.961L154.772 222.961C154.174 222.363 153.238 221.557 152.666 221.167C154.876 218.515 156.124 214.095 156.748 209.467L159.868 209.883C159.66 211.339 159.374 212.769 159.036 214.147L165.952 214.147L165.952 217.007ZM174.662 223.507L185.036 223.507C184.438 222.831 183.866 222.103 183.372 221.323L176.43 221.323C175.884 222.103 175.312 222.831 174.662 223.507ZM180.954 216.461L179.082 216.461C178.796 217.163 178.458 217.865 178.12 218.541L181.812 218.541C181.5 217.865 181.214 217.189 180.954 216.461ZM191.432 221.323L187.142 221.323C188.52 222.805 190.184 224.027 192.082 224.833C191.406 225.405 190.496 226.575 190.054 227.381C188.962 226.835 187.948 226.185 187.012 225.431C186.726 229.851 186.362 231.853 185.66 232.633C185.062 233.283 184.438 233.517 183.606 233.621C182.852 233.725 181.578 233.725 180.226 233.673C180.2 232.789 179.836 231.567 179.316 230.787C180.486 230.865 181.552 230.891 182.072 230.891C182.514 230.891 182.748 230.839 183.008 230.605C183.372 230.241 183.632 229.019 183.84 226.289L179.758 226.289C179.056 229.825 177.34 232.347 171.672 233.803C171.386 233.023 170.606 231.775 169.956 231.151C174.506 230.189 175.91 228.551 176.508 226.289L172.634 226.289L172.634 225.327C171.672 226.081 170.606 226.757 169.436 227.355C169.02 226.627 168.136 225.431 167.538 224.833C169.488 223.923 171.1 222.727 172.452 221.323L168.188 221.323L168.188 218.541L174.584 218.541C175 217.865 175.364 217.189 175.702 216.461L169.878 216.461L169.878 213.731L172.686 213.731C172.322 212.795 171.672 211.625 171.074 210.689L173.648 209.753C174.48 210.871 175.312 212.405 175.676 213.419L174.844 213.731L176.768 213.731C177.236 212.327 177.574 210.871 177.834 209.415L181.084 209.961C180.798 211.235 180.46 212.509 180.07 213.731L183.684 213.731L183.294 213.601C183.944 212.509 184.802 210.845 185.244 209.623L188.312 210.533C187.688 211.677 186.986 212.821 186.414 213.731L190.002 213.731L190.002 216.461L183.996 216.461C184.308 217.189 184.672 217.865 185.062 218.541L191.432 218.541L191.432 221.323ZM205.472 210.637C205.342 211.287 205.16 212.145 204.822 213.237C207.292 213.107 209.892 212.873 212.18 212.483L212.154 215.499C209.684 215.863 206.486 216.071 203.678 216.149C203.236 217.111 202.716 218.047 202.196 218.801C202.872 218.489 204.276 218.281 205.134 218.281C206.72 218.281 208.02 218.957 208.592 220.283C209.944 219.659 211.036 219.217 212.102 218.749C213.116 218.307 214.026 217.891 214.988 217.397L216.288 220.413C215.456 220.647 214.078 221.167 213.194 221.505C212.024 221.973 210.542 222.545 208.956 223.273C208.982 224.729 209.034 226.653 209.06 227.849L205.94 227.849C206.018 227.069 206.044 225.821 206.07 224.677C204.12 225.795 203.08 226.809 203.08 228.109C203.08 229.539 204.302 229.929 206.85 229.929C209.06 229.929 211.946 229.643 214.234 229.201L214.13 232.555C212.414 232.789 209.216 232.997 206.772 232.997C202.69 232.997 199.674 232.009 199.674 228.655C199.674 225.327 202.794 223.247 205.758 221.713C205.368 221.063 204.666 220.829 203.938 220.829C202.482 220.829 200.87 221.661 199.882 222.623C199.102 223.403 198.348 224.339 197.464 225.483L194.682 223.403C197.412 220.881 199.258 218.567 200.428 216.227C200.298 216.227 200.194 216.227 200.09 216.227C199.024 216.227 197.126 216.175 195.696 216.071L195.696 213.029C197.022 213.237 198.946 213.341 200.272 213.341C200.662 213.341 201.104 213.341 201.52 213.341C201.806 212.301 201.988 211.287 202.04 210.351L205.472 210.637ZM233.396 224.105L239.168 224.105L239.168 221.349L233.396 221.349L233.396 224.105ZM224.504 224.105L230.146 224.105L230.146 221.349L224.504 221.349L224.504 224.105ZM230.146 215.889L224.504 215.889L224.504 218.515L230.146 218.515L230.146 215.889ZM239.168 215.889L233.396 215.889L233.396 218.515L239.168 218.515L239.168 215.889ZM233.396 212.925L242.392 212.925L242.392 228.317L239.168 228.317L239.168 227.069L233.396 227.069L233.396 233.725L230.146 233.725L230.146 227.069L224.504 227.069L224.504 228.447L221.41 228.447L221.41 212.925L230.146 212.925L230.146 209.441L233.396 209.441L233.396 212.925ZM259.162 215.941L260.176 216.097C260.072 215.239 259.968 214.355 259.89 213.471L255.366 213.471L255.366 210.559L262.516 210.559C262.906 217.917 264.466 224.183 269.874 226.887C269.146 227.407 268.028 228.499 267.456 229.253C264.258 227.355 262.36 224.365 261.216 220.725C259.916 224.443 257.94 227.303 255.106 229.279C254.638 228.681 253.442 227.485 252.714 226.939C256.354 224.781 258.356 220.907 259.162 215.941ZM252.714 213.991L250.27 216.045C249.464 214.797 247.618 213.081 246.084 211.937L248.372 210.065C249.932 211.157 251.83 212.769 252.714 213.991ZM252.064 219.555L252.064 227.719C253.13 229.461 255.08 230.163 257.784 230.267C260.826 230.397 266.676 230.319 270.134 230.059C269.796 230.787 269.328 232.295 269.172 233.179C266.052 233.335 260.826 233.387 257.732 233.257C254.534 233.127 252.402 232.399 250.712 230.371C249.568 231.385 248.424 232.399 246.994 233.491L245.486 230.267C246.604 229.617 247.904 228.759 249.048 227.875L249.048 222.389L246.058 222.389L246.058 219.555L252.064 219.555Z" fill="black"/>
<path d="M332.24 200.748C331.009 200.748 329.907 200.517 328.934 200.055C327.962 199.588 327.189 198.947 326.617 198.135C326.05 197.322 325.749 196.393 325.712 195.347L329.036 195.347C329.097 196.122 329.433 196.756 330.042 197.248C330.652 197.735 331.384 197.978 332.24 197.978C332.911 197.978 333.508 197.824 334.031 197.516C334.554 197.208 334.966 196.781 335.268 196.233C335.57 195.685 335.717 195.06 335.711 194.359C335.717 193.645 335.567 193.011 335.259 192.457C334.951 191.903 334.529 191.469 333.994 191.155C333.458 190.835 332.843 190.675 332.147 190.675C331.581 190.668 331.024 190.773 330.476 190.989C329.928 191.204 329.494 191.487 329.174 191.838L326.081 191.33L327.069 181.58L338.038 181.58L338.038 184.442L329.904 184.442L329.359 189.456L329.47 189.456C329.821 189.043 330.316 188.702 330.956 188.431C331.596 188.154 332.298 188.016 333.061 188.016C334.206 188.016 335.228 188.286 336.127 188.828C337.025 189.364 337.733 190.102 338.25 191.044C338.767 191.986 339.026 193.063 339.026 194.275C339.026 195.525 338.737 196.639 338.158 197.618C337.585 198.59 336.788 199.357 335.767 199.917C334.751 200.471 333.575 200.748 332.24 200.748ZM349.875 180.694L343.781 203.333L340.854 203.333L346.948 180.694L349.875 180.694ZM351.97 200.489L351.97 198.015L358.535 191.579C359.163 190.945 359.686 190.382 360.105 189.89C360.523 189.397 360.837 188.92 361.046 188.459C361.256 187.997 361.36 187.505 361.36 186.981C361.36 186.384 361.225 185.873 360.954 185.449C360.683 185.018 360.311 184.686 359.837 184.452C359.363 184.218 358.824 184.101 358.221 184.101C357.599 184.101 357.055 184.23 356.587 184.489C356.119 184.741 355.756 185.101 355.497 185.569C355.245 186.037 355.119 186.594 355.119 187.24L351.86 187.24C351.86 186.04 352.134 184.996 352.681 184.11C353.229 183.224 353.983 182.537 354.943 182.051C355.91 181.565 357.018 181.322 358.267 181.322C359.535 181.322 360.649 181.559 361.61 182.033C362.57 182.507 363.315 183.156 363.844 183.981C364.38 184.806 364.647 185.747 364.647 186.806C364.647 187.514 364.512 188.209 364.241 188.893C363.97 189.576 363.493 190.333 362.81 191.164C362.133 191.995 361.182 193.001 359.957 194.183L356.698 197.498L356.698 197.627L364.934 197.627L364.934 200.489L351.97 200.489ZM375.108 200.849C373.588 200.849 372.283 200.465 371.193 199.695C370.11 198.92 369.276 197.802 368.691 196.344C368.113 194.879 367.823 193.115 367.823 191.053C367.83 188.991 368.122 187.237 368.701 185.79C369.285 184.338 370.119 183.23 371.203 182.467C372.292 181.703 373.594 181.322 375.108 181.322C376.622 181.322 377.924 181.703 379.014 182.467C380.103 183.23 380.937 184.338 381.516 185.79C382.101 187.243 382.393 188.997 382.393 191.053C382.393 193.121 382.101 194.888 381.516 196.353C380.937 197.812 380.103 198.926 379.014 199.695C377.93 200.465 376.629 200.849 375.108 200.849ZM375.108 197.959C376.29 197.959 377.223 197.378 377.906 196.214C378.595 195.045 378.94 193.324 378.94 191.053C378.94 189.551 378.783 188.289 378.469 187.268C378.155 186.246 377.712 185.476 377.139 184.959C376.567 184.436 375.89 184.175 375.108 184.175C373.933 184.175 373.003 184.759 372.32 185.929C371.637 187.092 371.292 188.8 371.286 191.053C371.28 192.561 371.43 193.829 371.738 194.857C372.052 195.885 372.495 196.661 373.068 197.184C373.64 197.701 374.32 197.959 375.108 197.959ZM333.787 210.273L333.787 212.613L326.143 212.613L326.143 210.273L333.787 210.273ZM334.723 213.757L334.723 216.201L324.843 216.201L324.843 213.757L334.723 213.757ZM333.865 217.371L333.865 219.737L326.065 219.737L326.065 217.371L333.865 217.371ZM326.065 223.247L326.065 220.933L333.865 220.933L333.865 223.247L326.065 223.247ZM331.265 226.965L328.587 226.965L328.587 229.955L331.265 229.955L331.265 226.965ZM333.891 224.521L333.891 232.373L328.587 232.373L328.587 233.387L325.987 233.387L325.987 224.521L333.891 224.521ZM339.325 226.913L344.707 226.913L344.707 225.691L339.325 225.691L339.325 226.913ZM344.707 222.519L339.325 222.519L339.325 223.689L344.707 223.689L344.707 222.519ZM347.593 220.335L347.593 230.865C347.593 232.165 347.359 232.841 346.475 233.231C345.617 233.647 344.395 233.673 342.731 233.673C342.627 232.919 342.263 231.879 341.925 231.203C342.887 231.229 343.953 231.229 344.291 231.203C344.629 231.203 344.707 231.099 344.707 230.813L344.707 228.941L339.325 228.941L339.325 233.699L336.491 233.699L336.491 220.335L347.593 220.335ZM343.303 217.137L348.997 217.137L348.997 219.373L334.723 219.373L334.723 217.137L340.365 217.137L340.365 216.097L335.997 216.097L335.997 214.017L340.365 214.017L340.365 213.081L335.347 213.081L335.347 210.871L340.365 210.871L340.365 209.467L343.303 209.467L343.303 210.871L348.529 210.871L348.529 213.081L343.303 213.081L343.303 214.017L348.139 214.017L348.139 216.097L343.303 216.097L343.303 217.137ZM359.345 223.741L360.385 226.575C357.811 228.239 354.925 230.033 352.663 231.333L350.739 228.473C352.897 227.407 356.251 225.535 359.345 223.741ZM358.981 221.765L356.459 223.585C355.731 222.285 353.989 220.257 352.559 218.879L354.925 217.215C356.381 218.541 358.175 220.413 358.981 221.765ZM370.993 216.877L373.723 218.775C372.163 220.569 370.187 222.519 368.601 223.923C370.447 226.185 372.709 228.031 375.335 229.227C374.581 229.851 373.567 231.099 373.047 231.983C369.407 230.033 366.599 226.861 364.493 222.987L364.493 229.955C364.493 231.775 364.155 232.633 363.063 233.127C361.971 233.673 360.307 233.777 357.993 233.751C357.863 232.867 357.395 231.437 356.927 230.501C358.513 230.579 360.151 230.553 360.671 230.553C361.165 230.553 361.347 230.397 361.347 229.929L361.347 216.383L351.545 216.383L351.545 213.393L361.347 213.393L361.347 209.493L364.493 209.493L364.493 213.393L369.797 213.393C368.731 212.665 367.327 211.859 366.209 211.287L368.003 209.337C369.563 210.065 371.747 211.209 372.839 212.041L371.643 213.393L374.529 213.393L374.529 216.383L364.493 216.383L364.493 216.643C365.117 218.385 365.949 220.049 366.911 221.609C368.367 220.205 369.979 218.385 370.993 216.877ZM378.741 222.129L376.505 221.375C377.051 219.607 377.441 216.695 377.571 214.589L379.755 214.875C379.703 217.033 379.287 220.127 378.741 222.129ZM388.621 227.745L396.395 227.745L396.395 226.549L388.621 226.549L388.621 227.745ZM396.395 223.143L388.621 223.143L388.621 224.365L396.395 224.365L396.395 223.143ZM399.307 220.881L399.307 230.787C399.307 232.139 399.047 232.867 398.111 233.283C397.201 233.725 395.901 233.725 394.107 233.725C394.003 232.971 393.639 231.853 393.275 231.099C394.341 231.177 395.563 231.151 395.901 231.151C396.265 231.151 396.395 231.047 396.395 230.735L396.395 229.877L388.621 229.877L388.621 233.777L385.761 233.777L385.761 220.881L399.307 220.881ZM393.977 217.683L401.049 217.683L401.049 219.893L384.019 219.893L384.019 217.683L390.909 217.683L390.909 216.565L385.527 216.565L385.579 216.695L383.551 217.683C383.369 216.929 383.005 215.837 382.589 214.823L382.589 233.725L379.807 233.725L379.807 209.467L382.589 209.467L382.589 213.627L384.071 213.003C384.617 214.121 385.215 215.577 385.527 216.539L385.527 214.485L390.909 214.485L390.909 213.445L384.825 213.445L384.825 211.235L390.909 211.235L390.909 209.467L393.977 209.467L393.977 211.235L400.269 211.235L400.269 213.445L393.977 213.445L393.977 214.485L399.567 214.485L399.567 216.565L393.977 216.565L393.977 217.683ZM410.773 221.739L409.941 221.505C410.253 220.725 410.643 219.607 410.877 218.723L406.925 218.723C407.367 219.659 407.731 220.777 407.835 221.505L407.003 221.739L410.773 221.739ZM410.331 214.329L410.331 216.123L414.673 216.123L414.673 218.723L412.515 218.723L413.529 218.983C413.087 219.945 412.697 220.959 412.333 221.739L414.283 221.739L414.283 224.339L410.331 224.339L410.331 226.341L413.997 226.341L413.997 228.941L410.331 228.941L410.331 233.673L407.471 233.673L407.471 228.941L403.597 228.941L403.597 226.341L407.471 226.341L407.471 224.339L403.389 224.339L403.389 221.739L405.339 221.739C405.183 220.907 404.845 219.815 404.481 218.957L405.417 218.723L402.843 218.723L402.843 216.123L407.471 216.123L407.471 214.329L403.753 214.329L403.753 211.781L407.471 211.781L407.471 209.519L410.331 209.519L410.331 211.781L413.711 211.781L413.711 214.329L410.331 214.329ZM417.949 222.987L417.949 231.255C418.885 230.501 419.717 229.617 420.445 228.603C419.431 226.939 418.599 225.041 417.949 222.987ZM423.357 221.921L420.133 221.921C420.601 223.351 421.225 224.703 421.979 225.951C422.577 224.703 423.045 223.325 423.357 221.921ZM424.735 219.347L426.581 219.997C426.087 223.143 425.177 226.055 423.851 228.499C424.917 229.669 426.113 230.657 427.465 231.333C426.789 231.905 425.905 232.997 425.463 233.777C424.241 233.049 423.175 232.113 422.213 231.021C421.381 232.087 420.445 233.023 419.379 233.803C419.041 233.283 418.495 232.685 417.949 232.191L417.949 233.725L415.141 233.725L415.141 210.559L425.983 210.559L425.983 215.447C425.983 216.773 425.697 217.527 424.683 217.943C423.695 218.359 422.291 218.385 420.393 218.385C420.263 217.553 419.873 216.487 419.509 215.733C420.783 215.785 422.213 215.785 422.603 215.785C422.993 215.759 423.123 215.681 423.123 215.395L423.123 213.263L417.949 213.263L417.949 219.477L424.215 219.477L424.735 219.347ZM429.727 224.677L432.093 225.067C431.885 227.537 431.313 230.085 430.559 231.749C430.065 231.437 428.999 230.917 428.401 230.709C429.155 229.175 429.519 226.861 429.727 224.677ZM435.109 225.171L437.137 224.573C437.787 226.055 438.307 227.953 438.463 229.253L436.305 229.955C436.201 228.655 435.681 226.705 435.109 225.171ZM451.827 221.973L451.827 228.473C451.827 229.643 451.671 230.397 450.917 230.839C450.189 231.307 449.279 231.333 448.005 231.333C447.953 230.553 447.563 229.435 447.251 228.707C447.901 228.733 448.603 228.733 448.837 228.707C449.071 228.707 449.149 228.629 449.149 228.421L449.149 224.469L446.913 224.469L446.913 233.751L444.131 233.751L444.131 224.469L442.155 224.469L442.155 231.437L439.451 231.437L439.451 221.973L444.131 221.973L444.131 219.841L446.913 219.841L446.913 221.973L451.827 221.973ZM447.537 214.173L443.507 214.173C443.845 215.005 444.131 215.941 444.287 216.669L446.627 216.669C446.939 215.915 447.277 214.979 447.537 214.173ZM433.315 220.543L435.473 220.413C435.239 219.789 434.979 219.165 434.693 218.619C434.225 219.295 433.783 219.945 433.315 220.543ZM449.617 216.669L452.971 216.669L452.971 221.557L450.111 221.557L450.111 219.165L440.959 219.165L440.959 221.557L438.307 221.557C438.541 222.259 438.697 222.909 438.801 223.455L436.643 224.391C436.565 223.949 436.461 223.455 436.305 222.909L434.979 223.013L434.979 233.751L432.379 233.751L432.379 223.221L428.947 223.481L428.635 220.803C429.259 220.777 429.935 220.725 430.689 220.699C431.027 220.231 431.391 219.711 431.729 219.191C431.053 217.995 429.779 216.539 428.713 215.421L430.195 213.419C430.403 213.601 430.611 213.809 430.819 214.017C431.547 212.587 432.275 210.819 432.691 209.493L435.317 210.403C434.381 212.197 433.315 214.251 432.405 215.707C432.717 216.071 433.003 216.435 433.237 216.773C434.095 215.317 434.875 213.809 435.473 212.535L437.917 213.653C436.955 215.239 435.837 216.981 434.693 218.619L436.721 217.787C437.293 218.879 437.839 220.153 438.229 221.349L438.229 216.669L441.375 216.669C441.193 215.863 440.907 214.927 440.595 214.199L440.699 214.173L438.437 214.173L438.437 211.599L443.975 211.599L443.975 209.467L447.069 209.467L447.069 211.599L452.607 211.599L452.607 214.173L450.761 214.173C450.345 215.083 449.955 215.941 449.617 216.669ZM461.109 225.743L462.435 225.743C462.929 225.743 463.007 225.119 463.085 222.363C463.709 222.883 464.983 223.429 465.789 223.611C465.529 227.433 464.775 228.681 462.721 228.681L460.563 228.681C458.119 228.681 457.521 227.719 457.521 224.547L457.521 219.789L455.103 220.257L454.609 217.397L457.521 216.851L457.521 210.247L460.563 210.247L460.563 216.253L465.633 215.291L466.101 218.099L460.563 219.191L460.563 224.547C460.563 225.587 460.615 225.743 461.109 225.743ZM464.385 211.391L478.659 211.391C478.659 211.391 478.633 212.561 478.607 212.977C478.347 225.925 478.087 230.423 477.099 231.853C476.371 232.893 475.721 233.205 474.733 233.413C473.771 233.569 472.367 233.543 470.963 233.491C470.911 232.633 470.547 231.203 470.001 230.319C471.353 230.423 472.575 230.423 473.173 230.423C473.615 230.423 473.901 230.319 474.187 229.929C474.889 229.019 475.201 224.859 475.409 214.355L471.379 214.355C471.223 222.623 470.573 229.799 464.177 233.907C463.735 233.075 462.799 231.983 461.993 231.411C467.843 227.901 468.181 221.687 468.285 214.355L464.385 214.355L464.385 211.391ZM487.213 228.629L498.757 228.629L498.757 222.805L487.213 222.805L487.213 228.629ZM498.757 214.147L487.213 214.147L487.213 219.737L498.757 219.737L498.757 214.147ZM484.015 211.027L502.085 211.027L502.085 233.387L498.757 233.387L498.757 231.749L487.213 231.749L487.213 233.439L484.015 233.439L484.015 211.027Z" fill="black"/>
<path d="M629.24 200.748C628.009 200.748 626.907 200.517 625.934 200.055C624.962 199.588 624.189 198.947 623.617 198.135C623.05 197.322 622.749 196.393 622.712 195.347L626.036 195.347C626.097 196.122 626.433 196.756 627.042 197.248C627.652 197.735 628.384 197.978 629.24 197.978C629.911 197.978 630.508 197.824 631.031 197.516C631.554 197.208 631.966 196.781 632.268 196.233C632.57 195.685 632.717 195.06 632.711 194.359C632.717 193.645 632.567 193.011 632.259 192.457C631.951 191.903 631.529 191.469 630.994 191.155C630.458 190.835 629.843 190.675 629.147 190.675C628.581 190.668 628.024 190.773 627.476 190.989C626.928 191.204 626.494 191.487 626.174 191.838L623.081 191.33L624.069 181.58L635.038 181.58L635.038 184.442L626.904 184.442L626.359 189.456L626.47 189.456C626.821 189.043 627.316 188.702 627.956 188.431C628.596 188.154 629.298 188.016 630.061 188.016C631.206 188.016 632.228 188.286 633.127 188.828C634.025 189.364 634.733 190.102 635.25 191.044C635.767 191.986 636.026 193.063 636.026 194.275C636.026 195.525 635.737 196.639 635.158 197.618C634.585 198.59 633.788 199.357 632.767 199.917C631.751 200.471 630.575 200.748 629.24 200.748ZM646.875 180.694L640.781 203.333L637.854 203.333L643.948 180.694L646.875 180.694ZM648.97 200.489L648.97 198.015L655.535 191.579C656.163 190.945 656.686 190.382 657.105 189.89C657.523 189.397 657.837 188.92 658.046 188.459C658.256 187.997 658.36 187.505 658.36 186.981C658.36 186.384 658.225 185.873 657.954 185.449C657.683 185.018 657.311 184.686 656.837 184.452C656.363 184.218 655.824 184.101 655.221 184.101C654.599 184.101 654.055 184.23 653.587 184.489C653.119 184.741 652.756 185.101 652.497 185.569C652.245 186.037 652.119 186.594 652.119 187.24L648.86 187.24C648.86 186.04 649.134 184.996 649.681 184.11C650.229 183.224 650.983 182.537 651.943 182.051C652.91 181.565 654.018 181.322 655.267 181.322C656.535 181.322 657.649 181.559 658.61 182.033C659.57 182.507 660.315 183.156 660.844 183.981C661.38 184.806 661.647 185.747 661.647 186.806C661.647 187.514 661.512 188.209 661.241 188.893C660.97 189.576 660.493 190.333 659.81 191.164C659.133 191.995 658.182 193.001 656.957 194.183L653.698 197.498L653.698 197.627L661.934 197.627L661.934 200.489L648.97 200.489ZM671.693 200.748C670.462 200.748 669.36 200.517 668.387 200.055C667.415 199.588 666.642 198.947 666.07 198.135C665.504 197.322 665.202 196.393 665.165 195.347L668.489 195.347C668.55 196.122 668.886 196.756 669.495 197.248C670.105 197.735 670.837 197.978 671.693 197.978C672.364 197.978 672.961 197.824 673.484 197.516C674.007 197.208 674.42 196.781 674.721 196.233C675.023 195.685 675.17 195.06 675.164 194.359C675.17 193.645 675.02 193.011 674.712 192.457C674.404 191.903 673.983 191.469 673.447 191.155C672.911 190.835 672.296 190.675 671.6 190.675C671.034 190.668 670.477 190.773 669.929 190.989C669.381 191.204 668.947 191.487 668.627 191.838L665.534 191.33L666.522 181.58L677.491 181.58L677.491 184.442L669.357 184.442L668.812 189.456L668.923 189.456C669.274 189.043 669.769 188.702 670.409 188.431C671.05 188.154 671.751 188.016 672.514 188.016C673.659 188.016 674.681 188.286 675.58 188.828C676.478 189.364 677.186 190.102 677.703 191.044C678.22 191.986 678.479 193.063 678.479 194.275C678.479 195.525 678.19 196.639 677.611 197.618C677.039 198.59 676.242 199.357 675.22 199.917C674.204 200.471 673.028 200.748 671.693 200.748ZM630.787 210.273L630.787 212.613L623.143 212.613L623.143 210.273L630.787 210.273ZM631.723 213.757L631.723 216.201L621.843 216.201L621.843 213.757L631.723 213.757ZM630.865 217.371L630.865 219.737L623.065 219.737L623.065 217.371L630.865 217.371ZM623.065 223.247L623.065 220.933L630.865 220.933L630.865 223.247L623.065 223.247ZM628.265 226.965L625.587 226.965L625.587 229.955L628.265 229.955L628.265 226.965ZM630.891 224.521L630.891 232.373L625.587 232.373L625.587 233.387L622.987 233.387L622.987 224.521L630.891 224.521ZM636.325 226.913L641.707 226.913L641.707 225.691L636.325 225.691L636.325 226.913ZM641.707 222.519L636.325 222.519L636.325 223.689L641.707 223.689L641.707 222.519ZM644.593 220.335L644.593 230.865C644.593 232.165 644.359 232.841 643.475 233.231C642.617 233.647 641.395 233.673 639.731 233.673C639.627 232.919 639.263 231.879 638.925 231.203C639.887 231.229 640.953 231.229 641.291 231.203C641.629 231.203 641.707 231.099 641.707 230.813L641.707 228.941L636.325 228.941L636.325 233.699L633.491 233.699L633.491 220.335L644.593 220.335ZM640.303 217.137L645.997 217.137L645.997 219.373L631.723 219.373L631.723 217.137L637.365 217.137L637.365 216.097L632.997 216.097L632.997 214.017L637.365 214.017L637.365 213.081L632.347 213.081L632.347 210.871L637.365 210.871L637.365 209.467L640.303 209.467L640.303 210.871L645.529 210.871L645.529 213.081L640.303 213.081L640.303 214.017L645.139 214.017L645.139 216.097L640.303 216.097L640.303 217.137ZM656.345 223.741L657.385 226.575C654.811 228.239 651.925 230.033 649.663 231.333L647.739 228.473C649.897 227.407 653.251 225.535 656.345 223.741ZM655.981 221.765L653.459 223.585C652.731 222.285 650.989 220.257 649.559 218.879L651.925 217.215C653.381 218.541 655.175 220.413 655.981 221.765ZM667.993 216.877L670.723 218.775C669.163 220.569 667.187 222.519 665.601 223.923C667.447 226.185 669.709 228.031 672.335 229.227C671.581 229.851 670.567 231.099 670.047 231.983C666.407 230.033 663.599 226.861 661.493 222.987L661.493 229.955C661.493 231.775 661.155 232.633 660.063 233.127C658.971 233.673 657.307 233.777 654.993 233.751C654.863 232.867 654.395 231.437 653.927 230.501C655.513 230.579 657.151 230.553 657.671 230.553C658.165 230.553 658.347 230.397 658.347 229.929L658.347 216.383L648.545 216.383L648.545 213.393L658.347 213.393L658.347 209.493L661.493 209.493L661.493 213.393L666.797 213.393C665.731 212.665 664.327 211.859 663.209 211.287L665.003 209.337C666.563 210.065 668.747 211.209 669.839 212.041L668.643 213.393L671.529 213.393L671.529 216.383L661.493 216.383L661.493 216.643C662.117 218.385 662.949 220.049 663.911 221.609C665.367 220.205 666.979 218.385 667.993 216.877ZM675.741 222.129L673.505 221.375C674.051 219.607 674.441 216.695 674.571 214.589L676.755 214.875C676.703 217.033 676.287 220.127 675.741 222.129ZM685.621 227.745L693.395 227.745L693.395 226.549L685.621 226.549L685.621 227.745ZM693.395 223.143L685.621 223.143L685.621 224.365L693.395 224.365L693.395 223.143ZM696.307 220.881L696.307 230.787C696.307 232.139 696.047 232.867 695.111 233.283C694.201 233.725 692.901 233.725 691.107 233.725C691.003 232.971 690.639 231.853 690.275 231.099C691.341 231.177 692.563 231.151 692.901 231.151C693.265 231.151 693.395 231.047 693.395 230.735L693.395 229.877L685.621 229.877L685.621 233.777L682.761 233.777L682.761 220.881L696.307 220.881ZM690.977 217.683L698.049 217.683L698.049 219.893L681.019 219.893L681.019 217.683L687.909 217.683L687.909 216.565L682.527 216.565L682.579 216.695L680.551 217.683C680.369 216.929 680.005 215.837 679.589 214.823L679.589 233.725L676.807 233.725L676.807 209.467L679.589 209.467L679.589 213.627L681.071 213.003C681.617 214.121 682.215 215.577 682.527 216.539L682.527 214.485L687.909 214.485L687.909 213.445L681.825 213.445L681.825 211.235L687.909 211.235L687.909 209.467L690.977 209.467L690.977 211.235L697.269 211.235L697.269 213.445L690.977 213.445L690.977 214.485L696.567 214.485L696.567 216.565L690.977 216.565L690.977 217.683ZM707.773 221.739L706.941 221.505C707.253 220.725 707.643 219.607 707.877 218.723L703.925 218.723C704.367 219.659 704.731 220.777 704.835 221.505L704.003 221.739L707.773 221.739ZM707.331 214.329L707.331 216.123L711.673 216.123L711.673 218.723L709.515 218.723L710.529 218.983C710.087 219.945 709.697 220.959 709.333 221.739L711.283 221.739L711.283 224.339L707.331 224.339L707.331 226.341L710.997 226.341L710.997 228.941L707.331 228.941L707.331 233.673L704.471 233.673L704.471 228.941L700.597 228.941L700.597 226.341L704.471 226.341L704.471 224.339L700.389 224.339L700.389 221.739L702.339 221.739C702.183 220.907 701.845 219.815 701.481 218.957L702.417 218.723L699.843 218.723L699.843 216.123L704.471 216.123L704.471 214.329L700.753 214.329L700.753 211.781L704.471 211.781L704.471 209.519L707.331 209.519L707.331 211.781L710.711 211.781L710.711 214.329L707.331 214.329ZM714.949 222.987L714.949 231.255C715.885 230.501 716.717 229.617 717.445 228.603C716.431 226.939 715.599 225.041 714.949 222.987ZM720.357 221.921L717.133 221.921C717.601 223.351 718.225 224.703 718.979 225.951C719.577 224.703 720.045 223.325 720.357 221.921ZM721.735 219.347L723.581 219.997C723.087 223.143 722.177 226.055 720.851 228.499C721.917 229.669 723.113 230.657 724.465 231.333C723.789 231.905 722.905 232.997 722.463 233.777C721.241 233.049 720.175 232.113 719.213 231.021C718.381 232.087 717.445 233.023 716.379 233.803C716.041 233.283 715.495 232.685 714.949 232.191L714.949 233.725L712.141 233.725L712.141 210.559L722.983 210.559L722.983 215.447C722.983 216.773 722.697 217.527 721.683 217.943C720.695 218.359 719.291 218.385 717.393 218.385C717.263 217.553 716.873 216.487 716.509 215.733C717.783 215.785 719.213 215.785 719.603 215.785C719.993 215.759 720.123 215.681 720.123 215.395L720.123 213.263L714.949 213.263L714.949 219.477L721.215 219.477L721.735 219.347ZM739.467 224.105L739.467 221.167L736.269 221.167L736.269 224.105L739.467 224.105ZM745.057 221.167L742.691 221.167L742.691 224.105L748.229 224.105L748.229 226.939L742.691 226.939L742.691 229.747C742.691 230.683 742.795 230.839 743.523 230.839L745.525 230.839C746.201 230.839 746.331 230.319 746.435 227.875C747.085 228.395 748.333 228.915 749.217 229.097C748.905 232.529 748.099 233.569 745.811 233.569L742.977 233.569C740.169 233.569 739.467 232.659 739.467 229.773L739.467 226.939L736.035 226.939C735.463 229.669 733.747 232.243 728.937 233.855C728.547 233.153 727.611 231.957 726.961 231.385C730.549 230.293 732.109 228.681 732.759 226.939L727.611 226.939L727.611 224.105L733.175 224.105L733.175 221.167L730.991 221.167L730.991 220.309C729.899 221.115 728.729 221.791 727.533 222.363C727.117 221.661 726.259 220.595 725.661 220.023C727.169 219.399 728.651 218.489 729.977 217.345C729.301 216.669 728.261 215.785 727.403 215.135L729.353 213.523C730.133 214.069 731.121 214.823 731.849 215.447C732.473 214.719 733.019 213.939 733.487 213.107L728.183 213.107L728.183 210.455L734.969 210.455L735.515 210.351L737.569 211.313C736.659 214.043 735.177 216.357 733.357 218.229L742.769 218.229C740.741 216.045 739.181 213.341 738.037 210.273L740.819 209.493C741.183 210.455 741.599 211.391 742.119 212.275C742.977 211.495 743.835 210.585 744.433 209.857L746.773 211.521C745.707 212.483 744.511 213.497 743.445 214.277C743.809 214.745 744.199 215.187 744.589 215.629C745.655 214.771 746.799 213.705 747.527 212.821L749.789 214.433C748.723 215.421 747.475 216.435 746.331 217.241C747.553 218.229 748.905 219.035 750.387 219.633C749.659 220.231 748.723 221.453 748.255 222.285C747.111 221.739 746.045 221.089 745.057 220.335L745.057 221.167ZM775.243 210.949L775.243 213.887L762.607 213.887L762.607 210.949L775.243 210.949ZM757.615 209.467L760.605 210.689C758.733 213.133 755.925 215.811 753.455 217.527C753.065 216.851 752.285 215.603 751.739 215.005C753.897 213.627 756.367 211.287 757.615 209.467ZM758.603 215.083L761.567 216.227C760.787 217.553 759.825 218.905 758.785 220.205L758.785 233.777L755.691 233.777L755.691 223.611C754.963 224.313 754.261 224.963 753.559 225.535C753.117 224.911 752.077 223.507 751.453 222.857C754.105 221.037 756.939 218.021 758.603 215.083ZM775.893 218.099L775.893 221.037L772.331 221.037L772.331 230.163C772.331 231.827 772.019 232.685 770.875 233.153C769.783 233.621 768.119 233.673 765.805 233.673C765.675 232.763 765.285 231.437 764.869 230.527C766.351 230.605 768.067 230.605 768.535 230.579C769.003 230.579 769.185 230.475 769.185 230.085L769.185 221.037L761.515 221.037L761.515 218.099L775.893 218.099ZM784.213 228.629L795.757 228.629L795.757 222.805L784.213 222.805L784.213 228.629ZM795.757 214.147L784.213 214.147L784.213 219.737L795.757 219.737L795.757 214.147ZM781.015 211.027L799.085 211.027L799.085 233.387L795.757 233.387L795.757 231.749L784.213 231.749L784.213 233.439L781.015 233.439L781.015 211.027Z" fill="black"/>
<path d="M941.59 200.748C940.686 200.742 939.802 200.585 938.941 200.277C938.079 199.963 937.303 199.455 936.614 198.753C935.925 198.046 935.377 197.107 934.97 195.937C934.564 194.762 934.364 193.306 934.37 191.57C934.37 189.951 934.543 188.508 934.887 187.24C935.232 185.972 935.728 184.901 936.374 184.027C937.02 183.147 937.799 182.476 938.71 182.014C939.627 181.552 940.652 181.322 941.784 181.322C942.972 181.322 944.025 181.556 944.942 182.023C945.865 182.491 946.61 183.131 947.176 183.944C947.743 184.75 948.094 185.661 948.229 186.677L944.859 186.677C944.687 185.95 944.333 185.372 943.797 184.941C943.268 184.504 942.597 184.285 941.784 184.285C940.473 184.285 939.464 184.855 938.756 185.994C938.054 187.132 937.7 188.696 937.694 190.684L937.823 190.684C938.125 190.142 938.516 189.677 938.996 189.29C939.476 188.902 940.018 188.603 940.621 188.394C941.23 188.179 941.874 188.071 942.551 188.071C943.659 188.071 944.653 188.336 945.533 188.865C946.419 189.394 947.121 190.124 947.638 191.053C948.155 191.976 948.411 193.035 948.404 194.229C948.411 195.473 948.127 196.59 947.555 197.581C946.983 198.566 946.185 199.341 945.164 199.908C944.142 200.474 942.951 200.754 941.59 200.748ZM941.572 197.978C942.243 197.978 942.843 197.815 943.372 197.489C943.902 197.162 944.32 196.722 944.628 196.168C944.936 195.614 945.087 194.993 945.081 194.303C945.087 193.626 944.939 193.014 944.637 192.466C944.342 191.918 943.933 191.484 943.409 191.164C942.886 190.844 942.289 190.684 941.618 190.684C941.12 190.684 940.655 190.779 940.224 190.97C939.793 191.161 939.418 191.426 939.098 191.764C938.777 192.097 938.525 192.484 938.34 192.927C938.162 193.364 938.07 193.832 938.063 194.331C938.07 194.989 938.224 195.596 938.525 196.15C938.827 196.704 939.242 197.147 939.772 197.479C940.301 197.812 940.901 197.978 941.572 197.978ZM959.281 180.694L953.187 203.333L950.26 203.333L956.354 180.694L959.281 180.694ZM969.068 181.58L969.068 200.489L965.642 200.489L965.642 184.913L965.532 184.913L961.109 187.739L961.109 184.599L965.809 181.58L969.068 181.58ZM980.443 200.748C979.212 200.748 978.11 200.517 977.137 200.055C976.165 199.588 975.392 198.947 974.82 198.135C974.254 197.322 973.952 196.393 973.915 195.347L977.239 195.347C977.3 196.122 977.636 196.756 978.245 197.248C978.855 197.735 979.587 197.978 980.443 197.978C981.114 197.978 981.711 197.824 982.234 197.516C982.757 197.208 983.17 196.781 983.471 196.233C983.773 195.685 983.92 195.06 983.914 194.359C983.92 193.645 983.77 193.011 983.462 192.457C983.154 191.903 982.733 191.469 982.197 191.155C981.661 190.835 981.046 190.675 980.35 190.675C979.784 190.668 979.227 190.773 978.679 190.989C978.131 191.204 977.697 191.487 977.377 191.838L974.284 191.33L975.272 181.58L986.241 181.58L986.241 184.442L978.107 184.442L977.562 189.456L977.673 189.456C978.024 189.043 978.519 188.702 979.159 188.431C979.8 188.154 980.501 188.016 981.264 188.016C982.409 188.016 983.431 188.286 984.33 188.828C985.228 189.364 985.936 190.102 986.453 191.044C986.97 191.986 987.229 193.063 987.229 194.275C987.229 195.525 986.94 196.639 986.361 197.618C985.789 198.59 984.992 199.357 983.97 199.917C982.954 200.471 981.778 200.748 980.443 200.748ZM940.447 214.121L946.063 214.121C946.063 214.121 946.063 215.135 946.037 215.525C945.803 226.601 945.621 230.579 944.815 231.775C944.217 232.659 943.671 232.919 942.813 233.101C942.059 233.257 940.889 233.257 939.667 233.205C939.615 232.347 939.329 230.995 938.783 230.111C939.823 230.189 940.759 230.215 941.253 230.215C941.643 230.215 941.877 230.111 942.137 229.747C942.631 229.045 942.839 225.821 942.995 217.137L940.369 217.137C940.109 224.079 939.199 229.903 935.845 233.751C935.377 232.997 934.363 231.957 933.583 231.489C936.495 228.187 937.197 223.221 937.379 217.137L934.363 217.137L934.363 214.121L937.405 214.121C937.431 212.743 937.431 211.313 937.431 209.831L940.473 209.831C940.473 211.287 940.473 212.717 940.447 214.121ZM950.483 228.421L953.837 228.421L953.837 215.395L950.483 215.395L950.483 228.421ZM947.493 212.431L956.931 212.431L956.931 233.023L953.837 233.023L953.837 231.411L950.483 231.411L950.483 233.205L947.493 233.205L947.493 212.431ZM979.369 212.613L974.949 212.613L974.949 214.121L979.369 214.121L979.369 212.613ZM974.819 217.787L979.369 217.787L979.369 216.227L974.949 216.227C974.923 216.721 974.897 217.267 974.819 217.787ZM979.369 219.919L974.403 219.919C973.935 221.583 973.103 223.195 971.569 224.391C971.127 223.845 970.009 222.805 969.411 222.441C971.881 220.517 972.141 217.761 972.141 215.447L972.141 210.221L982.437 210.221L982.437 221.141C982.437 222.467 982.177 223.143 981.241 223.559C980.357 224.001 979.109 224.053 977.471 224.053C977.289 223.273 976.769 222.181 976.379 221.531C977.419 221.583 978.563 221.557 978.901 221.531C979.265 221.531 979.369 221.427 979.369 221.115L979.369 219.919ZM967.383 213.029L964.159 213.029L964.159 214.901L967.383 214.901L967.383 213.029ZM964.159 219.035L967.383 219.035L967.383 217.189L964.159 217.189L964.159 219.035ZM964.159 221.427L964.159 222.701L961.351 222.701L961.351 210.611L970.191 210.611L970.191 221.427L964.159 221.427ZM965.797 226.939L965.797 230.397L968.007 230.397L968.007 226.939L965.797 226.939ZM973.103 226.939L970.841 226.939L970.841 230.397L973.103 230.397L973.103 226.939ZM978.173 226.939L975.911 226.939L975.911 230.397L978.173 230.397L978.173 226.939ZM981.215 230.397L984.075 230.397L984.075 233.049L959.895 233.049L959.895 230.397L962.937 230.397L962.937 224.547L981.215 224.547L981.215 230.397ZM1004.82 230.085L1004.82 226.549L995.593 226.549L995.593 230.085L1004.82 230.085ZM1001.42 215.811L1001.42 218.255L1009.53 218.255L1009.53 220.985L1001.42 220.985L1001.42 223.819L1008 223.819L1008 233.725L1004.82 233.725L1004.82 232.789L995.593 232.789L995.593 233.751L992.577 233.751L992.577 223.819L998.271 223.819L998.271 215.811L1001.42 215.811ZM1000.4 212.483L1009.87 212.483L1009.87 215.421L991.017 215.421L991.017 219.035C991.017 223.221 990.627 229.643 988.287 233.699C987.715 233.179 986.337 232.295 985.609 231.957C987.741 228.239 987.923 222.779 987.923 219.035L987.923 212.483L997.179 212.483L997.179 209.493L1000.4 209.493L1000.4 212.483ZM1017.04 227.927L1030.82 227.927L1030.82 215.161L1017.04 215.161L1017.04 227.927ZM1013.79 212.015L1034.23 212.015L1034.23 233.179L1030.82 233.179L1030.82 231.125L1017.04 231.125L1017.04 233.231L1013.79 233.231L1013.79 212.015ZM1053.65 227.901L1053.65 230.475L1061.97 230.475L1061.97 233.127L1042.5 233.127L1042.5 230.475L1050.66 230.475L1050.66 227.901L1044.14 227.901L1044.14 225.223L1050.66 225.223L1050.66 222.207L1049.18 223.975C1048.76 223.351 1047.98 222.519 1047.2 221.713C1046.58 222.805 1045.8 223.741 1044.86 224.495C1044.4 224.001 1043.25 223.091 1042.63 222.675C1042.39 226.367 1041.74 230.579 1040.13 233.543C1039.59 233.023 1038.23 232.139 1037.51 231.827C1039.53 228.109 1039.69 222.675 1039.69 218.879L1039.69 211.833L1049.18 211.833L1049.18 209.493L1052.4 209.493L1052.4 211.833L1061.79 211.833L1061.79 214.667L1042.73 214.667L1042.73 218.905C1042.73 220.023 1042.71 221.297 1042.63 222.675C1044.76 221.245 1045.75 218.879 1046.06 215.863L1048.87 216.071C1048.74 217.189 1048.53 218.255 1048.24 219.191C1049.13 219.997 1050.06 220.881 1050.66 221.583L1050.66 215.525L1053.65 215.525L1053.65 221.869C1055.24 220.465 1056.12 218.385 1056.46 215.863L1059.22 216.175C1059.06 217.241 1058.83 218.255 1058.51 219.165C1059.84 220.231 1061.3 221.453 1062.1 222.285L1060.31 224.417C1059.63 223.663 1058.51 222.623 1057.37 221.635C1056.75 222.675 1055.97 223.585 1055.03 224.313C1054.74 223.975 1054.2 223.481 1053.65 223.039L1053.65 225.223L1060.57 225.223L1060.57 227.901L1053.65 227.901ZM1063.95 223.741C1064.73 223.143 1065.38 222.545 1066.16 221.713C1067.35 220.465 1069.36 217.787 1070.97 215.915C1072.79 213.861 1074.48 213.679 1076.38 215.525C1078.14 217.241 1080.22 219.919 1081.76 221.583C1083.42 223.403 1085.63 225.743 1088.1 227.953L1085.42 231.073C1083.55 229.305 1081.34 226.783 1079.7 224.859C1078.09 222.935 1076.14 220.465 1074.92 219.087C1074.01 218.073 1073.52 218.203 1072.76 219.165C1071.72 220.465 1069.88 223.039 1068.76 224.521C1068.16 225.379 1067.56 226.315 1067.12 226.991L1063.95 223.741ZM944.321 241.377C944.243 241.845 944.139 242.963 944.087 243.639C944.061 244.211 944.035 244.835 944.009 245.485C945.725 245.277 947.441 244.939 948.793 244.549L948.871 247.773C947.389 248.111 945.595 248.371 943.905 248.579C943.879 249.359 943.879 250.165 943.879 250.919C943.879 251.231 943.879 251.543 943.879 251.881C945.647 251.439 947.441 251.205 948.871 251.205C952.875 251.205 956.021 253.285 956.021 256.873C956.021 259.941 954.409 262.255 950.275 263.295C949.079 263.555 947.935 263.633 946.869 263.711L945.673 260.357C946.843 260.357 947.961 260.331 948.871 260.175C950.977 259.785 952.641 258.745 952.641 256.847C952.641 255.079 951.081 254.039 948.819 254.039C947.207 254.039 945.517 254.299 943.931 254.767C943.983 256.821 944.035 258.849 944.035 259.733C944.035 262.957 942.891 263.815 941.175 263.815C938.653 263.815 935.091 261.631 935.091 258.875C935.091 256.613 937.691 254.247 940.889 252.869C940.863 252.245 940.863 251.621 940.863 251.023C940.863 250.295 940.863 249.567 940.863 248.839C940.369 248.865 939.901 248.891 939.485 248.891C937.743 248.891 936.729 248.865 935.845 248.761L935.793 245.615C937.327 245.797 938.445 245.823 939.381 245.823C939.849 245.823 940.369 245.797 940.889 245.771C940.915 244.861 940.915 244.107 940.915 243.665C940.915 243.119 940.811 241.845 940.733 241.377L944.321 241.377ZM951.731 244.185C953.733 245.147 956.749 246.863 958.127 247.851L956.567 250.503C955.319 249.437 951.913 247.487 950.301 246.707L951.731 244.185ZM938.289 258.745C938.289 259.551 939.511 260.253 940.187 260.253C940.655 260.253 941.019 260.045 941.019 259.161C941.019 258.511 940.993 257.315 940.941 255.911C939.355 256.769 938.289 257.835 938.289 258.745ZM976.613 252.999L967.669 252.999C968.709 254.897 970.165 256.483 972.037 257.783C973.935 256.535 975.495 254.975 976.613 252.999ZM978.901 249.853L981.059 251.075C979.759 254.637 977.627 257.367 974.949 259.447C977.523 260.617 980.591 261.397 984.179 261.787C983.529 262.515 982.645 263.893 982.203 264.803C978.069 264.205 974.637 263.113 971.855 261.449C968.813 263.061 965.277 264.101 961.481 264.751C961.195 263.919 960.389 262.463 959.791 261.761C963.197 261.319 966.343 260.565 969.021 259.395C967.279 257.861 965.849 255.989 964.653 253.779L966.941 252.999L962.131 252.999L962.131 249.957L970.295 249.957L970.295 246.941L960.831 246.941L960.831 243.873L970.295 243.873L970.295 240.493L973.493 240.493L973.493 243.873L983.009 243.873L983.009 246.941L973.493 246.941L973.493 249.957L978.355 249.957L978.901 249.853ZM996.425 254.299L992.785 255.131L992.785 261.345C992.785 262.931 992.473 263.685 991.563 264.179C990.653 264.647 989.275 264.751 987.299 264.751C987.195 263.945 986.805 262.671 986.415 261.839C987.585 261.891 988.859 261.891 989.223 261.891C989.613 261.865 989.769 261.735 989.769 261.319L989.769 255.807C988.547 256.067 987.403 256.327 986.363 256.535L985.713 253.493C986.857 253.337 988.235 253.077 989.769 252.817L989.769 248.267L986.103 248.267L986.103 245.407L989.769 245.407L989.769 240.467L992.785 240.467L992.785 245.407L996.113 245.407L996.113 248.267L992.785 248.267L992.785 252.245C993.929 252.011 995.073 251.803 996.217 251.569L996.425 254.299ZM1010.41 263.581L1007.35 264.725C1007.22 264.049 1007.01 263.269 1006.77 262.437C1002.28 263.113 997.569 263.711 994.137 264.205L993.461 260.981C994.267 260.903 995.177 260.825 996.191 260.721C997.725 255.313 999.311 247.435 1000.01 241.143L1003.39 241.689C1002.43 247.929 1000.9 255.105 999.389 260.357C1001.44 260.149 1003.63 259.889 1005.81 259.629C1004.98 257.419 1003.94 255.105 1002.93 253.103L1005.66 252.141C1007.63 255.781 1009.69 260.487 1010.41 263.581ZM1017.75 243.899C1017.56 244.835 1017.43 246.343 1017.43 247.071C1017.41 248.761 1017.43 250.711 1017.59 252.583C1017.95 256.327 1018.73 258.901 1020.37 258.901C1021.59 258.901 1022.63 255.859 1023.13 253.779L1025.73 256.951C1024.01 261.475 1022.37 263.061 1020.29 263.061C1017.43 263.061 1014.96 260.487 1014.24 253.519C1013.98 251.127 1013.95 248.085 1013.95 246.499C1013.95 245.771 1013.9 244.653 1013.74 243.847L1017.75 243.899ZM1030.75 244.497C1033.22 247.487 1035.19 253.987 1035.48 257.965L1032.07 259.291C1031.66 255.105 1030.28 248.787 1027.44 245.563L1030.75 244.497Z" fill="black"/>
<path d="M0.985352 3.48828L253.985 3.48828L313.985 59.4883L253.985 115.488L0.985352 115.488L0.985352 3.48828Z" fill="#1C59F0"/>
<path d="M118.573 73.8661C116.666 73.8661 114.966 73.5153 113.472 72.8136C111.988 72.1119 110.809 71.1448 109.937 69.9123C109.064 68.6798 108.61 67.2674 108.574 65.6751L114.241 65.6751C114.304 66.7456 114.754 67.6138 115.591 68.2795C116.427 68.9452 117.422 69.2781 118.573 69.2781C119.491 69.2781 120.3 69.0756 121.002 68.6708C121.713 68.257 122.266 67.6857 122.662 66.957C123.067 66.2193 123.269 65.3737 123.269 64.4201C123.269 63.4485 123.062 62.5939 122.648 61.8562C122.244 61.1185 121.681 60.5427 120.962 60.1289C120.242 59.7151 119.419 59.5037 118.492 59.4947C117.682 59.4947 116.895 59.6611 116.131 59.994C115.375 60.3268 114.786 60.7811 114.363 61.3569L109.168 60.4258L110.476 45.8519L127.371 45.8519L127.371 50.6289L115.294 50.6289L114.579 57.5515L114.741 57.5515C115.226 56.8678 115.96 56.301 116.94 55.8512C117.921 55.4014 119.018 55.1765 120.233 55.1765C121.897 55.1765 123.382 55.5678 124.686 56.3505C125.99 57.1332 127.021 58.2082 127.776 59.5756C128.532 60.9341 128.905 62.4994 128.896 64.2717C128.905 66.1339 128.473 67.7892 127.601 69.2376C126.737 70.677 125.527 71.8105 123.971 72.6381C122.423 73.4568 120.624 73.8661 118.573 73.8661ZM142.321 61.0623L157.825 61.0623L157.825 56.4263L142.587 56.4263C142.549 57.8703 142.473 59.4663 142.321 61.0623ZM157.825 47.4963L142.587 47.4963L142.587 52.1323L157.825 52.1323L157.825 47.4963ZM162.613 43.0883L162.613 71.0183C162.613 73.7543 161.967 75.0463 160.219 75.8063C158.395 76.6043 155.735 76.6803 151.821 76.6803C151.555 75.3503 150.643 73.1843 149.921 71.9303C152.581 72.0823 155.773 72.0443 156.609 72.0443C157.521 72.0443 157.825 71.7403 157.825 70.9423L157.825 65.4323L141.561 65.4323C140.573 69.6883 138.673 73.8303 135.139 76.7943C134.455 75.8443 132.631 74.1723 131.643 73.5263C137.381 68.6243 137.913 61.3663 137.913 55.5903L137.913 43.0883L162.613 43.0883Z" fill="white"/>
<path d="M280.233 3.50488L555.233 3.50488L615.233 59.5049L555.233 115.505L280.233 115.505L340.233 59.5049L280.233 3.50488Z" fill="#1C59F0"/>
<path d="M427.821 73.8827C425.914 73.8827 424.214 73.5319 422.72 72.8302C421.236 72.1285 420.057 71.1614 419.185 69.9289C418.312 68.6964 417.858 67.284 417.822 65.6917L423.489 65.6917C423.552 66.7622 424.002 67.6304 424.839 68.2961C425.676 68.9618 426.67 69.2947 427.821 69.2947C428.739 69.2947 429.548 69.0922 430.25 68.6874C430.961 68.2736 431.514 67.7023 431.91 66.9736C432.315 66.2359 432.517 65.3903 432.517 64.4367C432.517 63.4651 432.31 62.6105 431.896 61.8728C431.492 61.1351 430.929 60.5593 430.21 60.1455C429.49 59.7317 428.667 59.5203 427.74 59.5113C426.93 59.5113 426.143 59.6777 425.379 60.0106C424.623 60.3434 424.034 60.7977 423.611 61.3735L418.416 60.4424L419.725 45.8685L436.619 45.8685L436.619 50.6455L424.542 50.6455L423.827 57.5681L423.989 57.5681C424.475 56.8844 425.208 56.3176 426.188 55.8678C427.169 55.418 428.266 55.1931 429.481 55.1931C431.145 55.1931 432.63 55.5844 433.934 56.3671C435.238 57.1498 436.269 58.2248 437.024 59.5922C437.78 60.9507 438.153 62.516 438.144 64.2883C438.153 66.1505 437.721 67.8058 436.849 69.2542C435.985 70.6936 434.775 71.8271 433.219 72.6547C431.671 73.4734 429.872 73.8827 427.821 73.8827ZM451.569 61.0789L467.073 61.0789L467.073 56.4429L451.835 56.4429C451.797 57.8869 451.721 59.4829 451.569 61.0789ZM467.073 47.5129L451.835 47.5129L451.835 52.1489L467.073 52.1489L467.073 47.5129ZM471.861 43.1049L471.861 71.0349C471.861 73.7709 471.215 75.0629 469.467 75.8229C467.643 76.6209 464.983 76.6969 461.069 76.6969C460.803 75.3669 459.891 73.2009 459.169 71.9469C461.829 72.0989 465.021 72.0609 465.857 72.0609C466.769 72.0609 467.073 71.7569 467.073 70.9589L467.073 65.4489L450.809 65.4489C449.821 69.7049 447.921 73.8469 444.387 76.8109C443.703 75.8609 441.879 74.1889 440.891 73.5429C446.629 68.6409 447.161 61.3829 447.161 55.6069L447.161 43.1049L471.861 43.1049Z" fill="white"/>
<path d="M576.234 3.49121L851.234 3.49121L911.234 59.4912L851.234 115.491L576.234 115.491L636.234 59.4912L576.234 3.49121Z" fill="#1C59F0"/>
<path d="M723.822 73.8691C721.915 73.8691 720.215 73.5182 718.721 72.8165C717.237 72.1148 716.058 71.1477 715.186 69.9152C714.313 68.6827 713.859 67.2703 713.823 65.678L719.49 65.678C719.553 66.7485 720.003 67.6167 720.84 68.2824C721.676 68.9481 722.671 69.281 723.822 69.281C724.74 69.281 725.549 69.0786 726.251 68.6737C726.962 68.2599 727.515 67.6887 727.911 66.96C728.316 66.2223 728.518 65.3766 728.518 64.423C728.518 63.4514 728.311 62.5968 727.897 61.8591C727.493 61.1214 726.93 60.5457 726.211 60.1318C725.491 59.718 724.668 59.5066 723.741 59.4976C722.931 59.4976 722.144 59.664 721.38 59.9969C720.624 60.3298 720.035 60.7841 719.612 61.3598L714.417 60.4287L715.725 45.8548L732.62 45.8548L732.62 50.6318L720.543 50.6318L719.828 57.5544L719.99 57.5544C720.475 56.8707 721.209 56.3039 722.189 55.8541C723.17 55.4043 724.267 55.1794 725.482 55.1794C727.146 55.1794 728.631 55.5708 729.935 56.3534C731.239 57.1361 732.27 58.2111 733.025 59.5786C733.781 60.937 734.154 62.5023 734.145 64.2746C734.154 66.1368 733.722 67.7921 732.85 69.2405C731.986 70.6799 730.776 71.8134 729.22 72.6411C727.672 73.4597 725.873 73.8691 723.822 73.8691ZM747.57 61.0652L763.074 61.0652L763.074 56.4292L747.836 56.4292C747.798 57.8732 747.722 59.4692 747.57 61.0652ZM763.074 47.4992L747.836 47.4992L747.836 52.1352L763.074 52.1352L763.074 47.4992ZM767.862 43.0912L767.862 71.0212C767.862 73.7572 767.216 75.0492 765.468 75.8092C763.644 76.6072 760.984 76.6832 757.07 76.6832C756.804 75.3532 755.892 73.1872 755.17 71.9332C757.83 72.0852 761.022 72.0472 761.858 72.0472C762.77 72.0472 763.074 71.7432 763.074 70.9452L763.074 65.4352L746.81 65.4352C745.822 69.6912 743.922 73.8332 740.388 76.7972C739.704 75.8472 737.88 74.1752 736.892 73.5292C742.63 68.6272 743.162 61.3692 743.162 55.5932L743.162 43.0912L767.862 43.0912Z" fill="white"/>
<path d="M874.234 3.49121L1149.23 3.49121L1209.23 59.4912L1149.23 115.491L874.234 115.491L934.234 59.4912L874.234 3.49121Z" fill="#1C59F0"/>
<path d="M1021.54 73.8691C1020.12 73.8601 1018.74 73.6217 1017.42 73.1539C1016.11 72.686 1014.93 71.9259 1013.89 70.8733C1012.84 69.8208 1012.02 68.4263 1011.4 66.6901C1010.8 64.9538 1010.5 62.8217 1010.5 60.2938C1010.51 57.9727 1010.77 55.8991 1011.3 54.0729C1011.83 52.2377 1012.58 50.6813 1013.56 49.4039C1014.55 48.1264 1015.74 47.1548 1017.11 46.4891C1018.49 45.8144 1020.03 45.477 1021.74 45.477C1023.58 45.477 1025.21 45.8369 1026.63 46.5566C1028.04 47.2673 1029.17 48.2343 1030.03 49.4578C1030.89 50.6813 1031.41 52.0532 1031.59 53.5736L1025.83 53.5736C1025.6 52.611 1025.13 51.8553 1024.41 51.3066C1023.69 50.7578 1022.8 50.4834 1021.74 50.4834C1019.94 50.4834 1018.57 51.2661 1017.64 52.8314C1016.71 54.3968 1016.24 56.5244 1016.22 59.2142L1016.41 59.2142C1016.82 58.3956 1017.38 57.6984 1018.08 57.1226C1018.79 56.5378 1019.6 56.0925 1020.5 55.7867C1021.41 55.4718 1022.37 55.3144 1023.37 55.3144C1025.01 55.3144 1026.47 55.7012 1027.75 56.4749C1029.02 57.2396 1030.03 58.2921 1030.77 59.6325C1031.51 60.973 1031.87 62.5068 1031.87 64.2341C1031.87 66.1053 1031.44 67.7696 1030.57 69.227C1029.7 70.6844 1028.49 71.8269 1026.94 72.6546C1025.39 73.4732 1023.59 73.878 1021.54 73.8691ZM1021.51 69.281C1022.41 69.281 1023.22 69.0651 1023.93 68.6333C1024.64 68.2014 1025.19 67.6167 1025.6 66.879C1026 66.1413 1026.21 65.3137 1026.21 64.396C1026.21 63.4784 1026 62.6553 1025.6 61.9266C1025.2 61.1979 1024.66 60.6176 1023.95 60.1858C1023.25 59.754 1022.45 59.5381 1021.55 59.5381C1020.88 59.5381 1020.25 59.664 1019.68 59.9159C1019.11 60.1678 1018.61 60.5187 1018.18 60.9685C1017.76 61.4183 1017.42 61.9401 1017.18 62.5338C1016.94 63.1186 1016.81 63.7438 1016.81 64.4095C1016.81 65.3002 1017.02 66.1143 1017.42 66.852C1017.84 67.5897 1018.39 68.1789 1019.1 68.6198C1019.81 69.0606 1020.61 69.281 1021.51 69.281ZM1045.37 61.0652L1060.87 61.0652L1060.87 56.4292L1045.63 56.4292C1045.6 57.8732 1045.52 59.4692 1045.37 61.0652ZM1060.87 47.4992L1045.63 47.4992L1045.63 52.1352L1060.87 52.1352L1060.87 47.4992ZM1065.66 43.0912L1065.66 71.0212C1065.66 73.7572 1065.01 75.0492 1063.27 75.8092C1061.44 76.6072 1058.78 76.6832 1054.87 76.6832C1054.6 75.3532 1053.69 73.1872 1052.97 71.9332C1055.63 72.0852 1058.82 72.0472 1059.66 72.0472C1060.57 72.0472 1060.87 71.7432 1060.87 70.9452L1060.87 65.4352L1044.61 65.4352C1043.62 69.6912 1041.72 73.8332 1038.19 76.7972C1037.5 75.8472 1035.68 74.1752 1034.69 73.5292C1040.43 68.6272 1040.96 61.3692 1040.96 55.5932L1040.96 43.0912L1065.66 43.0912Z" fill="white"/>
<rect x="129.107" y="114.489" width="13" height="55" fill="#1C59F0"/>
<path d="M135.607 196.489L119.586 155.239L151.629 155.239L135.607 196.489Z" fill="#1C59F0"/>
<rect x="434.107" y="114.489" width="13" height="55" fill="#1C59F0"/>
<path d="M440.607 196.489L424.586 155.239L456.629 155.239L440.607 196.489Z" fill="#1C59F0"/>
<rect x="733.107" y="114.489" width="13" height="55" fill="#1C59F0"/>
<path d="M739.607 196.489L723.586 155.239L755.629 155.239L739.607 196.489Z" fill="#1C59F0"/>
<rect x="1032.11" y="114.489" width="13" height="55" fill="#1C59F0"/>
<path d="M1038.61 196.489L1022.59 155.239L1054.63 155.239L1038.61 196.489Z" fill="#1C59F0"/>
</svg>
