<svg preserveAspectRatio="none" width="100%" height="100%" overflow="visible" style="display: block;" viewBox="0 0 28.3698 37" fill="none" xmlns="http://www.w3.org/2000/svg">
<g id="Group">
<path id="Vector" d="M2.53645 1.56792C-0.00585138 3.21674 -0.505279 8.37065 0.454553 12.5712C1.20207 15.8424 2.79133 20.2304 5.47123 24.3625C7.99229 28.2496 11.5095 31.7351 14.1915 33.7518C17.6354 36.3412 22.5449 37.9871 25.0872 36.3383C26.3728 35.5046 28.2827 33.2267 28.3698 32.818C28.3698 32.818 27.2499 31.0911 27.0041 30.7121L23.2483 24.9211C22.9692 24.4908 21.2189 24.8841 20.3298 25.3878C19.1304 26.0673 18.0258 27.8907 18.0258 27.8907C17.2034 28.3659 16.5146 27.8925 15.0753 27.2301C13.3065 26.4162 11.3177 23.8875 9.73491 21.5972C8.28923 19.218 6.79138 16.3708 6.7697 14.4238C6.75185 12.8396 6.60053 12.0177 7.3698 11.4605C7.3698 11.4605 9.48516 11.1956 10.5948 10.3777C11.4172 9.77123 12.4902 8.33358 12.2111 7.90316L8.4553 2.11223C8.20952 1.73327 7.08955 0.00640851 7.08955 0.00640851C6.68074 -0.0806716 3.82199 0.734196 2.53645 1.56792Z" fill="var(--fill-0, white)"/>
</g>
</svg>
