<svg preserveAspectRatio="none" width="100%" height="100%" overflow="visible" style="display: block;" viewBox="0 0 17 17" fill="none" xmlns="http://www.w3.org/2000/svg">
<g id="Group">
<path id="Vector" d="M16.4977 14.0728L13.6636 11.2386C13.5055 11.4817 13.3348 11.716 13.1525 11.9406L12.1072 10.8952C12.1522 10.8364 12.1968 10.7771 12.2404 10.7169C12.2698 10.6762 12.2987 10.6355 12.3266 10.5944C12.3315 10.588 12.3359 10.5812 12.3404 10.5748C12.3688 10.5332 12.3972 10.491 12.4246 10.4489C12.4844 10.3578 12.5417 10.2657 12.5966 10.1716C13.184 9.16974 13.5215 8.00375 13.5215 6.76082C13.5215 5.51789 13.184 4.35193 12.5966 3.35006C12.0092 2.34915 11.1724 1.5124 10.1715 0.924973C9.16964 0.337543 8.00368 0 6.76075 0C5.51786 0 4.35187 0.337543 3.35 0.924973C3.30886 0.948979 3.26818 0.973482 3.22751 0.998949C3.17558 1.03079 3.12365 1.06363 3.07268 1.09693C2.98207 1.1562 2.89242 1.21746 2.80473 1.28114C2.77532 1.30219 2.74643 1.32378 2.71751 1.34532C2.68716 1.36837 2.65678 1.39138 2.6264 1.41442C2.59848 1.43647 2.57006 1.45851 2.54213 1.48103C2.48725 1.52512 2.43289 1.56971 2.37947 1.61576C2.10514 1.84941 1.84941 2.10514 1.61573 2.3795C1.56968 2.43289 1.52509 2.48681 1.48099 2.54216C1.45848 2.57009 1.4364 2.59851 1.41439 2.62643C1.39134 2.65681 1.36833 2.6872 1.34532 2.71754C1.32378 2.74643 1.30223 2.77535 1.28114 2.80473C1.21746 2.89242 1.15623 2.98207 1.09693 3.07272C1.0636 3.12368 1.03079 3.17561 0.998949 3.22754C0.973483 3.26818 0.948979 3.30886 0.924973 3.35003C0.337543 4.3519 0 5.51789 0 6.76082C0 8.00375 0.337543 9.16971 0.92494 10.1716C1.51237 11.1725 2.34912 12.0093 3.35 12.5967C4.35187 13.1841 5.51786 13.5216 6.76075 13.5216C8.00368 13.5216 9.16964 13.1841 10.1715 12.5967C10.2342 12.5599 10.296 12.5222 10.3572 12.4835C10.388 12.4644 10.4184 12.4448 10.4488 12.4247C10.4909 12.3973 10.5331 12.3689 10.5747 12.3405C10.5811 12.3361 10.5879 12.3316 10.5943 12.3268C10.6354 12.2988 10.6761 12.2699 10.7168 12.2405C10.777 12.1969 10.8363 12.1523 10.8951 12.1073L11.9404 13.1526C11.7159 13.3349 11.4816 13.5056 11.2385 13.6637L14.0727 16.4979C14.4073 16.8325 14.8462 17 15.2852 17C15.7241 17 16.1631 16.8325 16.4977 16.4978C17.1674 15.8281 17.1674 14.7425 16.4977 14.0728ZM9.45233 10.734C9.43862 10.7438 9.42491 10.7531 9.4107 10.7619C9.39502 10.7732 9.37885 10.7835 9.36268 10.7938C9.34801 10.8036 9.33327 10.8129 9.31859 10.8222C9.29947 10.8344 9.28041 10.8462 9.26128 10.8575C9.24315 10.8687 9.22552 10.8795 9.20739 10.8903C9.16868 10.9133 9.12996 10.9353 9.09078 10.9574C9.08783 10.9594 9.08491 10.9608 9.08149 10.9628C9.04961 10.9804 9.01731 10.9976 8.98497 11.0142C8.97222 11.0216 8.95947 11.0284 8.94625 11.0348C8.92078 11.048 8.89482 11.0608 8.86889 11.0735C8.81938 11.098 8.76941 11.1215 8.71894 11.144C8.12075 11.4125 7.45792 11.5619 6.76079 11.5619C6.06366 11.5619 5.40082 11.4125 4.80263 11.144C3.72675 10.662 2.85965 9.79482 2.37758 8.71897C2.10906 8.12082 1.95965 7.45795 1.95965 6.76082C1.95965 6.06369 2.10906 5.40082 2.37754 4.80263C2.45298 4.63459 2.53772 4.47146 2.63131 4.31418C2.64211 4.29605 2.65286 4.27842 2.66412 4.26029C2.6945 4.20982 2.72634 4.15985 2.75968 4.11088C2.77781 4.08295 2.7964 4.05553 2.81599 4.02807C2.83903 3.99377 2.86301 3.95997 2.88804 3.92667C2.92573 3.87524 2.96444 3.82427 3.00412 3.7743C3.23096 3.48968 3.48962 3.231 3.77427 3.00415C3.82424 2.96447 3.8752 2.92576 3.92664 2.88804C3.95997 2.86304 3.99377 2.83903 4.02804 2.81602C4.0555 2.79643 4.08292 2.77781 4.11085 2.75968C4.15985 2.72637 4.20982 2.69453 4.26026 2.66415C4.27839 2.65286 4.29602 2.64211 4.31415 2.63131C4.4714 2.53775 4.63456 2.45298 4.8026 2.37754C5.40079 2.10906 6.06362 1.95965 6.76075 1.95965C7.45789 1.95965 8.12075 2.10906 8.71891 2.37754C9.79476 2.85962 10.6619 3.72675 11.144 4.8026C11.4124 5.40079 11.5619 6.06365 11.5619 6.76079C11.5619 7.45792 11.4124 8.12079 11.144 8.71897C11.1214 8.76944 11.0979 8.81941 11.0734 8.86889C11.0607 8.89485 11.0479 8.92082 11.0347 8.94632C11.0284 8.95953 11.0215 8.97228 11.0141 8.98503C10.9975 9.01737 10.9803 9.04971 10.9627 9.08155C10.9608 9.08497 10.9593 9.08793 10.9573 9.09085C10.9357 9.13003 10.9132 9.16874 10.8902 9.20746C10.8794 9.22559 10.8686 9.24322 10.8574 9.26135C10.8461 9.28047 10.8343 9.29956 10.8221 9.31866C10.8128 9.33337 10.8035 9.34807 10.7937 9.36275C10.7834 9.37892 10.7731 9.39509 10.7618 9.41076C10.753 9.42497 10.7437 9.43869 10.7339 9.4524C10.7246 9.46611 10.7153 9.47982 10.7055 9.49354C10.7006 9.50187 10.6947 9.51021 10.6884 9.51804C10.6776 9.53421 10.6658 9.55088 10.6541 9.56705C10.5649 9.691 10.4698 9.81006 10.3689 9.92418C10.3508 9.94527 10.3322 9.96582 10.3136 9.9864C10.2896 10.0129 10.2656 10.0393 10.2411 10.0648C10.2127 10.0947 10.1833 10.1246 10.1538 10.154C10.1245 10.1834 10.0946 10.2128 10.0647 10.2412C10.0392 10.2657 10.0128 10.2896 9.98631 10.3137C9.96572 10.3323 9.94517 10.3509 9.92408 10.369C9.80996 10.47 9.6909 10.565 9.56695 10.6542C9.55078 10.6659 9.53411 10.6777 9.51794 10.6885C9.51011 10.6949 9.50177 10.7007 9.49344 10.7056C9.47976 10.7154 9.46601 10.7247 9.45233 10.734Z" fill="var(--fill-0, white)"/>
</g>
</svg>
