<svg preserveAspectRatio="none" width="100%" height="100%" overflow="visible" style="display: block;" viewBox="0 0 18 14.1285" fill="none" xmlns="http://www.w3.org/2000/svg">
<g id="Group">
<path id="Vector" d="M17.9535 2.01139C17.8724 1.60267 17.6912 1.22864 17.4381 0.919652C17.3847 0.852328 17.3289 0.792035 17.2685 0.731742C16.8201 0.281109 16.1907 0 15.5032 0H2.49683C1.80928 0 1.18216 0.281109 0.731637 0.731742C0.671344 0.792035 0.615586 0.852328 0.562078 0.919652C0.308848 1.22861 0.127617 1.60267 0.0487266 2.01139C0.0163125 2.16914 0 2.33216 0 2.49697V11.6317C0 11.9822 0.0743203 12.319 0.206859 12.6232C0.329801 12.9136 0.511066 13.1764 0.731602 13.3967C0.7875 13.4525 0.843012 13.5037 0.903586 13.5547C1.33552 13.9124 1.89306 14.1285 2.49683 14.1285H15.5032C16.1072 14.1285 16.6671 13.9124 17.0966 13.5525C17.157 13.5037 17.2127 13.4525 17.2685 13.3967C17.4889 13.1764 17.6702 12.9136 17.7956 12.6232V12.621C17.9281 12.3168 18 11.9822 18 11.6318V2.49697C18 2.33216 17.9839 2.16914 17.9535 2.01139ZM1.63508 1.63508C1.85815 1.41226 2.15772 1.27737 2.49683 1.27737H15.5032C15.8423 1.27737 16.1445 1.41226 16.3649 1.63508C16.4044 1.67477 16.4415 1.719 16.4743 1.76295L9.65728 7.70418C9.46927 7.86895 9.23702 7.95034 9 7.95034C8.76537 7.95034 8.53327 7.86895 8.34275 7.70418L1.52831 1.76041C1.55848 1.71647 1.59564 1.67477 1.63508 1.63508ZM1.27737 11.6317V3.08225L6.21063 7.38591L1.27986 11.685C1.27737 11.6687 1.27737 11.6503 1.27737 11.6317ZM15.5032 12.8508H2.49683C2.27602 12.8508 2.0694 12.7928 1.89306 12.6908L7.09541 8.15709L7.58109 8.5796C7.98754 8.93278 8.49614 9.11166 9 9.11166C9.50646 9.11166 10.015 8.93278 10.4214 8.5796L10.9069 8.15709L16.1072 12.6908C15.9306 12.7928 15.724 12.8508 15.5032 12.8508ZM16.7226 11.6317C16.7226 11.6503 16.7226 11.6687 16.7202 11.685L11.7895 7.3884L16.7226 3.08454V11.6317Z" fill="var(--fill-0, #DCC573)"/>
</g>
</svg>
