<svg preserveAspectRatio="none" width="100%" height="100%" overflow="visible" style="display: block;" viewBox="0 0 25.9999 25.9999" fill="none" xmlns="http://www.w3.org/2000/svg">
<g id="clippath">
<path id="Vector" d="M12.9999 2.34201C16.4712 2.34201 16.8823 2.35501 18.2532 2.41762C19.5208 2.47545 20.2091 2.687 20.6672 2.86516C21.2743 3.10115 21.7071 3.38249 22.1621 3.83741C22.6169 4.29234 22.8988 4.72532 23.1343 5.3323C23.3125 5.79034 23.524 6.47865 23.5819 7.74628C23.6444 9.11719 23.6575 9.52822 23.6575 12.9995C23.6575 16.4708 23.6445 16.8818 23.5819 18.2527C23.524 19.5203 23.3125 20.2086 23.1343 20.6667C22.8983 21.2737 22.617 21.7066 22.1621 22.1615C21.7071 22.6164 21.2742 22.8983 20.6672 23.1338C20.2091 23.312 19.5208 23.5235 18.2532 23.5813C16.8824 23.6438 16.4713 23.6569 12.9999 23.6569C9.52864 23.6569 9.11771 23.6439 7.7468 23.5813C6.47917 23.5235 5.79086 23.312 5.33282 23.1338C4.72573 22.8977 4.29286 22.6164 3.83793 22.1615C3.38311 21.7066 3.10115 21.2736 2.86568 20.6667C2.68742 20.2086 2.47597 19.5203 2.41814 18.2527C2.35564 16.8819 2.34253 16.4707 2.34253 12.9995C2.34253 9.52832 2.35553 9.11729 2.41814 7.74628C2.47597 6.47865 2.68752 5.79034 2.86568 5.3323C3.10167 4.72521 3.38301 4.29234 3.83793 3.83741C4.29286 3.38259 4.72584 3.10063 5.33282 2.86516C5.79086 2.687 6.47917 2.47545 7.7468 2.41762C9.1176 2.35564 9.52874 2.34201 12.9999 2.34201ZM12.9999 0C9.46935 0 9.02649 0.0150809 7.63999 0.0781087C6.25608 0.141136 5.31139 0.36111 4.48454 0.682489C3.62951 1.01489 2.90479 1.45942 2.18205 2.18205C1.45942 2.90479 1.01448 3.62951 0.682489 4.48454C0.361006 5.31149 0.141136 6.2566 0.0781087 7.63999C0.0150809 9.0266 0 9.46946 0 12.9999C0 16.5304 0.0150809 16.9734 0.0781087 18.3599C0.141136 19.7438 0.36111 20.6885 0.682489 21.5154C1.01489 22.3704 1.45942 23.0951 2.18205 23.8178C2.90479 24.5406 3.63003 24.985 4.48454 25.3174C5.31149 25.6389 6.2566 25.8588 7.63999 25.9218C9.02649 25.9848 9.46935 25.9999 12.9999 25.9999C16.5305 25.9999 16.9734 25.9848 18.3599 25.9218C19.7438 25.8588 20.6885 25.6388 21.5154 25.3174C22.3704 24.9849 23.0951 24.5405 23.8178 23.8178C24.5406 23.0951 24.985 22.3699 25.3174 21.5154C25.6389 20.6885 25.8588 19.7433 25.9218 18.3599C25.9848 16.9734 25.9999 16.5305 25.9999 12.9999C25.9999 9.46935 25.9848 9.02649 25.9218 7.63999C25.8588 6.25608 25.6388 5.31139 25.3174 4.48454C24.9849 3.62951 24.5405 2.90479 23.8178 2.18205C23.0951 1.45942 22.3699 1.01489 21.5154 0.682489C20.6885 0.361006 19.7433 0.141136 18.3599 0.0781087C16.9735 0.0150809 16.5305 0 12.9999 0ZM12.9999 6.32441C9.31303 6.32441 6.32441 9.31303 6.32441 12.9999C6.32441 16.6869 9.31303 19.6756 12.9999 19.6756C16.6869 19.6756 19.6756 16.6869 19.6756 12.9999C19.6756 9.31303 16.6869 6.32441 12.9999 6.32441ZM12.9999 17.3336C10.6069 17.3336 8.66642 15.3938 8.66642 13.0001C8.66642 10.6063 10.6069 8.66653 12.9999 8.66653C15.393 8.66653 17.3335 10.6063 17.3335 13.0001C17.3335 15.3938 15.393 17.3336 12.9999 17.3336ZM19.9392 4.50077C19.0774 4.50077 18.3793 5.19896 18.3793 6.06075C18.3793 6.92255 19.0774 7.62085 19.9392 7.62085C20.801 7.62085 21.4993 6.92255 21.4993 6.06075C21.4993 5.19896 20.8011 4.50077 19.9392 4.50077Z" fill="var(--fill-0, black)"/>
</g>
</svg>
