<svg width="24" height="24" viewBox="0 0 24 24" fill="none" xmlns="http://www.w3.org/2000/svg">
<g clip-path="url(#clip0_178_1119)">
<path d="M23.2909 19.8675L19.2898 15.8663C19.0666 16.2095 18.8257 16.5403 18.5683 16.8573L17.0925 15.3815C17.1561 15.2985 17.219 15.2148 17.2806 15.1297C17.3221 15.0723 17.3629 15.0149 17.4023 14.9568C17.4092 14.9478 17.4154 14.9381 17.4217 14.9291C17.4618 14.8703 17.5019 14.8109 17.5407 14.7514C17.625 14.6228 17.706 14.4927 17.7834 14.3599C18.6127 12.9455 19.0892 11.2994 19.0892 9.54469C19.0892 7.78997 18.6127 6.14391 17.7834 4.7295C16.9541 3.31645 15.7728 2.13516 14.3598 1.30584C12.9454 0.476531 11.2993 0 9.54459 0C7.78992 0 6.14381 0.476531 4.72941 1.30584C4.67133 1.33973 4.61391 1.37433 4.55648 1.41028C4.48317 1.45523 4.40986 1.50159 4.33791 1.54861C4.20998 1.63228 4.08342 1.71877 3.95962 1.80867C3.91809 1.83839 3.87731 1.86886 3.83648 1.89928C3.79364 1.93181 3.75075 1.9643 3.70786 1.99683C3.66844 2.02795 3.62831 2.05908 3.58889 2.09086C3.51141 2.15311 3.43467 2.21606 3.35925 2.28108C2.97197 2.61094 2.61094 2.97197 2.28103 3.3593C2.21602 3.43467 2.15306 3.5108 2.09081 3.58894C2.05903 3.62836 2.02786 3.66848 1.99678 3.70791C1.96425 3.7508 1.93177 3.79369 1.89928 3.83653C1.86886 3.87731 1.83844 3.91814 1.80867 3.95963C1.71877 4.08342 1.63233 4.20998 1.54861 4.33795C1.50155 4.40991 1.45523 4.48322 1.41028 4.55653C1.37433 4.61391 1.33973 4.67133 1.30584 4.72945C0.476531 6.14386 0 7.78997 0 9.54469C0 11.2994 0.476531 12.9455 1.3058 14.3599C2.13511 15.7729 3.31641 16.9543 4.72941 17.7835C6.14381 18.6128 7.78992 19.0894 9.54459 19.0894C11.2993 19.0894 12.9454 18.6128 14.3598 17.7835C14.4483 17.7317 14.5355 17.6784 14.6219 17.6238C14.6655 17.5968 14.7083 17.5691 14.7512 17.5408C14.8107 17.5021 14.8702 17.462 14.929 17.4218C14.938 17.4156 14.9476 17.4094 14.9566 17.4025C15.0147 17.3631 15.0721 17.3222 15.1296 17.2808C15.2146 17.2192 15.2983 17.1562 15.3813 17.0926L16.8571 18.5684C16.54 18.8258 16.2093 19.0668 15.8662 19.29L19.8673 23.2911C20.3397 23.7635 20.9594 24 21.5791 24C22.1988 24 22.8185 23.7635 23.2909 23.2911C24.2363 22.3456 24.2363 20.8129 23.2909 19.8675ZM13.3445 15.1539C13.3251 15.1677 13.3057 15.1808 13.2857 15.1933C13.2636 15.2092 13.2407 15.2237 13.2179 15.2383C13.1972 15.2521 13.1764 15.2652 13.1557 15.2784C13.1287 15.2957 13.1017 15.3123 13.0747 15.3282C13.0492 15.3441 13.0243 15.3593 12.9987 15.3745C12.944 15.4071 12.8894 15.4381 12.834 15.4693C12.8299 15.472 12.8257 15.4741 12.8209 15.4769C12.7759 15.5017 12.7303 15.526 12.6847 15.5495C12.6667 15.5599 12.6487 15.5695 12.63 15.5785C12.594 15.5972 12.5574 15.6152 12.5208 15.6332C12.4509 15.6678 12.3803 15.701 12.3091 15.7327C11.4646 16.1118 10.5288 16.3227 9.54464 16.3227C8.56045 16.3227 7.62469 16.1118 6.78019 15.7327C5.2613 15.0522 4.03716 13.828 3.35658 12.3091C2.9775 11.4647 2.76656 10.5289 2.76656 9.54469C2.76656 8.5605 2.9775 7.62469 3.35653 6.78019C3.46303 6.54295 3.58266 6.31266 3.7148 6.09061C3.73003 6.06502 3.74522 6.04012 3.76111 6.01453C3.804 5.94328 3.84895 5.87273 3.89602 5.80359C3.92161 5.76417 3.94786 5.72545 3.97552 5.68669C4.00805 5.63827 4.04189 5.59055 4.07723 5.54353C4.13044 5.47092 4.18509 5.39897 4.24111 5.32842C4.56136 4.92661 4.92652 4.56141 5.32837 4.24116C5.39892 4.18514 5.47087 4.13048 5.54348 4.07723C5.59055 4.04194 5.63827 4.00805 5.68664 3.97556C5.72541 3.94791 5.76412 3.92161 5.80355 3.89602C5.87273 3.849 5.94328 3.80405 6.01448 3.76116C6.04008 3.74522 6.06497 3.73003 6.09056 3.7148C6.31256 3.5827 6.54291 3.46303 6.78014 3.35653C7.62464 2.9775 8.56041 2.76656 9.54459 2.76656C10.5288 2.76656 11.4646 2.9775 12.309 3.35653C13.8279 4.03711 15.0521 5.2613 15.7327 6.78014C16.1117 7.62464 16.3226 8.56045 16.3226 9.54464C16.3226 10.5288 16.1117 11.4646 15.7327 12.3091C15.7008 12.3804 15.6677 12.4509 15.6331 12.5208C15.6151 12.5574 15.5971 12.5941 15.5784 12.6301C15.5694 12.6487 15.5597 12.6667 15.5494 12.6847C15.5258 12.7304 15.5017 12.7761 15.4768 12.821C15.474 12.8258 15.4719 12.83 15.4692 12.8341C15.4387 12.8895 15.4069 12.9441 15.3744 12.9988C15.3592 13.0244 15.344 13.0492 15.3281 13.0748C15.3122 13.1018 15.2955 13.1288 15.2782 13.1558C15.2651 13.1765 15.252 13.1973 15.2381 13.218C15.2236 13.2408 15.2091 13.2637 15.1932 13.2858C15.1807 13.3058 15.1676 13.3252 15.1537 13.3446C15.1406 13.3639 15.1275 13.3833 15.1136 13.4026C15.1067 13.4144 15.0984 13.4262 15.0894 13.4372C15.0742 13.4601 15.0576 13.4836 15.041 13.5064C14.9152 13.6814 14.781 13.8495 14.6385 14.0106C14.613 14.0404 14.5867 14.0694 14.5604 14.0985C14.5265 14.1358 14.4926 14.1732 14.458 14.2091C14.4179 14.2513 14.3764 14.2935 14.3348 14.335C14.2934 14.3765 14.2512 14.418 14.209 14.4581C14.173 14.4927 14.1357 14.5266 14.0983 14.5605C14.0692 14.5868 14.0402 14.613 14.0105 14.6386C13.8494 14.7811 13.6813 14.9153 13.5063 15.0412C13.4835 15.0578 13.4599 15.0744 13.4371 15.0896C13.426 15.0986 13.4143 15.1069 13.4025 15.1138C13.3832 15.1276 13.3638 15.1408 13.3445 15.1539Z" fill="white"/>
</g>
<defs>
<clipPath id="clip0_178_1119">
<rect width="24" height="24" fill="white"/>
</clipPath>
</defs>
</svg>
