<svg width="38" height="38" viewBox="0 0 38 38" fill="none" xmlns="http://www.w3.org/2000/svg">
<path d="M31.222 27.7215V24.7009H16.1251L14.619 20.4209H32.622L38 5.72042H34.7841L30.5112 17.4003H13.5559L8.47177 2.95117H7.24932H0V5.97173H6.33257L13.986 27.7215H31.222Z" fill="white"/>
<path d="M14.6526 34.2664C15.9872 34.2664 17.069 33.1846 17.069 31.85C17.069 30.5155 15.9872 29.4336 14.6526 29.4336C13.3181 29.4336 12.2362 30.5155 12.2362 31.85C12.2362 33.1846 13.3181 34.2664 14.6526 34.2664Z" fill="white"/>
<path d="M30.3595 34.2664C31.694 34.2664 32.7759 33.1846 32.7759 31.85C32.7759 30.5155 31.694 29.4336 30.3595 29.4336C29.0249 29.4336 27.9431 30.5155 27.9431 31.85C27.9431 33.1846 29.0249 34.2664 30.3595 34.2664Z" fill="white"/>
<path d="M21.2613 13.7204C21.3279 13.7865 21.3993 13.8449 21.4742 13.8944C21.7007 14.0437 21.9615 14.1186 22.2223 14.1186C22.5704 14.1186 22.9179 13.9859 23.1833 13.7203L27.5124 9.3913C28.0433 8.86034 28.0433 8.00022 27.5124 7.46926C26.9814 6.93822 26.1213 6.93822 25.5903 7.46926L23.5815 9.47806V3.09362C23.5815 2.3426 22.9727 1.73438 22.2223 1.73438C21.4718 1.73438 20.863 2.3426 20.863 3.09362V9.47866L18.8536 7.46933C18.3227 6.9383 17.4619 6.9383 16.9316 7.46933C16.4006 8.00029 16.4006 8.86041 16.9316 9.39138L21.2613 13.7204Z" fill="white"/>
</svg>
