<svg width="110" height="110" viewBox="0 0 110 110" fill="none" xmlns="http://www.w3.org/2000/svg">
<path d="M56.0414 10.9688C45.2986 18.9551 19.8959 42.012 0.849537 42.012C-0.404291 42.012 0.100592 42.9212 0.100592 42.9212L16.742 49.877L6.61895 59.8986V76.4791L60.5776 99.03L110 50.0987V33.5196L56.0414 10.9688ZM14.7136 43.9189C20.4285 41.7834 26.1839 38.6224 31.6979 35.0699C33.0774 34.1815 34.4346 33.2618 35.7786 32.335C36.074 32.1306 36.3675 31.9298 36.6601 31.7235C37.9627 30.8143 39.246 29.8961 40.5035 28.9731C40.6498 28.8659 40.7903 28.7602 40.9366 28.6528C42.1569 27.7521 43.3501 26.853 44.5193 25.9612C44.677 25.8398 44.8345 25.7221 44.9905 25.6009C46.2817 24.61 47.5349 23.6368 48.7507 22.6807L92.7025 41.0505C81.1154 49.8735 66.2276 59.8448 54.8084 59.8448C53.9926 59.8448 53.1975 59.7911 52.4425 59.6837L25.0861 48.2523L20.3739 46.2848L14.7136 43.9189ZM21.4597 51.8445L51.1414 64.2528C52.3338 64.4625 53.5541 64.5628 54.8082 64.5628C66.7531 64.5628 81.1974 55.494 92.9586 46.7647L59.2101 80.1753L12.5435 60.6746L21.4597 51.8445ZM105.282 48.1311L59.4916 93.4636L11.3369 73.3392V69.4178L59.7973 89.6686L105.282 44.6378V48.1311ZM105.282 41.8474L59.3418 87.3304L11.3371 67.2701V63.0924L59.8295 83.3571L105.282 38.359V41.8474Z" fill="#439FDB"/>
<path d="M44.992 50.2617C45.1643 50.3465 45.3955 50.3205 45.5697 50.1942L49.9525 48.2267C50.4522 48.0032 50.9277 47.7261 51.3709 47.4075L65.4801 37.1955C65.6533 37.069 65.6542 36.9287 65.4819 36.8423L62.2629 35.2454C62.0611 35.1448 61.8306 35.0997 61.5717 35.1139L55.9235 35.2037C55.6654 35.2159 55.4923 35.2711 55.318 35.3977L51.7301 37.9941C51.499 38.1621 51.5847 38.2729 51.8721 38.2764L57.1176 38.2678L57.1739 38.2955L47.2771 45.4592L41.545 48.1976C41.371 48.3223 41.371 48.4643 41.5433 48.5491L44.992 50.2617Z" fill="#439FDB"/>
</svg>
