<svg width="53" height="53" viewBox="0 0 53 53" fill="none" xmlns="http://www.w3.org/2000/svg">
<path d="M48.5601 13.9135C46.108 13.9135 44.1202 15.9013 44.1202 18.3534C44.1202 19.5212 44.5812 20.5741 45.3172 21.3666L37.3594 29.2306L27.6483 14.2451C29.5407 13.7356 30.9398 12.0259 30.9398 9.97339C30.9398 7.52297 28.952 5.53516 26.4999 5.53516C24.0478 5.53516 22.06 7.52297 22.06 9.97339C22.06 12.0259 23.4591 13.7356 25.3515 14.2451L15.6404 29.2306L7.68262 21.3666C8.41851 20.5741 8.87957 19.5212 8.87957 18.3534C8.87957 15.9013 6.89176 13.9135 4.43968 13.9135C1.9876 13.9135 0 15.9013 0 18.3534C0 20.8055 1.98781 22.7933 4.43989 22.7933V47.4656H26.5H48.5601V22.7933C51.0122 22.7933 53 20.8055 53 18.3534C53 15.9013 51.0122 13.9135 48.5601 13.9135Z" fill="#3E3E3E"/>
<path d="M27.227 42.011C26.3236 42.011 25.5182 41.8448 24.8108 41.5124C24.1077 41.18 23.5494 40.7219 23.1361 40.1381C22.7227 39.5543 22.5075 38.8853 22.4905 38.131H25.1751C25.205 38.6381 25.418 39.0494 25.8143 39.3647C26.2106 39.68 26.6815 39.8377 27.227 39.8377C27.6616 39.8377 28.0452 39.7418 28.3775 39.5501C28.7142 39.354 28.9763 39.0835 29.1638 38.7383C29.3555 38.3888 29.4514 37.9883 29.4514 37.5366C29.4514 37.0763 29.3534 36.6715 29.1574 36.3221C28.9656 35.9727 28.6993 35.6999 28.3584 35.5039C28.0175 35.3079 27.6275 35.2077 27.1886 35.2035C26.8051 35.2035 26.4322 35.2823 26.07 35.44C25.7121 35.5977 25.4329 35.8129 25.2327 36.0856L22.7717 35.6445L23.3917 28.7411H31.3946V31.0039H25.6737L25.3349 34.283H25.4116C25.6417 33.9592 25.989 33.6907 26.4535 33.4776C26.918 33.2646 27.4379 33.158 28.0132 33.158C28.8015 33.158 29.5047 33.3434 30.1226 33.7141C30.7405 34.0849 31.2284 34.5941 31.5863 35.2418C31.9443 35.8853 32.1211 36.6268 32.1169 37.4663C32.1211 38.3484 31.9166 39.1325 31.5033 39.8185C31.0942 40.5004 30.521 41.0373 29.7838 41.4293C29.0508 41.8171 28.1986 42.011 27.227 42.011Z" fill="white"/>
</svg>
