<svg width="94" height="94" viewBox="0 0 94 94" fill="none" xmlns="http://www.w3.org/2000/svg">
<path d="M27.0331 38.1514C30.9355 38.1514 34.0987 34.9868 34.0987 31.0858L36.6785 4.05273H25.3749L19.9673 31.0858C19.9675 34.9868 23.1306 38.1514 27.0331 38.1514Z" fill="#439FDB"/>
<path d="M47.0008 38.1514C50.9018 38.1514 54.0649 34.9868 54.0649 31.0858L52.6533 4.05273H41.3483L39.9352 31.0858C39.935 34.9868 43.0983 38.1514 47.0008 38.1514Z" fill="#439FDB"/>
<path d="M66.9682 38.1516C70.8694 38.1516 74.0325 34.987 74.0325 31.086L68.6263 4.05273H57.3228L59.9026 31.0858C59.9026 34.987 63.0657 38.1516 66.9682 38.1516Z" fill="#439FDB"/>
<path d="M84.5996 4.05273H73.2959L79.8701 31.0858C79.8701 34.3883 82.145 37.1393 85.2081 37.9133V84.037H74.5602V52.8286H47.701V84.037H8.79341V37.9135C11.8548 37.1394 14.1312 34.3883 14.1312 31.086L20.7041 4.05292H9.40037L0 31.086C0 33.4152 1.14159 35.4647 2.88205 36.7524V89.9487H91.1194V36.7524C92.8582 35.4647 94 33.4152 94 31.086L84.5996 4.05273ZM70.1271 84.037H52.1338V57.2628H70.1271V84.037Z" fill="#439FDB"/>
<path d="M35.7973 50.7344H20.0859V66.4458H35.7973V50.7344Z" fill="#439FDB"/>
</svg>
