<svg width="36" height="36" viewBox="0 0 36 36" fill="none" xmlns="http://www.w3.org/2000/svg">
<path d="M29.8831 4.4049V4.41594H33.4215V1.72234L31.6494 1.17383L29.8831 1.72234V4.39667V4.4049Z" fill="white"/>
<path d="M29.8831 10.4609V34.7394V34.8138V34.8248H33.4215V10.4609H29.8831Z" fill="white"/>
<path d="M34.5188 5.51279H33.9703H33.4215H29.8831H29.3343H28.7858H7.89427L0.0109688 5.50977L0.0118125 5.51279H0L1.13569 9.36402H6.79669H6.80273V9.9128V10.4613C6.80273 10.5394 6.81778 10.6173 6.83156 10.695C6.83459 10.7211 6.83677 10.7442 6.84014 10.7742H4.37808C3.72523 10.7742 3.19837 11.3007 3.19837 11.9481V28.5217C3.19837 29.1746 3.72523 29.7011 4.37808 29.7011H26.9973C27.6446 29.7011 28.1714 29.1746 28.1714 28.5217V11.9481C28.1714 11.3007 27.6446 10.7742 26.9973 10.7742H24.9406L24.5506 10.772C24.5668 10.6904 24.5726 10.6034 24.5726 10.5163V10.4613V9.9128V9.36402H28.7859H29.3344H29.8832H33.4216H33.9704H34.5189H35.9845L35.9888 9.3643V9.36402H36V5.51279H34.5188ZM7.40095 19.9579H9.23323C9.47468 19.9579 9.68309 19.9963 9.87511 20.0732C10.0616 20.1499 10.2206 20.2539 10.3525 20.3803C10.484 20.5119 10.5884 20.6656 10.6543 20.8357C10.72 21.0112 10.7584 21.1977 10.7584 21.3952C10.7584 21.5597 10.731 21.7081 10.687 21.8396C10.6433 21.9711 10.5775 22.092 10.5005 22.1909C10.4184 22.295 10.3305 22.3829 10.2262 22.454C10.1295 22.5255 10.0281 22.5762 9.92623 22.6139C9.92159 22.6153 9.91716 22.618 9.91252 22.6188L9.91301 22.6197C9.90949 22.621 9.90612 22.6229 9.9026 22.6243L10.6225 24.0185L10.9391 24.643H9.88608L8.96984 22.7778H8.31178V24.643H7.40095V19.9609V19.9579ZM7.78486 10.5162V10.4612V9.91273V9.36395H9.1016V9.91273V10.4612V10.5162C9.1016 10.6096 9.08515 10.6917 9.05217 10.7741C8.94776 11.01 8.71762 11.1746 8.44327 11.1746C8.16891 11.1746 7.93842 11.01 7.83429 10.7741C7.80138 10.6917 7.78486 10.6096 7.78486 10.5162ZM21.2863 9.3643V9.9128V10.4613C21.2863 10.5396 21.3011 10.6176 21.3151 10.6959C21.3178 10.7217 21.32 10.7445 21.3233 10.7742H11.8957L10.0673 10.772C10.0832 10.6902 10.089 10.6034 10.089 10.5163V10.4613V9.9128V9.36402H21.2632L21.2863 9.3643ZM22.2737 10.5162V10.4612V9.91273V9.36395H23.5849V9.91273V10.4612V10.5162C23.5849 10.6096 23.5685 10.6917 23.5355 10.7741C23.4369 11.01 23.2009 11.1746 22.9266 11.1746C22.6525 11.1746 22.422 11.01 22.3232 10.7741C22.2902 10.6917 22.2737 10.6096 22.2737 10.5162ZM22.1699 20.7753H22.1586V24.6425V24.643H21.2424V20.7984V20.7866V20.7753H20.0191V19.9579H23.382V20.7753H22.1735H22.1699ZM14.7906 20.7753H12.6359H12.6293H12.6181V21.858V21.8612V21.8725H14.4671V22.6899H12.6352H12.6294H12.6181V23.8163V23.8198V23.8311H14.7907V24.6429H11.7021V19.9578H14.7907V20.7753H14.7906ZM21.2201 18.5808H20.167L19.2508 16.7156H18.5927V18.5808H17.6765V13.8957H19.5143C19.7501 13.8957 19.9641 13.934 20.1561 14.011C20.3427 14.0877 20.5016 14.192 20.6335 14.3181C20.765 14.4499 20.864 14.6034 20.9354 14.7734C21.0011 14.9489 21.034 15.1355 21.034 15.3333C21.034 15.4977 21.012 15.6458 20.968 15.7776C20.9189 15.9092 20.8584 16.0298 20.7815 16.1286C20.6994 16.2328 20.6115 16.3206 20.5071 16.392C20.4107 16.4631 20.3089 16.5137 20.2028 16.5516C20.1979 16.5527 20.1932 16.5557 20.188 16.5568L20.1885 16.5577C20.185 16.5588 20.1817 16.561 20.1781 16.562L20.8991 17.951L21.2201 18.5808ZM18.351 22.827V22.8097L18.3623 22.827V19.9579H19.2728V24.643H18.4554L16.6012 21.7685V24.643H15.685V19.9579H16.5023L17.5087 21.5102L18.351 22.827ZM16.7328 16.8472C16.7273 17.0229 16.7108 17.193 16.6778 17.341C16.6451 17.4947 16.6011 17.6319 16.5352 17.7579C16.4749 17.8898 16.3817 18.0103 16.2609 18.1309C16.1074 18.2847 15.9263 18.4108 15.7234 18.4932C15.5204 18.5808 15.2845 18.6247 15.0101 18.6247C14.7412 18.6247 14.4998 18.5808 14.2971 18.4932C14.0939 18.4108 13.9128 18.2847 13.7538 18.1309C13.6384 18.0103 13.5454 17.8898 13.4795 17.7579C13.4193 17.6319 13.3699 17.4948 13.3424 17.341C13.3149 17.1929 13.2984 17.0229 13.2929 16.8472C13.282 16.6662 13.282 16.4631 13.282 16.2382C13.282 16.0133 13.282 15.8158 13.2929 15.6348C13.2984 15.4538 13.3149 15.2892 13.3424 15.1354C13.3699 14.9873 13.4193 14.8448 13.4795 14.7185C13.5454 14.5924 13.6385 14.4663 13.7538 14.351C13.9129 14.192 14.0939 14.0714 14.2971 13.9835C14.4997 13.9011 14.7412 13.8571 15.0101 13.8571C15.2845 13.8571 15.5204 13.9011 15.7234 13.9835C15.9263 14.0714 16.1074 14.192 16.2609 14.351C16.3817 14.4663 16.4749 14.5925 16.5352 14.7185C16.6012 14.8448 16.6451 14.9873 16.6778 15.1354C16.7108 15.2892 16.7272 15.4537 16.7328 15.6348C16.7382 15.8158 16.7437 16.0132 16.7437 16.2382C16.7437 16.4631 16.7382 16.6661 16.7328 16.8472ZM12.6401 14.713H10.4676V15.8652H12.3221V16.6826H10.4676V18.5808H9.55702V13.8957H12.6401V14.713ZM9.61165 28.0553V26.5796H21.1657V28.0553H9.63584H9.61165Z" fill="white"/>
<path d="M19.4541 14.7129H18.5927V15.9474H19.4541C19.6567 15.9474 19.8215 15.8925 19.9421 15.7774C20.063 15.662 20.1231 15.514 20.1231 15.333C20.1231 15.1462 20.063 14.9982 19.9421 14.8831C19.8215 14.7678 19.6567 14.7129 19.4541 14.7129Z" fill="white"/>
<path d="M15.7783 15.3177C15.7563 15.2243 15.7343 15.142 15.7068 15.0873C15.6794 15.0269 15.6409 14.9719 15.597 14.9227C15.5313 14.8514 15.4489 14.7909 15.3504 14.7415C15.2516 14.6975 15.1419 14.6758 15.0101 14.6758C14.884 14.6758 14.7741 14.6975 14.6756 14.7415C14.5767 14.7909 14.4891 14.8514 14.4176 14.9227C14.3737 14.9719 14.3407 15.0269 14.3136 15.0873C14.2806 15.142 14.2586 15.2243 14.2421 15.3177C14.2257 15.4163 14.2147 15.5372 14.2038 15.6852C14.1983 15.8333 14.1983 16.0142 14.1983 16.2391C14.1983 16.464 14.1983 16.6506 14.2038 16.7989C14.2147 16.9415 14.2257 17.062 14.2421 17.1609C14.2586 17.2543 14.2806 17.3309 14.3136 17.3914C14.3407 17.4463 14.3737 17.5012 14.4176 17.5504C14.4891 17.6274 14.5767 17.6875 14.6756 17.7369C14.7741 17.7809 14.884 17.8083 15.0101 17.8083C15.1419 17.8083 15.2516 17.7809 15.3504 17.7369C15.3872 17.7185 15.4102 17.6892 15.4424 17.6674C15.4671 17.6507 15.4908 17.6331 15.5121 17.6147C15.5388 17.5919 15.5745 17.5768 15.597 17.5504C15.641 17.5013 15.6794 17.4463 15.7068 17.3914C15.7343 17.331 15.7563 17.2543 15.7783 17.1609C15.7947 17.062 15.8054 16.9415 15.8164 16.7989C15.8219 16.6506 15.8274 16.4641 15.8274 16.2391C15.8274 16.0142 15.8219 15.8332 15.8164 15.6852C15.8055 15.5372 15.7948 15.4163 15.7783 15.3177Z" fill="white"/>
<path d="M9.66107 21.8396C9.78187 21.7246 9.84206 21.5763 9.84206 21.3953C9.84206 21.2088 9.78187 21.0607 9.66107 20.9454C9.54049 20.8303 9.37575 20.7754 9.17852 20.7754H8.32542H8.32268H8.31171V22.0097H9.17852C9.37575 22.0097 9.54049 21.955 9.66107 21.8396Z" fill="white"/>
</svg>
