<svg width="37" height="37" viewBox="0 0 37 37" fill="none" xmlns="http://www.w3.org/2000/svg">
<path d="M30.4004 27.9661V25.025H15.7009L14.2343 20.8576H31.7635L37 6.54403H33.8687L29.7083 17.9165H13.1995L8.24883 3.84766H7.05855H0V6.78872H6.16563L13.618 27.9661H30.4004Z" fill="white"/>
<path d="M14.267 34.3385C15.5665 34.3385 16.6199 33.2851 16.6199 31.9856C16.6199 30.6862 15.5665 29.6328 14.267 29.6328C12.9676 29.6328 11.9142 30.6862 11.9142 31.9856C11.9142 33.2851 12.9676 34.3385 14.267 34.3385Z" fill="white"/>
<path d="M29.5605 34.3385C30.86 34.3385 31.9134 33.2851 31.9134 31.9856C31.9134 30.6862 30.86 29.6328 29.5605 29.6328C28.2611 29.6328 27.2077 30.6862 27.2077 31.9856C27.2077 33.2851 28.2611 34.3385 29.5605 34.3385Z" fill="white"/>
<path d="M18.3573 9.13646L20.3132 7.18052V13.397C20.3132 14.1282 20.906 14.7204 21.6367 14.7204C22.3674 14.7204 22.9602 14.1282 22.9602 13.397V7.17994L24.9167 9.13646C25.4337 9.65345 26.2717 9.65345 26.7882 9.13646C27.3052 8.61947 27.3052 7.78198 26.7882 7.26492L22.5725 3.04981C22.5076 2.9855 22.438 2.92863 22.3651 2.88035C22.1446 2.7351 21.8906 2.66211 21.6368 2.66211C21.2978 2.66211 20.9595 2.79139 20.701 3.04989L16.4859 7.265C15.9689 7.78198 15.9689 8.61954 16.4859 9.13653C17.0028 9.65345 17.8403 9.65345 18.3573 9.13646Z" fill="white"/>
</svg>
