<svg width="53" height="53" viewBox="0 0 53 53" fill="none" xmlns="http://www.w3.org/2000/svg">
<path d="M48.5601 13.9135C46.108 13.9135 44.1202 15.9013 44.1202 18.3534C44.1202 19.5212 44.5812 20.5741 45.3172 21.3666L37.3594 29.2306L27.6483 14.2451C29.5407 13.7356 30.9398 12.0259 30.9398 9.97339C30.9398 7.52297 28.952 5.53516 26.4999 5.53516C24.0478 5.53516 22.06 7.52297 22.06 9.97339C22.06 12.0259 23.4591 13.7356 25.3515 14.2451L15.6404 29.2306L7.68262 21.3666C8.41851 20.5741 8.87957 19.5212 8.87957 18.3534C8.87957 15.9013 6.89176 13.9135 4.43968 13.9135C1.9876 13.9135 0 15.9013 0 18.3534C0 20.8055 1.98781 22.7933 4.43989 22.7933V47.4656H26.5H48.5601V22.7933C51.0122 22.7933 53 20.8055 53 18.3534C53 15.9013 51.0122 13.9135 48.5601 13.9135Z" fill="#A1A1A1"/>
<path d="M21.4457 41.832V39.8377L26.1055 35.5231C26.5018 35.1396 26.8342 34.7944 27.1027 34.4876C27.3754 34.1808 27.5821 33.8803 27.7227 33.5863C27.8633 33.288 27.9336 32.9663 27.9336 32.6211C27.9336 32.2376 27.8463 31.9073 27.6716 31.6303C27.4969 31.3491 27.2582 31.1339 26.9557 30.9847C26.6531 30.8313 26.3101 30.7546 25.9265 30.7546C25.526 30.7546 25.1765 30.8356 24.8783 30.9975C24.58 31.1594 24.3498 31.3917 24.1879 31.6942C24.026 31.9968 23.945 32.3569 23.945 32.7745H21.3179C21.3179 31.918 21.5118 31.1744 21.8996 30.5437C22.2873 29.913 22.8307 29.4251 23.5295 29.0799C24.2284 28.7347 25.0338 28.5621 25.9457 28.5621C26.8832 28.5621 27.6993 28.7283 28.3939 29.0607C29.0927 29.3888 29.6361 29.8448 30.0238 30.4286C30.4116 31.0124 30.6055 31.6815 30.6055 32.4357C30.6055 32.93 30.5075 33.418 30.3115 33.8995C30.1197 34.381 29.7767 34.9158 29.2824 35.5039C28.7881 36.0877 28.0913 36.7887 27.1922 37.6069L25.281 39.4798V39.5692H30.7781V41.832H21.4457Z" fill="white"/>
</svg>
