<svg width="146" height="184" viewBox="0 0 146 184" fill="none" xmlns="http://www.w3.org/2000/svg">
<g clip-path="url(#clip0_268_2929)">
<path d="M128.539 123.978C127.032 123.572 125.367 123.716 123.824 123.703C123.802 123.703 123.779 123.703 123.761 123.703C123.4 123.246 122.953 122.867 122.426 122.628C118.924 121.042 115.879 119.117 113 116.98C111.272 116.547 109.621 115.788 108.1 114.785C105.858 113.312 103.503 112.016 101.283 110.498C99.2255 109.088 97.4343 107.475 95.6521 105.713C94.1 104.182 93.1164 102.474 92.381 100.604C92.1464 100.45 91.9163 100.297 91.6771 100.148C91.3026 99.9082 90.9011 99.7456 90.4905 99.6326C90.5491 98.7878 90.6123 97.9475 90.6665 97.1027C90.9327 92.8923 91.5779 88.5011 89.8679 84.7243C89.8453 84.1867 89.7957 83.6537 89.7099 83.1386C90.865 81.7924 91.9162 80.3603 92.8592 78.8514C94.3436 76.4751 95.5212 73.8503 96.3875 71.1849C96.8387 69.798 97.3079 68.2258 97.5471 66.6401C98.2329 66.1884 98.8961 65.6869 99.5323 65.1719C101.445 63.6223 103.494 62.4974 105.524 60.5142C107.924 58.165 109.504 54.6457 108.678 51.262C108.096 48.8812 106.629 47.0335 104.653 45.9673C104.73 43.4735 104.559 40.9753 104.211 38.5945C103.525 33.9277 101.13 28.9989 96.7214 26.9795C93.1705 23.7268 89.0828 20.6864 84.5258 19.2046C79.9192 17.7138 74.9425 18.4366 70.2998 19.6157C66.0451 19.7784 61.5829 20.7858 57.6485 22.2179C53.2178 23.8307 48.9947 26.573 47.8126 31.452C47.7539 31.6915 47.7178 31.9354 47.6908 32.1839C44.925 36.1143 43.5805 40.9843 44.2211 45.7775C43.1067 45.8543 42.0013 46.2383 41.0222 46.9567C37.1014 49.8389 37.7195 55.9784 39.8942 59.7191C41.4779 62.4477 44.2347 64.9731 47.3569 65.7637C47.3704 65.7773 47.384 65.7908 47.3975 65.8089C47.3569 66.0528 47.3343 66.3058 47.3388 66.5588C47.4381 73.3353 50.6461 78.5442 55.1399 82.7275C54.5533 89.5085 53.2133 96.2173 52.6493 103.007C49.1571 104.512 46.0304 107.195 43.0661 109.395C38.0714 113.1 33.0768 116.8 28.0821 120.504C27.4414 120.979 26.891 121.539 26.4759 122.162C22.7581 123.454 19.09 124.873 15.4579 126.391C15.4173 126.409 15.3722 126.422 15.327 126.44C14.93 126.608 14.5375 126.77 14.1404 126.937C11.9025 127.891 11.2303 131.125 12.1101 133.136C13.0079 135.182 15.6384 136.953 17.962 136.009C18.2553 135.891 18.553 135.778 18.8463 135.666C25.9886 135.327 33.1309 135.029 40.2778 134.771C41.1846 136.059 42.6736 136.921 44.3204 136.908C46.5583 136.894 48.7646 137.549 50.8491 138.67C53.3848 140.03 55.5324 141.66 57.5312 143.264C58.8577 144.326 60.1842 145.392 61.5423 146.418C61.5964 149.711 65.0254 152.959 68.8019 150.98C68.8786 151.017 68.9553 151.057 69.032 151.089C69.1357 151.405 69.2801 151.721 69.4651 152.038C70.6878 154.129 74.1078 155.457 76.251 153.818C80.244 150.759 84.237 147.701 88.23 144.642C89.7641 143.468 91.3387 142.284 92.787 140.978C93.6669 140.269 94.5331 139.546 95.3904 138.805C95.8912 138.625 96.392 138.435 96.8974 138.254C98.86 137.563 100.313 135.959 100.484 133.94C100.561 133.822 100.633 133.7 100.696 133.578C103.701 133.705 106.702 133.827 109.707 133.953C112.887 134.084 116.064 134.215 119.245 134.351C120.833 134.419 122.426 134.482 124.014 134.55C126.004 134.631 128.472 135.11 130.263 134.026C134.531 131.442 133.141 125.216 128.553 123.978L128.539 123.978Z" fill="white"/>
<path d="M109.314 26.0355C108.971 24.6485 108.502 23.3068 107.92 22.0418C103.069 11.475 94.9028 8.54305 85.0714 4.40487C79.7203 2.15055 73.9902 0.826878 68.1563 0.989514C64.6416 1.0889 60.7478 1.59036 57.3774 3.02246C56.2404 2.81465 55.0267 2.98632 53.9484 3.57362C50.0637 5.68789 46.7519 8.66051 44.1621 12.1707C41.9874 13.7113 40.1601 15.7939 38.9193 18.1476C37.4981 20.8447 36.6363 23.7721 35.9866 26.7402C35.2331 30.1872 34.3804 33.8375 35.7069 37.2528C36.1535 38.4093 36.7942 39.4394 37.5748 40.3113C37.5748 40.379 37.5748 40.4468 37.5748 40.5101C39.5555 41.4497 41.3422 42.9586 42.7048 44.4811C43.72 45.6195 44.4464 46.9432 44.9382 48.3572C45.0374 48.303 45.1322 48.2533 45.2269 48.1901C49.5674 45.2626 52.8971 41.3774 56.7232 37.9937C56.1412 38.5087 78.3532 46.5457 80.7309 46.8619C88.5816 47.91 99.5184 48.5876 105.627 42.4888C109.932 38.1925 110.721 31.7639 109.309 26.0309L109.314 26.0355Z" fill="#C0B2B0"/>
<path d="M144.033 157.296C144.687 151.026 144.164 145.062 141.619 139.262C137.603 130.104 129.274 123.486 119.723 121.173C118.184 119.65 115.464 118.914 113.659 120.301C112.544 121.159 111.421 122.013 110.302 122.863C109.463 122.826 108.565 123.034 107.649 123.567C96.9693 129.815 86.9574 137.197 77.7803 145.505C77.2749 145.961 76.9095 146.522 76.6749 147.131C75.8717 146.612 74.9107 146.282 73.891 146.165C73.115 146.079 71.1613 145.623 69.9747 145.239C69.7491 145.166 69.5461 145.094 69.3475 145.026C68.3234 144.556 67.2992 144.064 66.275 143.553C64.0326 142.239 62.2188 140.644 60.202 138.936C55.1577 134.658 49.9284 130.592 44.5638 126.725C43.5712 126.011 42.3349 125.871 41.1618 126.138C40.3407 125.365 39.533 124.584 38.7344 123.789C37.7328 122.781 36.8033 121.67 35.7431 120.726C33.8706 119.054 31.5019 118.489 29.0655 119.09C25.8395 119.89 22.6225 121.471 19.6717 122.975C16.8473 124.412 14.1627 126.093 11.609 127.967C10.1517 129.038 9.19063 130.633 9.16807 132.322C7.38136 132.259 5.40064 133.131 4.63362 134.758C2.40927 139.478 1.10082 144.502 1.0918 149.747C1.0918 151.938 1.1324 154.391 2.22879 156.334C1.48433 162.071 1.64676 167.944 2.7251 173.7C2.57169 175.511 2.44536 177.323 2.33708 179.135C2.13404 182.636 5.65331 184.425 8.6131 183.923C25.1627 181.109 42.2131 181.872 58.9341 181.89C75.9123 181.908 92.8906 181.926 109.869 181.945C119.601 181.954 129.338 181.963 139.07 181.976C142.16 181.976 144.867 178.782 143.852 175.692C141.966 169.959 143.36 163.544 144.01 157.31L144.033 157.296Z" fill="#A1B1C9"/>
<path d="M50.998 18.8253C51.6117 29.1481 58.5284 37.9757 67.7101 42.3081C70.3495 43.555 73.1243 44.4766 75.9803 45.0503C76.6932 45.1949 77.4377 44.847 77.6407 44.1061C77.8212 43.442 77.4151 42.5882 76.6977 42.4436C67.5792 40.614 59.142 35.0301 55.4513 26.2523C54.4632 23.8986 53.8496 21.3732 53.7007 18.8298C53.6555 18.1024 53.1096 17.479 52.3516 17.479C51.6568 17.479 50.9574 18.0979 51.0026 18.8298L50.998 18.8253Z" fill="black"/>
<path d="M73.7111 30.264C77.0137 36.3403 83.2356 40.7585 90.0802 41.7795C90.8021 41.888 91.533 41.5988 91.7405 40.8353C91.9165 40.1983 91.524 39.2813 90.7976 39.1728C84.5847 38.2467 79.0486 34.4338 76.0437 28.8997C75.2135 27.3727 72.8809 28.7325 73.7111 30.264Z" fill="black"/>
<path d="M53.0464 5.90925C56.9221 3.90793 61.4972 3.01343 65.8873 2.77399C70.7195 2.50745 75.5337 2.9547 80.2215 4.02991C84.7063 5.05993 88.8663 6.55528 92.7014 9.0671C96.5681 11.597 99.9023 15.0214 102.267 18.9969C104.929 23.4739 106.264 28.5382 105.723 33.7426C105.646 34.4699 106.395 35.0934 107.072 35.0934C107.866 35.0934 108.344 34.4699 108.421 33.7426C109.481 23.5281 103.692 13.8513 95.7198 7.89703C91.8531 5.01024 87.3548 3.1083 82.7121 1.87046C77.8122 0.555821 72.6776 -0.085687 67.5973 0.00918396C62.1424 0.11309 56.5702 1.05728 51.6838 3.57814C51.0341 3.91245 50.8446 4.8205 51.2011 5.42586C51.5846 6.08544 52.3967 6.24808 53.0464 5.90925Z" fill="black"/>
<path d="M44.6812 10.8606C39.4429 17.9037 33.8842 25.7644 34.5069 35.0076C34.6738 37.5013 35.301 39.9137 36.456 42.1364C36.7944 42.7825 37.6968 42.9767 38.3014 42.6198C38.9556 42.2358 39.1225 41.4226 38.7842 40.7721C36.9794 37.3025 36.8079 33.205 37.6156 29.4328C38.4909 25.3488 40.4671 21.6398 42.7501 18.1838C44.0946 16.1463 45.552 14.1856 47.0093 12.225C47.447 11.6377 47.1041 10.7161 46.5265 10.3772C45.8362 9.97517 45.1188 10.2733 44.6812 10.8606Z" fill="black"/>
<path d="M46.2059 64.9277C40.9856 64.9277 36.9385 59.9448 36.9385 55.6575L36.9385 50.1866C36.9385 45.434 39.2621 43.1255 44.0492 43.1255C44.6944 43.1255 45.2178 43.6495 45.2178 44.2956C45.2178 44.9416 44.6944 45.4656 44.0492 45.4656C40.0607 45.4656 39.2801 47.1959 39.2801 50.1821L39.2801 55.653C39.2801 58.4088 42.0414 62.5786 46.2059 62.5786C46.8511 62.5786 47.3745 63.1026 47.3745 63.7486C47.3745 64.3947 46.8511 64.9187 46.2059 64.9187L46.2059 64.9277Z" fill="black"/>
<path d="M100.186 64.0336C99.5367 64.0336 99.0088 63.505 99.0088 62.8545C99.0088 62.204 99.5367 61.6754 100.186 61.6754C104.473 61.6754 106.029 57.8986 106.029 55.3552L106.029 50.0334C106.029 47.1466 105.249 45.4705 101.269 45.4705C100.62 45.4705 100.092 44.942 100.092 44.2914C100.092 43.6409 100.62 43.1123 101.269 43.1123C106.056 43.1123 108.384 45.3757 108.384 50.0288L108.384 55.3507C108.384 59.5566 105.51 64.0246 100.191 64.0246L100.186 64.0336Z" fill="black"/>
<path d="M72.3574 92.8969C68.8743 92.8969 65.4181 92.1289 62.2012 90.6019C51.9863 85.9848 44.7402 73.7284 44.5958 60.8124C44.5868 60.1167 45.1463 59.5429 45.8411 59.5384L45.8546 59.5384C46.5449 59.5384 47.1044 60.0941 47.1134 60.7853C47.2488 72.7571 53.8858 84.0739 63.2615 88.3114C68.5223 90.8052 74.4645 91.0356 80.0186 88.9755C86.2179 86.6715 91.3525 81.7879 94.1047 75.5852C96.2749 70.688 97.1908 65.2126 98.003 60.3787C98.1158 59.692 98.7655 59.2312 99.4513 59.3442C100.137 59.4616 100.602 60.1077 100.485 60.7989C99.6498 65.7773 98.7023 71.4244 96.4058 76.6107C93.3828 83.4369 87.7294 88.8039 80.8939 91.3428C78.101 92.3819 75.218 92.8969 72.3574 92.8969Z" fill="black"/>
<path d="M61.7495 51.6458L61.5555 51.6458C61.3705 51.6367 61.1945 51.6774 61.0366 51.7632C60.8697 51.8174 60.7253 51.9123 60.6035 52.0433C60.4726 52.1653 60.3779 52.3099 60.3237 52.477C60.238 52.6397 60.2019 52.8113 60.2064 52.9965C60.2245 53.1185 60.238 53.236 60.2561 53.358C60.3192 53.5884 60.4365 53.7871 60.6035 53.9543L60.8787 54.1666C61.0908 54.2886 61.3164 54.3518 61.56 54.3518L61.754 54.3518C61.939 54.3609 62.115 54.3202 62.2729 54.2344C62.4398 54.1802 62.5842 54.0853 62.706 53.9543C62.8369 53.8323 62.9316 53.6878 62.9858 53.5206C63.0715 53.358 63.1076 53.1863 63.1031 53.0011C63.085 52.8836 63.0715 52.7616 63.0534 52.6397C62.9903 52.4093 62.8729 52.2105 62.706 52.0433L62.4308 51.831C62.2187 51.709 61.9931 51.6458 61.7495 51.6458Z" fill="black"/>
<path d="M82.9331 54.1532C84.6702 54.1532 84.6747 51.4517 82.9331 51.4517C81.1916 51.4517 81.1916 54.1532 82.9331 54.1532Z" fill="black"/>
<path d="M70.7058 51.8358C71.6939 52.3282 72.4428 53.0736 72.5647 54.1714C72.691 55.3505 72.2849 56.5567 71.8653 57.6364C71.4006 58.8246 70.8095 59.963 70.2591 61.1105C69.7989 62.0728 69.289 63.0802 69.1176 64.1419C68.7972 66.1658 70.0425 68.0768 71.924 68.777C72.9031 69.1429 73.3227 67.5753 72.3526 67.2139C71.6307 66.9473 71.0667 66.3194 70.8186 65.6011C70.593 64.946 70.6471 64.5439 70.8141 63.9747C71.1209 62.9176 71.6578 61.9282 72.136 60.9389C73.2099 58.7252 74.5815 56.1411 74.1032 53.5931C73.8325 52.152 72.7993 51.0678 71.5224 50.4353C70.593 49.9745 69.7718 51.3704 70.7058 51.8358Z" fill="black"/>
<path d="M64.6684 74.162C66.7709 76.8545 70.421 77.627 73.6696 77.5412C76.7828 77.4598 80.0359 76.4885 82.1203 74.0535C82.7971 73.2675 81.6556 72.1109 80.9743 72.906C79.1606 75.0248 76.3812 75.8516 73.6696 75.9193C70.8046 75.9916 67.6733 75.3953 65.8099 73.0145C65.5392 72.6666 64.9526 72.7344 64.6639 73.0145C64.321 73.3533 64.3977 73.8186 64.6639 74.162L64.6684 74.162Z" fill="black"/>
<path d="M90.1973 83.0394C90.0078 87.5435 89.8183 92.0476 89.6243 96.5517C89.543 98.5169 89.2227 100.563 90.1973 102.366C90.9688 103.798 92.3269 104.756 93.5676 105.75C99.952 110.855 106.697 115.449 113.885 119.352C117.472 121.299 121.144 123.079 124.894 124.688C128.237 126.12 131.67 127.444 134.73 129.445C137.604 131.329 139.878 133.922 141.15 137.134C142.458 140.432 142.919 143.978 143.108 147.493C143.338 151.735 143.316 156 143.271 160.242C143.221 164.773 143.072 169.3 142.819 173.826C142.756 174.947 142.688 176.067 142.612 177.192C142.562 177.919 143.266 178.543 143.961 178.543C144.732 178.543 145.26 177.924 145.31 177.192C145.905 168.215 146.136 159.203 145.91 150.204C145.73 142.98 144.877 135.051 139.417 129.738C136.769 127.159 133.439 125.456 130.087 123.988C126.495 122.411 122.881 120.915 119.367 119.167C112.093 115.544 105.159 111.243 98.6751 106.346C97.1907 105.221 95.7243 104.069 94.2805 102.89C94.0053 102.664 93.7346 102.434 93.4774 102.19C93.3511 102.072 93.2292 101.95 93.1165 101.824C93.0488 101.752 92.9856 101.679 92.9224 101.607C92.6292 101.264 92.9721 101.693 92.8277 101.485C92.7329 101.349 92.6427 101.209 92.5615 101.065C92.4306 100.83 92.4577 100.889 92.3991 100.731C92.2727 100.369 92.2186 100.071 92.205 99.7818C92.1599 98.675 92.2818 97.5456 92.3269 96.4388C92.372 95.3229 92.4216 94.2071 92.4667 93.0867C92.5615 90.8549 92.6562 88.6187 92.751 86.387C92.7961 85.2711 92.8457 84.1552 92.8909 83.0349C92.9224 82.303 92.2502 81.6841 91.5418 81.6841C90.7838 81.6841 90.2243 82.303 90.1927 83.0349L90.1973 83.0394Z" fill="black"/>
<path d="M53.1226 84.0377C53.3482 88.5102 53.4429 92.9917 53.3933 97.4732C53.3798 98.5936 53.3662 99.714 53.3301 100.834C53.3301 100.934 53.3301 101.033 53.3211 101.133C53.2986 101.372 53.3437 100.961 53.3076 101.191C53.2986 101.259 53.2715 101.327 53.2489 101.39C53.3121 101.214 53.2354 101.417 53.2219 101.449C53.0324 101.806 52.9557 101.878 52.6398 102.185C52.1074 102.7 51.6607 102.976 51.0471 103.441C50.2575 104.037 49.495 104.674 48.7145 105.284C42.4294 110.195 35.6571 114.505 28.5825 118.182C25.0993 119.989 21.5304 121.607 17.9164 123.138C14.6001 124.539 11.2659 125.989 8.3918 128.202C5.40042 130.506 3.27532 133.529 1.99846 137.08C0.771228 140.495 0.360647 144.168 0.17566 147.773C-0.0409104 151.997 -0.018351 156.248 0.0312797 160.477C0.0809104 164.931 0.234314 169.385 0.482468 173.835C0.545634 174.956 0.613312 176.076 0.690014 177.201C0.739645 177.928 1.27656 178.552 2.03907 178.552C2.7339 178.552 3.43775 177.933 3.38812 177.201C2.79706 168.283 2.57147 159.329 2.78353 150.393C2.94596 143.576 3.61371 136.018 9.00992 131.175C11.6223 128.83 14.916 127.339 18.1104 125.971C21.7064 124.426 25.2888 122.885 28.781 121.114C35.9413 117.486 42.7723 113.199 49.1567 108.329C50.6591 107.182 52.0397 106.079 53.4159 105.031C54.1197 104.498 54.7785 103.952 55.2928 103.229C55.8297 102.47 56.0147 101.639 56.0373 100.726C56.1546 96.2851 56.132 91.8397 55.9741 87.3988C55.9335 86.2784 55.8839 85.1626 55.8297 84.0422C55.7936 83.3148 55.2342 82.6914 54.4807 82.6914C53.7768 82.6914 53.0955 83.3103 53.1316 84.0422L53.1226 84.0377Z" fill="black"/>
<path d="M73.0969 149.277C72.8307 149.277 72.56 149.192 72.3344 149.02C65.5304 143.816 58.5506 138.706 51.8008 133.764C45.245 128.966 38.4727 124.006 31.8898 118.986C31.3349 118.566 31.2311 117.771 31.6507 117.22C32.0748 116.664 32.8644 116.56 33.4149 116.981C39.9751 121.986 46.743 126.938 53.2852 131.731C60.0485 136.682 67.0374 141.796 73.8639 147.019C74.4188 147.443 74.5226 148.234 74.0985 148.785C73.8503 149.11 73.4759 149.282 73.0969 149.282L73.0969 149.277Z" fill="black"/>
<path d="M73.4173 149.232C73.0293 149.232 72.6412 149.051 72.3976 148.712C71.987 148.148 72.1133 147.362 72.6773 146.95C78.5969 142.65 84.5616 138.136 90.3368 133.772C97.8266 128.107 105.573 122.248 113.302 116.786C113.871 116.384 114.656 116.519 115.057 117.089C115.459 117.658 115.324 118.444 114.755 118.846C107.058 124.285 99.329 130.131 91.8528 135.783C86.0731 140.156 80.0949 144.678 74.1572 148.992C73.9316 149.155 73.6745 149.232 73.4173 149.232Z" fill="black"/>
<path d="M101.987 66.8662C104.254 66.8662 106.092 65.0256 106.092 62.7551C106.092 60.4846 104.254 58.644 101.987 58.644C99.7191 58.644 97.8809 60.4846 97.8809 62.7551C97.8809 65.0256 99.7191 66.8662 101.987 66.8662Z" fill="#E5B7AD"/>
<path d="M101.986 67.8913C99.1575 67.8913 96.8564 65.5873 96.8564 62.7548C96.8564 59.9222 99.1575 57.6182 101.986 57.6182C104.815 57.6182 107.116 59.9222 107.116 62.7548C107.116 65.5873 104.815 67.8913 101.986 67.8913ZM101.986 59.6737C100.29 59.6737 98.9094 61.0561 98.9094 62.7548C98.9094 64.4534 100.29 65.8358 101.986 65.8358C103.683 65.8358 105.064 64.4534 105.064 62.7548C105.064 61.0561 103.683 59.6737 101.986 59.6737Z" fill="black"/>
<path d="M42.6507 66.8662C44.9183 66.8662 46.7565 65.0256 46.7565 62.7551C46.7565 60.4846 44.9183 58.644 42.6507 58.644C40.3832 58.644 38.5449 60.4846 38.5449 62.7551C38.5449 65.0256 40.3832 66.8662 42.6507 66.8662Z" fill="#E5B7AD"/>
<path d="M42.6505 67.8913C39.8216 67.8913 37.5205 65.5873 37.5205 62.7548C37.5205 59.9222 39.8216 57.6182 42.6505 57.6182C45.4795 57.6182 47.7805 59.9222 47.7805 62.7548C47.7805 65.5873 45.4795 67.8913 42.6505 67.8913ZM42.6505 59.6737C40.954 59.6737 39.5734 61.0561 39.5734 62.7548C39.5734 64.4534 40.954 65.8358 42.6505 65.8358C44.347 65.8358 45.7276 64.4534 45.7276 62.7548C45.7276 61.0561 44.347 59.6737 42.6505 59.6737Z" fill="black"/>
</g>
<defs>
<clipPath id="clip0_268_2929">
<rect width="146" height="184" fill="white"/>
</clipPath>
</defs>
</svg>
