<svg width="138" height="181" viewBox="0 0 138 181" fill="none" xmlns="http://www.w3.org/2000/svg">
<g clip-path="url(#clip0_268_2952)">
<path d="M113.274 75.7967C109.933 74.1559 107.59 71.2494 106.248 67.793C105.812 66.6764 105.706 65.5385 105.888 64.4816C103.232 58.9497 101.665 52.8553 101.398 46.9015C101.276 44.1654 99.3484 42.499 96.7437 42.2178C80.4419 40.4491 64.0469 39.7374 47.6561 40.0826C46.7328 40.1039 45.8604 40.3937 45.1276 40.8795C44.9498 40.3681 44.7931 39.8482 44.6363 39.3368C44.0265 37.3593 42.2391 35.8975 40.1469 35.8975C38.1902 35.8975 36.081 37.3422 35.6574 39.3368C35.3652 40.7261 35.0857 42.1197 34.8273 43.5134C34.6918 43.7989 34.5901 44.1057 34.5351 44.4339C34.1962 46.5435 33.8871 48.6574 33.6075 50.7755C32.8706 55.7789 32.3369 60.8121 32.0108 65.8581C31.744 66.4079 31.6 67.0174 31.6381 67.6609C30.6978 68.1936 29.8931 69.0843 29.4061 70.3672C29.5501 69.9793 29.3552 70.4396 29.224 70.7294C28.9063 70.9468 28.5844 71.1599 28.2625 71.3687C27.7458 72.6558 26.8987 73.8235 25.7213 74.7313C24.0865 75.9885 22.0408 76.7983 19.957 77.0241C20.0587 77.1222 20.1519 77.2074 20.1942 77.2415C21.6766 78.5541 23.2437 79.7645 24.8827 80.8768C25.6917 81.4266 26.5218 81.9508 27.3604 82.4537C27.6526 82.6284 27.9533 82.7989 28.2498 82.9651C28.3261 82.9992 29.0249 83.3828 29.0969 83.4169C30.7656 84.2778 32.4767 85.0577 34.2174 85.7737C36.4833 86.707 38.7916 87.5253 41.1252 88.2711C53.7593 88.953 66.4102 89.2854 79.0654 89.4218C82.0555 88.8379 85.0415 88.2242 88.0147 87.5423C89.9545 87.0991 91.89 86.626 93.8129 86.1189C94.8293 85.8504 95.8416 85.5734 96.8538 85.2836C97.2392 85.1728 97.6204 85.062 98.0058 84.9469C98.2261 84.8787 98.4463 84.8105 98.6665 84.7423C102.542 83.5277 106.371 82.1298 110.068 80.4379C111.868 79.6153 113.638 78.7246 115.358 77.7486C115.798 77.5015 116.23 77.2415 116.663 76.9858C116.709 76.9602 116.773 76.9176 116.836 76.8792C115.604 76.696 114.401 76.3465 113.274 75.7967Z" fill="#C0B2B0"/>
<path d="M121.583 121.134C120.169 120.751 118.606 120.887 117.158 120.874C117.136 120.874 117.115 120.874 117.098 120.874C116.759 120.444 116.34 120.086 115.845 119.86C112.558 118.368 109.699 116.548 106.997 114.533C105.375 114.123 103.825 113.407 102.397 112.461C100.292 111.072 98.0816 109.849 95.9978 108.417C95.4218 108.021 94.8712 107.607 94.3333 107.177C93.2237 106.768 92.1733 106.214 91.1822 105.493C90.386 104.739 89.5897 103.98 88.7935 103.226C87.6034 101.756 86.7817 100.115 86.3158 98.3121C86.1676 98.2524 86.0151 98.2013 85.8626 98.1587C85.9177 97.4043 85.9728 96.6542 86.0194 95.8999C86.0024 95.1285 85.9855 94.3614 85.9643 93.59C86.0151 92.9123 86.1295 92.2603 86.3074 91.6295C86.4302 89.0085 86.3285 86.4258 85.2782 84.0904C85.257 83.5832 85.2104 83.0803 85.1299 82.5945C86.2142 81.3244 87.201 79.9734 88.0862 78.55C89.4796 76.3082 90.5851 73.8321 91.3982 71.3176C91.8218 70.0093 92.2622 68.5261 92.4867 67.0302C93.1305 66.6041 93.7531 66.131 94.3545 65.6451C96.1503 64.1833 98.0731 63.1221 99.979 61.2512C101.021 60.2284 101.893 58.9626 102.461 57.586C101.771 55.6511 101.555 53.5245 101.69 51.4959C101.72 51.0271 101.796 50.554 101.902 50.0809C101.212 48.9984 100.271 48.1333 99.1616 47.5324C99.2336 45.1798 99.0727 42.8188 98.7465 40.5771C98.1028 36.1746 95.8538 31.5249 91.7159 29.6199C88.3827 26.5514 84.5455 23.6832 80.2678 22.2853C79.9882 22.1958 79.7087 22.1148 79.4292 22.0423C77.0235 19.2594 73.6903 17.4779 69.9208 17.2904C69.2474 17.2563 68.5994 17.4097 68.0149 17.6868C64.8215 15.9309 61.1156 15.2362 57.2148 16.2079C52.6195 17.3501 48.6679 20.8192 46.3427 24.8935C43.7041 29.5176 42.9375 34.879 42.7003 40.1253C42.6834 40.479 42.7046 40.8072 42.7554 41.1226C42.2895 43.1512 42.1624 45.2565 42.442 47.3491C41.3958 47.4216 40.3582 47.7838 39.4391 48.4614C35.7586 51.1805 36.3389 56.9723 38.3803 60.5011C39.8669 63.0753 42.4547 65.4576 45.3855 66.2034C45.3982 66.2162 45.4109 66.229 45.4237 66.2461C45.3855 66.4762 45.3644 66.7149 45.3686 66.9535C45.4618 73.3463 48.4731 78.2602 52.6915 82.2066C52.1409 88.6036 50.883 94.9324 50.3536 101.338C47.0754 102.757 44.1403 105.289 41.3577 107.364C36.6692 110.859 31.9807 114.349 27.2922 117.844C26.6908 118.292 26.174 118.82 25.7844 119.408C22.2945 120.627 18.8511 121.965 15.4417 123.397C15.4036 123.414 15.3612 123.427 15.3189 123.444C14.9462 123.602 14.5777 123.755 14.205 123.913C12.1043 124.812 11.4732 127.864 12.2991 129.76C13.1419 131.691 15.6111 133.361 17.7923 132.471C18.0676 132.36 18.3471 132.253 18.6224 132.147C31.9849 131.507 45.3517 131.026 58.7268 130.693C59.6205 132.671 60.7598 134.538 62.1066 136.247C61.7593 138.484 63.3391 140.811 65.4949 141.408C66.0074 141.548 66.5156 141.595 67.0027 141.561C67.494 142.725 68.4469 143.713 69.5524 144.161C70.5604 144.57 71.6785 144.617 72.695 144.331C75.0159 144.77 77.2903 143.496 78.0823 141.033C78.2517 140.508 78.4296 139.989 78.6075 139.473C78.7812 139.251 78.9336 139.008 79.0522 138.736C80.3017 135.914 81.5553 133.093 82.8047 130.267C86.9511 130.225 91.0933 130.186 95.2397 130.174C98.1324 130.293 101.021 130.416 103.914 130.536C106.9 130.659 109.881 130.783 112.867 130.911L117.344 131.098C119.212 131.175 121.528 131.627 123.21 130.604C127.216 128.166 125.912 122.293 121.605 121.126L121.583 121.134Z" fill="white"/>
<path d="M96.5491 20.4097C95.9816 19.4635 95.3929 18.5302 94.7872 17.5969C94.5119 16.7956 94.207 16.0072 93.8554 15.2401C92.1486 11.511 89.51 8.39557 86.1471 6.44365C82.0219 2.21591 76.4186 -0.200549 70.7729 2.06248C64.9069 1.3678 58.8885 2.50571 53.8146 5.94075C52.6837 6.70788 51.9044 7.85857 51.6376 9.11582C50.5322 10.4753 49.5242 11.9371 48.5373 13.399C48.4314 13.4799 48.3256 13.5609 48.2197 13.6419C47.9783 13.6589 47.7368 13.693 47.4997 13.7442C42.3707 14.8693 39.3339 20.3074 37.4746 24.7994C37.2374 25.3747 37.0257 25.9586 36.8224 26.551C36.4116 26.9047 36.06 27.3224 35.7932 27.7826C35.5941 28.0341 35.4205 28.3282 35.2934 28.6734C34.0016 32.1254 32.8454 35.6287 32.9682 39.3706C32.9682 39.4899 32.9809 39.6007 32.9936 39.7115C32.6463 42.8482 32.5405 46.0148 32.6929 49.1728C32.875 52.8976 38.652 52.9189 38.4699 49.1728C38.4318 48.346 38.4064 47.5234 38.4064 46.7009C39.6262 46.7009 40.6892 46.1852 41.5236 45.3584C41.8413 45.2093 42.1377 45.0175 42.4088 44.7788C43.3533 43.9392 43.7895 42.7843 44.3232 41.6634C44.9331 40.3806 45.5429 39.0935 46.1528 37.8107C46.8347 36.3745 47.7284 34.8956 48.0164 33.3188C48.135 32.671 48.0714 32.0871 47.8808 31.5799L48.91 29.4959C49.0159 29.1123 49.1303 28.733 49.2489 28.358C49.2234 28.0597 49.2107 27.7571 49.2235 27.4545C49.4479 23.0691 52.9082 19.0842 57.1859 18.6453C57.3892 18.5089 57.5967 18.3725 57.8042 18.2361C57.9144 18.1637 58.0245 18.0827 58.1261 18.0017C58.2108 17.9634 58.2998 17.9293 58.3845 17.8824C58.6979 17.7162 58.7487 17.665 58.7403 17.6523C58.7784 17.648 58.8716 17.631 59.0791 17.5756C59.1468 17.5585 60.1421 17.3369 59.9643 17.3369C60.3836 17.2943 60.8198 17.2943 61.2306 17.3071C61.2688 17.3071 62.6622 17.4946 61.9761 17.3625C64.0683 17.7716 65.1017 18.2319 66.8806 19.5445C68.4392 20.691 69.9131 22.2891 71.2896 23.9853C72.1197 25.7029 73.2336 27.2499 74.0341 28.9887C74.3686 29.7132 74.6439 30.4761 74.8938 31.2518C75.1225 32.4877 75.4741 33.7023 75.9273 34.8829C76.012 35.1854 76.0967 35.4838 76.1856 35.7821C76.9564 38.3648 77.7273 40.9474 78.4981 43.5301C78.8666 44.7618 79.7729 45.3883 80.7555 45.5332C81.1875 46.1937 81.7424 46.7861 82.4878 47.3146C82.6657 47.4425 82.8563 47.532 83.0553 47.6002C86.5452 52.5524 91.4836 57.2362 97.5317 58.3059C100.005 58.7448 102.546 57.6368 103.258 55.0328C103.614 53.7329 103.304 52.1731 102.504 50.9968C107.434 41.0156 101.822 29.1976 96.5449 20.4182L96.5491 20.4097Z" fill="#C0B2B0"/>
<path d="M137.11 166.339C137.119 161.941 136.971 157.539 136.662 153.149C136.318 148.231 135.81 143.3 135.056 138.429C134.353 133.89 132.566 129.722 128.686 127.058C128.021 126.598 127.31 126.197 126.569 125.839C126.005 124.625 124.896 123.674 123.545 123.137C122.469 122.711 121.389 122.276 120.313 121.833C117.763 118.85 114.549 116.404 111.292 114.955C108.59 113.753 105.515 113.105 102.673 113.893C102.148 113.736 101.584 113.642 100.962 113.642C100.085 113.646 99.2931 113.864 98.5604 114.217C97.8955 113.834 97.1289 113.659 96.3665 113.774C96.8832 109.095 90.3608 106.755 87.7095 110.97C86.8455 112.342 86.2652 113.787 85.8798 115.27C84.9311 115.803 84.0332 116.391 83.1904 117.043C82.1061 117.179 81.0431 117.699 80.2299 118.39C78.0783 120.218 77.6421 122.899 78.0826 125.545C78.0953 125.626 78.1164 125.707 78.1376 125.788C75.571 129.057 73.0044 132.322 70.4378 135.59C67.5154 132.16 64.593 128.729 61.7384 125.247C58.5619 121.373 55.3473 116.762 53.9327 111.984C53.0221 108.907 49.8159 107.867 47.0968 109.184C34.9965 115.036 22.9681 121.036 11.0118 127.182C10.7619 127.31 10.5332 127.467 10.3214 127.642C9.55903 127.83 8.8602 128.213 8.36043 128.827C6.27665 131.397 4.39192 134.094 2.93073 137.073C1.29165 140.415 -0.394012 144.199 0.0718754 148.009C0.270936 149.65 0.965532 151.005 1.39754 152.578C1.7533 153.882 1.76601 155.685 2.02013 157.356C2.04554 157.522 2.07519 157.688 2.10907 157.854C1.87189 160.658 1.79989 163.48 1.90578 166.297C2.07095 170.725 1.96507 176.789 7.0263 178.469C8.99573 179.121 11.0245 178.844 12.9939 178.324C15.1158 177.765 17.2377 177.263 19.4062 176.909C22.9427 176.329 26.9197 176.125 30.6722 176.082C39.2996 175.984 47.9354 176.687 56.5416 177.169C74.0378 178.145 91.534 179.121 109.03 180.097C113.511 180.348 117.992 180.595 122.473 180.847C126.476 181.068 130.868 181.418 134.095 178.524C137.513 175.46 137.098 170.525 137.102 166.331L137.11 166.339Z" fill="#FEF3EE"/>
<path d="M44.3224 65.9392C39.4221 65.9392 35.623 61.2384 35.623 57.1939L35.623 52.0328C35.623 47.5494 37.8042 45.3716 42.2979 45.3716C42.9036 45.3716 43.3949 45.866 43.3949 46.4754C43.3949 47.0848 42.9036 47.5792 42.2979 47.5792C38.5539 47.5792 37.8212 49.2115 37.8212 52.0286L37.8212 57.1896C37.8212 59.7894 40.4132 63.723 44.3224 63.723C44.9281 63.723 45.4194 64.2174 45.4194 64.8268C45.4194 65.4363 44.9281 65.9307 44.3224 65.9307L44.3224 65.9392Z" fill="black"/>
<path d="M94.999 65.0951C94.3891 65.0951 93.8936 64.5964 93.8936 63.9827C93.8936 63.369 94.3891 62.8704 94.999 62.8704C97.9087 62.8704 100.204 60.5775 100.463 57.4238C100.513 56.8101 101.043 56.3583 101.653 56.4052C102.263 56.4563 102.712 56.9933 102.665 57.6028C102.313 61.9413 99.0903 65.0908 95.0032 65.0951L94.999 65.0951Z" fill="black"/>
<path d="M69.2731 92.3925C61.425 92.3925 53.6024 88.2969 48.7402 81.056C44.7547 75.1235 43.446 68.083 42.6879 61.98C42.6074 61.328 43.0648 60.7356 43.7128 60.6504C44.3608 60.5694 44.9496 61.0297 45.0343 61.6817C45.7543 67.5034 46.9952 74.203 50.7011 79.7178C56.7619 88.7401 67.8543 92.3967 77.0704 88.4034C82.4831 86.0594 85.9815 81.6995 87.9636 78.452C91.03 73.4273 92.0592 67.6824 92.6606 62.7259C92.7411 62.0738 93.3256 61.6093 93.9778 61.6902C94.6258 61.7712 95.0875 62.3636 95.007 63.0157C94.376 68.2279 93.2832 74.2839 89.9797 79.7007C86.8836 84.7766 82.7415 88.544 78.0064 90.594C75.1983 91.8086 72.2336 92.3925 69.2773 92.3925L69.2731 92.3925Z" fill="black"/>
<path d="M58.9176 53.4094L58.7355 53.4094C58.5618 53.4008 58.3966 53.4392 58.2484 53.5202C58.0917 53.5713 57.9562 53.6608 57.8418 53.7844C57.719 53.8995 57.63 54.0359 57.5792 54.1935C57.4987 54.347 57.4649 54.5089 57.4691 54.6837C57.486 54.7987 57.4987 54.9095 57.5157 55.0246C57.575 55.242 57.6851 55.4295 57.8418 55.5872L58.1002 55.7875C58.2992 55.9025 58.511 55.9622 58.7397 55.9622L58.9218 55.9622C59.0955 55.9707 59.2607 55.9324 59.4089 55.8514C59.5656 55.8003 59.7011 55.7108 59.8155 55.5872C59.9383 55.4721 60.0272 55.3357 60.0781 55.178C60.1585 55.0246 60.1924 54.8627 60.1882 54.6879C60.1712 54.5729 60.1585 54.462 60.1416 54.347C60.0823 54.1296 59.9722 53.9421 59.8155 53.7844L59.5571 53.5841C59.3581 53.469 59.1463 53.4094 58.9176 53.4094Z" fill="black"/>
<path d="M78.8023 55.7746C80.4329 55.7746 80.4371 53.2261 78.8023 53.2261C77.1675 53.2261 77.1675 55.7746 78.8023 55.7746Z" fill="black"/>
<path d="M67.3251 53.5882C68.2526 54.0527 68.9557 54.7559 69.07 55.7915C69.1886 56.9039 68.8074 58.0375 68.4136 59.0603C67.9773 60.1812 67.4225 61.2552 66.9058 62.3377C66.4738 63.2455 65.9952 64.1958 65.8342 65.1974C65.5335 67.1067 66.7025 68.9094 68.4686 69.57C69.3877 69.9152 69.7816 68.4364 68.871 68.0954C68.1933 67.844 67.6639 67.2516 67.431 66.574C67.2192 65.956 67.27 65.5767 67.4267 65.0397C67.7147 64.0424 68.2187 63.1091 68.6677 62.1757C69.6757 60.0874 70.9632 57.6497 70.5143 55.246C70.2602 53.8865 69.2903 52.8636 68.0917 52.267C67.2192 51.8323 66.4484 53.1492 67.3251 53.5882Z" fill="black"/>
<path d="M61.6541 74.6505C63.6277 77.1905 67.0541 77.9193 70.1036 77.8383C73.0259 77.7616 76.0796 76.8453 78.0364 74.5482C78.6716 73.8024 77.6001 72.7156 76.9606 73.4657C75.258 75.4645 72.649 76.2444 70.1036 76.3083C67.4141 76.3765 64.4748 75.8139 62.7256 73.568C62.4715 73.2398 61.9209 73.3037 61.6498 73.568C61.3279 73.8876 61.3999 74.3266 61.6498 74.6505L61.6541 74.6505Z" fill="black"/>
<path d="M85.6219 83.0246C85.444 87.2737 85.2661 91.5227 85.084 95.7718C85.0077 97.6257 84.707 99.5563 85.6219 101.257C86.3461 102.608 87.6209 103.511 88.7857 104.449C94.7787 109.265 101.11 113.599 107.857 117.281C111.224 119.118 114.672 120.797 118.192 122.314C121.33 123.665 124.553 124.914 127.425 126.802C130.123 128.579 132.257 131.026 133.452 134.056C134.68 137.167 135.112 140.513 135.29 143.828C135.506 147.83 135.484 151.853 135.442 155.855C135.396 160.13 135.256 164.4 135.019 168.67C134.959 169.727 134.896 170.784 134.824 171.845C134.777 172.532 135.438 173.12 136.09 173.12C136.814 173.12 137.31 172.536 137.357 171.845C137.916 163.377 138.132 154.875 137.92 146.385C137.75 139.571 136.95 132.091 131.825 127.079C129.339 124.646 126.213 123.039 123.066 121.654C119.695 120.167 116.303 118.756 113.003 117.107C106.176 113.689 99.6662 109.631 93.5801 105.011C92.1866 103.95 90.8102 102.863 89.4548 101.751C89.1965 101.538 88.9424 101.321 88.7009 101.091C88.5824 100.98 88.468 100.865 88.3621 100.745C88.2986 100.677 88.2393 100.609 88.18 100.541C87.9047 100.217 88.2266 100.622 88.0911 100.426C88.0021 100.298 87.9174 100.166 87.8412 100.029C87.7183 99.8077 87.7438 99.8631 87.6887 99.714C87.5701 99.373 87.5193 99.0917 87.5066 98.819C87.4642 97.7748 87.5786 96.7094 87.6209 95.6652C87.6633 94.6126 87.7099 93.5599 87.7522 92.503C87.8412 90.3976 87.9301 88.288 88.0191 86.1827C88.0614 85.13 88.108 84.0773 88.1504 83.0204C88.18 82.33 87.5489 81.7461 86.884 81.7461C86.1725 81.7461 85.6473 82.33 85.6176 83.0204L85.6219 83.0246Z" fill="black"/>
<path d="M50.8196 83.9667C51.0314 88.1859 51.1203 92.4136 51.0737 96.6414C51.061 97.6983 51.0483 98.7552 51.0144 99.8122C51.0144 99.9059 51.0144 99.9997 51.0059 100.093C50.9848 100.319 51.0271 99.9315 50.9932 100.149C50.9848 100.213 50.9594 100.277 50.9382 100.336C50.9975 100.17 50.9255 100.362 50.9128 100.392C50.7349 100.728 50.6629 100.797 50.3664 101.086C49.8666 101.572 49.4473 101.832 48.8713 102.271C48.1301 102.834 47.4144 103.435 46.6817 104.01C40.7776 108.643 34.4246 112.708 27.7836 116.178C24.5139 117.882 21.1638 119.408 17.7712 120.853C14.6583 122.174 11.5284 123.542 8.83045 125.63C6.02242 127.804 4.02758 130.655 2.82897 134.005C1.67696 137.227 1.29155 140.692 1.1179 144.093C0.914602 148.077 0.935779 152.088 0.982368 156.077C1.02896 160.279 1.17296 164.481 1.4059 168.679C1.4652 169.736 1.52873 170.793 1.60073 171.854C1.64732 172.54 2.15132 173.128 2.86709 173.128C3.51934 173.128 4.18005 172.545 4.13346 171.854C3.57863 163.441 3.36686 154.994 3.56592 146.564C3.7184 140.133 4.34523 133.003 9.41069 128.435C11.863 126.223 14.9547 124.816 17.9534 123.525C21.3289 122.067 24.6918 120.614 27.9699 118.944C34.6914 115.521 41.1037 111.477 47.0967 106.883C48.5071 105.8 49.8073 104.76 51.0949 103.771C51.7556 103.269 52.374 102.753 52.8568 102.067C53.3608 101.351 53.5344 100.567 53.5556 99.7056C53.6657 95.5162 53.6446 91.3226 53.4963 87.1332C53.4582 86.0763 53.4116 85.0236 53.3608 83.9667C53.3269 83.2805 52.8017 82.6924 52.0944 82.6924C51.4337 82.6924 50.7942 83.2763 50.8281 83.9667L50.8196 83.9667Z" fill="black"/>
<path d="M69.8617 140.798C69.4424 140.798 69.0359 140.572 68.8199 140.176C65.9483 134.849 63.0047 129.615 60.1544 124.556C57.3887 119.642 54.5298 114.562 51.7514 109.418C51.438 108.843 51.654 108.118 52.2258 107.803C52.7976 107.492 53.5176 107.701 53.831 108.28C56.5967 113.403 59.4513 118.475 62.2127 123.38C65.0673 128.452 68.0194 133.694 70.8994 139.038C71.2086 139.618 70.9968 140.338 70.425 140.653C70.2472 140.751 70.0523 140.798 69.8617 140.798Z" fill="black"/>
<path d="M69.9934 140.755C69.7943 140.755 69.5953 140.704 69.4089 140.598C68.8414 140.274 68.6423 139.545 68.9685 138.974C71.4631 134.571 73.9831 129.952 76.4184 125.481C79.5822 119.676 82.8519 113.676 86.1131 108.08C86.4435 107.513 87.1677 107.326 87.731 107.658C88.2943 107.99 88.4807 108.719 88.1503 109.286C84.906 114.852 81.6448 120.836 78.4895 126.627C76.0499 131.107 73.5257 135.739 71.0184 140.159C70.7981 140.542 70.4 140.76 69.9892 140.76L69.9934 140.755Z" fill="black"/>
<path d="M105.075 100.503C99.6154 104.402 93.6436 107.969 86.9941 108.881C90.4502 108.408 97.303 122.579 98.527 125.081C104.948 122.089 110.949 116.698 116.79 112.559C113.219 108.349 109.649 104.142 106.079 99.9316L105.075 100.503Z" fill="#FEF3EE"/>
<path d="M104.434 99.4031C99.0725 103.222 93.2701 106.721 86.6545 107.654C86.0404 107.739 85.6635 108.498 85.7482 109.052C85.8329 109.619 86.358 110.232 86.9933 110.156C87.0823 110.147 87.1712 110.156 87.2559 110.147C87.4635 110.126 86.9213 110.036 87.2178 110.147C87.2559 110.164 87.3068 110.177 87.3449 110.186C87.5609 110.232 87.3491 110.126 87.2517 110.139C87.3279 110.13 87.4847 110.254 87.5482 110.288C87.6541 110.347 87.7515 110.416 87.8531 110.484C87.8912 110.509 87.9294 110.539 87.9675 110.565C88.1877 110.697 87.743 110.369 87.9421 110.543C88.1623 110.74 88.3868 110.927 88.5943 111.136C89.0602 111.6 89.488 112.108 89.8988 112.628C89.8988 112.628 90.1063 112.896 89.992 112.743C89.8734 112.589 90.0851 112.866 90.0851 112.866C90.191 113.011 90.2969 113.156 90.4028 113.301C90.6442 113.633 90.8772 113.974 91.1059 114.315C92.9059 116.996 94.4602 119.851 95.9341 122.724C96.4424 123.717 96.9379 124.714 97.425 125.716C97.7469 126.372 98.577 126.449 99.1572 126.172C105.87 123.022 111.414 117.916 117.42 113.65C118.123 113.152 118.237 112.312 117.678 111.647C114.108 107.437 110.538 103.23 106.967 99.0195C106.603 98.5891 105.891 98.555 105.434 98.8192L104.43 99.3903C103.011 100.2 104.286 102.403 105.709 101.594L106.713 101.023C106.201 100.954 105.688 100.89 105.18 100.822C108.75 105.033 112.321 109.239 115.891 113.45C115.976 112.781 116.06 112.116 116.149 111.447C110.148 115.713 104.604 120.819 97.8866 123.968C98.4626 124.122 99.0429 124.275 99.6189 124.424C98.4881 122.119 97.3276 119.83 96.0697 117.588C94.473 114.737 92.7619 111.724 90.4536 109.389C89.5854 108.511 88.3232 107.441 86.9933 107.599C87.1035 108.434 87.2178 109.269 87.3322 110.105C94.1341 109.146 100.203 105.527 105.718 101.598C106.277 101.202 106.539 100.486 106.171 99.8548C105.849 99.3008 104.998 98.9982 104.439 99.3988L104.434 99.4031Z" fill="black"/>
<path d="M50.8957 24.6503C50.9211 24.1134 51.0694 23.5423 51.3192 23.0735C51.6411 22.4683 51.9122 22.1401 52.412 21.6628C53.331 20.7891 54.6228 20.0817 55.8214 19.6555C58.7141 18.6199 62.3311 18.1851 65.1942 19.5489C65.7533 19.8132 66.2869 20.1328 66.7867 20.4951C66.8333 20.5292 66.8841 20.5675 66.9307 20.6016C67.0959 20.7252 66.7994 20.4951 66.9561 20.6229C67.0662 20.7081 67.1721 20.7976 67.278 20.8914C67.4855 21.0747 67.6888 21.2622 67.8836 21.4582C68.0785 21.6543 68.2691 21.8588 68.4512 22.0677C68.5444 22.1742 68.6291 22.2808 68.718 22.3873C68.7561 22.4342 68.7942 22.4811 68.8281 22.528C68.6968 22.3617 68.862 22.5706 68.8832 22.6047C69.2305 23.082 69.5524 23.5721 69.8488 24.0835C70.1411 24.5864 70.4121 25.1064 70.662 25.6348C70.7891 25.9033 70.9119 26.1761 71.0305 26.4488C71.039 26.4744 71.1237 26.6705 71.0517 26.5C71.0771 26.5596 71.1025 26.6193 71.1237 26.679C71.1872 26.8409 71.255 26.9986 71.3185 27.1606C71.7759 28.3368 72.174 29.5387 72.5467 30.7448C74.0249 35.5308 75.1176 40.6493 78.2052 44.7065C81.9958 49.6843 86.9681 53.7842 92.5714 56.5416C98.1875 59.3033 104.532 60.7949 110.783 59.9596C111.584 59.8531 112.376 59.721 113.159 59.5462C113.829 59.3971 114.218 58.6171 114.045 57.9779C113.854 57.2832 113.155 56.938 112.486 57.0871C106.586 58.3955 100.314 57.313 94.8077 54.7943C89.1874 52.2244 84.1092 48.2737 80.3398 43.347C79.6621 42.4648 79.0099 41.4249 78.4932 40.3808C77.9214 39.2258 77.5868 38.3607 77.1463 37.0778C76.295 34.6188 75.6343 32.1 74.855 29.6154C73.3684 24.8933 71.2634 19.681 66.5537 17.3839C63.2544 15.7729 59.3791 15.9264 55.923 16.9407C53.0727 17.776 50.0656 19.5021 48.8627 22.3745C48.5578 23.1033 48.4011 23.8576 48.3672 24.6461C48.3376 25.3365 48.9729 25.9204 49.6336 25.9204C50.3451 25.9204 50.8703 25.3365 50.8999 24.6461L50.8957 24.6503Z" fill="black"/>
<path d="M77.5998 20.9681C82.9829 24.3136 85.27 30.6211 87.43 36.2893C89.6112 42.0087 92.2075 48.2864 97.8913 51.308C101.606 53.2813 106.125 53.6947 109.924 51.7257C110.534 51.4103 110.712 50.5537 110.377 49.9826C110.017 49.3604 109.255 49.2112 108.645 49.5266C105.761 51.0182 102.216 50.6602 99.3779 49.2155C96.8028 47.9071 94.8884 45.789 93.4061 43.3427C90.2507 38.1262 88.9674 32.0488 86.0112 26.6789C84.2704 23.5166 81.9537 20.6825 78.8704 18.769C77.4812 17.9038 76.2064 20.1072 77.5913 20.9723L77.5998 20.9681Z" fill="black"/>
<path d="M114.435 74.5778C110.657 73.866 107.925 70.6185 106.472 67.0982C104.622 62.6276 104.609 57.5517 104.689 52.7913C104.778 47.6387 105.088 42.4606 104.257 37.3464C103.609 33.3531 102.623 29.3938 101.305 25.5752C98.7981 18.296 94.9354 11.1063 88.8704 6.21371C85.876 3.79726 82.4497 1.99024 78.7268 1.00149C75.4275 0.127819 71.946 -0.127891 68.545 0.0468439C61.5694 0.4091 53.8865 2.59116 49.5538 8.49379C49.0583 9.17143 48.6305 9.88741 48.262 10.6418C47.9613 11.2597 48.0968 12.0226 48.7152 12.3848C49.2743 12.713 50.1467 12.5468 50.4474 11.9288C50.8244 11.1574 51.2649 10.4201 51.7773 9.72973C51.7943 9.70842 51.9213 9.53794 51.8112 9.68285C51.8748 9.59761 51.9425 9.51663 52.0103 9.43566C52.1289 9.29076 52.2559 9.14585 52.3788 9.00095C52.6583 8.68558 52.9548 8.38299 53.2597 8.09318C53.9374 7.44965 54.3567 7.11722 55.0851 6.62285C55.7628 6.16257 56.4701 5.74917 57.1943 5.37413C58.0456 4.93943 58.5751 4.70929 59.4221 4.39817C60.2141 4.10411 61.0231 3.85266 61.8363 3.63104C63.5219 3.17929 65.2161 2.88096 66.7662 2.72754C68.4603 2.55706 70.1672 2.50592 71.8698 2.56985C72.6576 2.59968 73.4411 2.65509 74.2246 2.74032C74.3983 2.75737 74.5719 2.77868 74.7456 2.79999C74.8091 2.80851 75.0675 2.84261 74.8049 2.80851C74.8811 2.81703 74.9531 2.82982 75.0293 2.83834C75.4613 2.90227 75.8891 2.97472 76.3169 3.0557C79.9762 3.76742 83.2035 5.1653 86.2318 7.36441C88.9763 9.35895 91.509 12.176 93.4234 15.04C95.5453 18.2108 97.1929 21.6543 98.4762 25.1703C99.8484 28.925 100.852 32.8075 101.581 36.737C102.479 41.5912 102.288 46.5051 102.174 51.4147C102.059 56.3499 102.004 61.4812 103.478 66.2459C104.698 70.1923 107.205 74.1516 110.966 76.0524C111.847 76.4998 112.783 76.8365 113.753 77.0198C114.426 77.1476 115.121 76.8323 115.312 76.1291C115.481 75.5068 115.104 74.6886 114.426 74.5607L114.435 74.5778Z" fill="black"/>
<path d="M98.4628 77.02C100.475 80.8045 104.989 82.8119 109.127 81.9297C109.797 81.789 110.186 80.9963 110.013 80.3613C109.822 79.6624 109.127 79.3299 108.454 79.4706C108.348 79.4919 108.242 79.5132 108.136 79.5345C108.069 79.5473 107.844 79.5771 108.022 79.5558C107.806 79.5814 107.59 79.5984 107.374 79.6027C106.942 79.6155 106.506 79.6027 106.082 79.543C106.26 79.5686 105.811 79.4876 105.714 79.4706C105.502 79.4237 105.29 79.3726 105.083 79.3129C104.875 79.2532 104.668 79.185 104.464 79.1083C104.363 79.07 104.261 79.0316 104.164 78.989C104.316 79.0572 104.104 78.9549 104.049 78.9336C103.676 78.7546 103.316 78.5543 102.973 78.3242C102.588 78.0684 102.474 77.9832 102.105 77.6423C101.419 77.0072 101.08 76.5555 100.648 75.7415C100.326 75.1363 99.4877 74.9445 98.916 75.2855C98.3061 75.6435 98.1367 76.4191 98.4628 77.0286L98.4628 77.02Z" fill="black"/>
<path d="M45.6022 13.6721C40.5961 15.0231 37.2713 19.481 35.2511 24.0326C33.0191 29.0616 32.0492 34.4741 31.5875 39.9378C31.1174 45.4824 31.1089 51.0611 30.7701 56.6143C30.5922 59.5379 30.3677 62.4658 29.7536 65.334C29.3216 67.3413 28.7075 69.1995 27.8519 70.8957C27.3564 71.8802 26.7889 72.8391 26.1197 73.7128C26.251 73.5423 25.9842 73.8833 25.9926 73.8705C25.9079 73.9728 25.8275 74.0708 25.7385 74.1731C25.5691 74.3691 25.3955 74.5609 25.2133 74.7442C25.0354 74.9231 24.8533 75.1021 24.6627 75.2684C24.5696 75.3493 24.4764 75.4303 24.379 75.5113C24.2604 75.605 24.2519 75.6136 24.3451 75.5411C24.2943 75.5795 24.2477 75.6136 24.1969 75.6477C23.786 75.9332 23.3625 76.1932 22.9051 76.3977C23.1041 76.3082 22.922 76.3892 22.8839 76.402C22.7399 76.4574 22.5917 76.5085 22.4434 76.5512C22.2189 76.6194 21.9902 76.6662 21.7615 76.7089C22.0453 76.6577 21.6641 76.7174 21.6302 76.7216C21.5116 76.7302 21.3931 76.7387 21.2745 76.7387C21.0331 76.7387 20.7874 76.7302 20.546 76.7003C20.8128 76.7344 20.402 76.6705 20.385 76.6662C20.258 76.6407 20.1309 76.6108 20.0039 76.5767C19.6947 76.4958 19.394 76.385 19.0975 76.2656C18.4622 76.0056 17.7041 76.5469 17.5389 77.1563C17.3398 77.8851 17.7888 78.4647 18.4241 78.7247C20.3681 79.5217 22.4604 79.4279 24.3451 78.5244C26.1536 77.6592 27.5724 76.0866 28.699 74.4586C31.3842 70.5718 32.4261 65.9094 32.9344 61.2768C33.5527 55.6213 33.5697 49.919 33.8492 44.2422C34.116 38.7999 34.637 33.3234 36.3692 28.1325C38.0041 23.2271 40.973 17.5674 46.2841 16.1354C47.8554 15.7093 47.1905 13.2502 45.6107 13.6764L45.6022 13.6721Z" fill="black"/>
<path d="M36.369 73.9301C36.2927 74.4926 36.1699 75.0424 35.9963 75.5794C35.8268 76.1036 35.7167 76.3465 35.4245 76.8835C35.2847 77.1392 35.1322 77.3907 34.9713 77.6336C34.8951 77.7444 34.8188 77.8552 34.7384 77.966C34.6028 78.1535 34.7638 77.9447 34.6071 78.1365C34.264 78.5584 33.8913 78.9548 33.4932 79.317C32.0066 80.6638 30.0075 81.5076 28.0423 81.546C26.4159 81.5801 26.4075 84.1286 28.0423 84.0945C33.2348 83.9923 38.1055 79.8327 38.8128 74.6034C38.9059 73.9215 38.6476 73.2354 37.9276 73.0351C37.3346 72.8731 36.4621 73.2397 36.369 73.9258L36.369 73.9301Z" fill="black"/>
<path d="M49.0668 28.8994C47.2372 30.8513 46.3096 33.3871 45.632 35.9399C45.3016 37.1801 45.0178 38.4331 44.679 39.669C44.5096 40.2955 44.3232 40.9178 44.1115 41.5272C43.8828 42.1835 43.7854 42.4265 43.4889 43.0146C43.3364 43.3172 43.1712 43.6112 42.9934 43.8968C42.9044 44.0374 42.8112 44.1781 42.7138 44.3144C42.6757 44.3656 42.6418 44.4167 42.6037 44.4679C42.4766 44.6341 42.7053 44.3443 42.5698 44.5062C42.3581 44.7662 42.1293 45.0134 41.8879 45.2435C41.5618 45.5504 41.5025 45.5973 41.1933 45.8103C40.63 46.1982 40.3759 46.9312 40.7402 47.5534C41.0663 48.116 41.9049 48.4015 42.4724 48.0095C47.0847 44.8216 47.0762 38.8167 48.8847 34.0179C49.0838 33.4851 49.3464 32.9055 49.7021 32.2833C50.1002 31.5929 50.3628 31.2306 50.8584 30.7022C51.9765 29.5088 50.1892 27.7018 49.0668 28.8994Z" fill="black"/>
<path d="M41.4049 80.6681C41.3625 80.8215 41.3117 80.9749 41.2609 81.1284C41.2355 81.2051 41.2058 81.2775 41.1762 81.3542C41.1592 81.3968 41.0787 81.6227 41.1507 81.4224C41.2185 81.2264 41.138 81.448 41.1169 81.4906C41.083 81.5631 41.0491 81.6355 41.0152 81.708C40.9432 81.8529 40.867 81.9935 40.7907 82.1299C40.6467 82.3856 40.4858 82.6328 40.3164 82.8714C40.291 82.9055 40.2698 82.9354 40.2444 82.9695C40.1893 83.0462 40.2147 83.0121 40.3206 82.8714C40.274 82.8842 40.1978 83.0249 40.1724 83.059C40.0792 83.174 39.9818 83.2806 39.8844 83.3914C39.6853 83.6087 39.4778 83.8133 39.2576 84.0051C39.2025 84.0562 38.9399 84.2139 38.9187 84.2864C39.0712 84.1713 39.0924 84.15 38.9865 84.231C38.9653 84.248 38.9441 84.2608 38.923 84.2778C38.8594 84.3247 38.7917 84.3716 38.7281 84.4142C38.4867 84.5804 38.2368 84.7339 37.9785 84.8702C37.8387 84.947 37.6947 85.0151 37.5507 85.0833C37.5253 85.0961 37.5041 85.1046 37.4787 85.1174C37.3559 85.1728 37.3813 85.16 37.5634 85.0833C37.5126 85.0748 37.3855 85.1515 37.3389 85.1686C36.7206 85.403 36.2293 86.038 36.4538 86.7369C36.6486 87.3464 37.3474 87.8791 38.0124 87.6276C40.8162 86.5665 43.0143 84.2523 43.8571 81.3457C44.0435 80.7064 43.6327 79.9308 42.9719 79.7774C42.2943 79.6239 41.6124 79.9819 41.4133 80.6681L41.4049 80.6681Z" fill="black"/>
<path d="M92.5544 83.1952C93.3972 83.5532 94.1892 84.022 94.9177 84.5803L94.6594 84.38C95.1803 84.7849 95.6631 85.2366 96.1036 85.731C96.5483 86.2296 97.4505 86.2211 97.8952 85.731C98.3822 85.1983 98.3695 84.461 97.8952 83.9282C96.777 82.6752 95.3709 81.6481 93.8292 80.9918C93.5031 80.8512 93.2109 80.7659 92.8551 80.864C92.5629 80.9449 92.241 81.1751 92.097 81.4478C91.9403 81.7419 91.864 82.1042 91.9699 82.4281C92.0631 82.7221 92.2579 83.0631 92.5502 83.1909L92.5544 83.1952Z" fill="black"/>
<path d="M35.9581 100.899C41.4175 104.798 47.3893 108.365 54.0388 109.277C50.5827 108.804 43.73 122.975 42.5059 125.477C36.0852 122.485 30.0837 117.094 24.2432 112.955C27.8136 108.745 31.3839 104.538 34.9543 100.328L35.9581 100.899Z" fill="#FEF3EE"/>
<path d="M35.3184 101.998C40.8328 105.928 46.8978 109.546 53.704 110.505C53.8184 109.67 53.9285 108.834 54.0428 107.999C52.8739 107.862 51.7515 108.702 50.9426 109.444C49.8287 110.462 48.9138 111.719 48.0583 112.96C46.1482 115.717 44.5345 118.683 43.0013 121.667C42.4634 122.715 41.9382 123.772 41.4215 124.833C41.9975 124.68 42.5778 124.526 43.1538 124.377C36.4408 121.228 30.8967 116.122 24.891 111.856L25.1494 113.859C28.7198 109.648 32.2901 105.442 35.8605 101.231C35.3481 101.299 34.8356 101.363 34.3273 101.431C34.6619 101.623 34.9965 101.815 35.3311 102.002C36.7499 102.812 38.029 100.613 36.6102 99.7991C36.2756 99.6073 35.941 99.4155 35.6064 99.228C35.149 98.9681 34.4332 98.9979 34.0732 99.4283C30.5028 103.639 26.9324 107.845 23.362 112.056C22.7987 112.717 22.9173 113.561 23.6204 114.059C29.6219 118.325 35.1659 123.431 41.8832 126.58C42.4677 126.853 43.2935 126.785 43.6154 126.124C44.6912 123.925 45.8009 121.739 46.991 119.595C47.8211 118.104 48.6851 116.629 49.6169 115.201C50.0447 114.545 50.4936 113.902 50.9595 113.271C51.0019 113.215 51.0442 113.16 51.0866 113.1C50.9087 113.339 51.1162 113.062 51.1416 113.028C51.2475 112.896 51.3492 112.764 51.455 112.636C51.6753 112.367 51.904 112.107 52.1369 111.852C52.3656 111.604 52.6071 111.366 52.8612 111.144C52.9501 111.067 53.3482 110.782 53.0136 111.008C53.128 110.931 53.2381 110.846 53.3525 110.773C53.4584 110.705 53.5727 110.65 53.6828 110.59C53.9412 110.445 53.3948 110.68 53.7506 110.573C54.0132 110.492 53.92 110.594 53.7421 110.552C53.8353 110.573 53.9581 110.543 54.0555 110.556C55.4617 110.722 55.8047 108.25 54.3944 108.05C47.7788 107.117 41.9764 103.622 36.6144 99.7991C36.0554 99.4028 35.2041 99.6968 34.8822 100.255C34.5095 100.894 34.7763 101.602 35.3353 101.998L35.3184 101.998Z" fill="black"/>
<path d="M96.3752 68.8541C98.4032 68.8541 100.047 67.1559 100.047 65.0611C100.047 62.9663 98.4032 61.2681 96.3752 61.2681C94.3472 61.2681 92.7031 62.9663 92.7031 65.0611C92.7031 67.1559 94.3472 68.8541 96.3752 68.8541Z" fill="#A1B1C9"/>
<path d="M96.3753 69.7918C93.8383 69.7918 91.7715 67.6694 91.7715 65.0612C91.7715 62.453 93.8383 60.3306 96.3753 60.3306C98.9123 60.3306 100.979 62.453 100.979 65.0612C100.979 67.6694 98.9123 69.7918 96.3753 69.7918ZM96.3753 62.2058C94.8633 62.2058 93.6308 63.4886 93.6308 65.0655C93.6308 66.6423 94.8591 67.9252 96.3753 67.9252C97.8916 67.9252 99.1198 66.6423 99.1198 65.0655C99.1198 63.4886 97.8916 62.2058 96.3753 62.2058Z" fill="black"/>
<path d="M40.0871 67.8868C42.1151 67.8868 43.7591 66.1886 43.7591 64.0938C43.7591 61.999 42.1151 60.3008 40.0871 60.3008C38.0591 60.3008 36.415 61.999 36.415 64.0938C36.415 66.1886 38.0591 67.8868 40.0871 67.8868Z" fill="#A1B1C9"/>
<path d="M40.0872 68.8246C37.5502 68.8246 35.4834 66.7022 35.4834 64.0939C35.4834 61.4857 37.5502 59.3633 40.0872 59.3633C42.6242 59.3633 44.691 61.4857 44.691 64.0939C44.691 66.7022 42.6242 68.8246 40.0872 68.8246ZM40.0872 61.2342C38.5752 61.2342 37.3427 62.517 37.3427 64.0939C37.3427 65.6708 38.571 66.9536 40.0872 66.9536C41.6035 66.9536 42.8317 65.6708 42.8317 64.0939C42.8317 62.517 41.6035 61.2342 40.0872 61.2342Z" fill="black"/>
</g>
<defs>
<clipPath id="clip0_268_2952">
<rect width="138" height="181" fill="white"/>
</clipPath>
</defs>
</svg>
