<svg width="130" height="186" viewBox="0 0 130 186" fill="none" xmlns="http://www.w3.org/2000/svg">
<g clip-path="url(#clip0_268_2986)">
<path d="M88.471 92.9671C87.9571 92.9671 87.542 92.5526 87.542 92.0393C87.542 91.5261 87.9571 91.1116 88.471 91.1116C91.7918 91.1116 94.4958 88.4112 94.4958 85.0949C94.4958 81.7786 91.7918 79.0782 88.471 79.0782C87.9571 79.0782 87.542 78.6637 87.542 78.1504C87.542 77.6372 87.9571 77.2227 88.471 77.2227C92.8157 77.2227 96.3539 80.7521 96.3539 85.0949C96.3539 89.4376 92.8196 92.9671 88.471 92.9671Z" fill="#48596C"/>
<path d="M37.5362 93.5633C33.1915 93.5633 29.6533 90.0338 29.6533 85.6911C29.6533 81.3483 33.1876 77.8188 37.5362 77.8188C38.0501 77.8188 38.4652 78.2334 38.4652 78.7466C38.4652 79.2599 38.0501 79.6744 37.5362 79.6744C34.2154 79.6744 31.5114 82.3748 31.5114 85.6911C31.5114 89.0074 34.2154 91.7077 37.5362 91.7077C38.0501 91.7077 38.4652 92.1223 38.4652 92.6355C38.4652 93.1488 38.0501 93.5633 37.5362 93.5633Z" fill="#48596C"/>
<path d="M112.934 136.138C111.614 135.783 110.155 135.909 108.803 135.897C108.783 135.897 108.763 135.897 108.747 135.897C108.431 135.498 108.04 135.167 107.577 134.957C104.509 133.576 101.841 131.89 99.3188 130.023C97.8047 129.644 96.3578 128.98 95.0255 128.104C93.0607 126.817 90.9971 125.684 89.0521 124.357C88.5145 123.99 88.0005 123.607 87.4985 123.208C86.4627 122.829 85.4823 122.316 84.5572 121.649C83.814 120.95 83.0708 120.247 82.3276 119.549C81.2167 118.187 80.4497 116.667 80.0149 114.997C79.8765 114.941 79.7342 114.894 79.5919 114.855C79.6433 114.156 79.6947 113.461 79.7381 112.762C79.7223 112.048 79.7065 111.337 79.6868 110.622C79.7342 109.995 79.8409 109.391 80.007 108.806C80.1216 106.378 80.0267 103.986 79.0463 101.822C79.0266 101.352 78.9831 100.887 78.908 100.437C79.92 99.2601 80.8411 98.0086 81.6674 96.69C82.968 94.6133 83.9998 92.3196 84.7588 89.9903C85.1542 88.7783 85.5653 87.4044 85.7748 86.0186C86.3757 85.6238 86.9569 85.1856 87.5182 84.7356C89.1944 83.3814 90.9892 82.3984 92.7682 80.6652C93.7407 79.7177 94.5551 78.5452 95.0848 77.27C94.4404 75.4776 94.2388 73.5076 94.3653 71.6283C94.393 71.1941 94.4642 70.7558 94.563 70.3176C93.9146 69.3148 93.041 68.5134 92.0052 67.9567C92.0724 65.7775 91.9222 63.5903 91.6178 61.5137C91.0169 57.4354 88.9177 53.1282 85.0553 51.3635C81.9441 48.521 78.3624 45.864 74.3696 44.5691C70.3333 43.2662 65.9728 43.8979 61.9049 44.9283C58.1769 45.0704 54.2671 45.9508 50.8198 47.2023C46.9377 48.6118 43.2374 51.0082 42.2017 55.272C42.1503 55.4812 42.1186 55.6944 42.0949 55.9115C39.6715 59.3463 38.4935 63.6022 39.0548 67.7909C38.0784 67.858 37.1098 68.1936 36.252 68.8213C32.8165 71.3401 33.3581 76.7054 35.2636 79.9743C36.6512 82.3589 39.0667 84.5658 41.8024 85.2567C41.8142 85.2685 41.8261 85.2804 41.838 85.2962C41.8024 85.5093 41.7826 85.7304 41.7866 85.9515C41.8735 91.8735 44.6843 96.4254 48.6218 100.081C48.1079 106.007 46.9337 111.87 46.4396 117.804C43.3797 119.118 40.6401 121.463 38.0428 123.386C33.6665 126.623 29.2902 129.857 24.9139 133.094C24.3525 133.509 23.8702 133.998 23.5065 134.543C20.249 135.672 17.035 136.912 13.8526 138.238C13.817 138.254 13.7775 138.266 13.738 138.282C13.3901 138.428 13.0461 138.57 12.6982 138.716C10.7374 139.549 10.1484 142.376 10.9193 144.133C11.706 145.921 14.0107 147.469 16.0467 146.643C16.3036 146.541 16.5646 146.442 16.8215 146.343C40.6441 145.21 64.4903 144.598 88.3366 144.515C91.0367 144.626 93.7328 144.741 96.4329 144.851C99.22 144.966 102.003 145.08 104.79 145.198C106.182 145.258 107.577 145.313 108.969 145.372C110.712 145.443 112.875 145.862 114.444 144.914C118.184 142.656 116.966 137.216 112.946 136.134L112.934 136.138Z" fill="white"/>
<path d="M124.675 153.659C125.893 152.601 126.49 150.943 126.031 149.277C124.647 144.259 120.587 140.362 115.78 138.736C111.835 135.952 107.423 133.836 102.643 132.529C102.007 132.356 101.359 132.348 100.738 132.462C99.2277 131.392 97.5634 130.548 95.8041 129.999C95.0135 129.564 94.2307 129.118 93.4598 128.649C90.6609 126.943 88.957 125.64 86.7432 123.078C86.0356 122.257 85.0037 121.866 83.9443 121.83C83.9324 121.519 83.8889 121.199 83.798 120.879C83.3394 119.213 81.4656 117.444 79.6075 117.693C76.7849 118.072 74.2943 118.972 72.1279 120.622C65.2017 122.075 58.153 121.819 51.2545 119.825C51.0924 119.734 50.9343 119.643 50.7722 119.545C49.7878 118.944 48.7877 118.802 47.8744 118.984C46.9454 119.091 46.0204 119.501 45.1783 120.168C44.696 120.551 44.2493 120.99 43.846 121.463C43.1819 121.842 42.577 122.324 42.0552 122.904C41.7152 123.279 41.4464 123.702 41.2448 124.148C39.0191 125.632 36.7499 127.042 34.4412 128.372C33.0773 129.087 31.7094 129.786 30.3337 130.469C24.8979 133.161 19.3949 135.577 13.7536 137.753C12.3541 137.452 10.8084 137.753 9.84379 138.89C8.69734 140.244 7.70506 141.669 6.8472 143.149C5.97352 143.71 5.28565 144.567 4.99706 145.621C4.64917 146.892 4.33291 148.171 4.04036 149.458C2.71601 153.473 2.06372 157.737 1.79094 162.072C1.66444 164.062 1.617 166.055 1.60909 168.049C1.60118 169.613 1.47468 171.318 1.71187 172.901C1.70792 172.968 1.70002 173.031 1.69606 173.099C1.59328 174.334 2.03209 175.321 2.75159 176.032C2.73578 177.181 2.73578 178.33 2.7595 179.478C2.80298 181.713 4.71638 183.971 7.10416 183.817C36.0067 181.974 65.0199 181.926 93.9263 183.699C101.129 184.141 108.324 184.694 115.507 185.361C117.278 185.527 119.049 185.696 120.821 185.874C122.746 186.068 124.651 186.174 126.414 185.195C129.842 183.296 129.909 178.847 129.988 175.404C130.162 167.86 128.237 160.319 124.671 153.659L124.675 153.659Z" fill="#E5B7AD"/>
<path d="M79.9948 57.5023C82.3787 60.2777 84.1853 63.7046 85.1104 67.6446C87.7314 66.5747 90.0718 63.0058 91.9654 60.6331C92.0642 59.3223 92.0959 58.0077 92.0524 56.6969C92.3251 56.2469 92.5979 55.7929 92.8746 55.3428C92.8746 55.3388 92.8746 55.331 92.8746 55.327C92.8588 55.248 92.8509 55.1691 92.8312 55.0901C92.6375 54.265 92.4279 53.4478 92.2105 52.6306C92.4754 45.8164 89.8346 39.2312 85.0471 34.3357C84.3316 33.1474 83.5291 32.0183 82.5763 30.9839C81.4141 29.7206 80.1016 28.8046 78.6428 28.173C76.1878 26.2977 73.3849 24.9514 70.3448 24.2527C69.7914 23.4749 69.2656 22.6853 68.7675 21.8839C68.7872 21.8089 68.807 21.7378 68.8268 21.6628C68.9019 21.3272 68.9375 20.9916 68.9414 20.66C70.5109 18.5558 70.6769 15.6816 69.0244 13.5142C68.6766 13.0563 68.2654 12.6615 67.8147 12.3219C68.1073 12.1482 68.388 11.935 68.6489 11.6745C69.3644 10.9599 69.7874 9.97685 69.8823 8.96222C70.6137 8.01077 70.9774 6.74347 70.8074 5.61436C70.4753 3.39561 68.7517 2.00593 66.5418 1.85196C65.6681 1.78879 64.8577 1.96645 64.1342 2.30992C63.478 2.49942 62.8415 2.73235 62.2287 3.00871C57.639 2.91001 53.0848 5.87097 52.1953 10.9757C51.7921 13.2773 52.0727 15.4487 52.8594 17.3595C52.8594 18.8676 53.7173 20.2218 54.9507 20.9877C55.1168 21.8128 55.4291 22.63 55.9232 23.4078C56.2869 23.9802 56.7297 24.4777 57.2278 24.8962C56.9155 25.3383 56.6546 25.82 56.4451 26.3174C56.4174 26.2977 56.3937 26.278 56.366 26.2582C54.4447 24.9633 51.5114 25.8713 50.4203 27.8137C49.8708 28.7928 49.4517 29.8351 49.1433 30.9089C46.0005 31.28 43.3281 34.1383 41.1933 36.3215C38.762 38.8088 36.3861 41.5921 34.8838 44.7544C32.3023 50.1947 32.3261 56.7009 35.6073 61.5845C35.9631 62.4412 36.5442 63.1676 37.3032 63.6572C37.5207 63.8783 37.75 64.0954 37.9832 64.3047C38.0425 64.7508 38.1058 65.1929 38.1888 65.6391C38.4695 67.1472 39.8887 68.3118 41.3712 68.6908C41.3712 68.6908 41.3672 68.6908 41.3633 68.6908C40.5094 68.3908 46.4274 58.4696 47.3248 57.4194C56.963 46.1283 71.8511 48.0233 79.9948 57.5023Z" fill="#E1D5CF"/>
<path d="M40.4853 84.8185C35.9113 84.8185 32.3652 80.4639 32.3652 76.7173L32.3652 71.9363C32.3652 67.783 34.4012 65.7656 38.5956 65.7656C39.1609 65.7656 39.6195 66.2236 39.6195 66.7881C39.6195 67.3527 39.1609 67.8107 38.5956 67.8107C35.1009 67.8107 34.417 69.3227 34.417 71.9323L34.417 76.7133C34.417 79.1216 36.8364 82.7655 40.4853 82.7655C41.0506 82.7655 41.5092 83.2235 41.5092 83.788C41.5092 84.3526 41.0506 84.8106 40.4853 84.8106L40.4853 84.8185Z" fill="black"/>
<path d="M87.7828 84.0369C87.2135 84.0369 86.751 83.575 86.751 83.0065C86.751 82.438 87.2135 81.9761 87.7828 81.9761C91.5384 81.9761 92.9023 78.6756 92.9023 76.4529L92.9023 71.8022C92.9023 69.2794 92.2184 67.8147 88.7316 67.8147C88.1623 67.8147 87.6998 67.3528 87.6998 66.7843C87.6998 66.2158 88.1623 65.7539 88.7316 65.7539C92.926 65.7539 94.9659 67.7318 94.9659 71.7982L94.9659 76.4489C94.9659 80.1245 92.4477 84.029 87.7867 84.029L87.7828 84.0369Z" fill="black"/>
<path d="M63.2842 109.347C62.2999 109.347 61.2878 109.288 60.2363 109.165C55.3539 108.557 50.8709 106.157 47.2655 102.233C41.2328 95.8727 39.691 87.4715 39.0269 80.8626C38.9676 80.2585 39.4064 79.7177 40.0152 79.6545C40.624 79.5953 41.1616 80.0335 41.2249 80.6415C41.8574 86.9029 43.2964 94.8423 48.8824 100.729C52.1399 104.278 56.1525 106.433 60.5051 106.974C76.5752 108.861 84.2802 93.9185 86.1264 79.3031C86.2015 78.6991 86.7549 78.2688 87.3598 78.3477C87.9646 78.4227 88.3916 78.9755 88.3165 79.5795C86.4545 94.3133 78.8997 109.343 63.2882 109.343L63.2842 109.347Z" fill="black"/>
<path d="M54.1043 73.2115L53.9343 73.2115C53.7722 73.2036 53.6181 73.2392 53.4797 73.3142C53.3334 73.3615 53.2069 73.4445 53.1002 73.559C52.9855 73.6655 52.9025 73.7919 52.8551 73.938C52.78 74.0801 52.7483 74.2301 52.7523 74.392C52.7681 74.4986 52.78 74.6012 52.7958 74.7078C52.8511 74.9091 52.9539 75.0829 53.1002 75.2289C53.1792 75.2921 53.2583 75.3513 53.3413 75.4145C53.5271 75.5211 53.7248 75.5764 53.9383 75.5764L54.1083 75.5764C54.2703 75.5842 54.4245 75.5487 54.5629 75.4737C54.7092 75.4263 54.8357 75.3434 54.9424 75.2289C55.057 75.1223 55.1401 74.996 55.1875 74.8499C55.2626 74.7078 55.2942 74.5578 55.2903 74.3959C55.2745 74.2933 55.2626 74.1867 55.2468 74.0801C55.1915 73.8787 55.0887 73.705 54.9424 73.559C54.8633 73.4958 54.7843 73.4366 54.7013 73.3734C54.5154 73.2668 54.3178 73.2115 54.1043 73.2115Z" fill="black"/>
<path d="M72.665 75.4024C74.187 75.4024 74.191 73.0415 72.665 73.0415C71.139 73.0415 71.139 75.4024 72.665 75.4024Z" fill="black"/>
<path d="M61.9521 73.377C62.8179 73.8074 63.4742 74.4588 63.5809 75.4181C63.6916 76.4485 63.3358 77.4987 62.9681 78.4462C62.561 79.4845 62.0431 80.4794 61.5608 81.4822C61.1575 82.3231 60.7108 83.2035 60.5606 84.1313C60.2799 85.9 61.371 87.5699 63.0195 88.1819C63.8774 88.5017 64.2451 87.1317 63.3951 86.8159C62.7626 86.5829 62.2684 86.0342 62.051 85.4065C61.8533 84.834 61.9008 84.4826 62.047 83.9852C62.3158 83.0614 62.7863 82.1968 63.2053 81.3322C64.1462 79.3977 65.348 77.1394 64.929 74.9128C64.6918 73.6534 63.7865 72.7059 62.6677 72.1532C61.8533 71.7505 61.1338 72.9704 61.9521 73.377Z" fill="black"/>
<path d="M56.6629 92.8878C58.5051 95.2408 61.7033 95.9159 64.5497 95.8409C67.2775 95.7699 70.1278 94.921 71.9542 92.7931C72.5472 92.1022 71.547 91.0955 70.9501 91.7903C69.3609 93.6419 66.9256 94.3644 64.5497 94.4236C62.0394 94.4868 59.2958 93.9656 57.6631 91.8851C57.4259 91.5811 56.9119 91.6403 56.6589 91.8851C56.3585 92.1812 56.4257 92.5878 56.6589 92.8878L56.6629 92.8878Z" fill="black"/>
<path d="M79.03 100.646C78.864 104.582 78.6979 108.518 78.5279 112.454C78.4568 114.172 78.1761 115.96 79.03 117.535C79.706 118.787 80.8959 119.624 81.9831 120.492C87.577 124.953 93.4872 128.968 99.7848 132.379C102.928 134.081 106.146 135.637 109.431 137.042C112.36 138.294 115.369 139.45 118.049 141.199C120.567 142.846 122.56 145.112 123.674 147.919C124.821 150.801 125.224 153.9 125.39 156.971C125.592 160.678 125.572 164.405 125.533 168.112C125.489 172.072 125.359 176.028 125.137 179.984C125.082 180.963 125.023 181.942 124.955 182.925C124.912 183.561 125.529 184.106 126.137 184.106C126.813 184.106 127.276 183.565 127.319 182.925C127.841 175.081 128.043 167.204 127.845 159.34C127.687 153.027 126.94 146.099 122.156 141.456C119.836 139.202 116.918 137.713 113.981 136.43C110.834 135.052 107.668 133.745 104.588 132.218C98.2153 129.051 92.1391 125.293 86.4582 121.013C85.1576 120.03 83.8728 119.024 82.6077 117.993C82.3666 117.796 82.1294 117.594 81.904 117.381C81.7933 117.279 81.6866 117.172 81.5878 117.061C81.5285 116.998 81.4731 116.935 81.4178 116.872C81.1608 116.572 81.4613 116.947 81.3348 116.765C81.2517 116.647 81.1727 116.524 81.1015 116.398C80.9869 116.193 81.0106 116.244 80.9592 116.106C80.8485 115.79 80.8011 115.53 80.7892 115.277C80.7497 114.31 80.8564 113.323 80.8959 112.355C80.9355 111.38 80.979 110.405 81.0185 109.426C81.1015 107.476 81.1845 105.522 81.2676 103.571C81.3071 102.596 81.3506 101.621 81.3901 100.642C81.4178 100.002 80.8287 99.4614 80.2081 99.4614C79.5439 99.4614 79.0537 100.002 79.026 100.642L79.03 100.646Z" fill="black"/>
<path d="M46.5465 101.514C46.7442 105.423 46.8272 109.339 46.7837 113.256C46.7718 114.235 46.76 115.214 46.7284 116.193C46.7284 116.28 46.7284 116.367 46.7205 116.453C46.7007 116.663 46.7402 116.303 46.7086 116.505C46.7007 116.564 46.677 116.623 46.6572 116.679C46.7125 116.525 46.6453 116.702 46.6335 116.73C46.4674 117.042 46.4002 117.105 46.1235 117.373C45.657 117.823 45.2656 118.064 44.728 118.471C44.0362 118.992 43.3681 119.549 42.6841 120.082C37.1772 124.373 31.2433 128.139 25.0446 131.353C21.9926 132.932 18.8656 134.346 15.699 135.684C12.7933 136.908 9.87184 138.175 7.35359 140.11C4.73256 142.123 2.87056 144.764 1.75178 147.867C0.676481 150.852 0.316732 154.062 0.154647 157.212C-0.0351108 160.904 -0.0153443 164.619 0.0281419 168.314C0.0716281 172.207 0.20604 176.099 0.423471 179.988C0.478817 180.967 0.538116 181.946 0.605322 182.929C0.648808 183.565 1.11925 184.11 1.78736 184.11C2.39616 184.11 3.01288 183.569 2.96939 182.929C2.45151 175.136 2.25384 167.311 2.43965 159.502C2.58197 153.545 3.16705 146.94 7.89519 142.707C10.1841 140.658 13.07 139.356 15.869 138.159C19.0197 136.809 22.1587 135.463 25.2185 133.915C31.4924 130.745 37.4777 126.998 43.0716 122.743C44.388 121.74 45.5977 120.776 46.8035 119.861C47.4202 119.395 47.9974 118.917 48.448 118.281C48.9185 117.618 49.0806 116.892 49.1003 116.094C49.2031 112.213 49.1834 108.329 49.045 104.448C49.0094 103.469 48.9659 102.494 48.9185 101.514C48.8869 100.879 48.3967 100.334 47.7365 100.334C47.1197 100.334 46.5228 100.875 46.5544 101.514L46.5465 101.514Z" fill="black"/>
<path d="M39.1575 63.2189C36.9752 61.2962 35.3188 58.9669 34.7693 56.1007C34.5084 54.7466 34.5795 53.2385 34.7219 51.8211C34.8523 50.5104 35.129 49.1049 35.4967 47.7587C36.991 42.2789 40.1972 37.3164 44.53 33.6092C46.8901 31.5879 49.7127 29.9258 52.6382 28.9112C53.2391 28.7019 53.6423 28.1018 53.4644 27.4583C53.3023 26.874 52.6145 26.4239 52.0096 26.6332C46.0836 28.698 41.059 32.7802 37.5129 37.9204C35.7616 40.4629 34.3898 43.2857 33.4766 46.2348C33.0299 47.6797 32.7057 49.1563 32.5001 50.6565C32.2787 52.2633 32.1285 53.9136 32.3143 55.5322C32.7413 59.2591 34.6981 62.4372 37.4892 64.8928C37.9675 65.3152 38.691 65.3626 39.1614 64.8928C39.5923 64.4625 39.6437 63.6453 39.1614 63.2228L39.1575 63.2189Z" fill="black"/>
<path d="M45.4035 50.3961C45.8582 45.2559 47.9574 40.1907 51.2623 36.2072C52.2467 35.0228 53.3299 33.9253 54.504 32.9264C54.9903 32.5119 54.931 31.6828 54.504 31.2565C54.0217 30.7748 53.318 30.8419 52.8318 31.2565C48.4911 34.9596 45.3403 40.0367 43.8776 45.5402C43.4546 47.1272 43.1858 48.7538 43.0395 50.3922C42.9841 51.0278 43.6246 51.5726 44.2215 51.5726C44.9094 51.5726 45.3482 51.0278 45.4035 50.3922L45.4035 50.3961Z" fill="black"/>
<path d="M58.7736 34.2094C57.4176 37.2928 56.6467 40.5577 56.5241 43.9253C56.5004 44.5649 57.0855 45.1058 57.7062 45.1058C58.3664 45.1058 58.8645 44.5649 58.8882 43.9253C58.991 40.9999 59.6354 38.0823 60.8135 35.4017C61.0704 34.8174 60.9834 34.1344 60.3905 33.787C59.8884 33.4948 59.0305 33.6251 58.7736 34.2094Z" fill="black"/>
<path d="M83.1301 50.8975C82.6202 45.1216 80.3549 39.6419 76.6784 35.161C75.6703 33.9292 74.5515 32.7961 73.3378 31.7618C72.8516 31.3472 72.1439 31.2841 71.6656 31.7618C71.2426 32.1842 71.1793 33.0172 71.6656 33.4318C75.6742 36.8546 78.5878 41.4382 79.9715 46.5232C80.3628 47.9602 80.6356 49.421 80.7661 50.8975C80.8214 51.5331 81.2681 52.0779 81.9481 52.0779C82.5451 52.0779 83.1855 51.5371 83.1301 50.8975Z" fill="black"/>
<path d="M65.0553 35.3033C66.2334 37.988 66.8738 40.9055 66.9806 43.827C67.0043 44.4626 67.5064 45.0074 68.1626 45.0074C68.8188 45.0074 69.3684 44.4665 69.3446 43.827C69.226 40.4594 68.4512 37.1944 67.0952 34.1111C66.8382 33.5268 65.9843 33.3925 65.4783 33.6886C64.8735 34.04 64.7984 34.719 65.0553 35.3033Z" fill="black"/>
<path d="M60.0267 25.1843C57.3345 23.3801 55.0258 21.0034 53.654 18.0425C52.298 15.121 52.1399 11.4415 53.6975 8.56737C55.006 6.15122 57.3582 4.42597 59.8963 3.47451C60.5841 3.21789 61.2878 3.0047 61.9994 2.83494C62.707 2.66913 63.4305 2.53885 64.063 2.47568C64.826 2.39672 65.6048 2.3454 66.3678 2.38882C66.688 2.40856 67.0161 2.45594 67.3087 2.58622C67.534 2.68492 67.8028 2.9218 67.9056 3.05603C68.38 3.68375 68.5421 4.42202 68.7002 5.22346C68.7358 5.40506 68.7714 5.58667 68.803 5.77222C68.8149 5.85118 68.8307 5.92619 68.8425 6.00515C68.8742 6.21044 68.8425 5.98541 68.8584 6.11174C68.9018 6.48285 68.9256 6.85791 68.9295 7.23296C68.9295 7.42247 68.9295 7.60802 68.9137 7.79357C68.9137 7.85674 68.8663 8.27128 68.8939 8.08967C68.8465 8.43314 68.7635 8.78056 68.633 9.10429C68.7121 8.91084 68.5144 9.30959 68.4868 9.35696C68.4591 9.40434 68.4314 9.44777 68.3998 9.49119C68.5381 9.29774 68.3405 9.54647 68.3168 9.57015C68.2812 9.60568 68.2417 9.64122 68.2021 9.67675C68.1151 9.75176 68.3326 9.62148 68.1468 9.70438C68.0835 9.73202 68.0242 9.77545 67.957 9.80308C68.1468 9.72018 67.8661 9.81887 67.8147 9.83072C66.348 10.2295 66.9687 12.5074 68.4433 12.1087C71.9301 11.1612 71.5387 6.45917 70.7876 3.76666C70.5385 2.87047 70.1471 2.00192 69.5107 1.31498C68.7753 0.517493 67.7593 0.166125 66.7038 0.0555825C64.9565 -0.129971 63.0668 0.154281 61.3669 0.556973C58.0896 1.33472 54.8756 3.0205 52.7724 5.70116C50.2502 8.91479 49.6651 13.1549 50.7879 17.0436C52.0253 21.343 55.18 24.7698 58.8328 27.2175C59.3626 27.5728 60.1414 27.3202 60.4497 26.7951C60.7897 26.2147 60.5565 25.5357 60.0267 25.1804L60.0267 25.1843Z" fill="black"/>
<path d="M59.6912 16.3053C59.5765 16.1158 59.4698 15.9224 59.3749 15.725C59.3156 15.6026 59.2603 15.4525 59.3433 15.6697C59.2998 15.5591 59.2563 15.4525 59.2207 15.3381C59.1614 15.1643 59.114 14.9867 59.0745 14.8051C59.0626 14.7498 59.0191 14.4814 59.0507 14.6866C59.0784 14.8959 59.0428 14.5682 59.0389 14.509C59.031 14.3471 59.0468 14.1892 59.0507 14.0273C59.0586 13.7786 58.9835 14.2484 59.0468 14.0668C59.0745 13.9839 59.0824 13.8852 59.1061 13.8023C59.1258 13.7352 59.1456 13.6681 59.1693 13.601C59.2128 13.4667 59.3393 13.3522 59.1614 13.6089C59.2484 13.4825 59.3038 13.3246 59.3868 13.1943C59.4223 13.139 59.4737 13.0838 59.5054 13.0246C59.4935 13.0443 59.3314 13.218 59.5054 13.0285C59.6161 12.9101 59.7268 12.7916 59.8493 12.685C59.9046 12.6377 59.96 12.5942 60.0153 12.5469C59.8453 12.6969 59.8928 12.6337 60.0272 12.5469C60.1695 12.4521 60.3158 12.3613 60.47 12.2784C60.6083 12.2034 60.7507 12.1442 60.889 12.0731C60.5767 12.235 60.8297 12.1007 60.9246 12.0652C61.0116 12.0336 61.0985 12.002 61.1895 11.9744C61.5611 11.856 61.9366 11.7967 62.3162 11.7178C62.1066 11.7612 62.162 11.7336 62.3359 11.7178C62.4229 11.7099 62.5138 11.702 62.6008 11.6941C62.8064 11.6783 63.0119 11.6744 63.2175 11.6744C63.4152 11.6744 63.6128 11.6823 63.8065 11.698C63.9014 11.7059 63.9924 11.7138 64.0833 11.7217C64.4233 11.7533 63.9331 11.6901 64.2098 11.7375C64.6328 11.8125 65.0479 11.9033 65.459 12.0297C65.6606 12.0928 65.8583 12.1679 66.0599 12.2389C66.3406 12.3416 65.9413 12.1757 66.135 12.2665C66.2536 12.3218 66.3722 12.3731 66.4869 12.4324C66.898 12.6337 67.2894 12.8666 67.665 13.1312C67.7124 13.1667 67.9456 13.3364 67.8349 13.2535C67.7203 13.1667 68.001 13.3917 68.0366 13.4194C68.2263 13.5812 68.4082 13.747 68.5861 13.9247C68.7561 14.0945 68.9182 14.2682 69.0723 14.4498C69.104 14.4892 69.3056 14.734 69.2265 14.6314C69.1356 14.5129 69.2621 14.6788 69.2819 14.7064C69.3293 14.7735 69.3807 14.8406 69.4281 14.9077C69.7246 15.3341 69.9855 15.7842 70.2109 16.25C70.2425 16.3132 70.2741 16.3803 70.3018 16.4474C70.3018 16.4395 70.4244 16.7277 70.373 16.6093C70.3216 16.483 70.4085 16.7001 70.4164 16.7277C70.4481 16.8146 70.4837 16.9054 70.5153 16.9923C70.6299 17.312 70.7327 17.6397 70.8197 17.9713C70.9027 18.2911 71.0292 18.757 70.9185 19.0176C70.8039 19.286 70.4797 19.515 70.2148 19.6927C68.5228 20.8297 66.6648 21.7377 64.7435 22.4167C64.1426 22.6299 63.7393 23.2221 63.9172 23.8696C64.0793 24.4539 64.7672 24.9079 65.3721 24.6947C67.3882 23.9841 69.3332 23.0642 71.136 21.9114C71.974 21.3745 72.7805 20.7665 73.1403 19.8032C73.5119 18.8123 73.2391 17.7226 72.9268 16.7514C72.1559 14.3511 70.6655 12.2389 68.5228 10.869C66.7952 9.76749 64.6526 9.18714 62.6008 9.32927C60.8455 9.44771 58.9519 10.0399 57.7817 11.4256C56.2597 13.2259 56.5009 15.567 57.6592 17.4936C58.438 18.7965 60.4858 17.6121 59.703 16.3014L59.6912 16.3053Z" fill="black"/>
<path d="M46.752 119.161C54.8483 123.54 64.7197 124.353 73.4722 121.542C75.947 120.745 78.3387 119.663 80.5565 118.313C81.8532 117.523 80.6672 115.478 79.3626 116.271C72.053 120.733 62.9605 121.945 54.6941 119.777C52.3419 119.161 50.0846 118.277 47.9459 117.124C46.6057 116.402 45.4118 118.439 46.752 119.165L46.752 119.161Z" fill="black"/>
<path d="M89.8382 64.4944C92.2339 62.3823 94.1552 59.6463 94.8035 56.4801C95.44 53.3651 94.9696 49.9896 94.1631 46.9418C92.5818 40.9646 89.0752 35.4454 84.355 31.4461C81.6747 29.1721 78.6346 27.3876 75.3138 26.2308C74.709 26.0216 74.0211 26.4717 73.859 27.056C73.6811 27.7074 74.0804 28.2996 74.6852 28.5088C79.9431 30.3367 84.5566 34.0754 87.7271 38.6511C89.3599 41.008 90.6407 43.5505 91.5025 46.2549C92.3683 48.9829 92.9099 51.8175 92.6925 54.6798C92.4434 57.9171 90.6012 60.6807 88.1699 62.8244C87.6916 63.2469 87.739 64.0641 88.1699 64.4944C88.6443 64.9682 89.3599 64.9169 89.8422 64.4944L89.8382 64.4944Z" fill="black"/>
<path d="M88.17 92.9671C83.8253 92.9671 80.2871 89.4376 80.2871 85.0949C80.2871 80.7521 83.8214 77.2227 88.17 77.2227C88.6839 77.2227 89.099 77.6372 89.099 78.1504C89.099 78.6637 88.6839 79.0782 88.17 79.0782C84.8492 79.0782 82.1452 81.7786 82.1452 85.0949C82.1452 88.4112 84.8492 91.1116 88.17 91.1116C88.6839 91.1116 89.099 91.5261 89.099 92.0393C89.099 92.5526 88.6839 92.9671 88.17 92.9671Z" fill="#48596C"/>
<path d="M37.8372 93.5633C37.3233 93.5633 36.9082 93.1488 36.9082 92.6355C36.9082 92.1223 37.3233 91.7077 37.8372 91.7077C41.158 91.7077 43.862 89.0074 43.862 85.6911C43.862 82.3748 41.158 79.6744 37.8372 79.6744C37.3233 79.6744 36.9082 79.2599 36.9082 78.7466C36.9082 78.2334 37.3233 77.8188 37.8372 77.8188C42.1819 77.8188 45.7201 81.3483 45.7201 85.6911C45.7201 90.0338 42.1858 93.5633 37.8372 93.5633Z" fill="#48596C"/>
<path d="M73.4998 52.4529C75.3895 52.1647 77.4294 52.6266 79.0661 53.736C79.4891 54.0242 79.7856 54.3756 80.1216 54.7546C80.5011 55.1889 80.9004 55.6073 81.2799 56.0416C81.9204 56.7799 82.4027 57.5458 82.7308 58.4657C84.4149 63.2072 83.5214 68.2921 83.3673 73.1915C83.2921 75.5919 83.308 78.0909 84.1144 80.3808C84.8853 82.564 86.1543 84.5064 87.5577 86.3343C88.2021 87.1752 88.8781 87.9727 89.4039 88.8965C89.8783 89.7256 90.1867 90.4954 90.4239 91.4469C90.8311 93.0813 90.8073 94.8974 90.4357 96.5358C89.5423 100.472 86.9371 104.041 83.644 106.287C83.1182 106.647 82.881 107.326 83.221 107.902C83.5254 108.423 84.3081 108.688 84.8379 108.324C91.5071 103.776 95.9624 94.167 90.9022 86.8357C90.2381 85.8763 89.4672 84.9959 88.7872 84.0445C88.0835 83.0614 87.4312 82.035 86.9015 80.9453C85.846 78.7779 85.6878 76.4881 85.7155 74.1114C85.7788 68.8646 86.8106 63.4914 85.1937 58.367C84.7628 56.997 84.1737 55.8363 83.2566 54.7269C82.4382 53.7321 81.5685 52.6424 80.5328 51.8844C78.3268 50.2697 75.5437 49.7683 72.8792 50.1789C72.2467 50.2776 71.8988 51.0672 72.0529 51.6318C72.2387 52.3069 72.8752 52.5556 73.5078 52.4569L73.4998 52.4529Z" fill="black"/>
<path d="M52.2937 48.9116C48.8899 50.4868 46.0633 53.0293 44.1657 56.2666C42.3828 59.3105 41.4182 62.7689 40.7619 66.2115C40.078 69.8002 39.7064 73.4363 39.1213 77.0368C38.8406 78.7581 38.5125 80.4755 38.0618 82.1613C37.8444 82.9706 37.5993 83.776 37.3147 84.5656C37.1803 84.9367 37.0379 85.3038 36.8877 85.6631C36.9865 85.4223 36.8482 85.746 36.8403 85.7736C36.7968 85.8723 36.7533 85.9671 36.7098 86.0618C36.6228 86.2553 36.5319 86.4448 36.437 86.6343C35.3657 88.782 33.8042 90.6889 31.7919 92.0154C29.7797 93.3379 27.3959 94.0604 25.0713 93.6143C24.4467 93.4919 23.7944 93.7919 23.6165 94.4394C23.4584 95.0198 23.8142 95.7699 24.4428 95.8923C29.4555 96.8595 34.1876 94.0604 37.0933 90.1164C39.2636 87.1712 40.3034 83.4759 41.0031 79.9386C41.7068 76.3696 42.0784 72.7454 42.6477 69.1528C42.9323 67.3525 43.2683 65.5601 43.723 63.7954C43.9404 62.9545 44.1855 62.1214 44.4701 61.3003C44.6164 60.8778 44.7706 60.4594 44.9366 60.0448C44.9643 59.9777 44.992 59.9066 45.0196 59.8395C45.158 59.5 44.9287 60.0488 45.071 59.7132C45.1738 59.4763 45.2806 59.2434 45.3912 59.0105C45.7984 58.1537 46.2649 57.3207 46.7907 56.5311C46.9133 56.3495 47.0358 56.1679 47.1663 55.9903C47.2295 55.8995 47.2967 55.8126 47.3639 55.7258C47.447 55.6152 47.4509 55.6073 47.3797 55.7021C47.4232 55.6428 47.4707 55.5876 47.5181 55.5284C47.8186 55.1533 48.1388 54.794 48.4709 54.4466C49.9296 52.9306 51.4951 51.8726 53.4876 50.9487C54.0687 50.6803 54.211 49.8473 53.9106 49.334C53.5627 48.7418 52.8748 48.6431 52.2937 48.9116Z" fill="black"/>
</g>
<defs>
<clipPath id="clip0_268_2986">
<rect width="130" height="186" fill="white" transform="translate(0 0.000488281)"/>
</clipPath>
</defs>
</svg>
