<svg width="145" height="186" viewBox="0 0 145 186" fill="none" xmlns="http://www.w3.org/2000/svg">
<g clip-path="url(#clip0_268_2894)">
<path d="M131.804 129.637C130.875 129.494 129.964 129.253 129.089 128.895C123.358 126.569 117.927 123.406 112.77 120.012C110.548 118.549 108.372 117.019 106.199 115.481C104.714 114.425 103.264 113.24 101.707 112.282C99.3189 110.994 97.1107 109.666 95.2616 107.447C94.2922 106.284 93.5292 104.987 92.9771 103.614C92.3981 103.22 91.8192 102.836 91.2267 102.464C90.8542 102.227 90.4548 102.066 90.0463 101.955C90.1047 101.118 90.1675 100.286 90.2214 99.4498C90.4862 95.2811 91.128 90.9334 89.4269 87.1941C89.4045 86.6618 89.3551 86.134 89.2699 85.6241C90.4188 84.2912 91.4646 82.8733 92.4026 81.3794C93.8792 79.0266 95.0507 76.4279 95.9124 73.7889C96.3612 72.4157 96.828 70.8592 97.0659 69.2892C97.7481 68.8419 98.4078 68.3454 99.0451 67.8355C100.948 66.3013 102.986 65.1876 105.005 63.224C107.393 60.8981 108.964 57.4137 108.143 54.0635C107.564 51.7063 106.105 49.8769 104.139 48.8213C104.162 48.0251 104.162 47.2245 104.139 46.4328C107.254 41.9689 108.915 36.4315 108.345 30.9969C108.147 29.1407 107.945 27.0071 107.021 25.3387C106.078 23.648 104.426 22.5163 102.586 22.2703C102.685 21.0627 102.6 19.8952 102.295 18.862C101.945 16.4332 101.159 14.0313 99.3369 12.269C97.4788 10.4709 95.0955 9.57185 92.6091 9.73287C92.6001 9.72393 92.5956 9.71051 92.5911 9.70156C92.5552 9.13351 92.461 8.56545 92.3129 8.00634C90.3784 0.84527 82.0798 0.371146 75.8367 2.15135C75.545 2.13346 75.2488 2.12899 74.9525 2.13346C72.5828 2.18266 70.3028 2.97436 68.319 4.24913C67.1431 3.35008 65.5991 2.92963 64.1315 3.44848C49.7199 8.53414 43.046 23.308 38.9887 36.9324C37.6736 41.3427 38.9303 46.0884 43.6205 47.7478C43.7327 47.7881 43.8449 47.8194 43.9526 47.8552C43.975 48.1146 44.002 48.374 44.0379 48.629C42.9293 48.705 41.8297 49.0852 40.8557 49.7964C36.9555 52.6501 37.5704 58.7287 39.7337 62.4323C41.309 65.1339 44.0513 67.6342 47.1572 68.417C47.1706 68.4304 47.1841 68.4438 47.1976 68.4617C47.1572 68.7032 47.1347 68.9537 47.1392 69.2042C47.2379 75.9135 50.4291 81.0707 54.8993 85.2126C54.3158 91.9264 52.9828 98.5686 52.4218 105.291C48.948 106.781 45.8376 109.438 42.8889 111.616C37.9205 115.284 32.952 118.947 27.9836 122.615C27.3463 123.084 26.7987 123.639 26.3858 124.256C22.6875 125.536 19.0386 126.94 15.4257 128.443C15.3853 128.461 15.3404 128.474 15.2955 128.492C14.9005 128.658 14.5101 128.819 14.1151 128.984C11.889 129.928 11.2202 133.131 12.0954 135.121C12.9886 137.147 15.6052 138.901 17.9166 137.966C18.2083 137.849 18.5046 137.738 18.7963 137.626C45.8421 136.342 72.9149 135.649 99.9877 135.555C103.053 135.68 106.114 135.81 109.179 135.935C112.344 136.065 115.503 136.194 118.668 136.329C120.247 136.396 121.832 136.458 123.412 136.525C125.391 136.606 127.846 137.08 129.628 136.007C132.074 134.535 132.648 131.869 131.831 129.637L131.804 129.637Z" fill="white"/>
<path d="M143.465 179.953C144.161 176.066 144.444 172.139 144.408 168.194C144.408 168.126 144.408 168.073 144.408 168.028C144.408 167.992 144.408 167.956 144.408 167.907C144.39 167.388 144.367 166.87 144.34 166.351C144.291 165.42 144.228 164.485 144.156 163.555C144.022 161.802 143.847 160.053 143.654 158.304C142.855 151.027 141.89 143.803 141.755 136.481C139.448 133.882 136.589 131.901 133.569 130.143C129.826 127.96 126.038 125.849 122.268 123.706C113.574 118.759 104.925 113.718 96.1776 108.865C93.9425 107.626 91.6266 106.615 89.0459 106.428C86.555 106.244 84.0281 106.951 81.609 107.474C77.0131 108.472 72.4127 109.465 67.8168 110.462C63.8761 109.791 60.0342 108.668 56.3629 107.049C53.8046 105.922 51.2374 106.396 49.6127 108.812C49.4511 109.049 48.4592 110.346 48.8272 109.916C48.4502 110.364 48.0732 110.811 47.6738 111.236C46.7716 112.198 45.8022 113.092 44.7834 113.929C44.7026 113.996 44.6173 114.058 44.5365 114.125C44.5051 114.143 43.9845 114.541 43.8857 114.613C43.4504 114.926 43.0105 115.23 42.5617 115.525C41.3723 116.313 40.1516 117.042 38.9038 117.731C34.0925 120.396 28.9894 122.467 24.021 124.811C23.4914 125.062 22.9663 125.317 22.4412 125.571C21.925 125.54 21.3774 125.594 20.803 125.755C13.1057 127.888 6.54398 132.831 2.28468 139.554C1.26587 141.159 1.46783 143.239 2.48665 144.774C1.84933 146.5 1.38256 148.294 1.0998 150.128C-0.28256 159.248 1.975 168.31 1.30177 177.443C1.10878 180.082 3.71642 182.381 6.23429 182.359C42.4405 182.059 78.6513 182.95 114.799 185.052C119.305 185.316 123.807 185.597 128.309 185.893C132.002 186.134 135.956 186.103 139.291 184.269C141.163 183.24 142.491 181.845 143.434 180.217C143.443 180.127 143.447 180.038 143.465 179.948L143.465 179.953Z" fill="#E5B7AD"/>
<path d="M109.023 38.9048C109.05 34.8927 108.139 31.0326 105.949 27.4319C105.491 26.676 104.903 26.0587 104.239 25.5801C103.435 24.207 102.425 22.9769 101.115 22.0466C100.904 18.7053 99.7326 15.3238 98.1078 12.6893C95.8997 9.11101 91.8558 6.74039 87.8119 6.65987C87.1163 5.89054 86.3353 5.17488 85.4511 4.5442C83.4584 3.11288 81.2053 2.37039 78.9657 2.27198C73.7504 1.05984 68.0729 1.88732 64.1816 5.35827C62.2337 5.29565 60.2724 5.54166 58.3604 6.1768C54.1191 7.59023 50.524 10.2516 47.8042 13.7628C43.6436 19.1302 42.1177 25.4638 41.431 31.9853C41.0674 32.9156 40.7218 33.8594 40.3897 34.8032C38.9849 36.0288 37.6564 37.3348 36.4311 38.7259C34.1466 41.3247 33.6709 45.5515 36.4311 48.0742C37.8 49.3266 39.7479 50.0333 41.6329 49.9662C42.3466 51.5452 43.5135 52.9228 45.1023 53.9426C47.113 55.2398 49.6578 53.5222 49.7072 51.3081C49.7521 49.3982 49.797 47.4927 49.8418 45.5828C49.8688 44.5228 49.4379 43.7534 48.8006 43.2659C49.6174 42.5144 50.4747 41.7988 51.3678 41.1323C51.6999 38.954 52.5617 36.8294 54.0338 35.2013C58.3335 30.4556 61.2059 35.908 65.3934 33.9042C68.9929 32.1776 69.8143 33.7789 73.2163 33.7431C74.7603 33.7252 76.3042 33.8057 77.8257 34.007C79.0016 33.108 80.3346 32.6025 82.0042 32.7904C83.6379 32.9738 85.5948 34.016 86.461 35.5502C89.9348 34.0205 93.7633 36.2748 94.7148 40.0588C94.7597 40.2333 94.7956 40.4077 94.836 40.5822C94.5801 41.0026 94.4275 41.5215 94.423 42.1387C94.4096 44.3752 94.3961 46.6161 94.3826 48.8525C94.3737 50.3554 95.5541 51.6749 97.0352 51.8493C98.3906 52.0103 100.172 51.1829 100.392 49.6621C100.522 48.7675 100.783 48.11 101.357 47.5911C102.542 47.7074 103.808 47.5375 104.957 47.0812C105.275 45.8065 106.012 44.818 106.972 43.8652C107.354 43.4851 107.735 43.1004 108.112 42.7157C108.368 42.4295 108.615 42.1432 108.857 41.848C108.983 40.8595 109.032 39.8799 109.014 38.9048L109.023 38.9048Z" fill="#E1D5CF"/>
<path d="M67.5245 30.9252C65.1547 29.6281 64.3693 26.7252 64.688 24.113C64.8944 22.4402 65.4958 20.8031 66.1825 19.2734C66.8378 17.8108 67.538 16.3481 68.3728 14.9794C69.2255 13.5794 70.2578 12.2868 71.6716 11.419C73.1392 10.5155 71.7928 8.20302 70.3162 9.10654C67.1565 11.0478 65.4285 14.4785 63.9474 17.7347C62.3855 21.1609 61.1603 25.0881 62.5292 28.7917C63.2114 30.6434 64.4097 32.2716 66.1646 33.2332C67.6816 34.0607 69.037 31.7527 67.52 30.9207L67.5245 30.9252Z" fill="black"/>
<path d="M75.3163 29.9278C74.7688 28.7783 75.0515 27.4409 75.4599 26.2958C75.9357 24.9674 76.7256 23.7418 77.5066 22.5789C79.1223 20.1814 81.0926 18.0389 83.3008 16.1737C83.8529 15.7041 83.7855 14.7647 83.3008 14.2817C82.7533 13.736 81.9588 13.812 81.4023 14.2817C78.8755 16.4197 76.6718 18.9335 74.872 21.7066C73.0453 24.529 71.4295 27.9821 72.9959 31.2786C73.3056 31.9316 74.2436 32.1016 74.8316 31.7572C75.5003 31.3681 75.626 30.5808 75.3118 29.9278L75.3163 29.9278Z" fill="black"/>
<path d="M83.9024 32.0973C83.8216 31.7886 83.8485 31.8647 83.8395 31.5605C83.8261 31.1714 83.8126 31.6231 83.8485 31.4084C83.8709 31.2877 83.9024 31.1669 83.9383 31.0506C84.0505 30.6883 84.2883 30.2678 84.5935 29.8877C85.1815 29.1541 86.0028 28.519 86.8062 27.9777C88.7002 26.694 90.7558 25.6608 92.9236 24.9272C93.6103 24.6946 94.0636 24.0058 93.8617 23.2812C93.6776 22.6148 92.9012 22.1138 92.21 22.3464C89.6024 23.2275 87.1114 24.4621 84.8718 26.0723C82.722 27.6154 80.5766 29.9547 81.3082 32.8129C81.4877 33.5152 82.2687 33.9356 82.9598 33.7477C83.6735 33.5509 84.0774 32.804 83.8979 32.1017L83.9024 32.0973Z" fill="black"/>
<path d="M41.332 45.1315C40.7171 44.9705 40.2369 44.7021 39.815 44.2951C39.3213 43.821 39.025 43.3737 38.7154 42.6446C38.7872 42.8101 38.6346 42.4165 38.6166 42.3673C38.5538 42.1884 38.4999 42.005 38.4506 41.8171C38.4057 41.6561 38.3698 41.4906 38.3339 41.3251C38.3159 41.2312 38.298 41.1373 38.28 41.0389C38.2037 40.5826 38.289 41.1507 38.2576 40.8913C38.2172 40.5289 38.2037 40.1666 38.2082 39.8043C38.2082 39.612 38.2217 39.4197 38.2396 39.2273C38.2486 39.1334 38.2576 39.035 38.271 38.9411C38.2486 39.12 38.2845 38.865 38.298 38.8024C38.666 36.9104 39.5277 35.2062 40.4568 33.5334C41.4487 31.7576 42.4495 29.9998 43.2574 28.1301C44.7699 24.6279 45.8336 20.9243 47.5661 17.5205C49.321 14.0719 51.8254 11.0795 55.0254 8.86995C58.4589 6.49485 62.4938 4.98302 66.6678 4.63414C67.3904 4.57599 68.0098 4.06161 68.0098 3.29675C68.0098 2.62134 67.3949 1.89674 66.6678 1.95936C58.1178 2.66607 50.1782 7.4923 45.9054 14.9575C43.8364 18.5716 42.6874 22.5927 41.0941 26.417C40.2817 28.3627 39.2629 30.1877 38.2306 32.026C37.1759 33.9091 36.1347 35.8951 35.7173 38.0286C34.9812 41.8171 36.4937 46.6299 40.6139 47.7169C42.2835 48.1597 42.9971 45.5788 41.3275 45.136L41.332 45.1315Z" fill="black"/>
<path d="M74.6965 3.36789C79.1623 1.86947 84.3192 2.84903 87.8469 6.0695C88.381 6.55704 89.2158 6.5973 89.7454 6.0695C90.2436 5.57301 90.284 4.66949 89.7454 4.17748C85.5669 0.362114 79.3777 -1.02448 73.9829 0.787037C73.2962 1.01963 72.8474 1.70845 73.0449 2.43305C73.2289 3.09951 74.0053 3.60047 74.6965 3.36789Z" fill="black"/>
<path d="M93.0579 10.8558C93.2689 10.9228 93.4708 10.9944 93.6773 11.0705C94.0184 11.1957 93.4304 10.9542 93.7626 11.1018C93.8613 11.1465 93.96 11.1912 94.0588 11.2404C94.4178 11.4149 94.7679 11.6117 95.1045 11.8308C95.2885 11.9516 95.4681 12.0769 95.6431 12.2066C95.9348 12.4213 95.4367 12.0321 95.7149 12.2647C95.8002 12.3363 95.8855 12.4034 95.9663 12.4749C96.2849 12.7478 96.5811 13.043 96.8639 13.3561C96.9986 13.5037 97.1287 13.6602 97.2544 13.8123C97.4833 14.0941 97.0973 13.5932 97.3127 13.8884C97.3756 13.9778 97.4429 14.0673 97.5012 14.1567C97.7391 14.5011 97.9545 14.859 98.1475 15.2302C98.2418 15.4091 98.3226 15.5881 98.4078 15.7714C98.538 16.0532 98.3405 15.5881 98.4393 15.852C98.4752 15.9548 98.5156 16.0577 98.5515 16.1606C98.6951 16.5721 98.8118 16.9925 98.8971 17.4219C99.0407 18.1108 99.8889 18.567 100.549 18.3568C101.28 18.1197 101.639 17.4488 101.487 16.7107C100.674 12.7701 97.591 9.48258 93.767 8.27491C93.0983 8.06468 92.2725 8.52539 92.1154 9.20974C91.9493 9.93882 92.3353 10.6276 93.0534 10.8558L93.0579 10.8558Z" fill="black"/>
<path d="M101.716 22.6284C104.194 24.5875 106.007 27.0834 106.806 30.0534C107.555 32.8489 107.371 35.7607 106.501 38.5742C105.98 40.256 105.258 41.7499 104.297 43.2752C103.377 44.7378 105.697 46.0841 106.617 44.626C110.248 38.8515 111.317 31.2968 107.659 25.2674C106.604 23.5274 105.213 21.9977 103.619 20.7364C103.054 20.2891 102.273 20.1862 101.721 20.7364C101.254 21.2015 101.151 22.1766 101.721 22.6284L101.716 22.6284Z" fill="black"/>
<path d="M53.118 103.502C48.0015 107.868 42.5393 111.826 36.8034 115.347C31.0496 118.876 25.0264 121.944 18.8058 124.565C13.1148 126.963 7.17239 129.476 3.79278 134.947C0.498451 140.283 0.161837 146.854 0.0496321 152.946C-0.0895018 160.509 0.0586086 168.073 0.489475 175.623C0.543333 176.585 0.606168 177.546 0.669002 178.508C0.718373 179.228 1.25247 179.845 2.01097 179.845C2.70215 179.845 3.40231 179.233 3.35294 178.508C2.85026 170.998 2.62585 163.47 2.69318 155.947C2.74255 150.002 2.572 143.472 5.19759 137.975C6.44082 135.372 8.3079 133.216 10.6866 131.579C13.2045 129.848 16.0276 128.618 18.8327 127.432C24.9232 124.86 30.8566 122.007 36.5431 118.63C42.3553 115.177 47.8937 111.272 53.1135 106.982C53.7508 106.459 54.3837 105.927 55.012 105.39C55.5641 104.92 55.4967 103.981 55.012 103.498C54.4645 102.952 53.6656 103.028 53.1135 103.498L53.118 103.502Z" fill="black"/>
<path d="M89.9882 105.394C95.1272 109.778 100.594 113.786 106.339 117.346C112.012 120.862 117.954 123.948 124.098 126.56C129.426 128.828 135.49 130.966 138.752 136.078C141.961 141.106 142.168 147.395 142.271 153.169C142.406 160.693 142.253 168.225 141.818 175.735C141.764 176.661 141.706 177.587 141.643 178.508C141.593 179.228 142.294 179.845 142.985 179.845C143.752 179.845 144.277 179.233 144.327 178.508C144.834 170.927 145.058 163.323 144.987 155.723C144.928 149.394 144.933 142.725 142.231 136.857C140.92 134.007 138.887 131.655 136.387 129.781C133.923 127.933 131.096 126.641 128.277 125.437C125.27 124.154 122.267 122.883 119.328 121.452C116.267 119.958 113.264 118.348 110.329 116.621C104.557 113.226 99.0409 109.398 93.866 105.153C93.2018 104.607 92.542 104.057 91.8912 103.498C91.3392 103.028 90.5313 102.961 89.9927 103.498C89.508 103.981 89.4407 104.916 89.9927 105.39L89.9882 105.394Z" fill="black"/>
<path d="M53.7503 106.02C62.9421 110.981 74.1491 111.902 84.086 108.717C86.8956 107.814 89.611 106.588 92.1288 105.054C93.601 104.16 92.2545 101.843 90.7734 102.742C82.4747 107.796 72.1519 109.169 62.7671 106.714C60.0966 106.016 57.5339 105.014 55.1058 103.708C53.5843 102.889 52.2288 105.197 53.7503 106.02Z" fill="black"/>
<path d="M46.0986 68.6095C40.9058 68.6095 36.8799 63.6759 36.8799 59.4312L36.8799 54.0145C36.8799 49.3091 39.1913 47.0234 43.9533 47.0234C44.5951 47.0234 45.1157 47.5423 45.1157 48.1819C45.1157 48.8215 44.5951 49.3404 43.9533 49.3404C39.9857 49.3404 39.2093 51.0535 39.2093 54.0101L39.2093 59.4267C39.2093 62.1552 41.956 66.2836 46.0986 66.2836C46.7404 66.2836 47.2611 66.8025 47.2611 67.4421C47.2611 68.0817 46.7404 68.6006 46.0986 68.6006L46.0986 68.6095Z" fill="black"/>
<path d="M99.7945 67.7236C99.1482 67.7236 98.623 67.2003 98.623 66.5562C98.623 65.9121 99.1482 65.3888 99.7945 65.3888C104.058 65.3888 105.607 61.6495 105.607 59.1313L105.607 53.8622C105.607 51.004 104.83 49.3446 100.872 49.3446C100.225 49.3446 99.7002 48.8213 99.7002 48.1772C99.7002 47.5331 100.225 47.0098 100.872 47.0098C105.634 47.0098 107.95 49.2507 107.95 53.8577L107.95 59.1268C107.95 63.291 105.091 67.7147 99.799 67.7147L99.7945 67.7236Z" fill="black"/>
<path d="M71.672 96.5067C70.5859 96.5067 69.5132 96.4307 68.4719 96.2831C60.3573 94.9367 53.0236 89.368 48.8271 81.3884C45.7752 75.6855 44.2671 69.7634 44.4691 64.2707C44.496 63.5819 45.084 63.0496 45.7662 63.0675C46.4574 63.0943 46.9959 63.6713 46.9735 64.3602C46.7895 69.4145 48.1943 74.9027 51.0398 80.221C54.8772 87.5207 61.5332 92.6019 68.8489 93.814C73.8982 94.5342 78.6646 93.1476 81.7705 91.8594C93.8975 86.3667 96.9361 72.1608 97.6631 64.1857C97.726 63.4969 98.3364 62.9915 99.0231 63.0541C99.7142 63.1167 100.221 63.725 100.159 64.4094C99.3821 72.9257 96.0878 88.1156 82.7668 94.1495C79.0102 95.7105 75.2312 96.5067 71.663 96.5067L71.672 96.5067Z" fill="black"/>
<path d="M61.5597 55.4592L61.3668 55.4592C61.1827 55.4503 61.0077 55.4905 60.8506 55.5755C60.6845 55.6292 60.5409 55.7231 60.4197 55.8528C60.2896 55.9736 60.1953 56.1167 60.1415 56.2822C60.0562 56.4433 60.0203 56.6132 60.0248 56.7966C60.0427 56.9174 60.0562 57.0337 60.0742 57.1545C60.137 57.3826 60.2537 57.5794 60.4197 57.7449L60.6935 57.9551C60.9045 58.0759 61.1289 58.1385 61.3712 58.1385L61.5642 58.1385C61.7482 58.1474 61.9233 58.1072 62.0804 58.0222C62.2464 57.9685 62.3901 57.8746 62.5112 57.7449C62.6414 57.6241 62.7356 57.481 62.7895 57.3155C62.8748 57.1545 62.9107 56.9845 62.9062 56.8011C62.8883 56.6803 62.8748 56.564 62.8568 56.4433C62.794 56.2151 62.6773 56.0183 62.5112 55.8528C62.4215 55.7813 62.3317 55.7142 62.2375 55.6426C62.0265 55.5219 61.8021 55.4592 61.5597 55.4592Z" fill="black"/>
<path d="M82.6323 57.9414C84.3603 57.9414 84.3648 55.2666 82.6323 55.2666C80.8999 55.2666 80.8999 57.9414 82.6323 57.9414Z" fill="black"/>
<path d="M70.4686 55.6471C71.4516 56.1347 72.1966 56.8727 72.3178 57.9596C72.4435 59.127 72.0395 60.3168 71.6221 61.3903C71.1598 62.5667 70.5719 63.6938 70.0243 64.8299C69.5665 65.7827 69.0594 66.7801 68.8888 67.8312C68.5701 69.8351 69.8089 71.7271 71.6805 72.4204C72.6544 72.7827 73.0718 71.2306 72.1068 70.8728C71.3887 70.6089 70.8277 69.9872 70.5808 69.276C70.3564 68.6274 70.4103 68.2293 70.5764 67.6657C70.8816 66.6191 71.4157 65.6395 71.8914 64.66C72.9596 62.4683 74.324 59.9098 73.8483 57.3871C73.579 55.9602 72.5512 54.8867 71.281 54.2605C70.3564 53.8043 69.5396 55.1864 70.4686 55.6471Z" fill="black"/>
<path d="M64.4592 77.7518C66.5507 80.4177 70.1816 81.1825 73.4131 81.0975C76.51 81.017 79.7459 80.0554 81.8195 77.6445C82.4927 76.8662 81.3572 75.7211 80.6795 76.5084C78.8752 78.6062 76.1105 79.4247 73.4131 79.4918C70.5631 79.5633 67.4483 78.9729 65.5947 76.6157C65.3254 76.2713 64.7419 76.3384 64.4547 76.6157C64.1136 76.9512 64.1899 77.4119 64.4547 77.7518L64.4592 77.7518Z" fill="black"/>
<path d="M53.9794 85.897C54.6347 85.897 55.1688 86.4292 55.1688 87.0823L55.1688 104.374C55.1688 105.027 54.6347 105.56 53.9794 105.56C53.3241 105.56 52.79 105.027 52.79 104.374L52.79 87.0823C52.79 86.4292 53.3241 85.897 53.9794 85.897Z" fill="black"/>
<path d="M90.7289 105.242C90.7289 105.242 90.7064 105.242 90.6975 105.242C90.0422 105.224 89.5216 104.679 89.5395 104.026C89.6921 98.43 89.6921 92.6869 89.5395 86.9571C89.5216 86.3041 90.0422 85.7584 90.6975 85.7405C91.3662 85.7271 91.9003 86.2415 91.9183 86.8945C92.0753 92.669 92.0753 98.4569 91.9183 104.093C91.9003 104.737 91.3707 105.247 90.7289 105.247L90.7289 105.242Z" fill="black"/>
<path d="M72.8161 120.477C74.8363 120.477 76.474 118.845 76.474 116.831C76.474 114.818 74.8363 113.186 72.8161 113.186C70.7959 113.186 69.1582 114.818 69.1582 116.831C69.1582 118.845 70.7959 120.477 72.8161 120.477Z" fill="white"/>
<path d="M72.8163 121.492C70.2356 121.492 68.1396 119.399 68.1396 116.832C68.1396 114.264 70.2401 112.171 72.8163 112.171C75.3926 112.171 77.493 114.264 77.493 116.832C77.493 119.399 75.3926 121.492 72.8163 121.492ZM72.8163 114.206C71.3622 114.206 70.1818 115.387 70.1818 116.832C70.1818 118.276 71.3667 119.457 72.8163 119.457C74.266 119.457 75.4509 118.276 75.4509 116.832C75.4509 115.387 74.266 114.206 72.8163 114.206Z" fill="black"/>
<path d="M76.381 139.038C76.8467 137.079 75.6307 135.114 73.665 134.65C71.6992 134.186 69.7281 135.398 69.2623 137.357C68.7965 139.316 70.0125 141.28 71.9783 141.744C73.944 142.208 75.9152 140.997 76.381 139.038Z" fill="white"/>
<path d="M72.8163 142.859C70.2356 142.859 68.1396 140.766 68.1396 138.198C68.1396 135.631 70.2401 133.538 72.8163 133.538C75.3926 133.538 77.493 135.631 77.493 138.198C77.493 140.766 75.3926 142.859 72.8163 142.859ZM72.8163 135.568C71.3622 135.568 70.1818 136.749 70.1818 138.194C70.1818 139.639 71.3667 140.819 72.8163 140.819C74.266 140.819 75.4509 139.639 75.4509 138.194C75.4509 136.749 74.266 135.568 72.8163 135.568Z" fill="black"/>
<path d="M72.8161 163.206C74.8363 163.206 76.474 161.574 76.474 159.561C76.474 157.548 74.8363 155.916 72.8161 155.916C70.7959 155.916 69.1582 157.548 69.1582 159.561C69.1582 161.574 70.7959 163.206 72.8161 163.206Z" fill="white"/>
<path d="M72.8163 164.221C70.2356 164.221 68.1396 162.128 68.1396 159.561C68.1396 156.993 70.2401 154.9 72.8163 154.9C75.3926 154.9 77.493 156.993 77.493 159.561C77.493 162.128 75.3926 164.221 72.8163 164.221ZM72.8163 156.935C71.3622 156.935 70.1818 158.116 70.1818 159.561C70.1818 161.005 71.3667 162.186 72.8163 162.186C74.266 162.186 75.4509 161.005 75.4509 159.561C75.4509 158.116 74.266 156.935 72.8163 156.935Z" fill="black"/>
<path d="M106.811 67.4203C107.327 65.232 105.966 63.041 103.77 62.5265C101.574 62.012 99.3758 63.3689 98.8595 65.5572C98.3433 67.7456 99.7049 69.9366 101.901 70.4511C104.096 70.9655 106.295 69.6086 106.811 67.4203Z" fill="#E5B7AD"/>
<path d="M102.837 71.5702C100.023 71.5702 97.7344 69.2891 97.7344 66.4846C97.7344 63.6801 100.023 61.3989 102.837 61.3989C105.652 61.3989 107.941 63.6801 107.941 66.4846C107.941 69.2891 105.652 71.5702 102.837 71.5702ZM102.837 63.4341C101.15 63.4341 99.7765 64.8028 99.7765 66.4846C99.7765 68.1664 101.15 69.5351 102.837 69.5351C104.525 69.5351 105.898 68.1664 105.898 66.4846C105.898 64.8028 104.525 63.4341 102.837 63.4341Z" fill="black"/>
<path d="M46.5656 69.497C48.2343 67.9844 48.3565 65.4101 46.8387 63.7472C45.3209 62.0842 42.7378 61.9624 41.0692 63.475C39.4005 64.9876 39.2783 67.5619 40.7961 69.2249C42.3139 70.8878 44.897 71.0097 46.5656 69.497Z" fill="#E5B7AD"/>
<path d="M43.8179 71.5702C41.0038 71.5702 38.7148 69.2891 38.7148 66.4846C38.7148 63.6801 41.0038 61.3989 43.8179 61.3989C46.632 61.3989 48.921 63.6801 48.921 66.4846C48.921 69.2891 46.632 71.5702 43.8179 71.5702ZM43.8179 63.4341C42.1304 63.4341 40.757 64.8028 40.757 66.4846C40.757 68.1664 42.1304 69.5351 43.8179 69.5351C45.5055 69.5351 46.8789 68.1664 46.8789 66.4846C46.8789 64.8028 45.5055 63.4341 43.8179 63.4341Z" fill="black"/>
<path d="M48.7549 34.3113C51.2548 42.9529 47.6598 51.7958 43.6922 59.3907C41.5693 63.4566 39.2579 67.433 37.3773 71.624C35.5237 75.757 33.9708 80.2433 34.258 84.8414C34.5318 89.2516 36.5201 93.6082 40.3171 96.0683C40.923 96.4619 41.7982 96.1891 42.1528 95.5897C42.5343 94.9411 42.2784 94.1539 41.6725 93.7603C38.7911 91.8951 37.2247 88.4018 36.9644 85.0963C36.6233 80.789 38.0685 76.5666 39.8279 72.6975C43.5306 64.5524 48.8402 57.0827 51.1426 48.3472C52.4083 43.5433 52.7449 38.4219 51.3491 33.6091C50.8688 31.9586 48.2791 32.6608 48.7594 34.3203L48.7549 34.3113Z" fill="black"/>
<path d="M95.1588 36.6954C94.7863 42.3401 95.0959 47.9894 96.6848 53.4463C97.5106 56.2866 98.7224 58.9524 99.813 61.6898C100.814 64.2036 101.631 66.847 101.676 69.5352C101.725 72.6841 100.598 75.5691 98.8122 78.1768C98.4037 78.7717 98.7 79.6618 99.2924 80.0062C99.9567 80.3954 100.72 80.1225 101.128 79.5276C102.869 76.9915 104.032 74.1423 104.301 71.0649C104.548 68.2605 103.965 65.4202 103.062 62.7722C102.093 59.923 100.733 57.2303 99.7816 54.3722C98.9423 51.8539 98.296 49.1971 97.9863 46.5938C97.5959 43.3063 97.6228 39.9919 97.8382 36.6909C97.8876 35.9708 97.1874 35.3535 96.4963 35.3535C95.7288 35.3535 95.2037 35.9663 95.1543 36.6909L95.1588 36.6954Z" fill="black"/>
</g>
<defs>
<clipPath id="clip0_268_2894">
<rect width="145" height="186" fill="white"/>
</clipPath>
</defs>
</svg>
