<svg preserveAspectRatio="none" width="100%" height="100%" overflow="visible" style="display: block;" viewBox="0 0 100 100" fill="none" xmlns="http://www.w3.org/2000/svg">
<g id="arrow_left">
<g id="Ellipse 10" filter="url(#filter0_d_0_7)">
<circle cx="50" cy="40" r="30" fill="var(--fill-0, white)"/>
</g>
<g id="Rectangle 490">
<mask id="path-2-inside-1_0_7" fill="white">
<path d="M52 31.5156L60.4853 40.0009L52 48.4862L43.5147 40.0009L52 31.5156Z"/>
</mask>
<path d="M52 31.5156L60.4853 40.0009L52 48.4862L43.5147 40.0009L52 31.5156Z" fill="var(--fill-0, white)"/>
<path d="M43.5147 40.0009L42.8076 39.2938L42.1005 40.0009L42.8076 40.708L43.5147 40.0009ZM52 48.4862L52.7071 47.7791L44.2218 39.2938L43.5147 40.0009L42.8076 40.708L51.2929 49.1933L52 48.4862ZM43.5147 40.0009L44.2218 40.708L52.7071 32.2227L52 31.5156L51.2929 30.8085L42.8076 39.2938L43.5147 40.0009Z" fill="var(--stroke-0, #676767)" mask="url(#path-2-inside-1_0_7)"/>
</g>
</g>
<defs>
<filter id="filter0_d_0_7" x="0" y="0" width="100" height="100" filterUnits="userSpaceOnUse" color-interpolation-filters="sRGB">
<feFlood flood-opacity="0" result="BackgroundImageFix"/>
<feColorMatrix in="SourceAlpha" type="matrix" values="0 0 0 0 0 0 0 0 0 0 0 0 0 0 0 0 0 0 127 0" result="hardAlpha"/>
<feOffset dy="10"/>
<feGaussianBlur stdDeviation="10"/>
<feComposite in2="hardAlpha" operator="out"/>
<feColorMatrix type="matrix" values="0 0 0 0 0 0 0 0 0 0 0 0 0 0 0 0 0 0 0.07 0"/>
<feBlend mode="normal" in2="BackgroundImageFix" result="effect1_dropShadow_0_7"/>
<feBlend mode="normal" in="SourceGraphic" in2="effect1_dropShadow_0_7" result="shape"/>
</filter>
</defs>
</svg>
